<svg  class="svg-icon" width="44" height="45" viewBox="0 0 44 45" fill="none" xmlns="http://www.w3.org/2000/svg">
<path d="M36.5748 22.3826C36.5407 19.6143 35.7136 16.9134 34.1908 14.5979C32.668 12.2825 30.5132 10.4489 27.98 9.3131C25.4466 8.17734 22.6405 7.78671 19.8919 8.1872C17.1434 8.5877 14.5669 9.76263 12.4659 11.5737C10.3649 13.3847 8.82692 15.7564 8.03301 18.4094C7.23912 21.0624 7.2224 23.8863 7.98484 26.5485C8.74728 29.2107 10.2571 31.6002 12.3365 33.4358C14.4159 35.2715 16.9783 36.4767 19.722 36.9094V26.6135H16.0781V22.3826H19.722V19.1685C19.6376 18.4212 19.7189 17.6645 19.9601 16.9519C20.2013 16.2393 20.5965 15.5881 21.1177 15.0444C21.639 14.5006 22.2736 14.0775 22.9768 13.8049C23.6801 13.5323 24.4349 13.4169 25.1877 13.4668C26.2805 13.4817 27.3708 13.5788 28.449 13.7573V17.389H26.6271C26.313 17.3495 25.9938 17.3809 25.6935 17.4808C25.3931 17.5808 25.119 17.7467 24.8917 17.9663C24.6643 18.186 24.4894 18.4537 24.3799 18.7498C24.2702 19.0459 24.2289 19.3628 24.2586 19.677V22.4189H28.3032L27.6473 26.6498H24.2768V36.8186C27.72 36.2758 30.8541 34.521 33.1104 31.8724C35.3667 29.2238 36.5957 25.857 36.5748 22.3826Z" fill="#E7232D"/>
</svg>


