<svg width="340" height="229" viewBox="0 0 340 229" fill="none" xmlns="http://www.w3.org/2000/svg">
<rect width="340" height="229" fill="#F9CCCF"/>
<path d="M35.07 33.2V53H31.56V36.47L26.76 53H24.42L19.62 36.41V53H16.8V33.2H22.08L26.07 47.45L30.03 33.2H35.07ZM48.4955 48.77C48.9555 48.99 49.1855 49.42 49.1855 50.06C49.1855 50.78 48.9455 51.42 48.4655 51.98C47.9855 52.52 47.3655 52.93 46.6055 53.21C45.8455 53.51 45.0755 53.66 44.2955 53.66C42.0955 53.66 40.4655 52.95 39.4055 51.53C38.3455 50.09 37.8155 48.16 37.8155 45.74C37.8155 43.16 38.3855 41.08 39.5255 39.5C40.6855 37.9 42.4355 37.1 44.7755 37.1C46.2555 37.1 47.4455 37.49 48.3455 38.27C49.2455 39.03 49.6955 40.11 49.6955 41.51C49.6955 43.25 49.0855 44.47 47.8655 45.17C46.6655 45.87 45.0255 46.22 42.9455 46.22C42.3655 46.22 41.8155 46.2 41.2955 46.16C41.3555 47.74 41.6155 49 42.0755 49.94C42.5555 50.88 43.3955 51.35 44.5955 51.35C45.4755 51.35 46.2455 51.13 46.9055 50.69C47.5855 50.23 48.1155 49.59 48.4955 48.77ZM44.2955 38.81C43.2155 38.81 42.4555 39.38 42.0155 40.52C41.5755 41.64 41.3355 43.02 41.2955 44.66C41.8955 44.7 42.3355 44.72 42.6155 44.72C45.1355 44.72 46.3955 43.71 46.3955 41.69C46.3955 40.87 46.2155 40.19 45.8555 39.65C45.5155 39.09 44.9955 38.81 44.2955 38.81ZM52.5757 37.7L55.3357 37.34L55.4857 40.04C55.8657 39.08 56.4457 38.35 57.2257 37.85C58.0257 37.35 58.9557 37.1 60.0157 37.1C61.6957 37.1 62.8657 37.57 63.5257 38.51C64.1857 39.43 64.5157 40.84 64.5157 42.74V50.54C64.5157 51.52 64.8257 52.18 65.4457 52.52C65.2857 52.82 65.0257 53.05 64.6657 53.21C64.3057 53.37 63.9257 53.45 63.5257 53.45C62.7457 53.45 62.1657 53.23 61.7857 52.79C61.4057 52.35 61.2157 51.73 61.2157 50.93V43.16C61.2157 41.9 61.0757 40.96 60.7957 40.34C60.5157 39.72 59.8957 39.41 58.9357 39.41C57.7157 39.41 56.8957 39.95 56.4757 41.03C56.0757 42.11 55.8757 43.5 55.8757 45.2V53H52.5757V37.7ZM85.2795 50.54C85.2795 51.52 85.5895 52.18 86.2095 52.52C86.0495 52.82 85.8095 53.05 85.4895 53.21C85.1895 53.37 84.8395 53.45 84.4395 53.45C83.8595 53.45 83.3795 53.29 82.9995 52.97C82.6195 52.63 82.3895 52.18 82.3095 51.62C81.9895 52.28 81.4695 52.78 80.7495 53.12C80.0495 53.48 79.2895 53.66 78.4695 53.66C76.4295 53.66 74.9495 52.88 74.0295 51.32C73.1095 49.76 72.6495 47.76 72.6495 45.32C72.6495 42.8 73.1895 40.8 74.2695 39.32C75.3695 37.84 77.0695 37.1 79.3695 37.1C80.3295 37.1 81.1995 37.23 81.9795 37.49V32L85.2795 31.64V50.54ZM81.9795 39.83C81.0595 39.21 80.1395 38.9 79.2195 38.9C77.9995 38.9 77.1995 39.48 76.8195 40.64C76.4395 41.8 76.2495 43.31 76.2495 45.17C76.2495 46.95 76.4695 48.48 76.9095 49.76C77.3495 51.02 78.1595 51.65 79.3395 51.65C80.2195 51.65 80.8795 51.32 81.3195 50.66C81.7595 49.98 81.9795 49.14 81.9795 48.14V39.83ZM101.37 50.54C101.37 51.52 101.68 52.18 102.3 52.52C102.14 52.82 101.9 53.05 101.58 53.21C101.28 53.37 100.93 53.45 100.53 53.45C99.9498 53.45 99.4698 53.29 99.0898 52.97C98.7098 52.63 98.4798 52.18 98.3998 51.62C98.0798 52.28 97.5598 52.78 96.8398 53.12C96.1398 53.48 95.3798 53.66 94.5598 53.66C93.1198 53.66 92.0198 53.35 91.2598 52.73C90.5198 52.09 90.0298 51.23 89.7898 50.15C89.5498 49.05 89.4298 47.64 89.4298 45.92V37.7H92.7298V45.77C92.7298 46.99 92.7698 48 92.8498 48.8C92.9498 49.58 93.1998 50.25 93.5998 50.81C93.9998 51.37 94.6098 51.65 95.4298 51.65C96.3098 51.65 96.9698 51.32 97.4098 50.66C97.8498 49.98 98.0698 49.14 98.0698 48.14V37.7H101.37V50.54ZM110.821 53V32L114.121 31.64V53H110.821ZM119.551 37.7H123.031L117.841 44.06L123.151 53H119.311L114.541 44.6L119.551 37.7ZM133.128 51.62C132.748 52.32 132.188 52.83 131.448 53.15C130.728 53.49 129.908 53.66 128.988 53.66C127.608 53.66 126.448 53.24 125.508 52.4C124.588 51.56 124.128 50.47 124.128 49.13C124.128 45.89 127.018 44.27 132.798 44.27V41.66C132.798 40.66 132.648 39.92 132.348 39.44C132.048 38.94 131.478 38.69 130.638 38.69C129.938 38.69 129.358 38.88 128.898 39.26C128.438 39.62 128.208 40.13 128.208 40.79C128.208 41.21 128.288 41.66 128.448 42.14C128.168 42.36 127.768 42.47 127.248 42.47C126.528 42.47 125.958 42.29 125.538 41.93C125.118 41.57 124.908 41.05 124.908 40.37C124.908 39.41 125.448 38.63 126.528 38.03C127.608 37.41 129.048 37.1 130.848 37.1C132.168 37.1 133.208 37.3 133.968 37.7C134.728 38.08 135.268 38.68 135.588 39.5C135.928 40.3 136.098 41.38 136.098 42.74V50.54C136.098 51.52 136.408 52.18 137.028 52.52C136.868 52.82 136.628 53.05 136.308 53.21C136.008 53.37 135.658 53.45 135.258 53.45C134.678 53.45 134.198 53.29 133.818 52.97C133.438 52.63 133.208 52.18 133.128 51.62ZM130.158 51.65C131.038 51.65 131.698 51.32 132.138 50.66C132.578 49.98 132.798 49.14 132.798 48.14V45.77C129.418 45.77 127.728 46.85 127.728 49.01C127.728 49.81 127.938 50.45 128.358 50.93C128.798 51.41 129.398 51.65 130.158 51.65ZM139.998 37.7L142.758 37.34L142.908 40.04C143.288 39.08 143.868 38.35 144.648 37.85C145.448 37.35 146.378 37.1 147.438 37.1C149.118 37.1 150.288 37.57 150.948 38.51C151.608 39.43 151.938 40.84 151.938 42.74V50.54C151.938 51.52 152.248 52.18 152.868 52.52C152.708 52.82 152.448 53.05 152.088 53.21C151.728 53.37 151.348 53.45 150.948 53.45C150.168 53.45 149.588 53.23 149.208 52.79C148.828 52.35 148.638 51.73 148.638 50.93V43.16C148.638 41.9 148.498 40.96 148.218 40.34C147.938 39.72 147.318 39.41 146.358 39.41C145.138 39.41 144.318 39.95 143.898 41.03C143.498 42.11 143.298 43.5 143.298 45.2V53H139.998V37.7ZM17.28 89.36V75.05H15.15V73.7H17.28L17.37 72.08C17.55 68.96 19.33 67.4 22.71 67.4C23.97 67.4 25.05 67.6 25.95 68C26.87 68.38 27.33 69.03 27.33 69.95C27.33 70.63 27.12 71.15 26.7 71.51C26.28 71.87 25.71 72.05 24.99 72.05C24.47 72.05 24.07 71.94 23.79 71.72C23.95 71.24 24.03 70.79 24.03 70.37C24.03 69.85 23.9 69.45 23.64 69.17C23.4 68.87 23.03 68.72 22.53 68.72C21.75 68.72 21.22 69.02 20.94 69.62C20.68 70.2 20.55 71.02 20.55 72.08V73.7H23.82V75.05H20.58V89L17.28 89.36ZM31.9343 73.1C34.1743 73.1 35.8343 73.83 36.9143 75.29C37.9943 76.73 38.5343 78.68 38.5343 81.14C38.5343 83.76 38.0143 85.84 36.9743 87.38C35.9343 88.9 34.2543 89.66 31.9343 89.66C29.6543 89.66 27.9843 88.93 26.9243 87.47C25.8843 86.01 25.3643 84 25.3643 81.44C25.3643 78.96 25.9043 76.95 26.9843 75.41C28.0643 73.87 29.7143 73.1 31.9343 73.1ZM31.9343 87.86C33.1743 87.86 33.9843 87.25 34.3643 86.03C34.7443 84.81 34.9343 83.23 34.9343 81.29C34.9343 79.51 34.7243 78 34.3043 76.76C33.9043 75.52 33.1143 74.9 31.9343 74.9C29.9543 74.9 28.9643 77.03 28.9643 81.29C28.9643 83.23 29.1443 84.81 29.5043 86.03C29.8843 87.25 30.6943 87.86 31.9343 87.86ZM46.8122 75.41C45.9522 75.41 45.3922 75.99 45.1322 77.15C44.8922 78.29 44.7722 79.66 44.7722 81.26V89H41.4722V73.7L44.2322 73.34L44.3822 76.04C44.6622 75.14 45.1522 74.43 45.8522 73.91C46.5522 73.37 47.3622 73.1 48.2822 73.1C49.2822 73.1 50.0722 73.39 50.6522 73.97C51.2522 74.55 51.5522 75.34 51.5522 76.34C51.5522 77.96 50.7722 78.77 49.2122 78.77C48.6922 78.77 48.2922 78.66 48.0122 78.44C48.1522 77.92 48.2222 77.47 48.2222 77.09C48.2222 75.97 47.7522 75.41 46.8122 75.41ZM62.9681 84.77C63.4281 84.99 63.6581 85.42 63.6581 86.06C63.6581 86.78 63.4181 87.42 62.9381 87.98C62.4581 88.52 61.8381 88.93 61.0781 89.21C60.3181 89.51 59.5481 89.66 58.7681 89.66C56.5681 89.66 54.9381 88.95 53.8781 87.53C52.8181 86.09 52.2881 84.16 52.2881 81.74C52.2881 79.16 52.8581 77.08 53.9981 75.5C55.1581 73.9 56.9081 73.1 59.2481 73.1C60.7281 73.1 61.9181 73.49 62.8181 74.27C63.7181 75.03 64.1681 76.11 64.1681 77.51C64.1681 79.25 63.5581 80.47 62.3381 81.17C61.1381 81.87 59.4981 82.22 57.4181 82.22C56.8381 82.22 56.2881 82.2 55.7681 82.16C55.8281 83.74 56.0881 85 56.5481 85.94C57.0281 86.88 57.8681 87.35 59.0681 87.35C59.9481 87.35 60.7181 87.13 61.3781 86.69C62.0581 86.23 62.5881 85.59 62.9681 84.77ZM58.7681 74.81C57.6881 74.81 56.9281 75.38 56.4881 76.52C56.0481 77.64 55.8081 79.02 55.7681 80.66C56.3681 80.7 56.8081 80.72 57.0881 80.72C59.6081 80.72 60.8681 79.71 60.8681 77.69C60.8681 76.87 60.6881 76.19 60.3281 75.65C59.9881 75.09 59.4681 74.81 58.7681 74.81ZM70.4684 71.03C70.4684 73.21 70.3684 74.81 70.1684 75.83C70.5484 74.99 71.1184 74.33 71.8784 73.85C72.6384 73.35 73.4784 73.1 74.3984 73.1C76.2984 73.1 77.6784 73.86 78.5384 75.38C79.3984 76.9 79.8284 78.82 79.8284 81.14C79.8284 83.7 79.2784 85.76 78.1784 87.32C77.0784 88.88 75.3884 89.66 73.1084 89.66C72.1284 89.66 71.0884 89.53 69.9884 89.27C68.9084 89.03 67.9684 88.69 67.1684 88.25V68L70.4684 67.64V71.03ZM70.4684 86.96C71.3484 87.56 72.2784 87.86 73.2584 87.86C74.4784 87.86 75.2784 87.24 75.6584 86C76.0384 84.76 76.2284 83.19 76.2284 81.29C76.2284 79.59 76.0384 78.19 75.6584 77.09C75.2984 75.97 74.5484 75.41 73.4084 75.41C72.2484 75.41 71.4684 75.96 71.0684 77.06C70.6684 78.14 70.4684 79.52 70.4684 81.2V86.96ZM93.4908 73.7L86.6808 94.79L83.3808 94.4L86.3508 87.56H84.8508L81.0408 73.7H84.4608L87.3108 85.55L90.3708 73.7H93.4908ZM100.896 93.23C101.816 93.23 102.496 92.91 102.936 92.27C103.376 91.65 103.646 90.9 103.746 90.02C103.846 89.14 103.896 88.03 103.896 86.69V85.88C103.516 86.44 102.996 86.86 102.336 87.14C101.676 87.42 100.976 87.56 100.236 87.56C98.2763 87.56 96.8363 86.9 95.9163 85.58C95.0163 84.26 94.5663 82.49 94.5663 80.27C94.5663 78.01 95.1163 76.25 96.2163 74.99C97.3163 73.73 98.9463 73.1 101.106 73.1C102.106 73.1 103.116 73.29 104.136 73.67L107.076 73.34V85.97C107.076 87.91 106.896 89.53 106.536 90.83C106.196 92.13 105.546 93.15 104.586 93.89C103.646 94.63 102.326 95 100.626 95C99.2063 95 97.9863 94.72 96.9663 94.16C95.9663 93.6 95.4663 92.74 95.4663 91.58C95.4663 90.9 95.6763 90.38 96.0963 90.02C96.5163 89.66 97.0863 89.48 97.8063 89.48C98.3263 89.48 98.7263 89.59 99.0063 89.81C98.8663 90.23 98.7963 90.68 98.7963 91.16C98.7963 92.54 99.4963 93.23 100.896 93.23ZM103.776 75.86C102.836 75.22 101.906 74.9 100.986 74.9C99.8863 74.9 99.1263 75.39 98.7063 76.37C98.3063 77.35 98.1063 78.6 98.1063 80.12C98.1063 81.74 98.3063 83.05 98.7063 84.05C99.1263 85.05 99.9263 85.55 101.106 85.55C102.006 85.55 102.676 85.22 103.116 84.56C103.556 83.9 103.776 83.06 103.776 82.04V75.86ZM116.453 93.23C117.373 93.23 118.053 92.91 118.493 92.27C118.933 91.65 119.203 90.9 119.303 90.02C119.403 89.14 119.453 88.03 119.453 86.69V85.88C119.073 86.44 118.553 86.86 117.893 87.14C117.233 87.42 116.533 87.56 115.793 87.56C113.833 87.56 112.393 86.9 111.473 85.58C110.573 84.26 110.123 82.49 110.123 80.27C110.123 78.01 110.673 76.25 111.773 74.99C112.873 73.73 114.503 73.1 116.663 73.1C117.663 73.1 118.673 73.29 119.693 73.67L122.633 73.34V85.97C122.633 87.91 122.453 89.53 122.093 90.83C121.753 92.13 121.103 93.15 120.143 93.89C119.203 94.63 117.883 95 116.183 95C114.763 95 113.543 94.72 112.523 94.16C111.523 93.6 111.023 92.74 111.023 91.58C111.023 90.9 111.233 90.38 111.653 90.02C112.073 89.66 112.643 89.48 113.363 89.48C113.883 89.48 114.283 89.59 114.563 89.81C114.423 90.23 114.353 90.68 114.353 91.16C114.353 92.54 115.053 93.23 116.453 93.23ZM119.333 75.86C118.393 75.22 117.463 74.9 116.543 74.9C115.443 74.9 114.683 75.39 114.263 76.37C113.863 77.35 113.663 78.6 113.663 80.12C113.663 81.74 113.863 83.05 114.263 84.05C114.683 85.05 115.483 85.55 116.663 85.55C117.563 85.55 118.233 85.22 118.673 84.56C119.113 83.9 119.333 83.06 119.333 82.04V75.86ZM136.24 84.77C136.7 84.99 136.93 85.42 136.93 86.06C136.93 86.78 136.69 87.42 136.21 87.98C135.73 88.52 135.11 88.93 134.35 89.21C133.59 89.51 132.82 89.66 132.04 89.66C129.84 89.66 128.21 88.95 127.15 87.53C126.09 86.09 125.56 84.16 125.56 81.74C125.56 79.16 126.13 77.08 127.27 75.5C128.43 73.9 130.18 73.1 132.52 73.1C134 73.1 135.19 73.49 136.09 74.27C136.99 75.03 137.44 76.11 137.44 77.51C137.44 79.25 136.83 80.47 135.61 81.17C134.41 81.87 132.77 82.22 130.69 82.22C130.11 82.22 129.56 82.2 129.04 82.16C129.1 83.74 129.36 85 129.82 85.94C130.3 86.88 131.14 87.35 132.34 87.35C133.22 87.35 133.99 87.13 134.65 86.69C135.33 86.23 135.86 85.59 136.24 84.77ZM132.04 74.81C130.96 74.81 130.2 75.38 129.76 76.52C129.32 77.64 129.08 79.02 129.04 80.66C129.64 80.7 130.08 80.72 130.36 80.72C132.88 80.72 134.14 79.71 134.14 77.69C134.14 76.87 133.96 76.19 133.6 75.65C133.26 75.09 132.74 74.81 132.04 74.81ZM145.564 73.7L148.324 73.34L148.474 76.04C148.854 75.08 149.434 74.35 150.214 73.85C151.014 73.35 151.944 73.1 153.004 73.1C154.184 73.1 155.104 73.34 155.764 73.82C156.424 74.28 156.894 74.97 157.174 75.89C157.954 74.03 159.374 73.1 161.434 73.1C163.114 73.1 164.284 73.57 164.944 74.51C165.604 75.43 165.934 76.84 165.934 78.74V86.54C165.934 87.52 166.244 88.18 166.864 88.52C166.704 88.82 166.444 89.05 166.084 89.21C165.724 89.37 165.344 89.45 164.944 89.45C164.164 89.45 163.584 89.23 163.204 88.79C162.824 88.35 162.634 87.73 162.634 86.93V79.16C162.634 77.9 162.494 76.96 162.214 76.34C161.934 75.72 161.314 75.41 160.354 75.41C159.214 75.41 158.454 75.95 158.074 77.03C157.694 78.11 157.504 79.5 157.504 81.2V89H154.204V79.16C154.204 77.9 154.064 76.96 153.784 76.34C153.504 75.72 152.884 75.41 151.924 75.41C150.704 75.41 149.884 75.95 149.464 77.03C149.064 78.11 148.864 79.5 148.864 81.2V89H145.564V73.7ZM179.482 84.77C179.942 84.99 180.172 85.42 180.172 86.06C180.172 86.78 179.932 87.42 179.452 87.98C178.972 88.52 178.352 88.93 177.592 89.21C176.832 89.51 176.062 89.66 175.282 89.66C173.082 89.66 171.452 88.95 170.392 87.53C169.332 86.09 168.802 84.16 168.802 81.74C168.802 79.16 169.372 77.08 170.512 75.5C171.672 73.9 173.422 73.1 175.762 73.1C177.242 73.1 178.432 73.49 179.332 74.27C180.232 75.03 180.682 76.11 180.682 77.51C180.682 79.25 180.072 80.47 178.852 81.17C177.652 81.87 176.012 82.22 173.932 82.22C173.352 82.22 172.802 82.2 172.282 82.16C172.342 83.74 172.602 85 173.062 85.94C173.542 86.88 174.382 87.35 175.582 87.35C176.462 87.35 177.232 87.13 177.892 86.69C178.572 86.23 179.102 85.59 179.482 84.77ZM175.282 74.81C174.202 74.81 173.442 75.38 173.002 76.52C172.562 77.64 172.322 79.02 172.282 80.66C172.882 80.7 173.322 80.72 173.602 80.72C176.122 80.72 177.382 79.71 177.382 77.69C177.382 76.87 177.202 76.19 176.842 75.65C176.502 75.09 175.982 74.81 175.282 74.81ZM195.172 86.54C195.172 87.52 195.482 88.18 196.102 88.52C195.942 88.82 195.702 89.05 195.382 89.21C195.082 89.37 194.732 89.45 194.332 89.45C193.752 89.45 193.272 89.29 192.892 88.97C192.512 88.63 192.282 88.18 192.202 87.62C191.882 88.28 191.362 88.78 190.642 89.12C189.942 89.48 189.182 89.66 188.362 89.66C186.322 89.66 184.842 88.88 183.922 87.32C183.002 85.76 182.542 83.76 182.542 81.32C182.542 78.8 183.082 76.8 184.162 75.32C185.262 73.84 186.962 73.1 189.262 73.1C190.222 73.1 191.092 73.23 191.872 73.49V68L195.172 67.64V86.54ZM191.872 75.83C190.952 75.21 190.032 74.9 189.112 74.9C187.892 74.9 187.092 75.48 186.712 76.64C186.332 77.8 186.142 79.31 186.142 81.17C186.142 82.95 186.362 84.48 186.802 85.76C187.242 87.02 188.052 87.65 189.232 87.65C190.112 87.65 190.772 87.32 191.212 86.66C191.652 85.98 191.872 85.14 191.872 84.14V75.83ZM214.286 84.77C214.746 84.99 214.976 85.42 214.976 86.06C214.976 86.78 214.736 87.42 214.256 87.98C213.776 88.52 213.156 88.93 212.396 89.21C211.636 89.51 210.866 89.66 210.086 89.66C207.886 89.66 206.256 88.95 205.196 87.53C204.136 86.09 203.606 84.16 203.606 81.74C203.606 79.16 204.176 77.08 205.316 75.5C206.476 73.9 208.226 73.1 210.566 73.1C212.046 73.1 213.236 73.49 214.136 74.27C215.036 75.03 215.486 76.11 215.486 77.51C215.486 79.25 214.876 80.47 213.656 81.17C212.456 81.87 210.816 82.22 208.736 82.22C208.156 82.22 207.606 82.2 207.086 82.16C207.146 83.74 207.406 85 207.866 85.94C208.346 86.88 209.186 87.35 210.386 87.35C211.266 87.35 212.036 87.13 212.696 86.69C213.376 86.23 213.906 85.59 214.286 84.77ZM210.086 74.81C209.006 74.81 208.246 75.38 207.806 76.52C207.366 77.64 207.126 79.02 207.086 80.66C207.686 80.7 208.126 80.72 208.406 80.72C210.926 80.72 212.186 79.71 212.186 77.69C212.186 76.87 212.006 76.19 211.646 75.65C211.306 75.09 210.786 74.81 210.086 74.81ZM218.367 73.7L221.127 73.34L221.277 76.04C221.657 75.08 222.237 74.35 223.017 73.85C223.817 73.35 224.747 73.1 225.807 73.1C227.487 73.1 228.657 73.57 229.317 74.51C229.977 75.43 230.307 76.84 230.307 78.74V86.54C230.307 87.52 230.617 88.18 231.237 88.52C231.077 88.82 230.817 89.05 230.457 89.21C230.097 89.37 229.717 89.45 229.317 89.45C228.537 89.45 227.957 89.23 227.577 88.79C227.197 88.35 227.007 87.73 227.007 86.93V79.16C227.007 77.9 226.867 76.96 226.587 76.34C226.307 75.72 225.687 75.41 224.727 75.41C223.507 75.41 222.687 75.95 222.267 77.03C221.867 78.11 221.667 79.5 221.667 81.2V89H218.367V73.7ZM24.51 109.1C26.39 109.1 27.73 109.86 28.53 111.38C29.33 112.88 29.73 114.8 29.73 117.14C29.73 119.7 29.18 121.76 28.08 123.32C26.98 124.88 25.29 125.66 23.01 125.66C22.05 125.66 21.18 125.53 20.4 125.27V130.43L17.1 130.79V109.7L19.86 109.34L20.01 112.04C20.85 110.08 22.35 109.1 24.51 109.1ZM23.34 111.41C22.3 111.41 21.55 111.83 21.09 112.67C20.63 113.49 20.4 114.53 20.4 115.79V122.93C21.32 123.55 22.24 123.86 23.16 123.86C24.38 123.86 25.18 123.24 25.56 122C25.94 120.76 26.13 119.19 26.13 117.29C26.13 115.51 25.96 114.09 25.62 113.03C25.28 111.95 24.52 111.41 23.34 111.41ZM38.0231 111.41C37.1631 111.41 36.6031 111.99 36.3431 113.15C36.1031 114.29 35.9831 115.66 35.9831 117.26V125H32.6831V109.7L35.4431 109.34L35.5931 112.04C35.8731 111.14 36.3631 110.43 37.0631 109.91C37.7631 109.37 38.5731 109.1 39.4931 109.1C40.4931 109.1 41.2831 109.39 41.8631 109.97C42.4631 110.55 42.7631 111.34 42.7631 112.34C42.7631 113.96 41.9831 114.77 40.4231 114.77C39.9031 114.77 39.5031 114.66 39.2231 114.44C39.3631 113.92 39.4331 113.47 39.4331 113.09C39.4331 111.97 38.9631 111.41 38.0231 111.41ZM50.0691 109.1C52.3091 109.1 53.9691 109.83 55.0491 111.29C56.1291 112.73 56.6691 114.68 56.6691 117.14C56.6691 119.76 56.1491 121.84 55.1091 123.38C54.0691 124.9 52.3891 125.66 50.0691 125.66C47.7891 125.66 46.1191 124.93 45.0591 123.47C44.0191 122.01 43.4991 120 43.4991 117.44C43.4991 114.96 44.0391 112.95 45.1191 111.41C46.1991 109.87 47.8491 109.1 50.0691 109.1ZM50.0691 123.86C51.3091 123.86 52.1191 123.25 52.4991 122.03C52.8791 120.81 53.0691 119.23 53.0691 117.29C53.0691 115.51 52.8591 114 52.4391 112.76C52.0391 111.52 51.2491 110.9 50.0691 110.9C48.0891 110.9 47.0991 113.03 47.0991 117.29C47.0991 119.23 47.2791 120.81 47.6391 122.03C48.0191 123.25 48.8291 123.86 50.0691 123.86ZM63.027 107.03C63.027 109.21 62.927 110.81 62.727 111.83C63.107 110.99 63.677 110.33 64.437 109.85C65.197 109.35 66.037 109.1 66.957 109.1C68.857 109.1 70.237 109.86 71.097 111.38C71.957 112.9 72.387 114.82 72.387 117.14C72.387 119.7 71.837 121.76 70.737 123.32C69.637 124.88 67.947 125.66 65.667 125.66C64.687 125.66 63.647 125.53 62.547 125.27C61.467 125.03 60.527 124.69 59.727 124.25V104L63.027 103.64V107.03ZM63.027 122.96C63.907 123.56 64.837 123.86 65.817 123.86C67.037 123.86 67.837 123.24 68.217 122C68.597 120.76 68.787 119.19 68.787 117.29C68.787 115.59 68.597 114.19 68.217 113.09C67.857 111.97 67.107 111.41 65.967 111.41C64.807 111.41 64.027 111.96 63.627 113.06C63.227 114.14 63.027 115.52 63.027 117.2V122.96ZM77.0194 103.4C77.6794 103.4 78.2094 103.56 78.6094 103.88C79.0294 104.2 79.2394 104.66 79.2394 105.26C79.2394 105.88 79.0194 106.36 78.5794 106.7C78.1594 107.02 77.6094 107.18 76.9294 107.18C76.2694 107.18 75.7394 107.02 75.3394 106.7C74.9394 106.38 74.7394 105.92 74.7394 105.32C74.7394 104.7 74.9494 104.23 75.3694 103.91C75.8094 103.57 76.3594 103.4 77.0194 103.4ZM78.5794 122.54C78.5794 123.52 78.8894 124.18 79.5094 124.52C79.3494 124.82 79.0894 125.05 78.7294 125.21C78.3694 125.37 77.9794 125.45 77.5594 125.45C76.7994 125.45 76.2294 125.23 75.8494 124.79C75.4694 124.35 75.2794 123.73 75.2794 122.93V109.7H78.5794V122.54ZM88.2136 109.1C90.4536 109.1 92.1136 109.83 93.1936 111.29C94.2736 112.73 94.8136 114.68 94.8136 117.14C94.8136 119.76 94.2936 121.84 93.2536 123.38C92.2136 124.9 90.5336 125.66 88.2136 125.66C85.9336 125.66 84.2636 124.93 83.2036 123.47C82.1636 122.01 81.6436 120 81.6436 117.44C81.6436 114.96 82.1836 112.95 83.2636 111.41C84.3436 109.87 85.9936 109.1 88.2136 109.1ZM88.2136 123.86C89.4536 123.86 90.2636 123.25 90.6436 122.03C91.0236 120.81 91.2136 119.23 91.2136 117.29C91.2136 115.51 91.0036 114 90.5836 112.76C90.1836 111.52 89.3936 110.9 88.2136 110.9C86.2336 110.9 85.2436 113.03 85.2436 117.29C85.2436 119.23 85.4236 120.81 85.7836 122.03C86.1636 123.25 86.9736 123.86 88.2136 123.86ZM95.9215 111.05L95.8915 110.15C96.7915 109.79 97.6415 109.31 98.4415 108.71C99.2615 108.11 99.9515 107.45 100.511 106.73H101.441V109.7H104.201V111.05H101.381V121.97C101.381 122.57 101.491 123.02 101.711 123.32C101.931 123.62 102.281 123.81 102.761 123.89C102.661 124.35 102.391 124.72 101.951 125C101.531 125.3 101.041 125.45 100.481 125.45C98.8615 125.45 98.0515 124.53 98.0515 122.69V111.05H95.9215ZM107.986 103.4C108.646 103.4 109.176 103.56 109.576 103.88C109.996 104.2 110.206 104.66 110.206 105.26C110.206 105.88 109.986 106.36 109.546 106.7C109.126 107.02 108.576 107.18 107.896 107.18C107.236 107.18 106.706 107.02 106.306 106.7C105.906 106.38 105.706 105.92 105.706 105.32C105.706 104.7 105.916 104.23 106.336 103.91C106.776 103.57 107.326 103.4 107.986 103.4ZM109.546 122.54C109.546 123.52 109.856 124.18 110.476 124.52C110.316 124.82 110.056 125.05 109.696 125.21C109.336 125.37 108.946 125.45 108.526 125.45C107.766 125.45 107.196 125.23 106.816 124.79C106.436 124.35 106.246 123.73 106.246 122.93V109.7H109.546V122.54ZM113.75 125V104L117.05 103.64V125H113.75ZM122.48 109.7H125.96L120.77 116.06L126.08 125H122.24L117.47 116.6L122.48 109.7ZM136.057 123.62C135.677 124.32 135.117 124.83 134.377 125.15C133.657 125.49 132.837 125.66 131.917 125.66C130.537 125.66 129.377 125.24 128.437 124.4C127.517 123.56 127.057 122.47 127.057 121.13C127.057 117.89 129.947 116.27 135.727 116.27V113.66C135.727 112.66 135.577 111.92 135.277 111.44C134.977 110.94 134.407 110.69 133.567 110.69C132.867 110.69 132.287 110.88 131.827 111.26C131.367 111.62 131.137 112.13 131.137 112.79C131.137 113.21 131.217 113.66 131.377 114.14C131.097 114.36 130.697 114.47 130.177 114.47C129.457 114.47 128.887 114.29 128.467 113.93C128.047 113.57 127.837 113.05 127.837 112.37C127.837 111.41 128.377 110.63 129.457 110.03C130.537 109.41 131.977 109.1 133.777 109.1C135.097 109.1 136.137 109.3 136.897 109.7C137.657 110.08 138.197 110.68 138.517 111.5C138.857 112.3 139.027 113.38 139.027 114.74V122.54C139.027 123.52 139.337 124.18 139.957 124.52C139.797 124.82 139.557 125.05 139.237 125.21C138.937 125.37 138.587 125.45 138.187 125.45C137.607 125.45 137.127 125.29 136.747 124.97C136.367 124.63 136.137 124.18 136.057 123.62ZM133.087 123.65C133.967 123.65 134.627 123.32 135.067 122.66C135.507 121.98 135.727 121.14 135.727 120.14V117.77C132.347 117.77 130.657 118.85 130.657 121.01C130.657 121.81 130.867 122.45 131.287 122.93C131.727 123.41 132.327 123.65 133.087 123.65ZM144.367 122.06C145.147 122.06 145.737 122.29 146.137 122.75C146.537 123.19 146.737 123.82 146.737 124.64C146.737 125.28 146.587 125.91 146.287 126.53C145.987 127.15 145.577 127.65 145.057 128.03C144.537 128.43 143.967 128.63 143.347 128.63C142.927 128.63 142.547 128.56 142.207 128.42C142.947 127.32 143.317 126.1 143.317 124.76C143.317 124.32 143.267 123.93 143.167 123.59C143.067 123.23 142.907 122.85 142.687 122.45C143.147 122.19 143.707 122.06 144.367 122.06ZM160.092 110.69C159.492 110.69 159.012 110.85 158.652 111.17C158.292 111.47 158.112 111.91 158.112 112.49C158.112 113.27 158.372 113.91 158.892 114.41C159.432 114.89 160.252 115.43 161.352 116.03C162.232 116.51 162.932 116.94 163.452 117.32C163.992 117.7 164.452 118.19 164.832 118.79C165.212 119.37 165.402 120.08 165.402 120.92C165.402 122.44 164.852 123.61 163.752 124.43C162.672 125.25 161.292 125.66 159.612 125.66C158.152 125.66 156.922 125.41 155.922 124.91C154.942 124.41 154.452 123.58 154.452 122.42C154.452 121.74 154.662 121.22 155.082 120.86C155.502 120.5 156.072 120.32 156.792 120.32C157.312 120.32 157.712 120.43 157.992 120.65C157.832 121.13 157.752 121.58 157.752 122C157.752 122.64 157.952 123.15 158.352 123.53C158.752 123.89 159.292 124.07 159.972 124.07C160.712 124.07 161.272 123.88 161.652 123.5C162.052 123.1 162.252 122.52 162.252 121.76C162.252 120.98 161.982 120.35 161.442 119.87C160.922 119.37 160.112 118.82 159.012 118.22C158.132 117.72 157.422 117.28 156.882 116.9C156.362 116.52 155.912 116.04 155.532 115.46C155.152 114.86 154.962 114.14 154.962 113.3C154.962 111.96 155.502 110.93 156.582 110.21C157.662 109.47 158.972 109.1 160.512 109.1C161.932 109.1 163.092 109.36 163.992 109.88C164.912 110.38 165.372 111.21 165.372 112.37C165.372 113.05 165.152 113.57 164.712 113.93C164.292 114.29 163.722 114.47 163.002 114.47C162.482 114.47 162.082 114.36 161.802 114.14C161.962 113.66 162.042 113.21 162.042 112.79C162.042 112.13 161.872 111.62 161.532 111.26C161.212 110.88 160.732 110.69 160.092 110.69ZM174.112 109.1C176.352 109.1 178.012 109.83 179.092 111.29C180.172 112.73 180.712 114.68 180.712 117.14C180.712 119.76 180.192 121.84 179.152 123.38C178.112 124.9 176.432 125.66 174.112 125.66C171.832 125.66 170.162 124.93 169.102 123.47C168.062 122.01 167.542 120 167.542 117.44C167.542 114.96 168.082 112.95 169.162 111.41C170.242 109.87 171.892 109.1 174.112 109.1ZM174.112 123.86C175.352 123.86 176.162 123.25 176.542 122.03C176.922 120.81 177.112 119.23 177.112 117.29C177.112 115.51 176.902 114 176.482 112.76C176.082 111.52 175.292 110.9 174.112 110.9C172.132 110.9 171.142 113.03 171.142 117.29C171.142 119.23 171.322 120.81 171.682 122.03C172.062 123.25 172.872 123.86 174.112 123.86ZM183.65 109.7L186.41 109.34L186.56 112.04C186.94 111.08 187.52 110.35 188.3 109.85C189.1 109.35 190.03 109.1 191.09 109.1C192.27 109.1 193.19 109.34 193.85 109.82C194.51 110.28 194.98 110.97 195.26 111.89C196.04 110.03 197.46 109.1 199.52 109.1C201.2 109.1 202.37 109.57 203.03 110.51C203.69 111.43 204.02 112.84 204.02 114.74V122.54C204.02 123.52 204.33 124.18 204.95 124.52C204.79 124.82 204.53 125.05 204.17 125.21C203.81 125.37 203.43 125.45 203.03 125.45C202.25 125.45 201.67 125.23 201.29 124.79C200.91 124.35 200.72 123.73 200.72 122.93V115.16C200.72 113.9 200.58 112.96 200.3 112.34C200.02 111.72 199.4 111.41 198.44 111.41C197.3 111.41 196.54 111.95 196.16 113.03C195.78 114.11 195.59 115.5 195.59 117.2V125H192.29V115.16C192.29 113.9 192.15 112.96 191.87 112.34C191.59 111.72 190.97 111.41 190.01 111.41C188.79 111.41 187.97 111.95 187.55 113.03C187.15 114.11 186.95 115.5 186.95 117.2V125H183.65V109.7ZM17.28 161.36V147.05H15.15V145.7H17.28L17.37 144.08C17.55 140.96 19.33 139.4 22.71 139.4C23.97 139.4 25.05 139.6 25.95 140C26.87 140.38 27.33 141.03 27.33 141.95C27.33 142.63 27.12 143.15 26.7 143.51C26.28 143.87 25.71 144.05 24.99 144.05C24.47 144.05 24.07 143.94 23.79 143.72C23.95 143.24 24.03 142.79 24.03 142.37C24.03 141.85 23.9 141.45 23.64 141.17C23.4 140.87 23.03 140.72 22.53 140.72C21.75 140.72 21.22 141.02 20.94 141.62C20.68 142.2 20.55 143.02 20.55 144.08V145.7H23.82V147.05H20.58V161L17.28 161.36ZM31.7243 147.41C30.8643 147.41 30.3043 147.99 30.0443 149.15C29.8043 150.29 29.6843 151.66 29.6843 153.26V161H26.3843V145.7L29.1443 145.34L29.2943 148.04C29.5743 147.14 30.0643 146.43 30.7643 145.91C31.4643 145.37 32.2743 145.1 33.1943 145.1C34.1943 145.1 34.9843 145.39 35.5643 145.97C36.1643 146.55 36.4643 147.34 36.4643 148.34C36.4643 149.96 35.6843 150.77 34.1243 150.77C33.6043 150.77 33.2043 150.66 32.9243 150.44C33.0643 149.92 33.1343 149.47 33.1343 149.09C33.1343 147.97 32.6643 147.41 31.7243 147.41ZM47.8802 156.77C48.3402 156.99 48.5702 157.42 48.5702 158.06C48.5702 158.78 48.3302 159.42 47.8502 159.98C47.3702 160.52 46.7502 160.93 45.9902 161.21C45.2302 161.51 44.4602 161.66 43.6802 161.66C41.4802 161.66 39.8502 160.95 38.7902 159.53C37.7302 158.09 37.2002 156.16 37.2002 153.74C37.2002 151.16 37.7702 149.08 38.9102 147.5C40.0702 145.9 41.8202 145.1 44.1602 145.1C45.6402 145.1 46.8302 145.49 47.7302 146.27C48.6302 147.03 49.0802 148.11 49.0802 149.51C49.0802 151.25 48.4702 152.47 47.2502 153.17C46.0502 153.87 44.4102 154.22 42.3302 154.22C41.7502 154.22 41.2002 154.2 40.6802 154.16C40.7402 155.74 41.0002 157 41.4602 157.94C41.9402 158.88 42.7802 159.35 43.9802 159.35C44.8602 159.35 45.6302 159.13 46.2902 158.69C46.9702 158.23 47.5002 157.59 47.8802 156.77ZM43.6802 146.81C42.6002 146.81 41.8402 147.38 41.4002 148.52C40.9602 149.64 40.7202 151.02 40.6802 152.66C41.2802 152.7 41.7202 152.72 42.0002 152.72C44.5202 152.72 45.7802 151.71 45.7802 149.69C45.7802 148.87 45.6002 148.19 45.2402 147.65C44.9002 147.09 44.3802 146.81 43.6802 146.81ZM51.9605 145.7L54.7205 145.34L54.8705 148.04C55.2505 147.08 55.8305 146.35 56.6105 145.85C57.4105 145.35 58.3405 145.1 59.4005 145.1C60.5805 145.1 61.5005 145.34 62.1605 145.82C62.8205 146.28 63.2905 146.97 63.5705 147.89C64.3505 146.03 65.7705 145.1 67.8305 145.1C69.5105 145.1 70.6805 145.57 71.3405 146.51C72.0005 147.43 72.3305 148.84 72.3305 150.74V158.54C72.3305 159.52 72.6405 160.18 73.2605 160.52C73.1005 160.82 72.8405 161.05 72.4805 161.21C72.1205 161.37 71.7405 161.45 71.3405 161.45C70.5605 161.45 69.9805 161.23 69.6005 160.79C69.2205 160.35 69.0305 159.73 69.0305 158.93V151.16C69.0305 149.9 68.8905 148.96 68.6105 148.34C68.3305 147.72 67.7105 147.41 66.7505 147.41C65.6105 147.41 64.8505 147.95 64.4705 149.03C64.0905 150.11 63.9005 151.5 63.9005 153.2V161H60.6005V151.16C60.6005 149.9 60.4605 148.96 60.1805 148.34C59.9005 147.72 59.2805 147.41 58.3205 147.41C57.1005 147.41 56.2805 147.95 55.8605 149.03C55.4605 150.11 55.2605 151.5 55.2605 153.2V161H51.9605V145.7ZM76.2183 145.7L78.9783 145.34L79.1283 148.04C79.5083 147.08 80.0883 146.35 80.8683 145.85C81.6683 145.35 82.5983 145.1 83.6583 145.1C84.8383 145.1 85.7583 145.34 86.4183 145.82C87.0783 146.28 87.5483 146.97 87.8283 147.89C88.6083 146.03 90.0283 145.1 92.0883 145.1C93.7683 145.1 94.9383 145.57 95.5983 146.51C96.2583 147.43 96.5883 148.84 96.5883 150.74V158.54C96.5883 159.52 96.8983 160.18 97.5183 160.52C97.3583 160.82 97.0983 161.05 96.7383 161.21C96.3783 161.37 95.9983 161.45 95.5983 161.45C94.8183 161.45 94.2383 161.23 93.8583 160.79C93.4783 160.35 93.2883 159.73 93.2883 158.93V151.16C93.2883 149.9 93.1483 148.96 92.8683 148.34C92.5883 147.72 91.9683 147.41 91.0083 147.41C89.8683 147.41 89.1083 147.95 88.7283 149.03C88.3483 150.11 88.1583 151.5 88.1583 153.2V161H84.8583V151.16C84.8583 149.9 84.7183 148.96 84.4383 148.34C84.1583 147.72 83.5383 147.41 82.5783 147.41C81.3583 147.41 80.5383 147.95 80.1183 149.03C79.7183 150.11 79.5183 151.5 79.5183 153.2V161H76.2183V145.7ZM110.136 156.77C110.596 156.99 110.826 157.42 110.826 158.06C110.826 158.78 110.586 159.42 110.106 159.98C109.626 160.52 109.006 160.93 108.246 161.21C107.486 161.51 106.716 161.66 105.936 161.66C103.736 161.66 102.106 160.95 101.046 159.53C99.9861 158.09 99.4561 156.16 99.4561 153.74C99.4561 151.16 100.026 149.08 101.166 147.5C102.326 145.9 104.076 145.1 106.416 145.1C107.896 145.1 109.086 145.49 109.986 146.27C110.886 147.03 111.336 148.11 111.336 149.51C111.336 151.25 110.726 152.47 109.506 153.17C108.306 153.87 106.666 154.22 104.586 154.22C104.006 154.22 103.456 154.2 102.936 154.16C102.996 155.74 103.256 157 103.716 157.94C104.196 158.88 105.036 159.35 106.236 159.35C107.116 159.35 107.886 159.13 108.546 158.69C109.226 158.23 109.756 157.59 110.136 156.77ZM105.936 146.81C104.856 146.81 104.096 147.38 103.656 148.52C103.216 149.64 102.976 151.02 102.936 152.66C103.536 152.7 103.976 152.72 104.256 152.72C106.776 152.72 108.036 151.71 108.036 149.69C108.036 148.87 107.856 148.19 107.496 147.65C107.156 147.09 106.636 146.81 105.936 146.81ZM119.556 147.41C118.696 147.41 118.136 147.99 117.876 149.15C117.636 150.29 117.516 151.66 117.516 153.26V161H114.216V145.7L116.976 145.34L117.126 148.04C117.406 147.14 117.896 146.43 118.596 145.91C119.296 145.37 120.106 145.1 121.026 145.1C122.026 145.1 122.816 145.39 123.396 145.97C123.996 146.55 124.296 147.34 124.296 148.34C124.296 149.96 123.516 150.77 121.956 150.77C121.436 150.77 121.036 150.66 120.756 150.44C120.896 149.92 120.966 149.47 120.966 149.09C120.966 147.97 120.496 147.41 119.556 147.41ZM136.156 146.69C135.556 146.69 135.076 146.85 134.716 147.17C134.356 147.47 134.176 147.91 134.176 148.49C134.176 149.27 134.436 149.91 134.956 150.41C135.496 150.89 136.316 151.43 137.416 152.03C138.296 152.51 138.996 152.94 139.516 153.32C140.056 153.7 140.516 154.19 140.896 154.79C141.276 155.37 141.466 156.08 141.466 156.92C141.466 158.44 140.916 159.61 139.816 160.43C138.736 161.25 137.356 161.66 135.676 161.66C134.216 161.66 132.986 161.41 131.986 160.91C131.006 160.41 130.516 159.58 130.516 158.42C130.516 157.74 130.726 157.22 131.146 156.86C131.566 156.5 132.136 156.32 132.856 156.32C133.376 156.32 133.776 156.43 134.056 156.65C133.896 157.13 133.816 157.58 133.816 158C133.816 158.64 134.016 159.15 134.416 159.53C134.816 159.89 135.356 160.07 136.036 160.07C136.776 160.07 137.336 159.88 137.716 159.5C138.116 159.1 138.316 158.52 138.316 157.76C138.316 156.98 138.046 156.35 137.506 155.87C136.986 155.37 136.176 154.82 135.076 154.22C134.196 153.72 133.486 153.28 132.946 152.9C132.426 152.52 131.976 152.04 131.596 151.46C131.216 150.86 131.026 150.14 131.026 149.3C131.026 147.96 131.566 146.93 132.646 146.21C133.726 145.47 135.036 145.1 136.576 145.1C137.996 145.1 139.156 145.36 140.056 145.88C140.976 146.38 141.436 147.21 141.436 148.37C141.436 149.05 141.216 149.57 140.776 149.93C140.356 150.29 139.786 150.47 139.066 150.47C138.546 150.47 138.146 150.36 137.866 150.14C138.026 149.66 138.106 149.21 138.106 148.79C138.106 148.13 137.936 147.62 137.596 147.26C137.276 146.88 136.796 146.69 136.156 146.69ZM156.506 158.54C156.506 159.52 156.816 160.18 157.436 160.52C157.276 160.82 157.036 161.05 156.716 161.21C156.416 161.37 156.066 161.45 155.666 161.45C155.086 161.45 154.606 161.29 154.226 160.97C153.846 160.63 153.616 160.18 153.536 159.62C153.216 160.28 152.696 160.78 151.976 161.12C151.276 161.48 150.516 161.66 149.696 161.66C148.256 161.66 147.156 161.35 146.396 160.73C145.656 160.09 145.166 159.23 144.926 158.15C144.686 157.05 144.566 155.64 144.566 153.92V145.7H147.866V153.77C147.866 154.99 147.906 156 147.986 156.8C148.086 157.58 148.336 158.25 148.736 158.81C149.136 159.37 149.746 159.65 150.566 159.65C151.446 159.65 152.106 159.32 152.546 158.66C152.986 157.98 153.206 157.14 153.206 156.14V145.7H156.506V158.54ZM160.593 145.7L163.353 145.34L163.503 148.04C163.883 147.08 164.463 146.35 165.243 145.85C166.043 145.35 166.973 145.1 168.033 145.1C169.713 145.1 170.883 145.57 171.543 146.51C172.203 147.43 172.533 148.84 172.533 150.74V158.54C172.533 159.52 172.843 160.18 173.463 160.52C173.303 160.82 173.043 161.05 172.683 161.21C172.323 161.37 171.943 161.45 171.543 161.45C170.763 161.45 170.183 161.23 169.803 160.79C169.423 160.35 169.233 159.73 169.233 158.93V151.16C169.233 149.9 169.093 148.96 168.813 148.34C168.533 147.72 167.913 147.41 166.953 147.41C165.733 147.41 164.913 147.95 164.493 149.03C164.093 150.11 163.893 151.5 163.893 153.2V161H160.593V145.7ZM188.053 158.54C188.053 159.52 188.363 160.18 188.983 160.52C188.823 160.82 188.583 161.05 188.263 161.21C187.963 161.37 187.613 161.45 187.213 161.45C186.633 161.45 186.153 161.29 185.773 160.97C185.393 160.63 185.163 160.18 185.083 159.62C184.763 160.28 184.243 160.78 183.523 161.12C182.823 161.48 182.063 161.66 181.243 161.66C179.203 161.66 177.723 160.88 176.803 159.32C175.883 157.76 175.423 155.76 175.423 153.32C175.423 150.8 175.963 148.8 177.043 147.32C178.143 145.84 179.843 145.1 182.143 145.1C183.103 145.1 183.973 145.23 184.753 145.49V140L188.053 139.64V158.54ZM184.753 147.83C183.833 147.21 182.913 146.9 181.993 146.9C180.773 146.9 179.973 147.48 179.593 148.64C179.213 149.8 179.023 151.31 179.023 153.17C179.023 154.95 179.243 156.48 179.683 157.76C180.123 159.02 180.933 159.65 182.113 159.65C182.993 159.65 183.653 159.32 184.093 158.66C184.533 157.98 184.753 157.14 184.753 156.14V147.83ZM15.15 183.05L15.12 182.15C16.02 181.79 16.87 181.31 17.67 180.71C18.49 180.11 19.18 179.45 19.74 178.73H20.67V181.7H23.43V183.05H20.61V193.97C20.61 194.57 20.72 195.02 20.94 195.32C21.16 195.62 21.51 195.81 21.99 195.89C21.89 196.35 21.62 196.72 21.18 197C20.76 197.3 20.27 197.45 19.71 197.45C18.09 197.45 17.28 196.53 17.28 194.69V183.05H15.15ZM33.6647 195.62C33.2847 196.32 32.7247 196.83 31.9847 197.15C31.2647 197.49 30.4447 197.66 29.5247 197.66C28.1447 197.66 26.9847 197.24 26.0447 196.4C25.1247 195.56 24.6647 194.47 24.6647 193.13C24.6647 189.89 27.5547 188.27 33.3347 188.27V185.66C33.3347 184.66 33.1847 183.92 32.8847 183.44C32.5847 182.94 32.0147 182.69 31.1747 182.69C30.4747 182.69 29.8947 182.88 29.4347 183.26C28.9747 183.62 28.7447 184.13 28.7447 184.79C28.7447 185.21 28.8247 185.66 28.9847 186.14C28.7047 186.36 28.3047 186.47 27.7847 186.47C27.0647 186.47 26.4947 186.29 26.0747 185.93C25.6547 185.57 25.4447 185.05 25.4447 184.37C25.4447 183.41 25.9847 182.63 27.0647 182.03C28.1447 181.41 29.5847 181.1 31.3847 181.1C32.7047 181.1 33.7447 181.3 34.5047 181.7C35.2647 182.08 35.8047 182.68 36.1247 183.5C36.4647 184.3 36.6347 185.38 36.6347 186.74V194.54C36.6347 195.52 36.9447 196.18 37.5647 196.52C37.4047 196.82 37.1647 197.05 36.8447 197.21C36.5447 197.37 36.1947 197.45 35.7947 197.45C35.2147 197.45 34.7347 197.29 34.3547 196.97C33.9747 196.63 33.7447 196.18 33.6647 195.62ZM30.6947 195.65C31.5747 195.65 32.2347 195.32 32.6747 194.66C33.1147 193.98 33.3347 193.14 33.3347 192.14V189.77C29.9547 189.77 28.2647 190.85 28.2647 193.01C28.2647 193.81 28.4747 194.45 28.8947 194.93C29.3347 195.41 29.9347 195.65 30.6947 195.65ZM45.8747 183.41C45.0147 183.41 44.4547 183.99 44.1947 185.15C43.9547 186.29 43.8347 187.66 43.8347 189.26V197H40.5347V181.7L43.2947 181.34L43.4447 184.04C43.7247 183.14 44.2147 182.43 44.9147 181.91C45.6147 181.37 46.4247 181.1 47.3447 181.1C48.3447 181.1 49.1347 181.39 49.7147 181.97C50.3147 182.55 50.6147 183.34 50.6147 184.34C50.6147 185.96 49.8347 186.77 48.2747 186.77C47.7547 186.77 47.3547 186.66 47.0747 186.44C47.2147 185.92 47.2847 185.47 47.2847 185.09C47.2847 183.97 46.8147 183.41 45.8747 183.41ZM52.3706 181.7L55.1306 181.34L55.2806 184.04C55.6606 183.08 56.2406 182.35 57.0206 181.85C57.8206 181.35 58.7506 181.1 59.8106 181.1C60.9906 181.1 61.9106 181.34 62.5706 181.82C63.2306 182.28 63.7006 182.97 63.9806 183.89C64.7606 182.03 66.1806 181.1 68.2406 181.1C69.9206 181.1 71.0906 181.57 71.7506 182.51C72.4106 183.43 72.7406 184.84 72.7406 186.74V194.54C72.7406 195.52 73.0506 196.18 73.6706 196.52C73.5106 196.82 73.2506 197.05 72.8906 197.21C72.5306 197.37 72.1506 197.45 71.7506 197.45C70.9706 197.45 70.3906 197.23 70.0106 196.79C69.6306 196.35 69.4406 195.73 69.4406 194.93V187.16C69.4406 185.9 69.3006 184.96 69.0206 184.34C68.7406 183.72 68.1206 183.41 67.1606 183.41C66.0206 183.41 65.2606 183.95 64.8806 185.03C64.5006 186.11 64.3106 187.5 64.3106 189.2V197H61.0106V187.16C61.0106 185.9 60.8706 184.96 60.5906 184.34C60.3106 183.72 59.6906 183.41 58.7306 183.41C57.5106 183.41 56.6906 183.95 56.2706 185.03C55.8706 186.11 55.6706 187.5 55.6706 189.2V197H52.3706V181.7ZM88.8984 194.54C88.8984 195.52 89.2084 196.18 89.8284 196.52C89.6684 196.82 89.4084 197.05 89.0484 197.21C88.6884 197.37 88.3084 197.45 87.9084 197.45C87.1484 197.45 86.5684 197.23 86.1684 196.79C85.7884 196.35 85.5984 195.73 85.5984 194.93V179.54C85.5984 178.56 85.4284 177.85 85.0884 177.41C84.7684 176.95 84.1584 176.72 83.2584 176.72C82.0384 176.72 81.2184 177.02 80.7984 177.62C80.3984 178.2 80.1984 179.02 80.1984 180.08V181.7H83.4684V183.05H80.2284V197L76.9284 197.36V183.05H74.7984V181.7H76.9284L77.0184 180.08C77.2184 176.96 79.3384 175.4 83.3784 175.4C84.7784 175.4 85.9584 175.55 86.9184 175.85L88.8984 175.64V194.54ZM98.6433 181.1C100.883 181.1 102.543 181.83 103.623 183.29C104.703 184.73 105.243 186.68 105.243 189.14C105.243 191.76 104.723 193.84 103.683 195.38C102.643 196.9 100.963 197.66 98.6433 197.66C96.3633 197.66 94.6933 196.93 93.6333 195.47C92.5933 194.01 92.0733 192 92.0733 189.44C92.0733 186.96 92.6133 184.95 93.6933 183.41C94.7733 181.87 96.4233 181.1 98.6433 181.1ZM98.6433 195.86C99.8833 195.86 100.693 195.25 101.073 194.03C101.453 192.81 101.643 191.23 101.643 189.29C101.643 187.51 101.433 186 101.013 184.76C100.613 183.52 99.8233 182.9 98.6433 182.9C96.6633 182.9 95.6733 185.03 95.6733 189.29C95.6733 191.23 95.8533 192.81 96.2133 194.03C96.5933 195.25 97.4033 195.86 98.6433 195.86ZM113.521 183.41C112.661 183.41 112.101 183.99 111.841 185.15C111.601 186.29 111.481 187.66 111.481 189.26V197H108.181V181.7L110.941 181.34L111.091 184.04C111.371 183.14 111.861 182.43 112.561 181.91C113.261 181.37 114.071 181.1 114.991 181.1C115.991 181.1 116.781 181.39 117.361 181.97C117.961 182.55 118.261 183.34 118.261 184.34C118.261 185.96 117.481 186.77 115.921 186.77C115.401 186.77 115.001 186.66 114.721 186.44C114.861 185.92 114.931 185.47 114.931 185.09C114.931 183.97 114.461 183.41 113.521 183.41ZM128.147 195.62C127.767 196.32 127.207 196.83 126.467 197.15C125.747 197.49 124.927 197.66 124.007 197.66C122.627 197.66 121.467 197.24 120.527 196.4C119.607 195.56 119.147 194.47 119.147 193.13C119.147 189.89 122.037 188.27 127.817 188.27V185.66C127.817 184.66 127.667 183.92 127.367 183.44C127.067 182.94 126.497 182.69 125.657 182.69C124.957 182.69 124.377 182.88 123.917 183.26C123.457 183.62 123.227 184.13 123.227 184.79C123.227 185.21 123.307 185.66 123.467 186.14C123.187 186.36 122.787 186.47 122.267 186.47C121.547 186.47 120.977 186.29 120.557 185.93C120.137 185.57 119.927 185.05 119.927 184.37C119.927 183.41 120.467 182.63 121.547 182.03C122.627 181.41 124.067 181.1 125.867 181.1C127.187 181.1 128.227 181.3 128.987 181.7C129.747 182.08 130.287 182.68 130.607 183.5C130.947 184.3 131.117 185.38 131.117 186.74V194.54C131.117 195.52 131.427 196.18 132.047 196.52C131.887 196.82 131.647 197.05 131.327 197.21C131.027 197.37 130.677 197.45 130.277 197.45C129.697 197.45 129.217 197.29 128.837 196.97C128.457 196.63 128.227 196.18 128.147 195.62ZM125.177 195.65C126.057 195.65 126.717 195.32 127.157 194.66C127.597 193.98 127.817 193.14 127.817 192.14V189.77C124.437 189.77 122.747 190.85 122.747 193.01C122.747 193.81 122.957 194.45 123.377 194.93C123.817 195.41 124.417 195.65 125.177 195.65Z" fill="white"/>
<g clip-path="url(#clip0_504_3994)">
<path d="M290.608 124.652L222.172 165.499C213.24 170.83 210.297 182.35 215.597 191.23L216.709 193.094C222.009 201.974 233.546 204.851 242.478 199.52L310.914 158.673C319.846 153.343 322.789 141.822 317.489 132.943L316.377 131.078C311.077 122.198 299.54 119.321 290.608 124.652Z" fill="#FEF6F6"/>
<path d="M213.648 176.345C215.676 169.496 220.975 166.2 222.172 165.499L260.445 142.655C261.972 143.223 264.024 144.115 266.271 145.505C272.869 149.582 276.184 154.903 276.997 156.264C280.91 162.821 281.298 168.967 281.362 170.788C281.446 173.145 281.227 175.122 280.999 176.528L242.478 199.52C233.548 204.85 222.008 201.972 216.709 193.094L215.597 191.23C214.988 190.221 211.381 184.018 213.648 176.345Z" fill="#F17E84"/>
</g>
<defs>
<clipPath id="clip0_504_3994">
<rect width="117.366" height="39.6204" fill="white" transform="translate(206 175.151) rotate(-30.8313)"/>
</clipPath>
</defs>
</svg>
