<svg width="341" height="229" viewBox="0 0 341 229" fill="none" xmlns="http://www.w3.org/2000/svg">
<rect width="341" height="229" fill="#8A93E5"/>
<path d="M78.6038 168C78.6038 185.455 64.4541 199.604 46.9997 199.604V204.729C67.2848 204.729 83.7288 188.285 83.7288 168H78.6038ZM46.9997 199.604C29.5452 199.604 15.3955 185.455 15.3955 168H10.2705C10.2705 188.285 26.7147 204.729 46.9997 204.729V199.604ZM15.3955 168C15.3955 150.546 29.5452 136.396 46.9997 136.396V131.271C26.7147 131.271 10.2705 147.715 10.2705 168H15.3955ZM58.958 175.688C48.108 175.688 39.3122 166.892 39.3122 156.042H34.1872C34.1872 169.723 45.2773 180.813 58.958 180.813V175.688ZM75.7861 166.186C72.3418 171.886 66.0927 175.688 58.958 175.688V180.813C67.9606 180.813 75.8387 176.008 80.1728 168.836L75.7861 166.186ZM39.3122 156.042C39.3122 148.907 43.1139 142.658 48.8139 139.214L46.1636 134.827C38.9913 139.161 34.1872 147.039 34.1872 156.042H39.3122ZM46.9997 136.396C46.6973 136.396 46.3426 136.26 46.0854 135.992C45.8674 135.765 45.8168 135.55 45.8049 135.463C45.7905 135.357 45.7977 135.048 46.1636 134.827L48.8139 139.214C50.5332 138.175 51.086 136.273 50.8837 134.777C50.674 133.223 49.4481 131.271 46.9997 131.271V136.396ZM80.1728 168.836C79.9514 169.202 79.6428 169.209 79.5366 169.195C79.4498 169.183 79.2349 169.132 79.008 168.914C78.7402 168.657 78.6038 168.303 78.6038 168H83.7288C83.7288 165.552 81.7769 164.326 80.2223 164.116C78.7268 163.914 76.8248 164.467 75.7861 166.186L80.1728 168.836Z" fill="#F7F7FD"/>
<path d="M316.272 37.9053L316.273 37.9055C316.762 38.5895 317.043 39.4216 317.407 40.4981C317.428 40.5595 317.449 40.6217 317.471 40.6847L319.005 45.2111L319.738 40.4881C319.748 40.4223 319.758 40.3574 319.768 40.2933C319.941 39.1703 320.075 38.3021 320.439 37.5441L320.439 37.5438C320.761 36.8737 321.214 36.2761 321.777 35.7959L321.777 35.7956C322.423 35.2447 323.22 34.9326 324.184 34.5553C324.244 34.5321 324.304 34.5086 324.364 34.4847C324.364 34.4847 324.364 34.4847 324.364 34.4847L328.998 32.6659L324.121 31.6719C324.057 31.6589 323.993 31.6461 323.931 31.6334C322.916 31.4277 322.077 31.2576 321.346 30.826L321.346 30.8259C320.709 30.4496 320.16 29.9388 319.727 29.334L320.947 28.4614L319.727 29.334C319.238 28.6501 318.957 27.8178 318.593 26.7415C318.572 26.68 318.551 26.6178 318.529 26.5548C318.529 26.5547 318.529 26.5547 318.529 26.5547L316.995 22.0284L316.262 26.7513C316.262 26.7514 316.262 26.7514 316.262 26.7514C316.252 26.8172 316.242 26.8821 316.232 26.9462C316.059 28.0691 315.925 28.9373 315.561 29.6952L316.272 37.9053ZM316.272 37.9053C315.84 37.3005 315.291 36.7898 314.654 36.4136L313.891 37.705M316.272 37.9053L313.891 37.705M313.891 37.705L314.654 36.4136C313.923 35.9819 313.083 35.8117 312.069 35.6061M313.891 37.705L312.069 35.6061M312.069 35.6061C312.006 35.5934 311.943 35.5806 311.879 35.5676M312.069 35.6061L311.879 35.5676M311.879 35.5676C311.879 35.5675 311.879 35.5675 311.879 35.5675M311.879 35.5676L311.879 35.5675M311.879 35.5675L307.002 34.5736M311.879 35.5675L307.002 34.5736M307.002 34.5736L311.635 32.7547M307.002 34.5736L311.635 32.7547M311.635 32.7547C311.696 32.7309 311.756 32.7074 311.816 32.6841C312.779 32.3069 313.577 31.9948 314.223 31.4438L311.635 32.7547ZM314.223 31.4437C314.785 30.9634 315.238 30.3657 315.56 29.6954L314.223 31.4437Z" stroke="#F7F7FD" stroke-width="3" stroke-linecap="round" stroke-linejoin="round"/>
<path d="M48.6488 104.426L48.6487 104.426C48.3414 105.277 47.7668 105.989 47.0464 106.882C47.0045 106.934 46.9621 106.986 46.9193 107.039L43.1965 111.662L48.8291 109.792C48.894 109.77 48.958 109.749 49.0213 109.728C50.1098 109.365 50.978 109.076 51.8824 109.086L51.8827 109.086C52.6724 109.095 53.4532 109.274 54.1768 109.604L54.1771 109.604C54.9954 109.977 55.7005 110.599 56.6397 111.428C56.6903 111.473 56.7415 111.518 56.7935 111.564C56.7935 111.564 56.7935 111.564 56.7935 111.564L61.1628 115.415L59.0835 109.974C59.0835 109.974 59.0835 109.974 59.0835 109.974C59.0588 109.91 59.0343 109.846 59.0102 109.783C58.5623 108.613 58.226 107.735 58.1631 106.838L58.163 106.838C58.1075 106.044 58.2127 105.25 58.4809 104.507C58.7882 103.656 59.3628 102.944 60.0832 102.051C60.1251 101.999 60.1675 101.947 60.2104 101.894L63.9332 97.2713L58.3005 99.1413C58.2356 99.1629 58.1716 99.1842 58.1082 99.2053C57.0199 99.5677 56.1517 99.8568 55.2473 99.847L48.6488 104.426ZM48.6488 104.426C48.9171 103.683 49.0221 102.889 48.9665 102.095L47.4702 102.2M48.6488 104.426L47.4702 102.2M47.4702 102.2L48.9665 102.095C48.9037 101.198 48.5673 100.32 48.1195 99.1501M47.4702 102.2L48.1195 99.1501M48.1195 99.1501C48.0953 99.0871 48.0709 99.0232 48.0461 98.9585M48.1195 99.1501L48.0461 98.9585M48.0461 98.9585C48.0461 98.9584 48.0461 98.9584 48.0461 98.9584M48.0461 98.9585L48.0461 98.9584M48.0461 98.9584L45.9668 93.5176L50.3361 97.3693C50.3361 97.3693 50.3361 97.3693 50.3361 97.3693C50.3881 97.4152 50.4394 97.4604 50.49 97.5051C51.4291 98.334 52.1343 98.9564 52.9526 99.3292M48.0461 98.9584L55.2472 99.847C54.4574 99.8384 53.6763 99.6589 52.9526 99.3292M52.9526 99.3292C52.9525 99.3291 52.9525 99.3291 52.9524 99.3291L53.5744 97.9641L52.9526 99.3292Z" stroke="#F7F7FD" stroke-width="3" stroke-linecap="round" stroke-linejoin="round"/>
<path d="M35.32 37.6C37.04 37.6 38.42 37.93 39.46 38.59C40.52 39.25 41.05 40.31 41.05 41.77C41.05 42.49 40.84 43.08 40.42 43.54C40 43.98 39.43 44.2 38.71 44.2C38.01 44.2 37.49 44.04 37.15 43.72C37.31 43.28 37.39 42.78 37.39 42.22C37.39 40.46 36.61 39.58 35.05 39.58C34.29 39.58 33.69 39.77 33.25 40.15C32.83 40.51 32.62 41.05 32.62 41.77C32.62 42.43 32.79 43.03 33.13 43.57C33.47 44.11 33.89 44.59 34.39 45.01C34.91 45.43 35.61 45.94 36.49 46.54C37.53 47.24 38.36 47.87 38.98 48.43C39.62 48.97 40.16 49.63 40.6 50.41C41.04 51.17 41.26 52.05 41.26 53.05C41.26 54.83 40.65 56.21 39.43 57.19C38.21 58.17 36.63 58.66 34.69 58.66C32.93 58.66 31.47 58.31 30.31 57.61C29.17 56.89 28.6 55.78 28.6 54.28C28.6 53.56 28.81 52.98 29.23 52.54C29.65 52.08 30.21 51.85 30.91 51.85C31.61 51.85 32.13 52.01 32.47 52.33C32.33 52.73 32.26 53.23 32.26 53.83C32.26 55.73 33.16 56.68 34.96 56.68C35.84 56.68 36.56 56.44 37.12 55.96C37.68 55.46 37.96 54.79 37.96 53.95C37.96 53.29 37.79 52.69 37.45 52.15C37.11 51.61 36.68 51.13 36.16 50.71C35.66 50.29 34.97 49.78 34.09 49.18C33.05 48.48 32.21 47.86 31.57 47.32C30.95 46.76 30.42 46.1 29.98 45.34C29.54 44.56 29.32 43.67 29.32 42.67C29.32 41.07 29.88 39.83 31 38.95C32.14 38.05 33.58 37.6 35.32 37.6ZM57.0004 41.65C57.0004 41.93 56.8504 42.28 56.5504 42.7L55.0504 44.83C55.8704 46.17 56.2804 47.94 56.2804 50.14C56.2804 52.76 55.7604 54.84 54.7204 56.38C53.6804 57.9 52.0004 58.66 49.6804 58.66C48.1404 58.66 46.8804 58.32 45.9004 57.64L44.5204 59.59C44.2004 59.53 43.8404 59.39 43.4404 59.17C43.0604 58.95 42.8704 58.67 42.8704 58.33C42.8704 58.05 43.0204 57.7 43.3204 57.28L44.3104 55.9C43.5104 54.56 43.1104 52.74 43.1104 50.44C43.1104 47.96 43.6504 45.95 44.7304 44.41C45.8104 42.87 47.4604 42.1 49.6804 42.1C51.2004 42.1 52.4504 42.44 53.4304 43.12L55.3804 40.39C55.6804 40.45 56.0204 40.59 56.4004 40.81C56.8004 41.03 57.0004 41.31 57.0004 41.65ZM46.7104 50.29C46.7104 51.23 46.7304 51.95 46.7704 52.45L51.8704 45.31C51.3704 44.37 50.6404 43.9 49.6804 43.9C47.7004 43.9 46.7104 46.03 46.7104 50.29ZM52.6804 50.29C52.6804 49.61 52.6504 48.93 52.5904 48.25L47.4604 55.45C47.9604 56.39 48.7004 56.86 49.6804 56.86C50.9204 56.86 51.7304 56.25 52.1104 55.03C52.4904 53.81 52.6804 52.23 52.6804 50.29ZM69.9283 42.7L65.4583 58H61.3783L57.2383 42.7H60.6583L63.7183 55.99L66.7783 42.7H69.9283ZM71.8745 42.7L74.6345 42.34L74.7845 45.04C75.1645 44.08 75.7445 43.35 76.5245 42.85C77.3245 42.35 78.2545 42.1 79.3145 42.1C80.9945 42.1 82.1645 42.57 82.8245 43.51C83.4845 44.43 83.8145 45.84 83.8145 47.74V55.54C83.8145 56.52 84.1245 57.18 84.7445 57.52C84.5845 57.82 84.3245 58.05 83.9645 58.21C83.6045 58.37 83.2245 58.45 82.8245 58.45C82.0445 58.45 81.4645 58.23 81.0845 57.79C80.7045 57.35 80.5145 56.73 80.5145 55.93V48.16C80.5145 46.9 80.3745 45.96 80.0945 45.34C79.8145 44.72 79.1945 44.41 78.2345 44.41C77.0145 44.41 76.1945 44.95 75.7745 46.03C75.3745 47.11 75.1745 48.5 75.1745 50.2V58H71.8745V42.7ZM91.1441 40.03C91.1441 42.21 91.0441 43.81 90.8441 44.83C91.2241 43.99 91.7941 43.33 92.5541 42.85C93.3141 42.35 94.1541 42.1 95.0741 42.1C96.9741 42.1 98.3541 42.86 99.2141 44.38C100.074 45.9 100.504 47.82 100.504 50.14C100.504 52.7 99.9541 54.76 98.8541 56.32C97.7541 57.88 96.0641 58.66 93.7841 58.66C92.8041 58.66 91.7641 58.53 90.6641 58.27C89.5841 58.03 88.6441 57.69 87.8441 57.25V37L91.1441 36.64V40.03ZM91.1441 55.96C92.0241 56.56 92.9541 56.86 93.9341 56.86C95.1541 56.86 95.9541 56.24 96.3341 55C96.7141 53.76 96.9041 52.19 96.9041 50.29C96.9041 48.59 96.7141 47.19 96.3341 46.09C95.9741 44.97 95.2241 44.41 94.0841 44.41C92.9241 44.41 92.1441 44.96 91.7441 46.06C91.3441 47.14 91.1441 48.52 91.1441 50.2V55.96ZM113.117 53.77C113.577 53.99 113.807 54.42 113.807 55.06C113.807 55.78 113.567 56.42 113.087 56.98C112.607 57.52 111.987 57.93 111.227 58.21C110.467 58.51 109.697 58.66 108.917 58.66C106.717 58.66 105.087 57.95 104.027 56.53C102.967 55.09 102.437 53.16 102.437 50.74C102.437 48.16 103.007 46.08 104.147 44.5C105.307 42.9 107.057 42.1 109.397 42.1C110.877 42.1 112.067 42.49 112.967 43.27C113.867 44.03 114.317 45.11 114.317 46.51C114.317 48.25 113.707 49.47 112.487 50.17C111.287 50.87 109.647 51.22 107.567 51.22C106.987 51.22 106.437 51.2 105.917 51.16C105.977 52.74 106.237 54 106.697 54.94C107.177 55.88 108.017 56.35 109.217 56.35C110.097 56.35 110.867 56.13 111.527 55.69C112.207 55.23 112.737 54.59 113.117 53.77ZM108.917 43.81C107.837 43.81 107.077 44.38 106.637 45.52C106.197 46.64 105.957 48.02 105.917 49.66C106.517 49.7 106.957 49.72 107.237 49.72C109.757 49.72 111.017 48.71 111.017 46.69C111.017 45.87 110.837 45.19 110.477 44.65C110.137 44.09 109.617 43.81 108.917 43.81ZM122.057 43.69C121.457 43.69 120.977 43.85 120.617 44.17C120.257 44.47 120.077 44.91 120.077 45.49C120.077 46.27 120.337 46.91 120.857 47.41C121.397 47.89 122.217 48.43 123.317 49.03C124.197 49.51 124.897 49.94 125.417 50.32C125.957 50.7 126.417 51.19 126.797 51.79C127.177 52.37 127.367 53.08 127.367 53.92C127.367 55.44 126.817 56.61 125.717 57.43C124.637 58.25 123.257 58.66 121.577 58.66C120.117 58.66 118.887 58.41 117.887 57.91C116.907 57.41 116.417 56.58 116.417 55.42C116.417 54.74 116.627 54.22 117.047 53.86C117.467 53.5 118.037 53.32 118.757 53.32C119.277 53.32 119.677 53.43 119.957 53.65C119.797 54.13 119.717 54.58 119.717 55C119.717 55.64 119.917 56.15 120.317 56.53C120.717 56.89 121.257 57.07 121.937 57.07C122.677 57.07 123.237 56.88 123.617 56.5C124.017 56.1 124.217 55.52 124.217 54.76C124.217 53.98 123.947 53.35 123.407 52.87C122.887 52.37 122.077 51.82 120.977 51.22C120.097 50.72 119.387 50.28 118.847 49.9C118.327 49.52 117.877 49.04 117.497 48.46C117.117 47.86 116.927 47.14 116.927 46.3C116.927 44.96 117.467 43.93 118.547 43.21C119.627 42.47 120.937 42.1 122.477 42.1C123.897 42.1 125.057 42.36 125.957 42.88C126.877 43.38 127.337 44.21 127.337 45.37C127.337 46.05 127.117 46.57 126.677 46.93C126.257 47.29 125.687 47.47 124.967 47.47C124.447 47.47 124.047 47.36 123.767 47.14C123.927 46.66 124.007 46.21 124.007 45.79C124.007 45.13 123.837 44.62 123.497 44.26C123.177 43.88 122.697 43.69 122.057 43.69ZM141.237 42.7L136.767 58H132.687L128.547 42.7H131.967L135.027 55.99L138.087 42.7H141.237ZM161.483 53.77C161.943 53.99 162.173 54.42 162.173 55.06C162.173 55.78 161.933 56.42 161.453 56.98C160.973 57.52 160.353 57.93 159.593 58.21C158.833 58.51 158.063 58.66 157.283 58.66C154.923 58.66 153.183 57.78 152.063 56.02C151.723 56.9 151.173 57.56 150.413 58C149.673 58.44 148.793 58.66 147.773 58.66C146.173 58.66 144.863 58.27 143.843 57.49C142.823 56.71 142.313 55.59 142.313 54.13C142.313 52.29 143.123 51.04 144.743 50.38C146.363 49.72 148.443 49.39 150.983 49.39V46.66C150.983 45.66 150.833 44.92 150.533 44.44C150.233 43.94 149.663 43.69 148.823 43.69C148.123 43.69 147.543 43.88 147.083 44.26C146.623 44.62 146.393 45.13 146.393 45.79C146.393 46.21 146.473 46.66 146.633 47.14C146.353 47.36 145.953 47.47 145.433 47.47C144.713 47.47 144.143 47.29 143.723 46.93C143.303 46.57 143.093 46.05 143.093 45.37C143.093 44.41 143.633 43.63 144.713 43.03C145.793 42.41 147.233 42.1 149.033 42.1C150.093 42.1 150.963 42.23 151.643 42.49C152.343 42.73 152.903 43.12 153.323 43.66C154.463 42.62 155.943 42.1 157.763 42.1C159.243 42.1 160.433 42.49 161.333 43.27C162.233 44.03 162.683 45.11 162.683 46.51C162.683 48.23 162.083 49.43 160.883 50.11C159.683 50.77 158.033 51.1 155.933 51.1C155.353 51.1 154.803 51.08 154.283 51.04C154.343 52.66 154.603 53.95 155.063 54.91C155.543 55.87 156.383 56.35 157.583 56.35C158.463 56.35 159.233 56.13 159.893 55.69C160.573 55.23 161.103 54.59 161.483 53.77ZM157.283 43.81C156.203 43.81 155.443 44.38 155.003 45.52C154.563 46.64 154.323 47.98 154.283 49.54L155.633 49.6C156.853 49.6 157.783 49.38 158.423 48.94C159.083 48.5 159.413 47.75 159.413 46.69C159.413 45.87 159.233 45.19 158.873 44.65C158.513 44.09 157.983 43.81 157.283 43.81ZM150.983 50.89C149.443 50.89 148.213 51.11 147.293 51.55C146.373 51.99 145.913 52.81 145.913 54.01C145.913 54.81 146.123 55.45 146.543 55.93C146.983 56.41 147.583 56.65 148.343 56.65C149.223 56.65 149.883 56.32 150.323 55.66C150.763 54.98 150.983 54.14 150.983 53.14V50.89ZM170.906 44.41C170.046 44.41 169.486 44.99 169.226 46.15C168.986 47.29 168.866 48.66 168.866 50.26V58H165.566V42.7L168.326 42.34L168.476 45.04C168.756 44.14 169.246 43.43 169.946 42.91C170.646 42.37 171.456 42.1 172.376 42.1C173.376 42.1 174.166 42.39 174.746 42.97C175.346 43.55 175.646 44.34 175.646 45.34C175.646 46.96 174.866 47.77 173.306 47.77C172.786 47.77 172.386 47.66 172.106 47.44C172.246 46.92 172.316 46.47 172.316 46.09C172.316 44.97 171.846 44.41 170.906 44.41Z" fill="#F9CCCF"/>
<path d="M116.98 157.7L119.74 157.34L119.89 160.04C120.27 159.08 120.85 158.35 121.63 157.85C122.43 157.35 123.36 157.1 124.42 157.1C125.6 157.1 126.52 157.34 127.18 157.82C127.84 158.28 128.31 158.97 128.59 159.89C129.37 158.03 130.79 157.1 132.85 157.1C134.53 157.1 135.7 157.57 136.36 158.51C137.02 159.43 137.35 160.84 137.35 162.74V170.54C137.35 171.52 137.66 172.18 138.28 172.52C138.12 172.82 137.86 173.05 137.5 173.21C137.14 173.37 136.76 173.45 136.36 173.45C135.58 173.45 135 173.23 134.62 172.79C134.24 172.35 134.05 171.73 134.05 170.93V163.16C134.05 161.9 133.91 160.96 133.63 160.34C133.35 159.72 132.73 159.41 131.77 159.41C130.63 159.41 129.87 159.95 129.49 161.03C129.11 162.11 128.92 163.5 128.92 165.2V173H125.62V163.16C125.62 161.9 125.48 160.96 125.2 160.34C124.92 159.72 124.3 159.41 123.34 159.41C122.12 159.41 121.3 159.95 120.88 161.03C120.48 162.11 120.28 163.5 120.28 165.2V173H116.98V157.7ZM149.368 171.62C148.988 172.32 148.428 172.83 147.688 173.15C146.968 173.49 146.148 173.66 145.228 173.66C143.848 173.66 142.688 173.24 141.748 172.4C140.828 171.56 140.368 170.47 140.368 169.13C140.368 165.89 143.258 164.27 149.038 164.27V161.66C149.038 160.66 148.888 159.92 148.588 159.44C148.288 158.94 147.718 158.69 146.878 158.69C146.178 158.69 145.598 158.88 145.138 159.26C144.678 159.62 144.448 160.13 144.448 160.79C144.448 161.21 144.528 161.66 144.688 162.14C144.408 162.36 144.008 162.47 143.488 162.47C142.768 162.47 142.198 162.29 141.778 161.93C141.358 161.57 141.148 161.05 141.148 160.37C141.148 159.41 141.688 158.63 142.768 158.03C143.848 157.41 145.288 157.1 147.088 157.1C148.408 157.1 149.448 157.3 150.208 157.7C150.968 158.08 151.508 158.68 151.828 159.5C152.168 160.3 152.338 161.38 152.338 162.74V170.54C152.338 171.52 152.648 172.18 153.268 172.52C153.108 172.82 152.868 173.05 152.548 173.21C152.248 173.37 151.898 173.45 151.498 173.45C150.918 173.45 150.438 173.29 150.058 172.97C149.678 172.63 149.448 172.18 149.368 171.62ZM146.398 171.65C147.278 171.65 147.938 171.32 148.378 170.66C148.818 169.98 149.038 169.14 149.038 168.14V165.77C145.658 165.77 143.968 166.85 143.968 169.01C143.968 169.81 144.178 170.45 144.598 170.93C145.038 171.41 145.638 171.65 146.398 171.65ZM156.238 157.7L158.998 157.34L159.148 160.04C159.528 159.08 160.108 158.35 160.888 157.85C161.688 157.35 162.618 157.1 163.678 157.1C165.358 157.1 166.528 157.57 167.188 158.51C167.848 159.43 168.178 160.84 168.178 162.74V170.54C168.178 171.52 168.488 172.18 169.108 172.52C168.948 172.82 168.688 173.05 168.328 173.21C167.968 173.37 167.588 173.45 167.188 173.45C166.408 173.45 165.828 173.23 165.448 172.79C165.068 172.35 164.878 171.73 164.878 170.93V163.16C164.878 161.9 164.738 160.96 164.458 160.34C164.178 159.72 163.558 159.41 162.598 159.41C161.378 159.41 160.558 159.95 160.138 161.03C159.738 162.11 159.538 163.5 159.538 165.2V173H156.238V157.7ZM177.332 157.7L180.092 157.34L180.242 160.04C180.622 159.08 181.202 158.35 181.982 157.85C182.782 157.35 183.712 157.1 184.772 157.1C185.952 157.1 186.872 157.34 187.532 157.82C188.192 158.28 188.662 158.97 188.942 159.89C189.722 158.03 191.142 157.1 193.202 157.1C194.882 157.1 196.052 157.57 196.712 158.51C197.372 159.43 197.702 160.84 197.702 162.74V170.54C197.702 171.52 198.012 172.18 198.632 172.52C198.472 172.82 198.212 173.05 197.852 173.21C197.492 173.37 197.112 173.45 196.712 173.45C195.932 173.45 195.352 173.23 194.972 172.79C194.592 172.35 194.402 171.73 194.402 170.93V163.16C194.402 161.9 194.262 160.96 193.982 160.34C193.702 159.72 193.082 159.41 192.122 159.41C190.982 159.41 190.222 159.95 189.842 161.03C189.462 162.11 189.272 163.5 189.272 165.2V173H185.972V163.16C185.972 161.9 185.832 160.96 185.552 160.34C185.272 159.72 184.652 159.41 183.692 159.41C182.472 159.41 181.652 159.95 181.232 161.03C180.832 162.11 180.632 163.5 180.632 165.2V173H177.332V157.7ZM211.249 168.77C211.709 168.99 211.939 169.42 211.939 170.06C211.939 170.78 211.699 171.42 211.219 171.98C210.739 172.52 210.119 172.93 209.359 173.21C208.599 173.51 207.829 173.66 207.049 173.66C204.849 173.66 203.219 172.95 202.159 171.53C201.099 170.09 200.569 168.16 200.569 165.74C200.569 163.16 201.139 161.08 202.279 159.5C203.439 157.9 205.189 157.1 207.529 157.1C209.009 157.1 210.199 157.49 211.099 158.27C211.999 159.03 212.449 160.11 212.449 161.51C212.449 163.25 211.839 164.47 210.619 165.17C209.419 165.87 207.779 166.22 205.699 166.22C205.119 166.22 204.569 166.2 204.049 166.16C204.109 167.74 204.369 169 204.829 169.94C205.309 170.88 206.149 171.35 207.349 171.35C208.229 171.35 208.999 171.13 209.659 170.69C210.339 170.23 210.869 169.59 211.249 168.77ZM207.049 158.81C205.969 158.81 205.209 159.38 204.769 160.52C204.329 161.64 204.089 163.02 204.049 164.66C204.649 164.7 205.089 164.72 205.369 164.72C207.889 164.72 209.149 163.71 209.149 161.69C209.149 160.87 208.969 160.19 208.609 159.65C208.269 159.09 207.749 158.81 207.049 158.81ZM215.33 157.7L218.09 157.34L218.24 160.04C218.62 159.08 219.2 158.35 219.98 157.85C220.78 157.35 221.71 157.1 222.77 157.1C224.45 157.1 225.62 157.57 226.28 158.51C226.94 159.43 227.27 160.84 227.27 162.74V170.54C227.27 171.52 227.58 172.18 228.2 172.52C228.04 172.82 227.78 173.05 227.42 173.21C227.06 173.37 226.68 173.45 226.28 173.45C225.5 173.45 224.92 173.23 224.54 172.79C224.16 172.35 223.97 171.73 223.97 170.93V163.16C223.97 161.9 223.83 160.96 223.55 160.34C223.27 159.72 222.65 159.41 221.69 159.41C220.47 159.41 219.65 159.95 219.23 161.03C218.83 162.11 218.63 163.5 218.63 165.2V173H215.33V157.7ZM236.039 158.69C235.439 158.69 234.959 158.85 234.599 159.17C234.239 159.47 234.059 159.91 234.059 160.49C234.059 161.27 234.319 161.91 234.839 162.41C235.379 162.89 236.199 163.43 237.299 164.03C238.179 164.51 238.879 164.94 239.399 165.32C239.939 165.7 240.399 166.19 240.779 166.79C241.159 167.37 241.349 168.08 241.349 168.92C241.349 170.44 240.799 171.61 239.699 172.43C238.619 173.25 237.239 173.66 235.559 173.66C234.099 173.66 232.869 173.41 231.869 172.91C230.889 172.41 230.399 171.58 230.399 170.42C230.399 169.74 230.609 169.22 231.029 168.86C231.449 168.5 232.019 168.32 232.739 168.32C233.259 168.32 233.659 168.43 233.939 168.65C233.779 169.13 233.699 169.58 233.699 170C233.699 170.64 233.899 171.15 234.299 171.53C234.699 171.89 235.239 172.07 235.919 172.07C236.659 172.07 237.219 171.88 237.599 171.5C237.999 171.1 238.199 170.52 238.199 169.76C238.199 168.98 237.929 168.35 237.389 167.87C236.869 167.37 236.059 166.82 234.959 166.22C234.079 165.72 233.369 165.28 232.829 164.9C232.309 164.52 231.859 164.04 231.479 163.46C231.099 162.86 230.909 162.14 230.909 161.3C230.909 159.96 231.449 158.93 232.529 158.21C233.609 157.47 234.919 157.1 236.459 157.1C237.879 157.1 239.039 157.36 239.939 157.88C240.859 158.38 241.319 159.21 241.319 160.37C241.319 161.05 241.099 161.57 240.659 161.93C240.239 162.29 239.669 162.47 238.949 162.47C238.429 162.47 238.029 162.36 237.749 162.14C237.909 161.66 237.989 161.21 237.989 160.79C237.989 160.13 237.819 159.62 237.479 159.26C237.159 158.88 236.679 158.69 236.039 158.69ZM242.679 159.05L242.649 158.15C243.549 157.79 244.399 157.31 245.199 156.71C246.019 156.11 246.709 155.45 247.269 154.73H248.199V157.7H250.959V159.05H248.139V169.97C248.139 170.57 248.249 171.02 248.469 171.32C248.689 171.62 249.039 171.81 249.519 171.89C249.419 172.35 249.149 172.72 248.709 173C248.289 173.3 247.799 173.45 247.239 173.45C245.619 173.45 244.809 172.53 244.809 170.69V159.05H242.679ZM258.404 159.41C257.544 159.41 256.984 159.99 256.724 161.15C256.484 162.29 256.364 163.66 256.364 165.26V173H253.064V157.7L255.824 157.34L255.974 160.04C256.254 159.14 256.744 158.43 257.444 157.91C258.144 157.37 258.954 157.1 259.874 157.1C260.874 157.1 261.664 157.39 262.244 157.97C262.844 158.55 263.144 159.34 263.144 160.34C263.144 161.96 262.364 162.77 260.804 162.77C260.284 162.77 259.884 162.66 259.604 162.44C259.744 161.92 259.814 161.47 259.814 161.09C259.814 159.97 259.344 159.41 258.404 159.41ZM276.78 170.54C276.78 171.52 277.09 172.18 277.71 172.52C277.55 172.82 277.31 173.05 276.99 173.21C276.69 173.37 276.34 173.45 275.94 173.45C275.36 173.45 274.88 173.29 274.5 172.97C274.12 172.63 273.89 172.18 273.81 171.62C273.49 172.28 272.97 172.78 272.25 173.12C271.55 173.48 270.79 173.66 269.97 173.66C268.53 173.66 267.43 173.35 266.67 172.73C265.93 172.09 265.44 171.23 265.2 170.15C264.96 169.05 264.84 167.64 264.84 165.92V157.7H268.14V165.77C268.14 166.99 268.18 168 268.26 168.8C268.36 169.58 268.61 170.25 269.01 170.81C269.41 171.37 270.02 171.65 270.84 171.65C271.72 171.65 272.38 171.32 272.82 170.66C273.26 169.98 273.48 169.14 273.48 168.14V157.7H276.78V170.54ZM290.527 168.77C290.987 168.99 291.217 169.42 291.217 170.06C291.217 170.78 290.977 171.42 290.497 171.98C290.017 172.52 289.397 172.93 288.637 173.21C287.877 173.51 287.107 173.66 286.327 173.66C284.127 173.66 282.497 172.95 281.437 171.53C280.377 170.09 279.847 168.16 279.847 165.74C279.847 163.16 280.417 161.08 281.557 159.5C282.717 157.9 284.467 157.1 286.807 157.1C288.287 157.1 289.477 157.49 290.377 158.27C291.277 159.03 291.727 160.11 291.727 161.51C291.727 163.25 291.117 164.47 289.897 165.17C288.697 165.87 287.057 166.22 284.977 166.22C284.397 166.22 283.847 166.2 283.327 166.16C283.387 167.74 283.647 169 284.107 169.94C284.587 170.88 285.427 171.35 286.627 171.35C287.507 171.35 288.277 171.13 288.937 170.69C289.617 170.23 290.147 169.59 290.527 168.77ZM286.327 158.81C285.247 158.81 284.487 159.38 284.047 160.52C283.607 161.64 283.367 163.02 283.327 164.66C283.927 164.7 284.367 164.72 284.647 164.72C287.167 164.72 288.427 163.71 288.427 161.69C288.427 160.87 288.247 160.19 287.887 159.65C287.547 159.09 287.027 158.81 286.327 158.81ZM299.947 159.41C299.087 159.41 298.527 159.99 298.267 161.15C298.027 162.29 297.907 163.66 297.907 165.26V173H294.607V157.7L297.367 157.34L297.517 160.04C297.797 159.14 298.287 158.43 298.987 157.91C299.687 157.37 300.497 157.1 301.417 157.1C302.417 157.1 303.207 157.39 303.787 157.97C304.387 158.55 304.687 159.34 304.687 160.34C304.687 161.96 303.907 162.77 302.347 162.77C301.827 162.77 301.427 162.66 301.147 162.44C301.287 161.92 301.357 161.47 301.357 161.09C301.357 159.97 300.887 159.41 299.947 159.41ZM316.103 168.77C316.563 168.99 316.793 169.42 316.793 170.06C316.793 170.78 316.553 171.42 316.073 171.98C315.593 172.52 314.973 172.93 314.213 173.21C313.453 173.51 312.683 173.66 311.903 173.66C309.703 173.66 308.073 172.95 307.013 171.53C305.953 170.09 305.423 168.16 305.423 165.74C305.423 163.16 305.993 161.08 307.133 159.5C308.293 157.9 310.043 157.1 312.383 157.1C313.863 157.1 315.053 157.49 315.953 158.27C316.853 159.03 317.303 160.11 317.303 161.51C317.303 163.25 316.693 164.47 315.473 165.17C314.273 165.87 312.633 166.22 310.553 166.22C309.973 166.22 309.423 166.2 308.903 166.16C308.963 167.74 309.223 169 309.683 169.94C310.163 170.88 311.003 171.35 312.203 171.35C313.083 171.35 313.853 171.13 314.513 170.69C315.193 170.23 315.723 169.59 316.103 168.77ZM311.903 158.81C310.823 158.81 310.063 159.38 309.623 160.52C309.183 161.64 308.943 163.02 308.903 164.66C309.503 164.7 309.943 164.72 310.223 164.72C312.743 164.72 314.003 163.71 314.003 161.69C314.003 160.87 313.823 160.19 313.463 159.65C313.123 159.09 312.603 158.81 311.903 158.81Z" fill="#FEF6F6"/>
<path d="M81.1 94V73L84.4 72.64V94H81.1ZM89.83 78.7H93.31L88.12 85.06L93.43 94H89.59L84.82 85.6L89.83 78.7ZM103.407 92.62C103.027 93.32 102.467 93.83 101.727 94.15C101.007 94.49 100.187 94.66 99.2669 94.66C97.8869 94.66 96.7269 94.24 95.7869 93.4C94.8669 92.56 94.4069 91.47 94.4069 90.13C94.4069 86.89 97.2969 85.27 103.077 85.27V82.66C103.077 81.66 102.927 80.92 102.627 80.44C102.327 79.94 101.757 79.69 100.917 79.69C100.217 79.69 99.6369 79.88 99.1769 80.26C98.7169 80.62 98.4869 81.13 98.4869 81.79C98.4869 82.21 98.5669 82.66 98.7269 83.14C98.4469 83.36 98.0469 83.47 97.5269 83.47C96.8069 83.47 96.2369 83.29 95.8169 82.93C95.3969 82.57 95.1869 82.05 95.1869 81.37C95.1869 80.41 95.7269 79.63 96.8069 79.03C97.8869 78.41 99.3269 78.1 101.127 78.1C102.447 78.1 103.487 78.3 104.247 78.7C105.007 79.08 105.547 79.68 105.867 80.5C106.207 81.3 106.377 82.38 106.377 83.74V91.54C106.377 92.52 106.687 93.18 107.307 93.52C107.147 93.82 106.907 94.05 106.587 94.21C106.287 94.37 105.937 94.45 105.537 94.45C104.957 94.45 104.477 94.29 104.097 93.97C103.717 93.63 103.487 93.18 103.407 92.62ZM100.437 92.65C101.317 92.65 101.977 92.32 102.417 91.66C102.857 90.98 103.077 90.14 103.077 89.14V86.77C99.6969 86.77 98.0069 87.85 98.0069 90.01C98.0069 90.81 98.2169 91.45 98.6369 91.93C99.0769 92.41 99.6769 92.65 100.437 92.65ZM110.277 78.7L113.037 78.34L113.187 81.04C113.567 80.08 114.147 79.35 114.927 78.85C115.727 78.35 116.657 78.1 117.717 78.1C119.397 78.1 120.567 78.57 121.227 79.51C121.887 80.43 122.217 81.84 122.217 83.74V91.54C122.217 92.52 122.527 93.18 123.147 93.52C122.987 93.82 122.727 94.05 122.367 94.21C122.007 94.37 121.627 94.45 121.227 94.45C120.447 94.45 119.867 94.23 119.487 93.79C119.107 93.35 118.917 92.73 118.917 91.93V84.16C118.917 82.9 118.777 81.96 118.497 81.34C118.217 80.72 117.597 80.41 116.637 80.41C115.417 80.41 114.597 80.95 114.177 82.03C113.777 83.11 113.577 84.5 113.577 86.2V94H110.277V78.7ZM142.081 78.7L137.611 94H133.531L129.391 78.7H132.811L135.871 91.99L138.931 78.7H142.081ZM162.327 89.77C162.787 89.99 163.017 90.42 163.017 91.06C163.017 91.78 162.777 92.42 162.297 92.98C161.817 93.52 161.197 93.93 160.437 94.21C159.677 94.51 158.907 94.66 158.127 94.66C155.767 94.66 154.027 93.78 152.907 92.02C152.567 92.9 152.017 93.56 151.257 94C150.517 94.44 149.637 94.66 148.617 94.66C147.017 94.66 145.707 94.27 144.687 93.49C143.667 92.71 143.157 91.59 143.157 90.13C143.157 88.29 143.967 87.04 145.587 86.38C147.207 85.72 149.287 85.39 151.827 85.39V82.66C151.827 81.66 151.677 80.92 151.377 80.44C151.077 79.94 150.507 79.69 149.667 79.69C148.967 79.69 148.387 79.88 147.927 80.26C147.467 80.62 147.237 81.13 147.237 81.79C147.237 82.21 147.317 82.66 147.477 83.14C147.197 83.36 146.797 83.47 146.277 83.47C145.557 83.47 144.987 83.29 144.567 82.93C144.147 82.57 143.937 82.05 143.937 81.37C143.937 80.41 144.477 79.63 145.557 79.03C146.637 78.41 148.077 78.1 149.877 78.1C150.937 78.1 151.807 78.23 152.487 78.49C153.187 78.73 153.747 79.12 154.167 79.66C155.307 78.62 156.787 78.1 158.607 78.1C160.087 78.1 161.277 78.49 162.177 79.27C163.077 80.03 163.527 81.11 163.527 82.51C163.527 84.23 162.927 85.43 161.727 86.11C160.527 86.77 158.877 87.1 156.777 87.1C156.197 87.1 155.647 87.08 155.127 87.04C155.187 88.66 155.447 89.95 155.907 90.91C156.387 91.87 157.227 92.35 158.427 92.35C159.307 92.35 160.077 92.13 160.737 91.69C161.417 91.23 161.947 90.59 162.327 89.77ZM158.127 79.81C157.047 79.81 156.287 80.38 155.847 81.52C155.407 82.64 155.167 83.98 155.127 85.54L156.477 85.6C157.697 85.6 158.627 85.38 159.267 84.94C159.927 84.5 160.257 83.75 160.257 82.69C160.257 81.87 160.077 81.19 159.717 80.65C159.357 80.09 158.827 79.81 158.127 79.81ZM151.827 86.89C150.287 86.89 149.057 87.11 148.137 87.55C147.217 87.99 146.757 88.81 146.757 90.01C146.757 90.81 146.967 91.45 147.387 91.93C147.827 92.41 148.427 92.65 149.187 92.65C150.067 92.65 150.727 92.32 151.167 91.66C151.607 90.98 151.827 90.14 151.827 89.14V86.89ZM171.75 80.41C170.89 80.41 170.33 80.99 170.07 82.15C169.83 83.29 169.71 84.66 169.71 86.26V94H166.41V78.7L169.17 78.34L169.32 81.04C169.6 80.14 170.09 79.43 170.79 78.91C171.49 78.37 172.3 78.1 173.22 78.1C174.22 78.1 175.01 78.39 175.59 78.97C176.19 79.55 176.49 80.34 176.49 81.34C176.49 82.96 175.71 83.77 174.15 83.77C173.63 83.77 173.23 83.66 172.95 83.44C173.09 82.92 173.16 82.47 173.16 82.09C173.16 80.97 172.69 80.41 171.75 80.41ZM187.906 89.77C188.366 89.99 188.596 90.42 188.596 91.06C188.596 91.78 188.356 92.42 187.876 92.98C187.396 93.52 186.776 93.93 186.016 94.21C185.256 94.51 184.486 94.66 183.706 94.66C181.506 94.66 179.876 93.95 178.816 92.53C177.756 91.09 177.226 89.16 177.226 86.74C177.226 84.16 177.796 82.08 178.936 80.5C180.096 78.9 181.846 78.1 184.186 78.1C185.666 78.1 186.856 78.49 187.756 79.27C188.656 80.03 189.106 81.11 189.106 82.51C189.106 84.25 188.496 85.47 187.276 86.17C186.076 86.87 184.436 87.22 182.356 87.22C181.776 87.22 181.226 87.2 180.706 87.16C180.766 88.74 181.026 90 181.486 90.94C181.966 91.88 182.806 92.35 184.006 92.35C184.886 92.35 185.656 92.13 186.316 91.69C186.996 91.23 187.526 90.59 187.906 89.77ZM183.706 79.81C182.626 79.81 181.866 80.38 181.426 81.52C180.986 82.64 180.746 84.02 180.706 85.66C181.306 85.7 181.746 85.72 182.026 85.72C184.546 85.72 185.806 84.71 185.806 82.69C185.806 81.87 185.626 81.19 185.266 80.65C184.926 80.09 184.406 79.81 183.706 79.81ZM197.23 78.7L199.99 78.34L200.14 81.04C200.52 80.08 201.1 79.35 201.88 78.85C202.68 78.35 203.61 78.1 204.67 78.1C206.35 78.1 207.52 78.57 208.18 79.51C208.84 80.43 209.17 81.84 209.17 83.74V91.54C209.17 92.52 209.48 93.18 210.1 93.52C209.94 93.82 209.68 94.05 209.32 94.21C208.96 94.37 208.58 94.45 208.18 94.45C207.4 94.45 206.82 94.23 206.44 93.79C206.06 93.35 205.87 92.73 205.87 91.93V84.16C205.87 82.9 205.73 81.96 205.45 81.34C205.17 80.72 204.55 80.41 203.59 80.41C202.37 80.41 201.55 80.95 201.13 82.03C200.73 83.11 200.53 84.5 200.53 86.2V94H197.23V78.7ZM218.63 78.1C220.87 78.1 222.53 78.83 223.61 80.29C224.69 81.73 225.23 83.68 225.23 86.14C225.23 88.76 224.71 90.84 223.67 92.38C222.63 93.9 220.95 94.66 218.63 94.66C216.35 94.66 214.68 93.93 213.62 92.47C212.58 91.01 212.06 89 212.06 86.44C212.06 83.96 212.6 81.95 213.68 80.41C214.76 78.87 216.41 78.1 218.63 78.1ZM218.63 92.86C219.87 92.86 220.68 92.25 221.06 91.03C221.44 89.81 221.63 88.23 221.63 86.29C221.63 84.51 221.42 83 221 81.76C220.6 80.52 219.81 79.9 218.63 79.9C216.65 79.9 215.66 82.03 215.66 86.29C215.66 88.23 215.84 89.81 216.2 91.03C216.58 92.25 217.39 92.86 218.63 92.86ZM233.598 98.23C234.518 98.23 235.198 97.91 235.638 97.27C236.078 96.65 236.348 95.9 236.448 95.02C236.548 94.14 236.598 93.03 236.598 91.69V90.88C236.218 91.44 235.698 91.86 235.038 92.14C234.378 92.42 233.678 92.56 232.938 92.56C230.978 92.56 229.538 91.9 228.618 90.58C227.718 89.26 227.268 87.49 227.268 85.27C227.268 83.01 227.818 81.25 228.918 79.99C230.018 78.73 231.648 78.1 233.808 78.1C234.808 78.1 235.818 78.29 236.838 78.67L239.778 78.34V90.97C239.778 92.91 239.598 94.53 239.238 95.83C238.898 97.13 238.248 98.15 237.288 98.89C236.348 99.63 235.028 100 233.328 100C231.908 100 230.688 99.72 229.668 99.16C228.668 98.6 228.167 97.74 228.167 96.58C228.167 95.9 228.378 95.38 228.798 95.02C229.218 94.66 229.788 94.48 230.508 94.48C231.028 94.48 231.428 94.59 231.708 94.81C231.568 95.23 231.498 95.68 231.498 96.16C231.498 97.54 232.198 98.23 233.598 98.23ZM236.478 80.86C235.538 80.22 234.608 79.9 233.688 79.9C232.588 79.9 231.828 80.39 231.408 81.37C231.008 82.35 230.808 83.6 230.808 85.12C230.808 86.74 231.008 88.05 231.408 89.05C231.828 90.05 232.628 90.55 233.808 90.55C234.708 90.55 235.378 90.22 235.818 89.56C236.258 88.9 236.478 88.06 236.478 87.04V80.86ZM253.384 89.77C253.844 89.99 254.074 90.42 254.074 91.06C254.074 91.78 253.834 92.42 253.354 92.98C252.874 93.52 252.254 93.93 251.494 94.21C250.734 94.51 249.964 94.66 249.184 94.66C246.984 94.66 245.354 93.95 244.294 92.53C243.234 91.09 242.704 89.16 242.704 86.74C242.704 84.16 243.274 82.08 244.414 80.5C245.574 78.9 247.324 78.1 249.664 78.1C251.144 78.1 252.334 78.49 253.234 79.27C254.134 80.03 254.584 81.11 254.584 82.51C254.584 84.25 253.974 85.47 252.754 86.17C251.554 86.87 249.914 87.22 247.834 87.22C247.254 87.22 246.704 87.2 246.184 87.16C246.244 88.74 246.504 90 246.964 90.94C247.444 91.88 248.284 92.35 249.484 92.35C250.364 92.35 251.134 92.13 251.794 91.69C252.474 91.23 253.004 90.59 253.384 89.77ZM249.184 79.81C248.104 79.81 247.344 80.38 246.904 81.52C246.464 82.64 246.224 84.02 246.184 85.66C246.784 85.7 247.224 85.72 247.504 85.72C250.024 85.72 251.284 84.71 251.284 82.69C251.284 81.87 251.104 81.19 250.744 80.65C250.404 80.09 249.884 79.81 249.184 79.81ZM255.634 80.05L255.604 79.15C256.504 78.79 257.354 78.31 258.154 77.71C258.974 77.11 259.664 76.45 260.224 75.73H261.154V78.7H263.914V80.05H261.094V90.97C261.094 91.57 261.204 92.02 261.424 92.32C261.644 92.62 261.994 92.81 262.474 92.89C262.374 93.35 262.104 93.72 261.664 94C261.244 94.3 260.754 94.45 260.194 94.45C258.574 94.45 257.764 93.53 257.764 91.69V80.05H255.634ZM271.263 78.7L274.023 78.34L274.173 81.04C274.553 80.08 275.133 79.35 275.913 78.85C276.713 78.35 277.643 78.1 278.703 78.1C279.883 78.1 280.803 78.34 281.463 78.82C282.123 79.28 282.593 79.97 282.873 80.89C283.653 79.03 285.073 78.1 287.133 78.1C288.813 78.1 289.983 78.57 290.643 79.51C291.303 80.43 291.633 81.84 291.633 83.74V91.54C291.633 92.52 291.943 93.18 292.563 93.52C292.403 93.82 292.143 94.05 291.783 94.21C291.423 94.37 291.043 94.45 290.643 94.45C289.863 94.45 289.283 94.23 288.903 93.79C288.523 93.35 288.333 92.73 288.333 91.93V84.16C288.333 82.9 288.193 81.96 287.913 81.34C287.633 80.72 287.013 80.41 286.053 80.41C284.913 80.41 284.153 80.95 283.773 82.03C283.393 83.11 283.203 84.5 283.203 86.2V94H279.903V84.16C279.903 82.9 279.763 81.96 279.483 81.34C279.203 80.72 278.583 80.41 277.623 80.41C276.403 80.41 275.583 80.95 275.163 82.03C274.763 83.11 274.563 84.5 274.563 86.2V94H271.263V78.7ZM303.651 92.62C303.271 93.32 302.711 93.83 301.971 94.15C301.251 94.49 300.431 94.66 299.511 94.66C298.131 94.66 296.971 94.24 296.031 93.4C295.111 92.56 294.651 91.47 294.651 90.13C294.651 86.89 297.541 85.27 303.321 85.27V82.66C303.321 81.66 303.171 80.92 302.871 80.44C302.571 79.94 302.001 79.69 301.161 79.69C300.461 79.69 299.881 79.88 299.421 80.26C298.961 80.62 298.731 81.13 298.731 81.79C298.731 82.21 298.811 82.66 298.971 83.14C298.691 83.36 298.291 83.47 297.771 83.47C297.051 83.47 296.481 83.29 296.061 82.93C295.641 82.57 295.431 82.05 295.431 81.37C295.431 80.41 295.971 79.63 297.051 79.03C298.131 78.41 299.571 78.1 301.371 78.1C302.691 78.1 303.731 78.3 304.491 78.7C305.251 79.08 305.791 79.68 306.111 80.5C306.451 81.3 306.621 82.38 306.621 83.74V91.54C306.621 92.52 306.931 93.18 307.551 93.52C307.391 93.82 307.151 94.05 306.831 94.21C306.531 94.37 306.181 94.45 305.781 94.45C305.201 94.45 304.721 94.29 304.341 93.97C303.961 93.63 303.731 93.18 303.651 92.62ZM300.681 92.65C301.561 92.65 302.221 92.32 302.661 91.66C303.101 90.98 303.321 90.14 303.321 89.14V86.77C299.941 86.77 298.251 87.85 298.251 90.01C298.251 90.81 298.461 91.45 298.881 91.93C299.321 92.41 299.921 92.65 300.681 92.65ZM310.521 78.7L313.281 78.34L313.431 81.04C313.811 80.08 314.391 79.35 315.171 78.85C315.971 78.35 316.901 78.1 317.961 78.1C319.641 78.1 320.811 78.57 321.471 79.51C322.131 80.43 322.461 81.84 322.461 83.74V91.54C322.461 92.52 322.771 93.18 323.391 93.52C323.231 93.82 322.971 94.05 322.611 94.21C322.251 94.37 321.871 94.45 321.471 94.45C320.691 94.45 320.111 94.23 319.731 93.79C319.351 93.35 319.161 92.73 319.161 91.93V84.16C319.161 82.9 319.021 81.96 318.741 81.34C318.461 80.72 317.841 80.41 316.881 80.41C315.661 80.41 314.841 80.95 314.421 82.03C314.021 83.11 313.821 84.5 313.821 86.2V94H310.521V78.7ZM92.59 127.54C92.59 128.52 92.9 129.18 93.52 129.52C93.36 129.82 93.12 130.05 92.8 130.21C92.5 130.37 92.15 130.45 91.75 130.45C91.17 130.45 90.69 130.29 90.31 129.97C89.93 129.63 89.7 129.18 89.62 128.62C89.3 129.28 88.78 129.78 88.06 130.12C87.36 130.48 86.6 130.66 85.78 130.66C83.74 130.66 82.26 129.88 81.34 128.32C80.42 126.76 79.96 124.76 79.96 122.32C79.96 119.8 80.5 117.8 81.58 116.32C82.68 114.84 84.38 114.1 86.68 114.1C87.64 114.1 88.51 114.23 89.29 114.49V109L92.59 108.64V127.54ZM89.29 116.83C88.37 116.21 87.45 115.9 86.53 115.9C85.31 115.9 84.51 116.48 84.13 117.64C83.75 118.8 83.56 120.31 83.56 122.17C83.56 123.95 83.78 125.48 84.22 126.76C84.66 128.02 85.47 128.65 86.65 128.65C87.53 128.65 88.19 128.32 88.63 127.66C89.07 126.98 89.29 126.14 89.29 125.14V116.83ZM109.67 113.65C109.67 113.93 109.52 114.28 109.22 114.7L107.72 116.83C108.54 118.17 108.95 119.94 108.95 122.14C108.95 124.76 108.43 126.84 107.39 128.38C106.35 129.9 104.67 130.66 102.35 130.66C100.81 130.66 99.5503 130.32 98.5703 129.64L97.1903 131.59C96.8703 131.53 96.5103 131.39 96.1103 131.17C95.7303 130.95 95.5403 130.67 95.5403 130.33C95.5403 130.05 95.6903 129.7 95.9903 129.28L96.9803 127.9C96.1803 126.56 95.7803 124.74 95.7803 122.44C95.7803 119.96 96.3203 117.95 97.4003 116.41C98.4803 114.87 100.13 114.1 102.35 114.1C103.87 114.1 105.12 114.44 106.1 115.12L108.05 112.39C108.35 112.45 108.69 112.59 109.07 112.81C109.47 113.03 109.67 113.31 109.67 113.65ZM99.3803 122.29C99.3803 123.23 99.4003 123.95 99.4403 124.45L104.54 117.31C104.04 116.37 103.31 115.9 102.35 115.9C100.37 115.9 99.3803 118.03 99.3803 122.29ZM105.35 122.29C105.35 121.61 105.32 120.93 105.26 120.25L100.13 127.45C100.63 128.39 101.37 128.86 102.35 128.86C103.59 128.86 104.4 128.25 104.78 127.03C105.16 125.81 105.35 124.23 105.35 122.29ZM113.688 108.4C114.348 108.4 114.878 108.56 115.278 108.88C115.698 109.2 115.908 109.66 115.908 110.26C115.908 110.88 115.688 111.36 115.248 111.7C114.828 112.02 114.278 112.18 113.598 112.18C112.938 112.18 112.408 112.02 112.008 111.7C111.608 111.38 111.408 110.92 111.408 110.32C111.408 109.7 111.618 109.23 112.038 108.91C112.478 108.57 113.028 108.4 113.688 108.4ZM115.338 128.95C115.338 133.65 113.938 136 111.138 136C110.578 136 110.088 135.89 109.668 135.67C109.248 135.45 109.038 135.12 109.038 134.68C110.158 134.68 110.928 134.23 111.348 133.33C111.788 132.43 112.008 131.25 112.008 129.79V114.7H115.338V128.95ZM128.96 125.77C129.42 125.99 129.65 126.42 129.65 127.06C129.65 127.78 129.41 128.42 128.93 128.98C128.45 129.52 127.83 129.93 127.07 130.21C126.31 130.51 125.54 130.66 124.76 130.66C122.56 130.66 120.93 129.95 119.87 128.53C118.81 127.09 118.28 125.16 118.28 122.74C118.28 120.16 118.85 118.08 119.99 116.5C121.15 114.9 122.9 114.1 125.24 114.1C126.72 114.1 127.91 114.49 128.81 115.27C129.71 116.03 130.16 117.11 130.16 118.51C130.16 120.25 129.55 121.47 128.33 122.17C127.13 122.87 125.49 123.22 123.41 123.22C122.83 123.22 122.28 123.2 121.76 123.16C121.82 124.74 122.08 126 122.54 126.94C123.02 127.88 123.86 128.35 125.06 128.35C125.94 128.35 126.71 128.13 127.37 127.69C128.05 127.23 128.58 126.59 128.96 125.77ZM124.76 115.81C123.68 115.81 122.92 116.38 122.48 117.52C122.04 118.64 121.8 120.02 121.76 121.66C122.36 121.7 122.8 121.72 123.08 121.72C125.6 121.72 126.86 120.71 126.86 118.69C126.86 117.87 126.68 117.19 126.32 116.65C125.98 116.09 125.46 115.81 124.76 115.81ZM138.381 116.41C137.521 116.41 136.961 116.99 136.701 118.15C136.461 119.29 136.341 120.66 136.341 122.26V130H133.041V114.7L135.801 114.34L135.951 117.04C136.231 116.14 136.721 115.43 137.421 114.91C138.121 114.37 138.931 114.1 139.851 114.1C140.851 114.1 141.641 114.39 142.221 114.97C142.821 115.55 143.121 116.34 143.121 117.34C143.121 118.96 142.341 119.77 140.781 119.77C140.261 119.77 139.861 119.66 139.581 119.44C139.721 118.92 139.791 118.47 139.791 118.09C139.791 116.97 139.321 116.41 138.381 116.41ZM150.121 114.7L152.881 114.34L153.031 117.04C153.411 116.08 153.991 115.35 154.771 114.85C155.571 114.35 156.501 114.1 157.561 114.1C158.741 114.1 159.661 114.34 160.321 114.82C160.981 115.28 161.451 115.97 161.731 116.89C162.511 115.03 163.931 114.1 165.991 114.1C167.671 114.1 168.841 114.57 169.501 115.51C170.161 116.43 170.491 117.84 170.491 119.74V127.54C170.491 128.52 170.801 129.18 171.421 129.52C171.261 129.82 171.001 130.05 170.641 130.21C170.281 130.37 169.901 130.45 169.501 130.45C168.721 130.45 168.141 130.23 167.761 129.79C167.381 129.35 167.191 128.73 167.191 127.93V120.16C167.191 118.9 167.051 117.96 166.771 117.34C166.491 116.72 165.871 116.41 164.911 116.41C163.771 116.41 163.011 116.95 162.631 118.03C162.251 119.11 162.061 120.5 162.061 122.2V130H158.761V120.16C158.761 118.9 158.621 117.96 158.341 117.34C158.061 116.72 157.441 116.41 156.481 116.41C155.261 116.41 154.441 116.95 154.021 118.03C153.621 119.11 153.421 120.5 153.421 122.2V130H150.121V114.7ZM184.038 125.77C184.498 125.99 184.728 126.42 184.728 127.06C184.728 127.78 184.488 128.42 184.008 128.98C183.528 129.52 182.908 129.93 182.148 130.21C181.388 130.51 180.618 130.66 179.838 130.66C177.638 130.66 176.008 129.95 174.948 128.53C173.888 127.09 173.358 125.16 173.358 122.74C173.358 120.16 173.928 118.08 175.068 116.5C176.228 114.9 177.978 114.1 180.318 114.1C181.798 114.1 182.988 114.49 183.888 115.27C184.788 116.03 185.238 117.11 185.238 118.51C185.238 120.25 184.628 121.47 183.408 122.17C182.208 122.87 180.568 123.22 178.488 123.22C177.908 123.22 177.358 123.2 176.838 123.16C176.898 124.74 177.158 126 177.618 126.94C178.098 127.88 178.938 128.35 180.138 128.35C181.018 128.35 181.788 128.13 182.448 127.69C183.128 127.23 183.658 126.59 184.038 125.77ZM179.838 115.81C178.758 115.81 177.998 116.38 177.558 117.52C177.118 118.64 176.878 120.02 176.838 121.66C177.438 121.7 177.878 121.72 178.158 121.72C180.678 121.72 181.938 120.71 181.938 118.69C181.938 117.87 181.758 117.19 181.398 116.65C181.058 116.09 180.538 115.81 179.838 115.81ZM199.729 127.54C199.729 128.52 200.039 129.18 200.659 129.52C200.499 129.82 200.259 130.05 199.939 130.21C199.639 130.37 199.289 130.45 198.889 130.45C198.309 130.45 197.829 130.29 197.449 129.97C197.069 129.63 196.839 129.18 196.759 128.62C196.439 129.28 195.919 129.78 195.199 130.12C194.499 130.48 193.739 130.66 192.919 130.66C190.879 130.66 189.399 129.88 188.479 128.32C187.559 126.76 187.099 124.76 187.099 122.32C187.099 119.8 187.639 117.8 188.719 116.32C189.819 114.84 191.519 114.1 193.819 114.1C194.779 114.1 195.649 114.23 196.429 114.49V109L199.729 108.64V127.54ZM196.429 116.83C195.509 116.21 194.589 115.9 193.669 115.9C192.449 115.9 191.649 116.48 191.269 117.64C190.889 118.8 190.699 120.31 190.699 122.17C190.699 123.95 190.919 125.48 191.359 126.76C191.799 128.02 192.609 128.65 193.789 128.65C194.669 128.65 195.329 128.32 195.769 127.66C196.209 126.98 196.429 126.14 196.429 125.14V116.83ZM209.183 114.7L211.943 114.34L212.093 117.04C212.473 116.08 213.053 115.35 213.833 114.85C214.633 114.35 215.563 114.1 216.623 114.1C217.803 114.1 218.723 114.34 219.383 114.82C220.043 115.28 220.513 115.97 220.793 116.89C221.573 115.03 222.993 114.1 225.053 114.1C226.733 114.1 227.903 114.57 228.563 115.51C229.223 116.43 229.553 117.84 229.553 119.74V127.54C229.553 128.52 229.863 129.18 230.483 129.52C230.323 129.82 230.063 130.05 229.703 130.21C229.343 130.37 228.963 130.45 228.563 130.45C227.783 130.45 227.203 130.23 226.823 129.79C226.443 129.35 226.253 128.73 226.253 127.93V120.16C226.253 118.9 226.113 117.96 225.833 117.34C225.553 116.72 224.933 116.41 223.973 116.41C222.833 116.41 222.073 116.95 221.693 118.03C221.313 119.11 221.123 120.5 221.123 122.2V130H217.823V120.16C217.823 118.9 217.683 117.96 217.403 117.34C217.123 116.72 216.503 116.41 215.543 116.41C214.323 116.41 213.503 116.95 213.083 118.03C212.683 119.11 212.483 120.5 212.483 122.2V130H209.183V114.7ZM243.101 125.77C243.561 125.99 243.791 126.42 243.791 127.06C243.791 127.78 243.551 128.42 243.071 128.98C242.591 129.52 241.971 129.93 241.211 130.21C240.451 130.51 239.681 130.66 238.901 130.66C236.701 130.66 235.071 129.95 234.011 128.53C232.951 127.09 232.421 125.16 232.421 122.74C232.421 120.16 232.991 118.08 234.131 116.5C235.291 114.9 237.041 114.1 239.381 114.1C240.861 114.1 242.051 114.49 242.951 115.27C243.851 116.03 244.301 117.11 244.301 118.51C244.301 120.25 243.691 121.47 242.471 122.17C241.271 122.87 239.631 123.22 237.551 123.22C236.971 123.22 236.421 123.2 235.901 123.16C235.961 124.74 236.221 126 236.681 126.94C237.161 127.88 238.001 128.35 239.201 128.35C240.081 128.35 240.851 128.13 241.511 127.69C242.191 127.23 242.721 126.59 243.101 125.77ZM238.901 115.81C237.821 115.81 237.061 116.38 236.621 117.52C236.181 118.64 235.941 120.02 235.901 121.66C236.501 121.7 236.941 121.72 237.221 121.72C239.741 121.72 241.001 120.71 241.001 118.69C241.001 117.87 240.821 117.19 240.461 116.65C240.121 116.09 239.601 115.81 238.901 115.81ZM247.181 114.7L249.941 114.34L250.091 117.04C250.471 116.08 251.051 115.35 251.831 114.85C252.631 114.35 253.561 114.1 254.621 114.1C256.301 114.1 257.471 114.57 258.131 115.51C258.791 116.43 259.121 117.84 259.121 119.74V127.54C259.121 128.52 259.431 129.18 260.051 129.52C259.891 129.82 259.631 130.05 259.271 130.21C258.911 130.37 258.531 130.45 258.131 130.45C257.351 130.45 256.771 130.23 256.391 129.79C256.011 129.35 255.821 128.73 255.821 127.93V120.16C255.821 118.9 255.681 117.96 255.401 117.34C255.121 116.72 254.501 116.41 253.541 116.41C252.321 116.41 251.501 116.95 251.081 118.03C250.681 119.11 250.481 120.5 250.481 122.2V130H247.181V114.7ZM267.891 115.69C267.291 115.69 266.811 115.85 266.451 116.17C266.091 116.47 265.911 116.91 265.911 117.49C265.911 118.27 266.171 118.91 266.691 119.41C267.231 119.89 268.051 120.43 269.151 121.03C270.031 121.51 270.731 121.94 271.251 122.32C271.791 122.7 272.251 123.19 272.631 123.79C273.011 124.37 273.201 125.08 273.201 125.92C273.201 127.44 272.651 128.61 271.551 129.43C270.471 130.25 269.091 130.66 267.411 130.66C265.951 130.66 264.721 130.41 263.721 129.91C262.741 129.41 262.251 128.58 262.251 127.42C262.251 126.74 262.461 126.22 262.881 125.86C263.301 125.5 263.871 125.32 264.591 125.32C265.111 125.32 265.511 125.43 265.791 125.65C265.631 126.13 265.551 126.58 265.551 127C265.551 127.64 265.751 128.15 266.151 128.53C266.551 128.89 267.091 129.07 267.771 129.07C268.511 129.07 269.071 128.88 269.451 128.5C269.851 128.1 270.051 127.52 270.051 126.76C270.051 125.98 269.781 125.35 269.241 124.87C268.721 124.37 267.911 123.82 266.811 123.22C265.931 122.72 265.221 122.28 264.681 121.9C264.161 121.52 263.711 121.04 263.331 120.46C262.951 119.86 262.761 119.14 262.761 118.3C262.761 116.96 263.301 115.93 264.381 115.21C265.461 114.47 266.771 114.1 268.311 114.1C269.731 114.1 270.891 114.36 271.791 114.88C272.711 115.38 273.171 116.21 273.171 117.37C273.171 118.05 272.951 118.57 272.511 118.93C272.091 119.29 271.521 119.47 270.801 119.47C270.281 119.47 269.881 119.36 269.601 119.14C269.761 118.66 269.841 118.21 269.841 117.79C269.841 117.13 269.671 116.62 269.331 116.26C269.011 115.88 268.531 115.69 267.891 115.69Z" fill="#FEF6F6"/>
</svg>
