<svg width="701" height="515" viewBox="0 0 701 515" fill="none" xmlns="http://www.w3.org/2000/svg">
<rect width="701" height="515" fill="#E6E8F9"/>
<path d="M78.9873 45.25C85.2005 45.25 90.2373 40.2132 90.2373 34C90.2373 27.7868 85.2005 22.75 78.9873 22.75C72.7741 22.75 67.7373 27.7868 67.7373 34C67.7373 40.2132 72.7741 45.25 78.9873 45.25Z" fill="#F17E84"/>
<path d="M100.869 57.1187C98.6748 54.925 94.9061 50.875 87.5936 50.875C86.4123 50.875 79.6061 50.875 73.3061 50.875C57.8373 50.8188 45.2373 38.2188 45.2373 22.75H33.9873C33.9873 40.525 45.8561 55.6 62.1123 60.4938V135.25H73.3623V101.5H84.6123V135.25H95.8623V68.0312L118.081 90.25L126.012 82.3188L100.869 57.1187Z" fill="#F17E84"/>
<path d="M213.987 45.25C220.201 45.25 225.237 40.2132 225.237 34C225.237 27.7868 220.201 22.75 213.987 22.75C207.774 22.75 202.737 27.7868 202.737 34C202.737 40.2132 207.774 45.25 213.987 45.25Z" fill="#F17E84"/>
<path d="M235.869 57.1187C233.675 54.925 229.906 50.875 222.594 50.875C221.412 50.875 214.606 50.875 208.306 50.875C192.837 50.8188 180.237 38.2188 180.237 22.75H168.987C168.987 40.525 180.856 55.6 197.112 60.4938V135.25H208.362V101.5H219.612V135.25H230.862V68.0312L253.081 90.25L261.012 82.3188L235.869 57.1187Z" fill="#F17E84"/>
<path d="M349.48 45.25C355.739 45.25 360.813 40.2132 360.813 34C360.813 27.7868 355.739 22.75 349.48 22.75C343.221 22.75 338.146 27.7868 338.146 34C338.146 40.2132 343.221 45.25 349.48 45.25Z" fill="#F17E84"/>
<path d="M371.523 57.1187C369.313 54.925 365.516 50.875 358.15 50.875C356.96 50.875 350.103 50.875 343.756 50.875C328.173 50.8188 315.48 38.2188 315.48 22.75H304.146C304.146 40.525 316.103 55.6 332.48 60.4938V135.25H343.813V101.5H355.146V135.25H366.48V68.0312L388.863 90.25L396.853 82.3188L371.523 57.1187Z" fill="#F17E84"/>
<path d="M484.987 45.25C491.201 45.25 496.237 40.2132 496.237 34C496.237 27.7868 491.201 22.75 484.987 22.75C478.774 22.75 473.737 27.7868 473.737 34C473.737 40.2132 478.774 45.25 484.987 45.25Z" fill="#F17E84"/>
<path d="M506.869 57.1187C504.675 54.925 500.906 50.875 493.594 50.875C492.412 50.875 485.606 50.875 479.306 50.875C463.837 50.8188 451.237 38.2188 451.237 22.75H439.987C439.987 40.525 451.856 55.6 468.112 60.4938V135.25H479.362V101.5H490.612V135.25H501.862V68.0312L524.081 90.25L532.012 82.3188L506.869 57.1187Z" fill="#F17E84"/>
<path d="M619.987 45.25C626.201 45.25 631.237 40.2132 631.237 34C631.237 27.7868 626.201 22.75 619.987 22.75C613.774 22.75 608.737 27.7868 608.737 34C608.737 40.2132 613.774 45.25 619.987 45.25Z" fill="#F17E84"/>
<path d="M641.869 57.1187C639.675 54.925 635.906 50.875 628.594 50.875C627.412 50.875 620.606 50.875 614.306 50.875C598.837 50.8188 586.237 38.2188 586.237 22.75H574.987C574.987 40.525 586.856 55.6 603.112 60.4938V135.25H614.362V101.5H625.612V135.25H636.862V68.0312L659.081 90.25L667.012 82.3188L641.869 57.1187Z" fill="#F17E84"/>
<path d="M115.845 221.728C122.313 221.728 125.548 226.036 125.548 234.652C125.548 243.773 122.313 248.334 115.845 248.334C112.308 248.334 109.794 247.159 108.303 244.809C106.838 242.459 106.105 239.225 106.105 235.107C106.105 231.064 106.863 227.83 108.379 225.404C109.92 222.953 112.409 221.728 115.845 221.728ZM115.845 245.681C117.866 245.681 119.193 244.683 119.825 242.687C120.456 240.665 120.772 238.076 120.772 234.917C120.772 231.91 120.444 229.409 119.787 227.413C119.13 225.392 117.816 224.381 115.845 224.381C113.849 224.381 112.523 225.392 111.866 227.413C111.209 229.409 110.88 231.91 110.88 234.917C110.88 238.076 111.196 240.665 111.828 242.687C112.459 244.683 113.799 245.681 115.845 245.681ZM142.87 228.171L137.223 247.5H132.068L126.838 228.171H131.159L135.025 244.961L138.89 228.171H142.87ZM157.532 242.156C158.114 242.434 158.404 242.977 158.404 243.786C158.404 244.695 158.101 245.504 157.495 246.211C156.888 246.894 156.105 247.412 155.145 247.765C154.185 248.144 153.212 248.334 152.226 248.334C149.447 248.334 147.388 247.437 146.049 245.643C144.71 243.824 144.04 241.385 144.04 238.328C144.04 235.069 144.76 232.441 146.2 230.445C147.666 228.424 149.877 227.413 152.833 227.413C154.703 227.413 156.206 227.906 157.343 228.891C158.48 229.851 159.048 231.216 159.048 232.984C159.048 235.182 158.278 236.724 156.737 237.608C155.221 238.492 153.149 238.935 150.521 238.935C149.788 238.935 149.093 238.909 148.436 238.859C148.512 240.855 148.841 242.447 149.422 243.634C150.028 244.822 151.089 245.415 152.605 245.415C153.717 245.415 154.69 245.138 155.524 244.582C156.383 244.001 157.052 243.192 157.532 242.156ZM152.226 229.573C150.862 229.573 149.902 230.293 149.346 231.734C148.79 233.149 148.487 234.892 148.436 236.964C149.194 237.014 149.75 237.04 150.104 237.04C153.288 237.04 154.879 235.764 154.879 233.212C154.879 232.176 154.652 231.317 154.197 230.634C153.768 229.927 153.111 229.573 152.226 229.573ZM169.433 230.331C168.347 230.331 167.639 231.064 167.311 232.529C167.008 233.97 166.856 235.7 166.856 237.722V247.5H162.687V228.171L166.174 227.716L166.363 231.127C166.717 229.99 167.336 229.093 168.221 228.436C169.105 227.754 170.128 227.413 171.29 227.413C172.554 227.413 173.552 227.779 174.285 228.512C175.043 229.245 175.422 230.243 175.422 231.506C175.422 233.553 174.436 234.576 172.465 234.576C171.808 234.576 171.303 234.437 170.949 234.159C171.126 233.502 171.215 232.934 171.215 232.454C171.215 231.039 170.621 230.331 169.433 230.331ZM201.282 222.486L201.547 225.253L191.087 248.334L186.084 247.5L197.189 226.049L183.128 226.086L183.393 222.486H201.282ZM212.463 221.728C215.647 221.728 217.921 222.928 219.285 225.328C220.65 227.704 221.332 230.811 221.332 234.652C221.332 238.568 220.637 241.828 219.247 244.43C217.883 247.033 215.622 248.334 212.463 248.334C209.305 248.334 207.043 247.108 205.679 244.657C204.34 242.181 203.67 238.998 203.67 235.107C203.67 231.216 204.34 228.019 205.679 225.518C207.043 222.991 209.305 221.728 212.463 221.728ZM212.463 245.681C214.131 245.681 215.23 244.721 215.76 242.8C216.291 240.88 216.556 238.252 216.556 234.917C216.556 231.809 216.278 229.283 215.723 227.337C215.192 225.366 214.106 224.381 212.463 224.381C210.846 224.381 209.772 225.354 209.242 227.299C208.711 229.245 208.446 231.784 208.446 234.917C208.446 238.252 208.698 240.88 209.204 242.8C209.734 244.721 210.821 245.681 212.463 245.681ZM247.256 221.463C247.61 221.463 247.963 221.602 248.317 221.88C248.671 222.132 248.974 222.448 249.227 222.827L234.863 247.083C234.559 247.588 234.269 247.967 233.991 248.22C233.713 248.473 233.359 248.599 232.93 248.599C232.576 248.599 232.222 248.46 231.869 248.182C231.515 247.93 231.212 247.614 230.959 247.235L245.361 222.979C245.639 222.473 245.917 222.094 246.195 221.842C246.473 221.589 246.826 221.463 247.256 221.463ZM230.656 221.955C234.749 221.955 236.796 224.368 236.796 229.194C236.796 231.645 236.315 233.54 235.355 234.879C234.395 236.218 232.829 236.888 230.656 236.888C226.512 236.888 224.44 234.399 224.44 229.422C224.44 227.072 224.933 225.24 225.918 223.926C226.929 222.612 228.508 221.955 230.656 221.955ZM230.656 223.775C229.62 223.775 228.938 224.305 228.609 225.366C228.281 226.402 228.116 227.729 228.116 229.346C228.116 231.089 228.268 232.466 228.571 233.477C228.874 234.488 229.569 234.993 230.656 234.993C231.717 234.993 232.387 234.488 232.664 233.477C232.968 232.441 233.119 231.064 233.119 229.346C233.119 227.729 232.955 226.402 232.627 225.366C232.323 224.305 231.666 223.775 230.656 223.775ZM249.947 233.287C254.04 233.287 256.087 235.7 256.087 240.526C256.087 242.977 255.607 244.872 254.646 246.211C253.686 247.551 252.12 248.22 249.947 248.22C245.803 248.22 243.731 245.731 243.731 240.754C243.731 238.404 244.224 236.572 245.209 235.258C246.22 233.944 247.799 233.287 249.947 233.287ZM249.947 235.107C248.911 235.107 248.229 235.637 247.9 236.698C247.572 237.734 247.408 239.061 247.408 240.678C247.408 242.421 247.547 243.798 247.824 244.809C248.128 245.82 248.835 246.325 249.947 246.325C251.008 246.325 251.678 245.82 251.956 244.809C252.259 243.773 252.41 242.396 252.41 240.678C252.41 239.061 252.246 237.734 251.918 236.698C251.614 235.637 250.958 235.107 249.947 235.107ZM280.246 230.331C279.16 230.331 278.452 231.064 278.124 232.529C277.821 233.97 277.669 235.7 277.669 237.722V247.5H273.5V228.171L276.987 227.716L277.177 231.127C277.53 229.99 278.149 229.093 279.034 228.436C279.918 227.754 280.941 227.413 282.104 227.413C283.367 227.413 284.365 227.779 285.098 228.512C285.856 229.245 286.235 230.243 286.235 231.506C286.235 233.553 285.249 234.576 283.278 234.576C282.621 234.576 282.116 234.437 281.762 234.159C281.939 233.502 282.028 232.934 282.028 232.454C282.028 231.039 281.434 230.331 280.246 230.331ZM298.724 245.757C298.244 246.641 297.536 247.285 296.601 247.69C295.692 248.119 294.656 248.334 293.494 248.334C291.75 248.334 290.285 247.803 289.097 246.742C287.935 245.681 287.354 244.304 287.354 242.611C287.354 238.518 291.005 236.471 298.307 236.471V233.174C298.307 231.91 298.117 230.976 297.738 230.369C297.359 229.738 296.639 229.422 295.578 229.422C294.694 229.422 293.961 229.662 293.38 230.142C292.799 230.597 292.508 231.241 292.508 232.075C292.508 232.605 292.609 233.174 292.811 233.78C292.458 234.058 291.952 234.197 291.295 234.197C290.386 234.197 289.666 233.97 289.135 233.515C288.605 233.06 288.339 232.403 288.339 231.544C288.339 230.331 289.021 229.346 290.386 228.588C291.75 227.805 293.569 227.413 295.843 227.413C297.511 227.413 298.825 227.666 299.785 228.171C300.745 228.651 301.427 229.409 301.832 230.445C302.261 231.456 302.476 232.82 302.476 234.538V244.392C302.476 245.63 302.868 246.464 303.651 246.894C303.449 247.273 303.146 247.563 302.741 247.765C302.362 247.967 301.92 248.069 301.415 248.069C300.682 248.069 300.076 247.866 299.596 247.462C299.116 247.033 298.825 246.464 298.724 245.757ZM294.972 245.794C296.084 245.794 296.917 245.378 297.473 244.544C298.029 243.685 298.307 242.624 298.307 241.36V238.366C294.037 238.366 291.902 239.73 291.902 242.459C291.902 243.47 292.167 244.278 292.698 244.885C293.254 245.491 294.012 245.794 294.972 245.794ZM316.916 227.413C319.291 227.413 320.984 228.373 321.994 230.293C323.005 232.188 323.51 234.614 323.51 237.57C323.51 240.804 322.816 243.407 321.426 245.378C320.036 247.348 317.901 248.334 315.021 248.334C313.808 248.334 312.709 248.17 311.724 247.841V254.36L307.555 254.815V228.171L311.041 227.716L311.231 231.127C312.292 228.651 314.187 227.413 316.916 227.413ZM315.438 230.331C314.124 230.331 313.176 230.862 312.595 231.923C312.014 232.959 311.724 234.273 311.724 235.865V244.885C312.886 245.668 314.048 246.06 315.21 246.06C316.752 246.06 317.762 245.277 318.242 243.71C318.722 242.143 318.962 240.16 318.962 237.76C318.962 235.511 318.748 233.717 318.318 232.378C317.889 231.013 316.928 230.331 315.438 230.331ZM336.754 227.413C339.129 227.413 340.822 228.373 341.833 230.293C342.843 232.188 343.349 234.614 343.349 237.57C343.349 240.804 342.654 243.407 341.264 245.378C339.875 247.348 337.74 248.334 334.859 248.334C333.646 248.334 332.547 248.17 331.562 247.841V254.36L327.393 254.815V228.171L330.88 227.716L331.069 231.127C332.13 228.651 334.025 227.413 336.754 227.413ZM335.276 230.331C333.962 230.331 333.015 230.862 332.434 231.923C331.852 232.959 331.562 234.273 331.562 235.865V244.885C332.724 245.668 333.886 246.06 335.049 246.06C336.59 246.06 337.601 245.277 338.081 243.71C338.561 242.143 338.801 240.16 338.801 237.76C338.801 235.511 338.586 233.717 338.156 232.378C337.727 231.013 336.767 230.331 335.276 230.331ZM354.091 227.413C356.921 227.413 359.018 228.335 360.382 230.18C361.747 231.999 362.429 234.462 362.429 237.57C362.429 240.88 361.772 243.508 360.458 245.453C359.144 247.374 357.022 248.334 354.091 248.334C351.211 248.334 349.101 247.412 347.762 245.567C346.448 243.723 345.791 241.183 345.791 237.949C345.791 234.816 346.473 232.277 347.838 230.331C349.202 228.386 351.286 227.413 354.091 227.413ZM354.091 246.06C355.658 246.06 356.681 245.289 357.161 243.748C357.641 242.207 357.881 240.211 357.881 237.76C357.881 235.511 357.616 233.603 357.085 232.037C356.58 230.47 355.582 229.687 354.091 229.687C351.59 229.687 350.339 232.378 350.339 237.76C350.339 240.211 350.566 242.207 351.021 243.748C351.501 245.289 352.524 246.06 354.091 246.06ZM372.887 230.331C371.8 230.331 371.093 231.064 370.764 232.529C370.461 233.97 370.31 235.7 370.31 237.722V247.5H366.141V228.171L369.627 227.716L369.817 231.127C370.171 229.99 370.79 229.093 371.674 228.436C372.558 227.754 373.582 227.413 374.744 227.413C376.007 227.413 377.005 227.779 377.738 228.512C378.496 229.245 378.875 230.243 378.875 231.506C378.875 233.553 377.89 234.576 375.919 234.576C375.262 234.576 374.756 234.437 374.403 234.159C374.58 233.502 374.668 232.934 374.668 232.454C374.668 231.039 374.074 230.331 372.887 230.331ZM378.781 229.876L378.744 228.739C379.881 228.285 380.954 227.678 381.965 226.92C383.001 226.162 383.873 225.328 384.58 224.419H385.755V228.171H389.242V229.876H385.679V243.672C385.679 244.43 385.818 244.999 386.096 245.378C386.374 245.757 386.816 245.997 387.423 246.098C387.296 246.679 386.955 247.146 386.399 247.5C385.869 247.879 385.25 248.069 384.542 248.069C382.496 248.069 381.472 246.906 381.472 244.582V229.876H378.781ZM404.105 242.156C404.686 242.434 404.976 242.977 404.976 243.786C404.976 244.695 404.673 245.504 404.067 246.211C403.46 246.894 402.677 247.412 401.717 247.765C400.757 248.144 399.784 248.334 398.799 248.334C396.019 248.334 393.96 247.437 392.621 245.643C391.282 243.824 390.612 241.385 390.612 238.328C390.612 235.069 391.332 232.441 392.772 230.445C394.238 228.424 396.449 227.413 399.405 227.413C401.275 227.413 402.778 227.906 403.915 228.891C405.052 229.851 405.621 231.216 405.621 232.984C405.621 235.182 404.85 236.724 403.309 237.608C401.793 238.492 399.721 238.935 397.093 238.935C396.36 238.935 395.665 238.909 395.009 238.859C395.084 240.855 395.413 242.447 395.994 243.634C396.6 244.822 397.662 245.415 399.178 245.415C400.289 245.415 401.262 245.138 402.096 244.582C402.955 244.001 403.624 243.192 404.105 242.156ZM398.799 229.573C397.434 229.573 396.474 230.293 395.918 231.734C395.362 233.149 395.059 234.892 395.009 236.964C395.767 237.014 396.322 237.04 396.676 237.04C399.86 237.04 401.452 235.764 401.452 233.212C401.452 232.176 401.224 231.317 400.769 230.634C400.34 229.927 399.683 229.573 398.799 229.573ZM416.005 230.331C414.919 230.331 414.211 231.064 413.883 232.529C413.58 233.97 413.428 235.7 413.428 237.722V247.5H409.259V228.171L412.746 227.716L412.936 231.127C413.289 229.99 413.908 229.093 414.793 228.436C415.677 227.754 416.7 227.413 417.863 227.413C419.126 227.413 420.124 227.779 420.857 228.512C421.615 229.245 421.994 230.243 421.994 231.506C421.994 233.553 421.008 234.576 419.037 234.576C418.38 234.576 417.875 234.437 417.521 234.159C417.698 233.502 417.787 232.934 417.787 232.454C417.787 231.039 417.193 230.331 416.005 230.331ZM436.416 242.156C436.997 242.434 437.287 242.977 437.287 243.786C437.287 244.695 436.984 245.504 436.378 246.211C435.771 246.894 434.988 247.412 434.028 247.765C433.068 248.144 432.095 248.334 431.11 248.334C428.33 248.334 426.271 247.437 424.932 245.643C423.593 243.824 422.923 241.385 422.923 238.328C422.923 235.069 423.643 232.441 425.084 230.445C426.549 228.424 428.76 227.413 431.716 227.413C433.586 227.413 435.089 227.906 436.226 228.891C437.363 229.851 437.932 231.216 437.932 232.984C437.932 235.182 437.161 236.724 435.62 237.608C434.104 238.492 432.032 238.935 429.404 238.935C428.672 238.935 427.977 238.909 427.32 238.859C427.396 240.855 427.724 242.447 428.305 243.634C428.912 244.822 429.973 245.415 431.489 245.415C432.601 245.415 433.573 245.138 434.407 244.582C435.266 244.001 435.936 243.192 436.416 242.156ZM431.11 229.573C429.745 229.573 428.785 230.293 428.229 231.734C427.674 233.149 427.37 234.892 427.32 236.964C428.078 237.014 428.634 237.04 428.987 237.04C432.171 237.04 433.763 235.764 433.763 233.212C433.763 232.176 433.535 231.317 433.081 230.634C432.651 229.927 431.994 229.573 431.11 229.573ZM448.317 230.331C447.23 230.331 446.523 231.064 446.194 232.529C445.891 233.97 445.739 235.7 445.739 237.722V247.5H441.57V228.171L445.057 227.716L445.247 231.127C445.6 229.99 446.219 229.093 447.104 228.436C447.988 227.754 449.011 227.413 450.174 227.413C451.437 227.413 452.435 227.779 453.168 228.512C453.926 229.245 454.305 230.243 454.305 231.506C454.305 233.553 453.319 234.576 451.349 234.576C450.692 234.576 450.186 234.437 449.833 234.159C450.009 233.502 450.098 232.934 450.098 232.454C450.098 231.039 449.504 230.331 448.317 230.331ZM473.419 245.757C472.939 246.641 472.232 247.285 471.297 247.69C470.387 248.119 469.351 248.334 468.189 248.334C466.446 248.334 464.98 247.803 463.793 246.742C462.63 245.681 462.049 244.304 462.049 242.611C462.049 238.518 465.7 236.471 473.002 236.471V233.174C473.002 231.91 472.813 230.976 472.434 230.369C472.055 229.738 471.335 229.422 470.274 229.422C469.389 229.422 468.656 229.662 468.075 230.142C467.494 230.597 467.204 231.241 467.204 232.075C467.204 232.605 467.305 233.174 467.507 233.78C467.153 234.058 466.648 234.197 465.991 234.197C465.081 234.197 464.361 233.97 463.831 233.515C463.3 233.06 463.035 232.403 463.035 231.544C463.035 230.331 463.717 229.346 465.081 228.588C466.446 227.805 468.265 227.413 470.539 227.413C472.206 227.413 473.52 227.666 474.48 228.171C475.441 228.651 476.123 229.409 476.527 230.445C476.957 231.456 477.171 232.82 477.171 234.538V244.392C477.171 245.63 477.563 246.464 478.346 246.894C478.144 247.273 477.841 247.563 477.437 247.765C477.058 247.967 476.615 248.069 476.11 248.069C475.377 248.069 474.771 247.866 474.291 247.462C473.811 247.033 473.52 246.464 473.419 245.757ZM469.667 245.794C470.779 245.794 471.613 245.378 472.169 244.544C472.724 243.685 473.002 242.624 473.002 241.36V238.366C468.732 238.366 466.597 239.73 466.597 242.459C466.597 243.47 466.863 244.278 467.393 244.885C467.949 245.491 468.707 245.794 469.667 245.794ZM479.786 229.876L479.748 228.739C480.885 228.285 481.959 227.678 482.97 226.92C484.006 226.162 484.878 225.328 485.585 224.419H486.76V228.171H490.247V229.876H486.684V243.672C486.684 244.43 486.823 244.999 487.101 245.378C487.379 245.757 487.821 245.997 488.428 246.098C488.301 246.679 487.96 247.146 487.404 247.5C486.874 247.879 486.255 248.069 485.547 248.069C483.501 248.069 482.477 246.906 482.477 244.582V229.876H479.786ZM506.542 227.413C509.372 227.413 511.469 228.335 512.834 230.18C514.198 231.999 514.88 234.462 514.88 237.57C514.88 240.88 514.223 243.508 512.91 245.453C511.596 247.374 509.473 248.334 506.542 248.334C503.662 248.334 501.552 247.412 500.213 245.567C498.899 243.723 498.242 241.183 498.242 237.949C498.242 234.816 498.924 232.277 500.289 230.331C501.653 228.386 503.738 227.413 506.542 227.413ZM506.542 246.06C508.109 246.06 509.132 245.289 509.612 243.748C510.092 242.207 510.332 240.211 510.332 237.76C510.332 235.511 510.067 233.603 509.536 232.037C509.031 230.47 508.033 229.687 506.542 229.687C504.041 229.687 502.79 232.378 502.79 237.76C502.79 240.211 503.018 242.207 503.472 243.748C503.952 245.289 504.976 246.06 506.542 246.06ZM528.105 227.413C530.48 227.413 532.173 228.373 533.183 230.293C534.194 232.188 534.699 234.614 534.699 237.57C534.699 240.804 534.005 243.407 532.615 245.378C531.225 247.348 529.09 248.334 526.21 248.334C524.997 248.334 523.898 248.17 522.912 247.841V254.36L518.743 254.815V228.171L522.23 227.716L522.42 231.127C523.481 228.651 525.376 227.413 528.105 227.413ZM526.627 230.331C525.313 230.331 524.365 230.862 523.784 231.923C523.203 232.959 522.912 234.273 522.912 235.865V244.885C524.075 245.668 525.237 246.06 526.399 246.06C527.941 246.06 528.951 245.277 529.431 243.71C529.911 242.143 530.151 240.16 530.151 237.76C530.151 235.511 529.937 233.717 529.507 232.378C529.078 231.013 528.117 230.331 526.627 230.331ZM542.675 220.515V244.392C542.675 245.63 543.067 246.464 543.85 246.894C543.648 247.273 543.307 247.563 542.827 247.765C542.372 247.967 541.892 248.069 541.386 248.069C540.426 248.069 539.706 247.791 539.226 247.235C538.746 246.679 538.506 245.896 538.506 244.885V220.97L542.675 220.515ZM560.183 242.156C560.764 242.434 561.055 242.977 561.055 243.786C561.055 244.695 560.751 245.504 560.145 246.211C559.539 246.894 558.755 247.412 557.795 247.765C556.835 248.144 555.862 248.334 554.877 248.334C552.098 248.334 550.038 247.437 548.699 245.643C547.36 243.824 546.691 241.385 546.691 238.328C546.691 235.069 547.411 232.441 548.851 230.445C550.316 228.424 552.527 227.413 555.483 227.413C557.353 227.413 558.856 227.906 559.993 228.891C561.13 229.851 561.699 231.216 561.699 232.984C561.699 235.182 560.928 236.724 559.387 237.608C557.871 238.492 555.799 238.935 553.171 238.935C552.439 238.935 551.744 238.909 551.087 238.859C551.163 240.855 551.491 242.447 552.072 243.634C552.679 244.822 553.74 245.415 555.256 245.415C556.368 245.415 557.34 245.138 558.174 244.582C559.033 244.001 559.703 243.192 560.183 242.156ZM554.877 229.573C553.513 229.573 552.552 230.293 551.997 231.734C551.441 233.149 551.137 234.892 551.087 236.964C551.845 237.014 552.401 237.04 552.755 237.04C555.938 237.04 557.53 235.764 557.53 233.212C557.53 232.176 557.303 231.317 556.848 230.634C556.418 229.927 555.761 229.573 554.877 229.573ZM578.868 228.171L573.221 247.5H568.066L562.836 228.171H567.157L571.023 244.961L574.888 228.171H578.868ZM593.531 242.156C594.112 242.434 594.402 242.977 594.402 243.786C594.402 244.695 594.099 245.504 593.493 246.211C592.886 246.894 592.103 247.412 591.143 247.765C590.183 248.144 589.21 248.334 588.225 248.334C585.445 248.334 583.386 247.437 582.047 245.643C580.708 243.824 580.038 241.385 580.038 238.328C580.038 235.069 580.758 232.441 582.198 230.445C583.664 228.424 585.875 227.413 588.831 227.413C590.701 227.413 592.204 227.906 593.341 228.891C594.478 229.851 595.047 231.216 595.047 232.984C595.047 235.182 594.276 236.724 592.735 237.608C591.219 238.492 589.147 238.935 586.519 238.935C585.786 238.935 585.091 238.909 584.435 238.859C584.51 240.855 584.839 242.447 585.42 243.634C586.026 244.822 587.088 245.415 588.604 245.415C589.715 245.415 590.688 245.138 591.522 244.582C592.381 244.001 593.05 243.192 593.531 242.156ZM588.225 229.573C586.86 229.573 585.9 230.293 585.344 231.734C584.788 233.149 584.485 234.892 584.435 236.964C585.193 237.014 585.748 237.04 586.102 237.04C589.286 237.04 590.878 235.764 590.878 233.212C590.878 232.176 590.65 231.317 590.195 230.634C589.766 229.927 589.109 229.573 588.225 229.573ZM151.807 280.171L157.796 279.716L158.099 283.127C158.604 281.813 159.375 280.866 160.411 280.285C161.447 279.704 162.735 279.413 164.276 279.413C167.106 279.413 169.014 280.411 169.999 282.407C171.035 280.411 172.93 279.413 175.684 279.413C177.883 279.413 179.474 280.019 180.46 281.232C181.47 282.42 181.976 284.188 181.976 286.538V295.066C181.976 296.708 182.367 298.035 183.151 299.045C182.772 299.374 182.241 299.626 181.559 299.803C180.902 299.98 180.27 300.069 179.664 300.069C178.021 300.069 176.758 299.677 175.874 298.894C174.989 298.11 174.547 296.923 174.547 295.331V286.614C174.547 285.25 174.446 284.188 174.244 283.43C174.042 282.672 173.562 282.293 172.804 282.293C171.92 282.293 171.351 282.761 171.098 283.696C170.871 284.605 170.757 285.831 170.757 287.372V299.5H163.329V286.614C163.329 285.25 163.215 284.188 162.988 283.43C162.786 282.672 162.268 282.293 161.434 282.293C160.752 282.293 160.246 282.546 159.918 283.051C159.589 283.531 159.387 284.113 159.312 284.795C159.261 285.452 159.236 286.311 159.236 287.372V299.5H151.807V280.171ZM201.708 293.019C202.062 293.196 202.327 293.487 202.504 293.891C202.681 294.27 202.77 294.687 202.77 295.141C202.77 296.278 202.391 297.239 201.633 298.022C200.875 298.805 199.902 299.386 198.714 299.765C197.552 300.144 196.326 300.334 195.038 300.334C191.778 300.334 189.252 299.399 187.458 297.529C185.689 295.634 184.805 293.019 184.805 289.684C184.805 286.298 185.74 283.746 187.609 282.028C189.504 280.285 192.183 279.413 195.644 279.413C197.868 279.413 199.75 279.868 201.291 280.777C202.833 281.687 203.603 283.064 203.603 284.908C203.603 287.182 202.782 288.749 201.14 289.608C199.497 290.442 197.236 290.859 194.356 290.859C193.522 290.859 192.878 290.821 192.423 290.745C192.524 292.337 192.878 293.575 193.484 294.459C194.116 295.318 195.139 295.748 196.554 295.748C197.64 295.748 198.651 295.52 199.586 295.066C200.521 294.586 201.228 293.903 201.708 293.019ZM192.385 289.04C194.002 289.04 195.189 288.736 195.947 288.13C196.731 287.498 197.122 286.424 197.122 284.908C197.122 283.999 196.958 283.241 196.63 282.634C196.326 282.003 195.821 281.687 195.114 281.687C193.37 281.687 192.461 284.138 192.385 289.04ZM205.955 280.171L211.944 279.716L212.247 283.127C212.752 281.813 213.523 280.866 214.559 280.285C215.595 279.704 216.883 279.413 218.425 279.413C220.699 279.413 222.341 280.007 223.352 281.194C224.387 282.382 224.905 284.163 224.905 286.538V295.066C224.905 296.708 225.297 298.035 226.08 299.045C225.701 299.374 225.171 299.626 224.489 299.803C223.806 299.98 223.162 300.069 222.556 300.069C220.939 300.069 219.688 299.677 218.804 298.894C217.919 298.11 217.477 296.923 217.477 295.331V286.614C217.477 285.25 217.363 284.188 217.136 283.43C216.934 282.672 216.416 282.293 215.582 282.293C214.9 282.293 214.395 282.546 214.066 283.051C213.738 283.531 213.535 284.113 213.46 284.795C213.409 285.452 213.384 286.311 213.384 287.372V299.5H205.955V280.171ZM236.342 281.573C235.786 281.573 235.331 281.75 234.977 282.104C234.649 282.432 234.485 282.887 234.485 283.468C234.485 284.15 234.674 284.757 235.053 285.287C235.457 285.793 235.95 286.235 236.531 286.614C237.112 286.993 237.908 287.448 238.919 287.978C240.081 288.61 241.003 289.166 241.686 289.646C242.368 290.101 242.949 290.682 243.429 291.389C243.934 292.072 244.187 292.893 244.187 293.853C244.187 296.102 243.353 297.744 241.686 298.78C240.043 299.816 237.883 300.334 235.205 300.334C233.133 300.334 231.301 300.018 229.709 299.386C228.117 298.729 227.322 297.656 227.322 296.165C227.322 295.129 227.726 294.358 228.534 293.853C229.368 293.322 230.391 293.057 231.604 293.057C231.933 293.057 232.312 293.082 232.741 293.133C233.171 293.183 233.474 293.272 233.651 293.398C233.55 294.207 233.499 294.838 233.499 295.293C233.499 296.203 233.638 296.91 233.916 297.415C234.219 297.921 234.737 298.173 235.47 298.173C236.127 298.173 236.645 297.959 237.024 297.529C237.403 297.074 237.592 296.493 237.592 295.786C237.592 295.104 237.39 294.51 236.986 294.004C236.607 293.474 236.127 293.019 235.546 292.64C234.965 292.261 234.169 291.806 233.158 291.276C231.996 290.669 231.061 290.126 230.354 289.646C229.671 289.166 229.078 288.585 228.572 287.903C228.092 287.195 227.852 286.361 227.852 285.401C227.852 283.329 228.686 281.813 230.354 280.853C232.021 279.893 234.093 279.413 236.569 279.413C238.489 279.413 240.233 279.704 241.799 280.285C243.391 280.866 244.187 281.813 244.187 283.127C244.187 284.062 243.758 284.807 242.898 285.363C242.039 285.894 241.054 286.159 239.942 286.159C239.614 286.159 239.235 286.134 238.805 286.083C238.376 286.033 238.073 285.944 237.896 285.818C237.946 285.54 237.984 285.224 238.009 284.871C238.035 284.517 238.047 284.201 238.047 283.923C238.047 283.241 237.908 282.685 237.63 282.255C237.352 281.801 236.923 281.573 236.342 281.573ZM245.188 281.876V280.702C246.451 280.247 247.815 279.59 249.281 278.731C250.772 277.846 251.972 276.949 252.881 276.04H255.004V280.171H258.453V281.876H255.004V295.104C255.004 295.887 255.155 296.506 255.458 296.961C255.762 297.39 256.267 297.693 256.974 297.87C256.595 298.628 255.989 299.184 255.155 299.538C254.321 299.892 253.412 300.069 252.426 300.069C250.86 300.069 249.66 299.664 248.826 298.856C247.992 298.047 247.575 296.872 247.575 295.331V281.876H245.188ZM268.644 282.672C267.911 282.672 267.456 283.077 267.279 283.885C267.102 284.668 267.014 285.831 267.014 287.372V299.5H259.585V280.171L265.574 279.716L265.877 283.127C266.306 281.94 266.989 281.03 267.923 280.398C268.884 279.741 270.008 279.413 271.297 279.413C272.914 279.413 274.19 279.868 275.124 280.777C276.085 281.662 276.565 282.9 276.565 284.492C276.565 285.831 276.186 286.879 275.428 287.637C274.695 288.37 273.646 288.736 272.282 288.736C271.953 288.736 271.562 288.711 271.107 288.661C270.678 288.585 270.374 288.484 270.197 288.357C270.349 287.7 270.425 286.955 270.425 286.121C270.425 283.822 269.831 282.672 268.644 282.672ZM297.193 295.066C297.193 296.708 297.585 298.035 298.368 299.045C297.989 299.374 297.458 299.626 296.776 299.803C296.094 299.98 295.449 300.069 294.843 300.069C292.493 300.069 290.965 299.31 290.257 297.794C289.145 299.487 287.377 300.334 284.951 300.334C283.081 300.334 281.641 299.942 280.631 299.159C279.645 298.376 278.976 297.289 278.622 295.899C278.268 294.51 278.091 292.729 278.091 290.556V280.171H285.671V290.366C285.671 292.059 285.697 293.373 285.747 294.308C285.823 295.217 285.987 295.975 286.24 296.582C286.518 297.163 286.96 297.453 287.566 297.453C289.032 297.453 289.764 296.089 289.764 293.36V280.171H297.193V295.066ZM312.56 297.794C312.156 298.679 311.499 299.323 310.589 299.727C309.68 300.132 308.656 300.334 307.519 300.334C305.347 300.334 303.527 299.854 302.062 298.894C300.596 297.908 299.864 296.481 299.864 294.611C299.864 292.185 301.013 290.556 303.313 289.722C305.612 288.888 308.53 288.471 312.067 288.471V285.174C312.067 284.037 311.916 283.152 311.613 282.521C311.335 281.889 310.779 281.573 309.945 281.573C308.151 281.573 307.254 282.723 307.254 285.022C307.254 285.477 307.305 286.109 307.406 286.917C307.229 287.044 306.926 287.132 306.496 287.182C306.067 287.233 305.688 287.258 305.359 287.258C304.146 287.258 303.136 287.006 302.327 286.5C301.519 285.97 301.114 285.174 301.114 284.113C301.114 282.445 302.049 281.245 303.919 280.512C305.789 279.779 307.886 279.413 310.21 279.413C313.217 279.413 315.516 279.944 317.108 281.005C318.7 282.066 319.496 283.91 319.496 286.538V295.066C319.496 296.708 319.888 298.035 320.671 299.045C320.292 299.374 319.761 299.626 319.079 299.803C318.422 299.98 317.79 300.069 317.184 300.069C314.834 300.069 313.293 299.31 312.56 297.794ZM309.642 297.643C310.501 297.643 311.12 297.264 311.499 296.506C311.878 295.748 312.067 294.813 312.067 293.701V290.366C310.476 290.366 309.276 290.682 308.467 291.314C307.658 291.945 307.254 292.994 307.254 294.459C307.254 295.394 307.444 296.165 307.823 296.771C308.227 297.352 308.833 297.643 309.642 297.643ZM321.469 281.876V280.702C322.732 280.247 324.096 279.59 325.562 278.731C327.053 277.846 328.253 276.949 329.162 276.04H331.285V280.171H334.734V281.876H331.285V295.104C331.285 295.887 331.436 296.506 331.74 296.961C332.043 297.39 332.548 297.693 333.256 297.87C332.877 298.628 332.27 299.184 331.436 299.538C330.603 299.892 329.693 300.069 328.708 300.069C327.141 300.069 325.941 299.664 325.107 298.856C324.273 298.047 323.856 296.872 323.856 295.331V281.876H321.469ZM339.732 271.075C340.945 271.075 341.918 271.34 342.651 271.871C343.383 272.401 343.75 273.147 343.75 274.107C343.75 275.067 343.358 275.812 342.575 276.343C341.817 276.874 340.819 277.139 339.581 277.139C338.368 277.139 337.383 276.886 336.625 276.381C335.892 275.85 335.525 275.118 335.525 274.183C335.525 273.197 335.917 272.439 336.7 271.909C337.509 271.353 338.52 271.075 339.732 271.075ZM343.295 295.066C343.295 296.708 343.687 298.035 344.47 299.045C344.091 299.374 343.56 299.626 342.878 299.803C342.196 299.98 341.552 300.069 340.945 300.069C339.303 300.069 338.04 299.677 337.155 298.894C336.296 298.11 335.867 296.923 335.867 295.331V280.171H343.295V295.066ZM356.367 279.413C359.626 279.413 362.102 280.297 363.795 282.066C365.513 283.809 366.372 286.311 366.372 289.57C366.372 291.718 365.981 293.6 365.197 295.217C364.414 296.834 363.264 298.098 361.748 299.007C360.258 299.892 358.464 300.334 356.367 300.334C354.32 300.334 352.539 299.904 351.023 299.045C349.532 298.186 348.382 296.973 347.574 295.407C346.765 293.84 346.361 292.021 346.361 289.949C346.361 286.639 347.22 284.062 348.938 282.218C350.682 280.348 353.158 279.413 356.367 279.413ZM356.367 298.06C357.403 298.06 358.06 297.289 358.337 295.748C358.641 294.207 358.792 292.211 358.792 289.76C358.792 287.334 358.641 285.389 358.337 283.923C358.06 282.432 357.403 281.687 356.367 281.687C355.331 281.687 354.661 282.432 354.358 283.923C354.08 285.389 353.941 287.334 353.941 289.76C353.941 292.211 354.08 294.207 354.358 295.748C354.661 297.289 355.331 298.06 356.367 298.06ZM369.214 280.171L375.202 279.716L375.506 283.127C376.011 281.813 376.782 280.866 377.817 280.285C378.853 279.704 380.142 279.413 381.683 279.413C383.957 279.413 385.6 280.007 386.61 281.194C387.646 282.382 388.164 284.163 388.164 286.538V295.066C388.164 296.708 388.556 298.035 389.339 299.045C388.96 299.374 388.429 299.626 387.747 299.803C387.065 299.98 386.421 300.069 385.814 300.069C384.197 300.069 382.947 299.677 382.062 298.894C381.178 298.11 380.736 296.923 380.736 295.331V286.614C380.736 285.25 380.622 284.188 380.395 283.43C380.193 282.672 379.675 282.293 378.841 282.293C378.159 282.293 377.653 282.546 377.325 283.051C376.996 283.531 376.794 284.113 376.718 284.795C376.668 285.452 376.643 286.311 376.643 287.372V299.5H369.214V280.171ZM399.6 281.573C399.045 281.573 398.59 281.75 398.236 282.104C397.908 282.432 397.743 282.887 397.743 283.468C397.743 284.15 397.933 284.757 398.312 285.287C398.716 285.793 399.209 286.235 399.79 286.614C400.371 286.993 401.167 287.448 402.178 287.978C403.34 288.61 404.262 289.166 404.944 289.646C405.627 290.101 406.208 290.682 406.688 291.389C407.193 292.072 407.446 292.893 407.446 293.853C407.446 296.102 406.612 297.744 404.944 298.78C403.302 299.816 401.142 300.334 398.463 300.334C396.392 300.334 394.56 300.018 392.968 299.386C391.376 298.729 390.58 297.656 390.58 296.165C390.58 295.129 390.985 294.358 391.793 293.853C392.627 293.322 393.65 293.057 394.863 293.057C395.191 293.057 395.57 293.082 396 293.133C396.43 293.183 396.733 293.272 396.91 293.398C396.809 294.207 396.758 294.838 396.758 295.293C396.758 296.203 396.897 296.91 397.175 297.415C397.478 297.921 397.996 298.173 398.729 298.173C399.386 298.173 399.904 297.959 400.283 297.529C400.662 297.074 400.851 296.493 400.851 295.786C400.851 295.104 400.649 294.51 400.245 294.004C399.866 293.474 399.386 293.019 398.805 292.64C398.223 292.261 397.428 291.806 396.417 291.276C395.255 290.669 394.32 290.126 393.612 289.646C392.93 289.166 392.336 288.585 391.831 287.903C391.351 287.195 391.111 286.361 391.111 285.401C391.111 283.329 391.945 281.813 393.612 280.853C395.28 279.893 397.352 279.413 399.828 279.413C401.748 279.413 403.492 279.704 405.058 280.285C406.65 280.866 407.446 281.813 407.446 283.127C407.446 284.062 407.016 284.807 406.157 285.363C405.298 285.894 404.313 286.159 403.201 286.159C402.873 286.159 402.494 286.134 402.064 286.083C401.634 286.033 401.331 285.944 401.154 285.818C401.205 285.54 401.243 285.224 401.268 284.871C401.293 284.517 401.306 284.201 401.306 283.923C401.306 283.241 401.167 282.685 400.889 282.255C400.611 281.801 400.182 281.573 399.6 281.573ZM417.921 281.573C417.365 281.573 416.911 281.75 416.557 282.104C416.228 282.432 416.064 282.887 416.064 283.468C416.064 284.15 416.254 284.757 416.633 285.287C417.037 285.793 417.53 286.235 418.111 286.614C418.692 286.993 419.488 287.448 420.498 287.978C421.661 288.61 422.583 289.166 423.265 289.646C423.947 290.101 424.529 290.682 425.009 291.389C425.514 292.072 425.767 292.893 425.767 293.853C425.767 296.102 424.933 297.744 423.265 298.78C421.623 299.816 419.463 300.334 416.784 300.334C414.712 300.334 412.881 300.018 411.289 299.386C409.697 298.729 408.901 297.656 408.901 296.165C408.901 295.129 409.305 294.358 410.114 293.853C410.948 293.322 411.971 293.057 413.184 293.057C413.512 293.057 413.891 293.082 414.321 293.133C414.75 293.183 415.054 293.272 415.23 293.398C415.129 294.207 415.079 294.838 415.079 295.293C415.079 296.203 415.218 296.91 415.496 297.415C415.799 297.921 416.317 298.173 417.05 298.173C417.707 298.173 418.224 297.959 418.603 297.529C418.982 297.074 419.172 296.493 419.172 295.786C419.172 295.104 418.97 294.51 418.566 294.004C418.187 293.474 417.707 293.019 417.125 292.64C416.544 292.261 415.748 291.806 414.738 291.276C413.575 290.669 412.641 290.126 411.933 289.646C411.251 289.166 410.657 288.585 410.152 287.903C409.672 287.195 409.432 286.361 409.432 285.401C409.432 283.329 410.265 281.813 411.933 280.853C413.601 279.893 415.673 279.413 418.149 279.413C420.069 279.413 421.812 279.704 423.379 280.285C424.971 280.866 425.767 281.813 425.767 283.127C425.767 284.062 425.337 284.807 424.478 285.363C423.619 285.894 422.634 286.159 421.522 286.159C421.193 286.159 420.814 286.134 420.385 286.083C419.955 286.033 419.652 285.944 419.475 285.818C419.526 285.54 419.564 285.224 419.589 284.871C419.614 284.517 419.627 284.201 419.627 283.923C419.627 283.241 419.488 282.685 419.21 282.255C418.932 281.801 418.502 281.573 417.921 281.573ZM428.359 280.171L434.347 279.716L434.65 283.127C435.156 281.813 435.926 280.866 436.962 280.285C437.998 279.704 439.287 279.413 440.828 279.413C443.658 279.413 445.565 280.411 446.551 282.407C447.587 280.411 449.482 279.413 452.236 279.413C454.434 279.413 456.026 280.019 457.011 281.232C458.022 282.42 458.527 284.188 458.527 286.538V295.066C458.527 296.708 458.919 298.035 459.702 299.045C459.323 299.374 458.793 299.626 458.11 299.803C457.453 299.98 456.822 300.069 456.215 300.069C454.573 300.069 453.31 299.677 452.425 298.894C451.541 298.11 451.099 296.923 451.099 295.331V286.614C451.099 285.25 450.998 284.188 450.796 283.43C450.594 282.672 450.113 282.293 449.355 282.293C448.471 282.293 447.903 282.761 447.65 283.696C447.423 284.605 447.309 285.831 447.309 287.372V299.5H439.88V286.614C439.88 285.25 439.767 284.188 439.539 283.43C439.337 282.672 438.819 282.293 437.985 282.293C437.303 282.293 436.798 282.546 436.469 283.051C436.141 283.531 435.939 284.113 435.863 284.795C435.813 285.452 435.787 286.311 435.787 287.372V299.5H428.359V280.171ZM478.26 293.019C478.614 293.196 478.879 293.487 479.056 293.891C479.233 294.27 479.321 294.687 479.321 295.141C479.321 296.278 478.942 297.239 478.184 298.022C477.426 298.805 476.453 299.386 475.266 299.765C474.104 300.144 472.878 300.334 471.589 300.334C468.33 300.334 465.803 299.399 464.009 297.529C462.241 295.634 461.356 293.019 461.356 289.684C461.356 286.298 462.291 283.746 464.161 282.028C466.056 280.285 468.734 279.413 472.196 279.413C474.419 279.413 476.302 279.868 477.843 280.777C479.384 281.687 480.155 283.064 480.155 284.908C480.155 287.182 479.334 288.749 477.691 289.608C476.049 290.442 473.788 290.859 470.907 290.859C470.073 290.859 469.429 290.821 468.974 290.745C469.075 292.337 469.429 293.575 470.036 294.459C470.667 295.318 471.691 295.748 473.105 295.748C474.192 295.748 475.203 295.52 476.137 295.066C477.072 294.586 477.78 293.903 478.26 293.019ZM468.936 289.04C470.554 289.04 471.741 288.736 472.499 288.13C473.282 287.498 473.674 286.424 473.674 284.908C473.674 283.999 473.51 283.241 473.181 282.634C472.878 282.003 472.373 281.687 471.665 281.687C469.922 281.687 469.012 284.138 468.936 289.04ZM491.565 282.672C490.832 282.672 490.378 283.077 490.201 283.885C490.024 284.668 489.935 285.831 489.935 287.372V299.5H482.507V280.171L488.495 279.716L488.798 283.127C489.228 281.94 489.91 281.03 490.845 280.398C491.805 279.741 492.93 279.413 494.218 279.413C495.835 279.413 497.111 279.868 498.046 280.777C499.006 281.662 499.486 282.9 499.486 284.492C499.486 285.831 499.107 286.879 498.349 287.637C497.616 288.37 496.568 288.736 495.204 288.736C494.875 288.736 494.483 288.711 494.029 288.661C493.599 288.585 493.296 288.484 493.119 288.357C493.271 287.7 493.346 286.955 493.346 286.121C493.346 283.822 492.753 282.672 491.565 282.672ZM499.421 281.876V280.702C500.684 280.247 502.049 279.59 503.514 278.731C505.005 277.846 506.205 276.949 507.115 276.04H509.237V280.171H512.686V281.876H509.237V295.104C509.237 295.887 509.389 296.506 509.692 296.961C509.995 297.39 510.501 297.693 511.208 297.87C510.829 298.628 510.223 299.184 509.389 299.538C508.555 299.892 507.645 300.069 506.66 300.069C505.093 300.069 503.893 299.664 503.059 298.856C502.226 298.047 501.809 296.872 501.809 295.331V281.876H499.421ZM530.002 293.019C530.356 293.196 530.621 293.487 530.798 293.891C530.975 294.27 531.063 294.687 531.063 295.141C531.063 296.278 530.684 297.239 529.926 298.022C529.168 298.805 528.196 299.386 527.008 299.765C525.846 300.144 524.62 300.334 523.332 300.334C520.072 300.334 517.546 299.399 515.752 297.529C513.983 295.634 513.099 293.019 513.099 289.684C513.099 286.298 514.034 283.746 515.903 282.028C517.798 280.285 520.477 279.413 523.938 279.413C526.162 279.413 528.044 279.868 529.585 280.777C531.127 281.687 531.897 283.064 531.897 284.908C531.897 287.182 531.076 288.749 529.434 289.608C527.791 290.442 525.53 290.859 522.65 290.859C521.816 290.859 521.172 290.821 520.717 290.745C520.818 292.337 521.172 293.575 521.778 294.459C522.41 295.318 523.433 295.748 524.848 295.748C525.934 295.748 526.945 295.52 527.88 295.066C528.815 294.586 529.522 293.903 530.002 293.019ZM520.679 289.04C522.296 289.04 523.483 288.736 524.241 288.13C525.025 287.498 525.416 286.424 525.416 284.908C525.416 283.999 525.252 283.241 524.924 282.634C524.62 282.003 524.115 281.687 523.408 281.687C521.664 281.687 520.755 284.138 520.679 289.04ZM543.308 282.672C542.575 282.672 542.12 283.077 541.943 283.885C541.766 284.668 541.678 285.831 541.678 287.372V299.5H534.249V280.171L540.238 279.716L540.541 283.127C540.97 281.94 541.653 281.03 542.587 280.398C543.548 279.741 544.672 279.413 545.961 279.413C547.578 279.413 548.854 279.868 549.788 280.777C550.749 281.662 551.229 282.9 551.229 284.492C551.229 285.831 550.85 286.879 550.092 287.637C549.359 288.37 548.31 288.736 546.946 288.736C546.617 288.736 546.226 288.711 545.771 288.661C545.342 288.585 545.038 288.484 544.861 288.357C545.013 287.7 545.089 286.955 545.089 286.121C545.089 283.822 544.495 282.672 543.308 282.672Z" fill="#E7232D"/>
<path d="M78.9873 402.25C85.2005 402.25 90.2373 397.213 90.2373 391C90.2373 384.787 85.2005 379.75 78.9873 379.75C72.7741 379.75 67.7373 384.787 67.7373 391C67.7373 397.213 72.7741 402.25 78.9873 402.25Z" fill="#F17E84"/>
<path d="M100.869 414.119C98.6748 411.925 94.9061 407.875 87.5936 407.875C86.4123 407.875 79.6061 407.875 73.3061 407.875C57.8373 407.819 45.2373 395.219 45.2373 379.75H33.9873C33.9873 397.525 45.8561 412.6 62.1123 417.494V492.25H73.3623V458.5H84.6123V492.25H95.8623V425.031L118.081 447.25L126.012 439.319L100.869 414.119Z" fill="#F17E84"/>
<path d="M213.987 402.25C220.201 402.25 225.237 397.213 225.237 391C225.237 384.787 220.201 379.75 213.987 379.75C207.774 379.75 202.737 384.787 202.737 391C202.737 397.213 207.774 402.25 213.987 402.25Z" fill="#F17E84"/>
<path d="M235.869 414.119C233.675 411.925 229.906 407.875 222.594 407.875C221.412 407.875 214.606 407.875 208.306 407.875C192.837 407.819 180.237 395.219 180.237 379.75H168.987C168.987 397.525 180.856 412.6 197.112 417.494V492.25H208.362V458.5H219.612V492.25H230.862V425.031L253.081 447.25L261.012 439.319L235.869 414.119Z" fill="#F17E84"/>
<path d="M349.48 402.25C355.739 402.25 360.813 397.213 360.813 391C360.813 384.787 355.739 379.75 349.48 379.75C343.221 379.75 338.146 384.787 338.146 391C338.146 397.213 343.221 402.25 349.48 402.25Z" fill="#B7BDEF"/>
<path d="M371.523 414.119C369.313 411.925 365.516 407.875 358.15 407.875C356.96 407.875 350.103 407.875 343.756 407.875C328.173 407.819 315.48 395.219 315.48 379.75H304.146C304.146 397.525 316.103 412.6 332.48 417.494V492.25H343.813V458.5H355.146V492.25H366.48V425.031L388.863 447.25L396.853 439.319L371.523 414.119Z" fill="#B7BDEF"/>
<path d="M484.987 402.25C491.201 402.25 496.237 397.213 496.237 391C496.237 384.787 491.201 379.75 484.987 379.75C478.774 379.75 473.737 384.787 473.737 391C473.737 397.213 478.774 402.25 484.987 402.25Z" fill="#B7BDEF"/>
<path d="M506.869 414.119C504.675 411.925 500.906 407.875 493.594 407.875C492.412 407.875 485.606 407.875 479.306 407.875C463.837 407.819 451.237 395.219 451.237 379.75H439.987C439.987 397.525 451.856 412.6 468.112 417.494V492.25H479.362V458.5H490.612V492.25H501.862V425.031L524.081 447.25L532.012 439.319L506.869 414.119Z" fill="#B7BDEF"/>
<path d="M619.987 402.25C626.201 402.25 631.237 397.213 631.237 391C631.237 384.787 626.201 379.75 619.987 379.75C613.774 379.75 608.737 384.787 608.737 391C608.737 397.213 613.774 402.25 619.987 402.25Z" fill="#B7BDEF"/>
<path d="M641.869 414.119C639.675 411.925 635.906 407.875 628.594 407.875C627.412 407.875 620.606 407.875 614.306 407.875C598.837 407.819 586.237 395.219 586.237 379.75H574.987C574.987 397.525 586.856 412.6 603.112 417.494V492.25H614.362V458.5H625.612V492.25H636.862V425.031L659.081 447.25L667.012 439.319L641.869 414.119Z" fill="#B7BDEF"/>
</svg>
