<svg width="340" height="229" viewBox="0 0 340 229" fill="none" xmlns="http://www.w3.org/2000/svg">
<rect width="340" height="229" fill="#FCE8E9"/>
<path d="M16.8 33.32C19.16 33.16 21.24 33.08 23.04 33.08C28.28 33.08 30.9 36.26 30.9 42.62C30.9 49.74 28.04 53.3 22.32 53.3C20.64 53.3 18.8 53.15 16.8 52.85V33.32ZM22.32 51.2C23.72 51.2 24.78 50.85 25.5 50.15C26.22 49.45 26.69 48.53 26.91 47.39C27.13 46.23 27.24 44.78 27.24 43.04C27.24 40.72 26.93 38.83 26.31 37.37C25.69 35.91 24.53 35.18 22.83 35.18C22.09 35.18 21.25 35.23 20.31 35.33V51.02C21.03 51.14 21.7 51.2 22.32 51.2ZM43.5736 48.77C44.0336 48.99 44.2636 49.42 44.2636 50.06C44.2636 50.78 44.0236 51.42 43.5436 51.98C43.0636 52.52 42.4436 52.93 41.6836 53.21C40.9236 53.51 40.1536 53.66 39.3736 53.66C37.1736 53.66 35.5436 52.95 34.4836 51.53C33.4236 50.09 32.8936 48.16 32.8936 45.74C32.8936 43.16 33.4636 41.08 34.6036 39.5C35.7636 37.9 37.5136 37.1 39.8536 37.1C41.3336 37.1 42.5236 37.49 43.4236 38.27C44.3236 39.03 44.7736 40.11 44.7736 41.51C44.7736 43.25 44.1636 44.47 42.9436 45.17C41.7436 45.87 40.1036 46.22 38.0236 46.22C37.4436 46.22 36.8936 46.2 36.3736 46.16C36.4336 47.74 36.6936 49 37.1536 49.94C37.6336 50.88 38.4736 51.35 39.6736 51.35C40.5536 51.35 41.3236 51.13 41.9836 50.69C42.6636 50.23 43.1936 49.59 43.5736 48.77ZM39.3736 38.81C38.2936 38.81 37.5336 39.38 37.0936 40.52C36.6536 41.64 36.4136 43.02 36.3736 44.66C36.9736 44.7 37.4136 44.72 37.6936 44.72C40.2136 44.72 41.4736 43.71 41.4736 41.69C41.4736 40.87 41.2936 40.19 40.9336 39.65C40.5936 39.09 40.0736 38.81 39.3736 38.81ZM45.8238 39.05L45.7938 38.15C46.6938 37.79 47.5438 37.31 48.3438 36.71C49.1638 36.11 49.8538 35.45 50.4138 34.73H51.3438V37.7H54.1038V39.05H51.2838V49.97C51.2838 50.57 51.3938 51.02 51.6138 51.32C51.8338 51.62 52.1838 51.81 52.6638 51.89C52.5638 52.35 52.2938 52.72 51.8538 53C51.4338 53.3 50.9438 53.45 50.3838 53.45C48.7638 53.45 47.9538 52.53 47.9538 50.69V39.05H45.8238ZM71.1127 48.77C71.5727 48.99 71.8027 49.42 71.8027 50.06C71.8027 50.78 71.5627 51.42 71.0827 51.98C70.6027 52.52 69.9827 52.93 69.2227 53.21C68.4627 53.51 67.6927 53.66 66.9127 53.66C64.7127 53.66 63.0827 52.95 62.0227 51.53C60.9627 50.09 60.4327 48.16 60.4327 45.74C60.4327 43.16 61.0027 41.08 62.1427 39.5C63.3027 37.9 65.0527 37.1 67.3927 37.1C68.8727 37.1 70.0627 37.49 70.9627 38.27C71.8627 39.03 72.3127 40.11 72.3127 41.51C72.3127 43.25 71.7027 44.47 70.4827 45.17C69.2827 45.87 67.6427 46.22 65.5627 46.22C64.9827 46.22 64.4327 46.2 63.9127 46.16C63.9727 47.74 64.2327 49 64.6927 49.94C65.1727 50.88 66.0127 51.35 67.2127 51.35C68.0927 51.35 68.8627 51.13 69.5227 50.69C70.2027 50.23 70.7327 49.59 71.1127 48.77ZM66.9127 38.81C65.8327 38.81 65.0727 39.38 64.6327 40.52C64.1927 41.64 63.9527 43.02 63.9127 44.66C64.5127 44.7 64.9527 44.72 65.2327 44.72C67.7527 44.72 69.0127 43.71 69.0127 41.69C69.0127 40.87 68.8327 40.19 68.4727 39.65C68.1327 39.09 67.6127 38.81 66.9127 38.81ZM80.5329 39.41C79.6729 39.41 79.1129 39.99 78.8529 41.15C78.6129 42.29 78.4929 43.66 78.4929 45.26V53H75.1929V37.7L77.9529 37.34L78.1029 40.04C78.3829 39.14 78.8729 38.43 79.5729 37.91C80.2729 37.37 81.0829 37.1 82.0029 37.1C83.0029 37.1 83.7929 37.39 84.3729 37.97C84.9729 38.55 85.2729 39.34 85.2729 40.34C85.2729 41.96 84.4929 42.77 82.9329 42.77C82.4129 42.77 82.0129 42.66 81.7329 42.44C81.8729 41.92 81.9429 41.47 81.9429 41.09C81.9429 39.97 81.4729 39.41 80.5329 39.41ZM92.273 37.7L95.033 37.34L95.183 40.04C95.563 39.08 96.143 38.35 96.923 37.85C97.723 37.35 98.653 37.1 99.713 37.1C101.393 37.1 102.563 37.57 103.223 38.51C103.883 39.43 104.213 40.84 104.213 42.74V50.54C104.213 51.52 104.523 52.18 105.143 52.52C104.983 52.82 104.723 53.05 104.363 53.21C104.003 53.37 103.623 53.45 103.223 53.45C102.443 53.45 101.863 53.23 101.483 52.79C101.103 52.35 100.913 51.73 100.913 50.93V43.16C100.913 41.9 100.773 40.96 100.493 40.34C100.213 39.72 99.593 39.41 98.633 39.41C97.413 39.41 96.593 39.95 96.173 41.03C95.773 42.11 95.573 43.5 95.573 45.2V53H92.273V37.7ZM113.673 37.1C115.913 37.1 117.573 37.83 118.653 39.29C119.733 40.73 120.273 42.68 120.273 45.14C120.273 47.76 119.753 49.84 118.713 51.38C117.673 52.9 115.993 53.66 113.673 53.66C111.393 53.66 109.723 52.93 108.663 51.47C107.623 50.01 107.103 48 107.103 45.44C107.103 42.96 107.643 40.95 108.723 39.41C109.803 37.87 111.453 37.1 113.673 37.1ZM113.673 51.86C114.913 51.86 115.723 51.25 116.103 50.03C116.483 48.81 116.673 47.23 116.673 45.29C116.673 43.51 116.463 42 116.043 40.76C115.643 39.52 114.853 38.9 113.673 38.9C111.693 38.9 110.703 41.03 110.703 45.29C110.703 47.23 110.883 48.81 111.243 50.03C111.623 51.25 112.433 51.86 113.673 51.86ZM128.55 39.41C127.69 39.41 127.13 39.99 126.87 41.15C126.63 42.29 126.51 43.66 126.51 45.26V53H123.21V37.7L125.97 37.34L126.12 40.04C126.4 39.14 126.89 38.43 127.59 37.91C128.29 37.37 129.1 37.1 130.02 37.1C131.02 37.1 131.81 37.39 132.39 37.97C132.99 38.55 133.29 39.34 133.29 40.34C133.29 41.96 132.51 42.77 130.95 42.77C130.43 42.77 130.03 42.66 129.75 42.44C129.89 41.92 129.96 41.47 129.96 41.09C129.96 39.97 129.49 39.41 128.55 39.41ZM135.046 37.7L137.806 37.34L137.956 40.04C138.336 39.08 138.916 38.35 139.696 37.85C140.496 37.35 141.426 37.1 142.486 37.1C143.666 37.1 144.586 37.34 145.246 37.82C145.906 38.28 146.376 38.97 146.656 39.89C147.436 38.03 148.856 37.1 150.916 37.1C152.596 37.1 153.766 37.57 154.426 38.51C155.086 39.43 155.416 40.84 155.416 42.74V50.54C155.416 51.52 155.726 52.18 156.346 52.52C156.186 52.82 155.926 53.05 155.566 53.21C155.206 53.37 154.826 53.45 154.426 53.45C153.646 53.45 153.066 53.23 152.686 52.79C152.306 52.35 152.116 51.73 152.116 50.93V43.16C152.116 41.9 151.976 40.96 151.696 40.34C151.416 39.72 150.796 39.41 149.836 39.41C148.696 39.41 147.936 39.95 147.556 41.03C147.176 42.11 146.986 43.5 146.986 45.2V53H143.686V43.16C143.686 41.9 143.546 40.96 143.266 40.34C142.986 39.72 142.366 39.41 141.406 39.41C140.186 39.41 139.366 39.95 138.946 41.03C138.546 42.11 138.346 43.5 138.346 45.2V53H135.046V37.7ZM167.434 51.62C167.054 52.32 166.494 52.83 165.754 53.15C165.034 53.49 164.214 53.66 163.294 53.66C161.914 53.66 160.754 53.24 159.814 52.4C158.894 51.56 158.434 50.47 158.434 49.13C158.434 45.89 161.324 44.27 167.104 44.27V41.66C167.104 40.66 166.954 39.92 166.654 39.44C166.354 38.94 165.784 38.69 164.944 38.69C164.244 38.69 163.664 38.88 163.204 39.26C162.744 39.62 162.514 40.13 162.514 40.79C162.514 41.21 162.594 41.66 162.754 42.14C162.474 42.36 162.074 42.47 161.554 42.47C160.834 42.47 160.264 42.29 159.844 41.93C159.424 41.57 159.214 41.05 159.214 40.37C159.214 39.41 159.754 38.63 160.834 38.03C161.914 37.41 163.354 37.1 165.154 37.1C166.474 37.1 167.514 37.3 168.274 37.7C169.034 38.08 169.574 38.68 169.894 39.5C170.234 40.3 170.404 41.38 170.404 42.74V50.54C170.404 51.52 170.714 52.18 171.334 52.52C171.174 52.82 170.934 53.05 170.614 53.21C170.314 53.37 169.964 53.45 169.564 53.45C168.984 53.45 168.504 53.29 168.124 52.97C167.744 52.63 167.514 52.18 167.434 51.62ZM164.464 51.65C165.344 51.65 166.004 51.32 166.444 50.66C166.884 49.98 167.104 49.14 167.104 48.14V45.77C163.724 45.77 162.034 46.85 162.034 49.01C162.034 49.81 162.244 50.45 162.664 50.93C163.104 51.41 163.704 51.65 164.464 51.65ZM177.664 31.64V50.54C177.664 51.52 177.974 52.18 178.594 52.52C178.434 52.82 178.164 53.05 177.784 53.21C177.424 53.37 177.044 53.45 176.644 53.45C175.884 53.45 175.314 53.23 174.934 52.79C174.554 52.35 174.364 51.73 174.364 50.93V32L177.664 31.64ZM180.033 39.05L180.003 38.15C180.903 37.79 181.753 37.31 182.553 36.71C183.373 36.11 184.063 35.45 184.623 34.73H185.553V37.7H188.313V39.05H185.493V49.97C185.493 50.57 185.603 51.02 185.823 51.32C186.043 51.62 186.393 51.81 186.873 51.89C186.773 52.35 186.503 52.72 186.063 53C185.643 53.3 185.153 53.45 184.593 53.45C182.973 53.45 182.163 52.53 182.163 50.69V39.05H180.033ZM203.792 51.62C203.412 52.32 202.852 52.83 202.112 53.15C201.392 53.49 200.572 53.66 199.652 53.66C198.272 53.66 197.112 53.24 196.172 52.4C195.252 51.56 194.792 50.47 194.792 49.13C194.792 45.89 197.682 44.27 203.462 44.27V41.66C203.462 40.66 203.312 39.92 203.012 39.44C202.712 38.94 202.142 38.69 201.302 38.69C200.602 38.69 200.022 38.88 199.562 39.26C199.102 39.62 198.872 40.13 198.872 40.79C198.872 41.21 198.952 41.66 199.112 42.14C198.832 42.36 198.432 42.47 197.912 42.47C197.192 42.47 196.622 42.29 196.202 41.93C195.782 41.57 195.572 41.05 195.572 40.37C195.572 39.41 196.112 38.63 197.192 38.03C198.272 37.41 199.712 37.1 201.512 37.1C202.832 37.1 203.872 37.3 204.632 37.7C205.392 38.08 205.932 38.68 206.252 39.5C206.592 40.3 206.762 41.38 206.762 42.74V50.54C206.762 51.52 207.072 52.18 207.692 52.52C207.532 52.82 207.292 53.05 206.972 53.21C206.672 53.37 206.322 53.45 205.922 53.45C205.342 53.45 204.862 53.29 204.482 52.97C204.102 52.63 203.872 52.18 203.792 51.62ZM200.822 51.65C201.702 51.65 202.362 51.32 202.802 50.66C203.242 49.98 203.462 49.14 203.462 48.14V45.77C200.082 45.77 198.392 46.85 198.392 49.01C198.392 49.81 198.602 50.45 199.022 50.93C199.462 51.41 200.062 51.65 200.822 51.65ZM208.832 39.05L208.802 38.15C209.702 37.79 210.552 37.31 211.352 36.71C212.172 36.11 212.862 35.45 213.422 34.73H214.352V37.7H217.112V39.05H214.292V49.97C214.292 50.57 214.402 51.02 214.622 51.32C214.842 51.62 215.192 51.81 215.672 51.89C215.572 52.35 215.302 52.72 214.862 53C214.442 53.3 213.952 53.45 213.392 53.45C211.772 53.45 210.962 52.53 210.962 50.69V39.05H208.832ZM20.4 71.03C20.4 73.21 20.3 74.81 20.1 75.83C20.48 74.99 21.05 74.33 21.81 73.85C22.57 73.35 23.41 73.1 24.33 73.1C26.23 73.1 27.61 73.86 28.47 75.38C29.33 76.9 29.76 78.82 29.76 81.14C29.76 83.7 29.21 85.76 28.11 87.32C27.01 88.88 25.32 89.66 23.04 89.66C22.06 89.66 21.02 89.53 19.92 89.27C18.84 89.03 17.9 88.69 17.1 88.25V68L20.4 67.64V71.03ZM20.4 86.96C21.28 87.56 22.21 87.86 23.19 87.86C24.41 87.86 25.21 87.24 25.59 86C25.97 84.76 26.16 83.19 26.16 81.29C26.16 79.59 25.97 78.19 25.59 77.09C25.23 75.97 24.48 75.41 23.34 75.41C22.18 75.41 21.4 75.96 21 77.06C20.6 78.14 20.4 79.52 20.4 81.2V86.96ZM36.0724 67.64V86.54C36.0724 87.52 36.3824 88.18 37.0024 88.52C36.8424 88.82 36.5724 89.05 36.1924 89.21C35.8324 89.37 35.4524 89.45 35.0524 89.45C34.2924 89.45 33.7224 89.23 33.3424 88.79C32.9624 88.35 32.7724 87.73 32.7724 86.93V68L36.0724 67.64ZM41.951 67.4C42.611 67.4 43.141 67.56 43.541 67.88C43.961 68.2 44.171 68.66 44.171 69.26C44.171 69.88 43.951 70.36 43.511 70.7C43.091 71.02 42.541 71.18 41.861 71.18C41.201 71.18 40.671 71.02 40.271 70.7C39.871 70.38 39.671 69.92 39.671 69.32C39.671 68.7 39.881 68.23 40.301 67.91C40.741 67.57 41.291 67.4 41.951 67.4ZM43.511 86.54C43.511 87.52 43.821 88.18 44.441 88.52C44.281 88.82 44.021 89.05 43.661 89.21C43.301 89.37 42.911 89.45 42.491 89.45C41.731 89.45 41.161 89.23 40.781 88.79C40.401 88.35 40.211 87.73 40.211 86.93V73.7H43.511V86.54ZM58.3052 73.7L53.8352 89H49.7552L45.6152 73.7H49.0352L52.0952 86.99L55.1552 73.7H58.3052ZM69.9115 84.77C70.3715 84.99 70.6015 85.42 70.6015 86.06C70.6015 86.78 70.3615 87.42 69.8815 87.98C69.4015 88.52 68.7815 88.93 68.0215 89.21C67.2615 89.51 66.4915 89.66 65.7115 89.66C63.5115 89.66 61.8815 88.95 60.8215 87.53C59.7615 86.09 59.2315 84.16 59.2315 81.74C59.2315 79.16 59.8015 77.08 60.9415 75.5C62.1015 73.9 63.8515 73.1 66.1915 73.1C67.6715 73.1 68.8615 73.49 69.7615 74.27C70.6615 75.03 71.1115 76.11 71.1115 77.51C71.1115 79.25 70.5015 80.47 69.2815 81.17C68.0815 81.87 66.4415 82.22 64.3615 82.22C63.7815 82.22 63.2315 82.2 62.7115 82.16C62.7715 83.74 63.0315 85 63.4915 85.94C63.9715 86.88 64.8115 87.35 66.0115 87.35C66.8915 87.35 67.6615 87.13 68.3215 86.69C69.0015 86.23 69.5315 85.59 69.9115 84.77ZM65.7115 74.81C64.6315 74.81 63.8715 75.38 63.4315 76.52C62.9915 77.64 62.7515 79.02 62.7115 80.66C63.3115 80.7 63.7515 80.72 64.0315 80.72C66.5515 80.72 67.8115 79.71 67.8115 77.69C67.8115 76.87 67.6315 76.19 67.2715 75.65C66.9315 75.09 66.4115 74.81 65.7115 74.81ZM79.5359 89.36V75.05H77.4059V73.7H79.5359L79.6259 72.08C79.8059 68.96 81.5859 67.4 84.9659 67.4C86.2259 67.4 87.3059 67.6 88.2059 68C89.1259 68.38 89.5859 69.03 89.5859 69.95C89.5859 70.63 89.3759 71.15 88.9559 71.51C88.5359 71.87 87.9659 72.05 87.2459 72.05C86.7259 72.05 86.3259 71.94 86.0459 71.72C86.2059 71.24 86.2859 70.79 86.2859 70.37C86.2859 69.85 86.1559 69.45 85.8959 69.17C85.6559 68.87 85.2859 68.72 84.7859 68.72C84.0059 68.72 83.4759 69.02 83.1959 69.62C82.9359 70.2 82.8059 71.02 82.8059 72.08V73.7H86.0759V75.05H82.8359V89L79.5359 89.36ZM94.1902 73.1C96.4302 73.1 98.0902 73.83 99.1702 75.29C100.25 76.73 100.79 78.68 100.79 81.14C100.79 83.76 100.27 85.84 99.2302 87.38C98.1902 88.9 96.5102 89.66 94.1902 89.66C91.9102 89.66 90.2402 88.93 89.1802 87.47C88.1402 86.01 87.6202 84 87.6202 81.44C87.6202 78.96 88.1602 76.95 89.2402 75.41C90.3202 73.87 91.9702 73.1 94.1902 73.1ZM94.1902 87.86C95.4302 87.86 96.2402 87.25 96.6202 86.03C97.0002 84.81 97.1902 83.23 97.1902 81.29C97.1902 79.51 96.9802 78 96.5602 76.76C96.1602 75.52 95.3702 74.9 94.1902 74.9C92.2102 74.9 91.2202 77.03 91.2202 81.29C91.2202 83.23 91.4002 84.81 91.7602 86.03C92.1402 87.25 92.9502 87.86 94.1902 87.86ZM109.068 75.41C108.208 75.41 107.648 75.99 107.388 77.15C107.148 78.29 107.028 79.66 107.028 81.26V89H103.728V73.7L106.488 73.34L106.638 76.04C106.918 75.14 107.408 74.43 108.108 73.91C108.808 73.37 109.618 73.1 110.538 73.1C111.538 73.1 112.328 73.39 112.908 73.97C113.508 74.55 113.808 75.34 113.808 76.34C113.808 77.96 113.028 78.77 111.468 78.77C110.948 78.77 110.548 78.66 110.268 78.44C110.408 77.92 110.478 77.47 110.478 77.09C110.478 75.97 110.008 75.41 109.068 75.41ZM120.424 74.69C119.824 74.69 119.344 74.85 118.984 75.17C118.624 75.47 118.444 75.91 118.444 76.49C118.444 77.27 118.704 77.91 119.224 78.41C119.764 78.89 120.584 79.43 121.684 80.03C122.564 80.51 123.264 80.94 123.784 81.32C124.324 81.7 124.784 82.19 125.164 82.79C125.544 83.37 125.734 84.08 125.734 84.92C125.734 86.44 125.184 87.61 124.084 88.43C123.004 89.25 121.624 89.66 119.944 89.66C118.484 89.66 117.254 89.41 116.254 88.91C115.274 88.41 114.784 87.58 114.784 86.42C114.784 85.74 114.994 85.22 115.414 84.86C115.834 84.5 116.404 84.32 117.124 84.32C117.644 84.32 118.044 84.43 118.324 84.65C118.164 85.13 118.084 85.58 118.084 86C118.084 86.64 118.284 87.15 118.684 87.53C119.084 87.89 119.624 88.07 120.304 88.07C121.044 88.07 121.604 87.88 121.984 87.5C122.384 87.1 122.584 86.52 122.584 85.76C122.584 84.98 122.314 84.35 121.774 83.87C121.254 83.37 120.444 82.82 119.344 82.22C118.464 81.72 117.754 81.28 117.214 80.9C116.694 80.52 116.244 80.04 115.864 79.46C115.484 78.86 115.294 78.14 115.294 77.3C115.294 75.96 115.834 74.93 116.914 74.21C117.994 73.47 119.304 73.1 120.844 73.1C122.264 73.1 123.424 73.36 124.324 73.88C125.244 74.38 125.704 75.21 125.704 76.37C125.704 77.05 125.484 77.57 125.044 77.93C124.624 78.29 124.054 78.47 123.334 78.47C122.814 78.47 122.414 78.36 122.134 78.14C122.294 77.66 122.374 77.21 122.374 76.79C122.374 76.13 122.204 75.62 121.864 75.26C121.544 74.88 121.064 74.69 120.424 74.69ZM127.064 75.05L127.034 74.15C127.934 73.79 128.784 73.31 129.584 72.71C130.404 72.11 131.094 71.45 131.654 70.73H132.584V73.7H135.344V75.05H132.524V85.97C132.524 86.57 132.634 87.02 132.854 87.32C133.074 87.62 133.424 87.81 133.904 87.89C133.804 88.35 133.534 88.72 133.094 89C132.674 89.3 132.184 89.45 131.624 89.45C130.004 89.45 129.194 88.53 129.194 86.69V75.05H127.064ZM142.999 73.1C145.239 73.1 146.899 73.83 147.979 75.29C149.059 76.73 149.599 78.68 149.599 81.14C149.599 83.76 149.079 85.84 148.039 87.38C146.999 88.9 145.319 89.66 142.999 89.66C140.719 89.66 139.049 88.93 137.989 87.47C136.949 86.01 136.429 84 136.429 81.44C136.429 78.96 136.969 76.95 138.049 75.41C139.129 73.87 140.779 73.1 142.999 73.1ZM142.999 87.86C144.239 87.86 145.049 87.25 145.429 86.03C145.809 84.81 145.999 83.23 145.999 81.29C145.999 79.51 145.789 78 145.369 76.76C144.969 75.52 144.179 74.9 142.999 74.9C141.019 74.9 140.029 77.03 140.029 81.29C140.029 83.23 140.209 84.81 140.569 86.03C140.949 87.25 141.759 87.86 142.999 87.86ZM160.067 73.1C161.947 73.1 163.287 73.86 164.087 75.38C164.887 76.88 165.287 78.8 165.287 81.14C165.287 83.7 164.737 85.76 163.637 87.32C162.537 88.88 160.847 89.66 158.567 89.66C157.607 89.66 156.737 89.53 155.957 89.27V94.43L152.657 94.79V73.7L155.417 73.34L155.567 76.04C156.407 74.08 157.907 73.1 160.067 73.1ZM158.897 75.41C157.857 75.41 157.107 75.83 156.647 76.67C156.187 77.49 155.957 78.53 155.957 79.79V86.93C156.877 87.55 157.797 87.86 158.717 87.86C159.937 87.86 160.737 87.24 161.117 86C161.497 84.76 161.687 83.19 161.687 81.29C161.687 79.51 161.517 78.09 161.177 77.03C160.837 75.95 160.077 75.41 158.897 75.41ZM175.77 73.1C177.65 73.1 178.99 73.86 179.79 75.38C180.59 76.88 180.99 78.8 180.99 81.14C180.99 83.7 180.44 85.76 179.34 87.32C178.24 88.88 176.55 89.66 174.27 89.66C173.31 89.66 172.44 89.53 171.66 89.27V94.43L168.36 94.79V73.7L171.12 73.34L171.27 76.04C172.11 74.08 173.61 73.1 175.77 73.1ZM174.6 75.41C173.56 75.41 172.81 75.83 172.35 76.67C171.89 77.49 171.66 78.53 171.66 79.79V86.93C172.58 87.55 173.5 87.86 174.42 87.86C175.64 87.86 176.44 87.24 176.82 86C177.2 84.76 177.39 83.19 177.39 81.29C177.39 79.51 177.22 78.09 176.88 77.03C176.54 75.95 175.78 75.41 174.6 75.41ZM193.603 84.77C194.063 84.99 194.293 85.42 194.293 86.06C194.293 86.78 194.053 87.42 193.573 87.98C193.093 88.52 192.473 88.93 191.713 89.21C190.953 89.51 190.183 89.66 189.403 89.66C187.203 89.66 185.573 88.95 184.513 87.53C183.453 86.09 182.923 84.16 182.923 81.74C182.923 79.16 183.493 77.08 184.633 75.5C185.793 73.9 187.543 73.1 189.883 73.1C191.363 73.1 192.553 73.49 193.453 74.27C194.353 75.03 194.803 76.11 194.803 77.51C194.803 79.25 194.193 80.47 192.973 81.17C191.773 81.87 190.133 82.22 188.053 82.22C187.473 82.22 186.923 82.2 186.403 82.16C186.463 83.74 186.723 85 187.183 85.94C187.663 86.88 188.503 87.35 189.703 87.35C190.583 87.35 191.353 87.13 192.013 86.69C192.693 86.23 193.223 85.59 193.603 84.77ZM189.403 74.81C188.323 74.81 187.563 75.38 187.123 76.52C186.683 77.64 186.443 79.02 186.403 80.66C187.003 80.7 187.443 80.72 187.723 80.72C190.243 80.72 191.503 79.71 191.503 77.69C191.503 76.87 191.323 76.19 190.963 75.65C190.623 75.09 190.103 74.81 189.403 74.81ZM195.853 75.05L195.823 74.15C196.723 73.79 197.573 73.31 198.373 72.71C199.193 72.11 199.883 71.45 200.443 70.73H201.373V73.7H204.133V75.05H201.313V85.97C201.313 86.57 201.423 87.02 201.643 87.32C201.863 87.62 202.213 87.81 202.693 87.89C202.593 88.35 202.323 88.72 201.883 89C201.463 89.3 200.973 89.45 200.413 89.45C198.793 89.45 197.983 88.53 197.983 86.69V75.05H195.853ZM221.142 84.77C221.602 84.99 221.832 85.42 221.832 86.06C221.832 86.78 221.592 87.42 221.112 87.98C220.632 88.52 220.012 88.93 219.252 89.21C218.492 89.51 217.722 89.66 216.942 89.66C214.742 89.66 213.112 88.95 212.052 87.53C210.992 86.09 210.462 84.16 210.462 81.74C210.462 79.16 211.032 77.08 212.172 75.5C213.332 73.9 215.082 73.1 217.422 73.1C218.902 73.1 220.092 73.49 220.992 74.27C221.892 75.03 222.342 76.11 222.342 77.51C222.342 79.25 221.732 80.47 220.512 81.17C219.312 81.87 217.672 82.22 215.592 82.22C215.012 82.22 214.462 82.2 213.942 82.16C214.002 83.74 214.262 85 214.722 85.94C215.202 86.88 216.042 87.35 217.242 87.35C218.122 87.35 218.892 87.13 219.552 86.69C220.232 86.23 220.762 85.59 221.142 84.77ZM216.942 74.81C215.862 74.81 215.102 75.38 214.662 76.52C214.222 77.64 213.982 79.02 213.942 80.66C214.542 80.7 214.982 80.72 215.262 80.72C217.782 80.72 219.042 79.71 219.042 77.69C219.042 76.87 218.862 76.19 218.502 75.65C218.162 75.09 217.642 74.81 216.942 74.81ZM228.582 67.64V86.54C228.582 87.52 228.892 88.18 229.512 88.52C229.352 88.82 229.082 89.05 228.702 89.21C228.342 89.37 227.962 89.45 227.562 89.45C226.802 89.45 226.232 89.23 225.852 88.79C225.472 88.35 225.282 87.73 225.282 86.93V68L228.582 67.64ZM236.141 67.64V86.54C236.141 87.52 236.451 88.18 237.071 88.52C236.911 88.82 236.641 89.05 236.261 89.21C235.901 89.37 235.521 89.45 235.121 89.45C234.361 89.45 233.791 89.23 233.411 88.79C233.031 88.35 232.841 87.73 232.841 86.93V68L236.141 67.64ZM249.999 84.77C250.459 84.99 250.689 85.42 250.689 86.06C250.689 86.78 250.449 87.42 249.969 87.98C249.489 88.52 248.869 88.93 248.109 89.21C247.349 89.51 246.579 89.66 245.799 89.66C243.599 89.66 241.969 88.95 240.909 87.53C239.849 86.09 239.319 84.16 239.319 81.74C239.319 79.16 239.889 77.08 241.029 75.5C242.189 73.9 243.939 73.1 246.279 73.1C247.759 73.1 248.949 73.49 249.849 74.27C250.749 75.03 251.199 76.11 251.199 77.51C251.199 79.25 250.589 80.47 249.369 81.17C248.169 81.87 246.529 82.22 244.449 82.22C243.869 82.22 243.319 82.2 242.799 82.16C242.859 83.74 243.119 85 243.579 85.94C244.059 86.88 244.899 87.35 246.099 87.35C246.979 87.35 247.749 87.13 248.409 86.69C249.089 86.23 249.619 85.59 249.999 84.77ZM245.799 74.81C244.719 74.81 243.959 75.38 243.519 76.52C243.079 77.64 242.839 79.02 242.799 80.66C243.399 80.7 243.839 80.72 244.119 80.72C246.639 80.72 247.899 79.71 247.899 77.69C247.899 76.87 247.719 76.19 247.359 75.65C247.019 75.09 246.499 74.81 245.799 74.81ZM259.42 75.41C258.56 75.41 258 75.99 257.74 77.15C257.5 78.29 257.38 79.66 257.38 81.26V89H254.08V73.7L256.84 73.34L256.99 76.04C257.27 75.14 257.76 74.43 258.46 73.91C259.16 73.37 259.97 73.1 260.89 73.1C261.89 73.1 262.68 73.39 263.26 73.97C263.86 74.55 264.16 75.34 264.16 76.34C264.16 77.96 263.38 78.77 261.82 78.77C261.3 78.77 260.9 78.66 260.62 78.44C260.76 77.92 260.83 77.47 260.83 77.09C260.83 75.97 260.36 75.41 259.42 75.41ZM17.28 125.36V111.05H15.15V109.7H17.28L17.37 108.08C17.55 104.96 19.33 103.4 22.71 103.4C23.97 103.4 25.05 103.6 25.95 104C26.87 104.38 27.33 105.03 27.33 105.95C27.33 106.63 27.12 107.15 26.7 107.51C26.28 107.87 25.71 108.05 24.99 108.05C24.47 108.05 24.07 107.94 23.79 107.72C23.95 107.24 24.03 106.79 24.03 106.37C24.03 105.85 23.9 105.45 23.64 105.17C23.4 104.87 23.03 104.72 22.53 104.72C21.75 104.72 21.22 105.02 20.94 105.62C20.68 106.2 20.55 107.02 20.55 108.08V109.7H23.82V111.05H20.58V125L17.28 125.36ZM34.5143 123.62C34.1343 124.32 33.5743 124.83 32.8343 125.15C32.1143 125.49 31.2943 125.66 30.3743 125.66C28.9943 125.66 27.8343 125.24 26.8943 124.4C25.9743 123.56 25.5143 122.47 25.5143 121.13C25.5143 117.89 28.4043 116.27 34.1843 116.27V113.66C34.1843 112.66 34.0343 111.92 33.7343 111.44C33.4343 110.94 32.8643 110.69 32.0243 110.69C31.3243 110.69 30.7443 110.88 30.2843 111.26C29.8243 111.62 29.5943 112.13 29.5943 112.79C29.5943 113.21 29.6743 113.66 29.8343 114.14C29.5543 114.36 29.1543 114.47 28.6343 114.47C27.9143 114.47 27.3443 114.29 26.9243 113.93C26.5043 113.57 26.2943 113.05 26.2943 112.37C26.2943 111.41 26.8343 110.63 27.9143 110.03C28.9943 109.41 30.4343 109.1 32.2343 109.1C33.5543 109.1 34.5943 109.3 35.3543 109.7C36.1143 110.08 36.6543 110.68 36.9743 111.5C37.3143 112.3 37.4843 113.38 37.4843 114.74V122.54C37.4843 123.52 37.7943 124.18 38.4143 124.52C38.2543 124.82 38.0143 125.05 37.6943 125.21C37.3943 125.37 37.0443 125.45 36.6443 125.45C36.0643 125.45 35.5843 125.29 35.2043 124.97C34.8243 124.63 34.5943 124.18 34.5143 123.62ZM31.5443 123.65C32.4243 123.65 33.0843 123.32 33.5243 122.66C33.9643 121.98 34.1843 121.14 34.1843 120.14V117.77C30.8043 117.77 29.1143 118.85 29.1143 121.01C29.1143 121.81 29.3243 122.45 29.7443 122.93C30.1843 123.41 30.7843 123.65 31.5443 123.65ZM31.8443 108.11C30.9243 108.11 30.1543 107.85 29.5343 107.33C28.9143 106.79 28.6043 106.08 28.6043 105.2C28.6043 104.32 28.9043 103.63 29.5043 103.13C30.1243 102.63 30.9043 102.38 31.8443 102.38C32.7843 102.38 33.5543 102.63 34.1543 103.13C34.7743 103.63 35.0843 104.32 35.0843 105.2C35.0843 106.08 34.7743 106.79 34.1543 107.33C33.5343 107.85 32.7643 108.11 31.8443 108.11ZM31.8443 107.09C32.3443 107.09 32.7143 106.92 32.9543 106.58C33.2143 106.22 33.3443 105.76 33.3443 105.2C33.3443 104.66 33.2143 104.23 32.9543 103.91C32.7143 103.57 32.3443 103.4 31.8443 103.4C31.3443 103.4 30.9643 103.57 30.7043 103.91C30.4643 104.23 30.3443 104.66 30.3443 105.2C30.3443 105.76 30.4643 106.22 30.7043 106.58C30.9643 106.92 31.3443 107.09 31.8443 107.09ZM58.2384 122.54C58.2384 123.52 58.5484 124.18 59.1684 124.52C59.0084 124.82 58.7684 125.05 58.4484 125.21C58.1484 125.37 57.7984 125.45 57.3984 125.45C56.8184 125.45 56.3384 125.29 55.9584 124.97C55.5784 124.63 55.3484 124.18 55.2684 123.62C54.9484 124.28 54.4284 124.78 53.7084 125.12C53.0084 125.48 52.2484 125.66 51.4284 125.66C49.3884 125.66 47.9084 124.88 46.9884 123.32C46.0684 121.76 45.6084 119.76 45.6084 117.32C45.6084 114.8 46.1484 112.8 47.2284 111.32C48.3284 109.84 50.0284 109.1 52.3284 109.1C53.2884 109.1 54.1584 109.23 54.9384 109.49V104L58.2384 103.64V122.54ZM54.9384 111.83C54.0184 111.21 53.0984 110.9 52.1784 110.9C50.9584 110.9 50.1584 111.48 49.7784 112.64C49.3984 113.8 49.2084 115.31 49.2084 117.17C49.2084 118.95 49.4284 120.48 49.8684 121.76C50.3084 123.02 51.1184 123.65 52.2984 123.65C53.1784 123.65 53.8384 123.32 54.2784 122.66C54.7184 121.98 54.9384 121.14 54.9384 120.14V111.83ZM64.1288 103.4C64.7888 103.4 65.3188 103.56 65.7188 103.88C66.1388 104.2 66.3488 104.66 66.3488 105.26C66.3488 105.88 66.1288 106.36 65.6888 106.7C65.2688 107.02 64.7188 107.18 64.0388 107.18C63.3788 107.18 62.8488 107.02 62.4487 106.7C62.0488 106.38 61.8488 105.92 61.8488 105.32C61.8488 104.7 62.0588 104.23 62.4788 103.91C62.9188 103.57 63.4688 103.4 64.1288 103.4ZM65.6888 122.54C65.6888 123.52 65.9988 124.18 66.6188 124.52C66.4588 124.82 66.1988 125.05 65.8388 125.21C65.4788 125.37 65.0888 125.45 64.6688 125.45C63.9088 125.45 63.3388 125.23 62.9588 124.79C62.5788 124.35 62.3888 123.73 62.3888 122.93V109.7H65.6888V122.54ZM77.903 123.62C77.523 124.32 76.963 124.83 76.223 125.15C75.503 125.49 74.683 125.66 73.763 125.66C72.383 125.66 71.223 125.24 70.283 124.4C69.363 123.56 68.903 122.47 68.903 121.13C68.903 117.89 71.793 116.27 77.573 116.27V113.66C77.573 112.66 77.423 111.92 77.123 111.44C76.823 110.94 76.253 110.69 75.413 110.69C74.713 110.69 74.133 110.88 73.673 111.26C73.213 111.62 72.983 112.13 72.983 112.79C72.983 113.21 73.063 113.66 73.223 114.14C72.943 114.36 72.543 114.47 72.023 114.47C71.303 114.47 70.733 114.29 70.313 113.93C69.893 113.57 69.683 113.05 69.683 112.37C69.683 111.41 70.223 110.63 71.303 110.03C72.383 109.41 73.823 109.1 75.623 109.1C76.943 109.1 77.983 109.3 78.743 109.7C79.503 110.08 80.043 110.68 80.363 111.5C80.703 112.3 80.873 113.38 80.873 114.74V122.54C80.873 123.52 81.183 124.18 81.803 124.52C81.643 124.82 81.403 125.05 81.083 125.21C80.783 125.37 80.433 125.45 80.033 125.45C79.453 125.45 78.973 125.29 78.593 124.97C78.213 124.63 77.983 124.18 77.903 123.62ZM74.933 123.65C75.813 123.65 76.473 123.32 76.913 122.66C77.353 121.98 77.573 121.14 77.573 120.14V117.77C74.193 117.77 72.503 118.85 72.503 121.01C72.503 121.81 72.713 122.45 73.133 122.93C73.573 123.41 74.173 123.65 74.933 123.65ZM90.113 111.41C89.253 111.41 88.693 111.99 88.433 113.15C88.193 114.29 88.073 115.66 88.073 117.26V125H84.773V109.7L87.533 109.34L87.683 112.04C87.963 111.14 88.453 110.43 89.153 109.91C89.853 109.37 90.663 109.1 91.583 109.1C92.583 109.1 93.373 109.39 93.953 109.97C94.553 110.55 94.853 111.34 94.853 112.34C94.853 113.96 94.073 114.77 92.513 114.77C91.993 114.77 91.593 114.66 91.313 114.44C91.453 113.92 91.523 113.47 91.523 113.09C91.523 111.97 91.053 111.41 90.113 111.41ZM101.949 111.41C101.089 111.41 100.529 111.99 100.269 113.15C100.029 114.29 99.9089 115.66 99.9089 117.26V125H96.6089V109.7L99.3689 109.34L99.5189 112.04C99.7989 111.14 100.289 110.43 100.989 109.91C101.689 109.37 102.499 109.1 103.419 109.1C104.419 109.1 105.209 109.39 105.789 109.97C106.389 110.55 106.689 111.34 106.689 112.34C106.689 113.96 105.909 114.77 104.349 114.77C103.829 114.77 103.429 114.66 103.149 114.44C103.289 113.92 103.359 113.47 103.359 113.09C103.359 111.97 102.889 111.41 101.949 111.41ZM118.105 120.77C118.565 120.99 118.795 121.42 118.795 122.06C118.795 122.78 118.555 123.42 118.075 123.98C117.595 124.52 116.975 124.93 116.215 125.21C115.455 125.51 114.685 125.66 113.905 125.66C111.705 125.66 110.075 124.95 109.015 123.53C107.955 122.09 107.425 120.16 107.425 117.74C107.425 115.16 107.995 113.08 109.135 111.5C110.295 109.9 112.045 109.1 114.385 109.1C115.865 109.1 117.055 109.49 117.955 110.27C118.855 111.03 119.305 112.11 119.305 113.51C119.305 115.25 118.695 116.47 117.475 117.17C116.275 117.87 114.635 118.22 112.555 118.22C111.975 118.22 111.425 118.2 110.905 118.16C110.965 119.74 111.225 121 111.685 121.94C112.165 122.88 113.005 123.35 114.205 123.35C115.085 123.35 115.855 123.13 116.515 122.69C117.195 122.23 117.725 121.59 118.105 120.77ZM113.905 110.81C112.825 110.81 112.065 111.38 111.625 112.52C111.185 113.64 110.945 115.02 110.905 116.66C111.505 116.7 111.945 116.72 112.225 116.72C114.745 116.72 116.005 115.71 116.005 113.69C116.005 112.87 115.825 112.19 115.465 111.65C115.125 111.09 114.605 110.81 113.905 110.81ZM116.575 102.23C116.975 102.33 117.305 102.54 117.565 102.86C117.845 103.18 117.985 103.54 117.985 103.94C117.985 104.48 117.745 104.94 117.265 105.32C116.785 105.7 116.175 106.05 115.435 106.37L112.165 107.84L111.415 106.79L116.575 102.23Z" fill="#E7232D"/>
<path fill-rule="evenodd" clip-rule="evenodd" d="M299.792 163.455C307.814 156.377 312.615 146.465 313.21 132.814H197.803C198.23 145.676 201.607 155.109 208.387 160.569C215.181 166.043 226.529 166.612 235.405 170.675C237.333 171.555 239.119 172.642 240.736 173.988C250.544 182.139 247.698 194.044 238.653 201.562V213H299.494V192.413H309.703V176.718H299.792V163.455ZM313.171 124.598V54C304.463 54 295.742 54 287.033 54L278.041 124.598H313.171ZM272.606 117.054H197.932V124.598H272.606V117.054Z" fill="#F17E84"/>
</svg>
