<svg width="701" height="519" viewBox="0 0 701 519" fill="none" xmlns="http://www.w3.org/2000/svg">
<rect width="701" height="519" fill="#3F4ED4"/>
<g clip-path="url(#clip0_501_275)">
<path d="M81.3011 60.4727L70.0941 100.609H54.5672L45 60.4727H58.3997L65.0996 93.1902L71.6777 60.4727H81.3011Z" fill="#E6E8F9"/>
<path d="M94.1573 56.2813C95.338 57.1327 95.919 58.3303 95.919 59.8647C95.919 61.399 95.3005 62.5966 94.0636 63.448C92.8267 64.2994 91.215 64.7204 89.2191 64.7204C87.2232 64.7204 85.6958 64.3087 84.4964 63.476C83.297 62.6434 82.6973 61.4832 82.6973 59.9769C82.6973 58.3958 83.3345 57.1702 84.6182 56.3001C85.902 55.43 87.5137 54.9902 89.4627 54.9902C91.4118 54.9902 92.9766 55.4206 94.1573 56.272V56.2813ZM95.1881 93.4991C95.1881 96.1375 95.8159 98.2613 97.0715 99.8892C96.4625 100.413 95.6097 100.825 94.5134 101.105C93.4171 101.386 92.3769 101.536 91.4024 101.536C88.7599 101.536 86.7453 100.909 85.3397 99.6553C83.9342 98.4016 83.2408 96.493 83.2408 93.9388V69.5948H95.1787V93.4898L95.1881 93.4991Z" fill="#E6E8F9"/>
<path d="M124.302 64.1218C124.302 67.8922 124.115 70.5306 123.759 72.0276C124.696 70.7739 125.904 69.8476 127.385 69.2582C128.866 68.6688 130.505 68.3788 132.286 68.3788C135.978 68.3788 138.658 69.3237 140.326 71.2042C141.994 73.0941 142.827 75.957 142.827 79.8117V93.49C142.827 96.1283 143.455 98.2521 144.72 99.8801C144.111 100.404 143.259 100.816 142.162 101.096C141.066 101.377 140.026 101.527 139.061 101.527C136.465 101.527 134.45 100.9 133.026 99.6462C131.602 98.3925 130.89 96.4839 130.89 93.9297V79.9426C130.89 77.7534 130.721 76.0506 130.374 74.8343C130.027 73.6181 129.184 73.0099 127.844 73.0099C126.748 73.0099 125.933 73.4029 125.408 74.1981C124.883 74.9934 124.564 75.9196 124.461 76.9955C124.358 78.0715 124.311 79.4561 124.311 81.1589V100.619H112.374V58.0405L124.311 56.8242V64.1218H124.302Z" fill="#E6E8F9"/>
<path d="M163.892 100.975C162.431 101.62 160.791 101.948 158.964 101.948C155.468 101.948 152.545 101.171 150.193 99.6087C147.841 98.0463 146.66 95.7635 146.66 92.7696C146.66 88.8775 148.506 86.2579 152.207 84.92C155.899 83.5821 160.594 82.9085 166.273 82.9085V77.6224C166.273 75.798 166.038 74.3759 165.57 73.3654C165.101 72.355 164.202 71.8498 162.862 71.8498C159.976 71.8498 158.533 73.6929 158.533 77.3885C158.533 78.1182 158.617 79.1287 158.776 80.4291C158.495 80.635 158.008 80.7753 157.314 80.8595C156.621 80.9437 156.012 80.9811 155.487 80.9811C153.538 80.9811 151.917 80.5695 150.614 79.7368C149.312 78.9041 148.665 77.6411 148.665 75.9383C148.665 73.2625 150.165 71.3352 153.173 70.1657C156.181 68.9869 159.545 68.3975 163.283 68.3975C168.118 68.3975 171.81 69.2488 174.369 70.9516C176.927 72.6544 178.201 75.6109 178.201 79.8304V93.5087C178.201 96.1471 178.829 98.2708 180.085 99.8988C179.475 100.423 178.632 100.834 177.555 101.115C176.477 101.396 175.456 101.545 174.481 101.545C170.705 101.545 168.231 100.329 167.05 97.8966C166.404 99.3187 165.345 100.348 163.883 100.993L163.892 100.975ZM165.354 95.8102C165.963 94.594 166.263 93.097 166.263 91.3101V85.9585C163.705 85.9585 161.775 86.4637 160.482 87.4741C159.179 88.4846 158.533 90.1686 158.533 92.5263C158.533 94.0233 158.842 95.2582 159.479 96.2032C160.107 97.1575 161.072 97.6346 162.374 97.6346C163.752 97.6346 164.754 97.0265 165.364 95.8102H165.354Z" fill="#E6E8F9"/>
<path d="M196.295 75.5268C196.014 76.8086 195.864 78.6798 195.864 81.1497V100.61H183.926V69.5952L193.55 68.8654L194.037 74.3386C194.73 72.43 195.836 70.9611 197.354 69.932C198.872 68.9028 200.671 68.3789 202.742 68.3789C205.338 68.3789 207.399 69.0993 208.927 70.5401C210.445 71.9809 211.213 73.9737 211.213 76.5279C211.213 78.6798 210.613 80.3451 209.414 81.5427C208.214 82.7402 206.518 83.339 204.326 83.339C203.801 83.339 203.183 83.2922 202.47 83.1893C201.758 83.0864 201.262 82.9367 200.98 82.7309C201.224 81.6736 201.346 80.4761 201.346 79.1475C201.346 75.4613 200.39 73.6089 198.488 73.6089C197.307 73.6089 196.576 74.2451 196.295 75.5268Z" fill="#E6E8F9"/>
<path d="M236.672 64.1218C236.672 67.8922 236.485 70.5306 236.129 72.0276C237.956 69.595 240.777 68.3788 244.6 68.3788C248.779 68.3788 251.787 69.857 253.614 72.8228C255.441 75.7793 256.35 79.7368 256.35 84.6861C256.35 90.2435 254.888 94.5098 251.965 97.485C249.041 100.469 244.834 101.957 239.352 101.957C237.038 101.957 234.517 101.658 231.8 101.05C229.082 100.441 226.721 99.6462 224.734 98.6732V58.0405L236.672 56.8242V64.1218ZM239.783 98.2989C241.648 98.2989 242.847 97.0827 243.372 94.6501C243.897 92.2176 244.159 88.9992 244.159 84.9855C244.159 81.2992 243.916 78.3802 243.428 76.2284C242.941 74.0765 241.864 73.0099 240.196 73.0099C239.099 73.0099 238.284 73.4122 237.759 74.2262C237.235 75.0402 236.916 75.9851 236.813 77.0517C236.71 78.1276 236.663 79.5123 236.663 81.215V97.2043C237.516 97.934 238.546 98.2989 239.774 98.2989H239.783Z" fill="#E6E8F9"/>
<path d="M273.283 75.5268C273.002 76.8086 272.852 78.6798 272.852 81.1497V100.61H260.914V69.5952L270.538 68.8654L271.025 74.3386C271.718 72.43 272.824 70.9611 274.342 69.932C275.86 68.9028 277.659 68.3789 279.73 68.3789C282.326 68.3789 284.387 69.0993 285.914 70.5401C287.432 71.9809 288.201 73.9737 288.201 76.5279C288.201 78.6798 287.601 80.3451 286.402 81.5427C285.202 82.7402 283.506 83.339 281.314 83.339C280.789 83.339 280.17 83.2922 279.458 83.1893C278.746 83.0864 278.249 82.9367 277.968 82.7309C278.212 81.6736 278.334 80.4761 278.334 79.1475C278.334 75.4613 277.378 73.6089 275.476 73.6089C274.295 73.6089 273.564 74.2451 273.283 75.5268Z" fill="#E6E8F9"/>
<path d="M321.334 93.4991C321.334 96.1374 321.962 98.2612 323.218 99.8891C322.609 100.413 321.756 100.825 320.66 101.105C319.563 101.386 318.533 101.536 317.558 101.536C313.782 101.536 311.327 100.319 310.184 97.887C308.394 100.6 305.555 101.957 301.656 101.957C298.649 101.957 296.343 101.33 294.741 100.076C293.139 98.8226 292.052 97.073 291.48 94.8463C290.909 92.6196 290.627 89.7567 290.627 86.2669V69.5947H302.809V85.9488C302.809 88.6621 302.856 90.7671 302.959 92.2454C303.062 93.7236 303.324 94.9399 303.746 95.8942C304.177 96.8485 304.871 97.3256 305.845 97.3256C308.197 97.3256 309.378 95.1363 309.378 90.7578V69.5947H321.316V93.4897L321.334 93.4991Z" fill="#E6E8F9"/>
<path d="M344.845 107.664C345.492 106.57 345.904 105.138 346.063 103.379C346.222 101.62 346.307 99.1317 346.307 95.932V93.8644C344.48 95.9695 341.659 97.0267 337.845 97.0267C334.032 97.0267 331.052 95.7823 329.168 93.2843C327.275 90.7863 326.338 87.3995 326.338 83.0957C326.338 78.2307 327.697 74.5632 330.415 72.0932C333.132 69.6232 337.011 68.3789 342.053 68.3789C344.77 68.3789 347.234 68.7812 349.427 69.5952L357.711 68.3789V94.4725C357.711 98.8511 357.214 102.36 356.221 104.989C355.227 107.627 353.541 109.582 351.17 110.855C348.79 112.136 345.51 112.773 341.331 112.773C339.298 112.773 337.283 112.511 335.268 111.987C333.254 111.463 331.576 110.63 330.208 109.489C328.85 108.357 328.166 106.935 328.166 105.232C328.166 103.529 328.822 102.313 330.143 101.461C331.464 100.61 333.094 100.18 335.044 100.18C335.568 100.18 336.168 100.217 336.843 100.301C337.508 100.385 337.986 100.526 338.276 100.732C338.117 102.032 338.033 103.061 338.033 103.838C338.033 107.487 339.27 109.311 341.743 109.311C343.168 109.311 344.198 108.768 344.854 107.674L344.845 107.664ZM342.652 72.0277C340.863 72.0277 339.729 72.9633 339.242 74.8251C338.754 76.6869 338.511 79.2037 338.511 82.366C338.511 85.285 338.726 87.6895 339.148 89.57C339.569 91.4506 340.6 92.3955 342.221 92.3955C343.524 92.3955 344.433 91.7593 344.957 90.4775C345.482 89.1958 345.745 87.6521 345.745 85.8277V72.8697C344.892 72.299 343.861 72.0184 342.643 72.0184L342.652 72.0277Z" fill="#E6E8F9"/>
<path d="M375.786 101.517V72.3269H371.71V69.595H375.786L375.974 66.6105C376.376 60.0801 381.436 56.8242 391.135 56.8242C394.34 56.8242 397.123 57.2172 399.484 58.0124C401.836 58.8077 403.017 60.2578 403.017 62.3629C403.017 63.8599 402.351 64.9639 401.011 65.6749C399.671 66.3859 398.069 66.7415 396.204 66.7415C395.68 66.7415 395.07 66.704 394.377 66.6198C393.684 66.5356 393.196 66.3953 392.915 66.1895C393 65.7404 393.056 65.2352 393.103 64.6738C393.14 64.1031 393.168 63.5979 393.168 63.1582C393.168 62.1477 392.972 61.3151 392.587 60.6601C392.203 60.0146 391.585 59.6871 390.732 59.6871C389.476 59.6871 388.661 60.2578 388.296 61.3899C387.93 62.522 387.752 64.0844 387.752 66.0678V69.595H393.112V72.3269H387.752V100.61L375.814 101.517H375.786Z" fill="#E6E8F9"/>
<path d="M423.2 72.6078C425.937 75.4239 427.314 79.4469 427.314 84.6769C427.314 88.1199 426.686 91.1418 425.431 93.7334C424.175 96.325 422.338 98.3458 419.921 99.7867C417.503 101.227 414.608 101.948 411.244 101.948C407.88 101.948 405.097 101.256 402.689 99.8802C400.271 98.5049 398.416 96.5589 397.113 94.0421C395.811 91.5254 395.164 88.6064 395.164 85.285C395.164 79.9709 396.551 75.8262 399.334 72.851C402.117 69.8665 406.081 68.3789 411.244 68.3789C416.407 68.3789 420.474 69.7916 423.21 72.6078H423.2ZM414.43 94.5848C414.898 92.1148 415.132 88.9058 415.132 84.9763C415.132 81.0468 414.898 77.95 414.43 75.5829C413.961 73.2066 412.893 72.0277 411.234 72.0277C409.576 72.0277 408.498 73.2159 408.039 75.5829C407.571 77.9593 407.336 81.0842 407.336 84.9763C407.336 88.8683 407.571 92.1148 408.039 94.5848C408.508 97.0547 409.576 98.2897 411.234 98.2897C412.893 98.2897 413.961 97.0547 414.43 94.5848Z" fill="#E6E8F9"/>
<path d="M444.246 75.5268C443.965 76.8086 443.815 78.6798 443.815 81.1497V100.61H431.877V69.5952L441.501 68.8654L441.988 74.3386C442.682 72.43 443.787 70.9611 445.305 69.932C446.823 68.9028 448.622 68.3789 450.693 68.3789C453.289 68.3789 455.35 69.0993 456.878 70.5401C458.396 71.9809 459.164 73.9737 459.164 76.5279C459.164 78.6798 458.564 80.3451 457.365 81.5427C456.166 82.7402 454.47 83.339 452.277 83.339C451.752 83.339 451.134 83.2922 450.422 83.1893C449.709 83.0864 449.213 82.9367 448.932 82.7309C449.175 81.6736 449.297 80.4761 449.297 79.1475C449.297 75.4613 448.341 73.6089 446.439 73.6089C445.258 73.6089 444.528 74.2451 444.246 75.5268Z" fill="#E6E8F9"/>
<path d="M499.148 72.6078C501.884 75.4239 503.262 79.4469 503.262 84.6769C503.262 88.1199 502.634 91.1418 501.378 93.7334C500.123 96.325 498.286 98.3458 495.869 99.7867C493.451 101.227 490.555 101.948 487.192 101.948C483.828 101.948 481.044 101.256 478.636 99.8802C476.219 98.5049 474.363 96.5589 473.061 94.0421C471.758 91.5254 471.112 88.6064 471.112 85.285C471.112 79.9709 472.499 75.8262 475.282 72.851C478.065 69.8665 482.028 68.3789 487.192 68.3789C492.355 68.3789 496.421 69.7916 499.158 72.6078H499.148ZM490.377 94.5848C490.846 92.1148 491.08 88.9058 491.08 84.9763C491.08 81.0468 490.846 77.95 490.377 75.5829C489.909 73.2066 488.841 72.0277 487.182 72.0277C485.524 72.0277 484.446 73.2159 483.987 75.5829C483.518 77.9593 483.284 81.0842 483.284 84.9763C483.284 88.8683 483.518 92.1148 483.987 94.5848C484.455 97.0547 485.524 98.2897 487.182 98.2897C488.841 98.2897 489.909 97.0547 490.377 94.5848Z" fill="#E6E8F9"/>
<path d="M537.192 72.8506C538.982 75.8351 539.872 79.774 539.872 84.6765C539.872 90.2339 538.41 94.5002 535.487 97.4753C532.563 100.46 528.356 101.947 522.874 101.947C521.937 101.947 521.047 101.891 520.194 101.77V111.556L508.256 112.342V69.5948L517.88 68.865L518.367 74.3382C519.182 72.2331 520.429 70.7081 522.115 69.7725C523.802 68.8369 525.882 68.3691 528.356 68.3691C532.46 68.3691 535.403 69.8567 537.183 72.8413L537.192 72.8506ZM521.291 74.2166C520.766 75.0305 520.447 75.9755 520.344 77.0421C520.241 78.118 520.194 79.5027 520.194 81.2054V97.1947C521.047 97.9244 522.078 98.2893 523.305 98.2893C525.17 98.2893 526.369 97.073 526.894 94.6405C527.419 92.208 527.681 88.9895 527.681 84.9759C527.681 81.2896 527.438 78.3706 526.95 76.2187C526.463 74.0669 525.386 73.0003 523.718 73.0003C522.621 73.0003 521.806 73.4026 521.281 74.2166H521.291Z" fill="#E6E8F9"/>
<path d="M552.541 72.3272V70.4373C554.574 69.7075 556.776 68.6409 559.147 67.2469C561.518 65.8435 563.439 64.4214 564.901 62.9619H568.311V69.5859H573.859V72.3178H568.311V93.5464C568.311 94.8 568.555 95.7918 569.042 96.4935C569.53 97.2045 570.345 97.7004 571.479 97.981C570.87 99.1973 569.895 100.086 568.555 100.657C567.215 101.228 565.753 101.508 564.17 101.508C561.649 101.508 559.719 100.863 558.388 99.5622C557.048 98.2617 556.373 96.3812 556.373 93.9112V72.3178H552.541V72.3272Z" fill="#E6E8F9"/>
<path d="M586.584 56.2813C587.764 57.1327 588.345 58.3303 588.345 59.8647C588.345 61.399 587.727 62.5966 586.49 63.448C585.253 64.2994 583.641 64.7204 581.645 64.7204C579.649 64.7204 578.122 64.3087 576.923 63.476C575.723 62.6434 575.124 61.4832 575.124 59.9769C575.124 58.3958 575.761 57.1702 577.044 56.3001C578.328 55.43 579.94 54.9902 581.889 54.9902C583.838 54.9902 585.403 55.4206 586.584 56.272V56.2813ZM587.624 93.4991C587.624 96.1375 588.252 98.2613 589.507 99.8892C588.898 100.413 588.045 100.825 586.949 101.105C585.853 101.386 584.813 101.536 583.838 101.536C581.196 101.536 579.181 100.909 577.775 99.6553C576.37 98.4016 575.676 96.493 575.676 93.9388V69.5948H587.614V93.4898L587.624 93.4991Z" fill="#E6E8F9"/>
<path d="M605.643 56.8242V93.49C605.643 96.1283 606.271 98.2521 607.527 99.8801C606.918 100.404 606.065 100.816 604.968 101.096C603.872 101.377 602.832 101.527 601.857 101.527C599.215 101.527 597.2 100.9 595.795 99.6462C594.389 98.3925 593.696 96.4839 593.696 93.9297V58.0405L605.634 56.8242H605.643Z" fill="#E6E8F9"/>
<path d="M81.2353 168.113V173.586H49.8725V168.113H59.6177V144.218C58.6057 144.985 57.4063 145.64 56.0288 146.164C54.6514 146.688 53.3114 146.959 52.0089 146.959C50.1817 146.959 48.8604 146.463 48.0546 145.471C47.2394 144.48 46.8364 142.945 46.8364 140.878C56.1319 138.164 63.6845 135.283 69.4942 132.242L72.7176 133.758V168.122H81.2447L81.2353 168.113Z" fill="#E6E8F9"/>
<path d="M114.801 137.584C117.762 141.149 119.252 146.285 119.252 152.974C119.252 159.664 117.734 164.997 114.679 168.964C111.633 172.94 107.248 174.923 101.523 174.923C97.7839 174.923 94.5885 174.053 91.9273 172.313C89.2661 170.573 87.2608 168.103 85.9021 164.922C84.5434 161.741 83.8594 158.017 83.8594 153.76C83.8594 147.033 85.3493 141.757 88.3384 137.949C91.3276 134.141 95.7224 132.232 101.523 132.232C107.323 132.232 111.84 134.019 114.801 137.584ZM105.112 165.829C105.805 162.77 106.142 158.607 106.142 153.33C106.142 148.053 105.805 143.974 105.14 141.074C104.474 138.173 103.266 136.723 101.513 136.723C99.761 136.723 98.6178 138.183 97.9525 141.102C97.2872 144.021 96.9499 148.091 96.9499 153.33C96.9499 158.569 97.2872 162.77 97.9525 165.829C98.6178 168.889 99.8079 170.423 101.513 170.423C103.219 170.423 104.418 168.889 105.102 165.829H105.112Z" fill="#E6E8F9"/>
<path d="M131.424 145.313V143.423C133.457 142.693 135.659 141.626 138.03 140.232C140.401 138.829 142.322 137.407 143.783 135.947H147.194V142.571H152.742V145.313H147.194V166.532C147.194 167.785 147.438 168.768 147.925 169.479C148.412 170.19 149.228 170.686 150.362 170.966C149.752 172.183 148.778 173.071 147.438 173.642C146.098 174.213 144.636 174.494 143.053 174.494C140.532 174.494 138.602 173.848 137.271 172.548C135.931 171.247 135.256 169.367 135.256 166.897V145.313H131.424Z" fill="#E6E8F9"/>
<path d="M165.476 129.257C166.656 130.109 167.237 131.306 167.237 132.841C167.237 134.375 166.619 135.573 165.382 136.424C164.145 137.275 162.533 137.706 160.537 137.706C158.542 137.706 157.014 137.294 155.815 136.461C154.615 135.629 154.016 134.469 154.016 132.962C154.016 131.381 154.653 130.156 155.937 129.285C157.22 128.415 158.832 127.976 160.781 127.976C162.73 127.976 164.295 128.406 165.476 129.257ZM166.506 166.466C166.506 169.104 167.134 171.228 168.39 172.856C167.781 173.38 166.928 173.791 165.832 174.072C164.735 174.353 163.695 174.502 162.721 174.502C160.078 174.502 158.064 173.876 156.658 172.622C155.253 171.368 154.559 169.46 154.559 166.905V142.58H166.497V166.475L166.506 166.466Z" fill="#E6E8F9"/>
<path d="M172.597 142.57L182.221 141.841L182.708 147.314C183.523 145.209 184.76 143.684 186.419 142.748C188.087 141.813 190.158 141.345 192.631 141.345C197.176 141.345 200.24 142.945 201.824 146.144C203.492 142.945 206.537 141.345 210.96 141.345C214.493 141.345 217.06 142.308 218.662 144.236C220.265 146.163 221.071 149.007 221.071 152.778V166.456C221.071 169.094 221.699 171.218 222.954 172.846C222.345 173.37 221.502 173.782 220.424 174.062C219.347 174.343 218.325 174.493 217.351 174.493C214.708 174.493 212.684 173.866 211.26 172.612C209.836 171.358 209.123 169.45 209.123 166.896V152.909C209.123 150.719 208.964 149.017 208.636 147.8C208.308 146.584 207.54 145.976 206.322 145.976C204.897 145.976 203.998 146.715 203.614 148.193C203.229 149.671 203.033 151.655 203.033 154.125V173.585H191.095V152.909C191.095 150.719 190.917 149.017 190.579 147.8C190.233 146.584 189.389 145.976 188.049 145.976C186.953 145.976 186.138 146.369 185.613 147.164C185.088 147.95 184.77 148.886 184.666 149.962C184.563 151.037 184.517 152.422 184.517 154.125V173.585H172.579V142.57H172.597Z" fill="#E6E8F9"/>
<path d="M254.092 164.558C254.373 165.184 254.523 165.867 254.523 166.597C254.523 168.422 253.914 169.965 252.696 171.219C251.478 172.473 249.922 173.408 248.039 174.016C246.155 174.624 244.169 174.924 242.098 174.924C236.86 174.924 232.812 173.418 229.944 170.396C227.077 167.374 225.653 163.192 225.653 157.84C225.653 152.488 227.161 148.306 230.188 145.528C233.215 142.749 237.506 141.364 243.073 141.364C246.643 141.364 249.669 142.094 252.143 143.554C254.617 145.013 255.854 147.221 255.854 150.178C255.854 153.826 254.533 156.334 251.899 157.69C249.257 159.047 245.621 159.73 241.002 159.73C239.662 159.73 238.622 159.674 237.891 159.552C238.05 162.106 238.631 164.08 239.624 165.484C240.617 166.887 242.257 167.579 244.525 167.579C246.268 167.579 247.898 167.205 249.398 166.457C250.897 165.708 252.04 164.623 252.808 163.201C253.38 163.482 253.802 163.94 254.092 164.567V164.558ZM243.588 155.314C244.825 154.322 245.443 152.61 245.443 150.178C245.443 148.718 245.19 147.492 244.684 146.501C244.178 145.509 243.354 145.013 242.22 145.013C239.418 145.013 237.956 148.943 237.834 156.811C240.43 156.811 242.351 156.315 243.588 155.323V155.314Z" fill="#E6E8F9"/>
<path d="M271.999 148.502C271.718 149.784 271.568 151.655 271.568 154.125V173.586H259.63V142.571L269.253 141.841L269.741 147.314C270.434 145.406 271.54 143.937 273.058 142.908C274.576 141.878 276.375 141.354 278.446 141.354C281.041 141.354 283.103 142.075 284.63 143.516C286.148 144.957 286.917 146.949 286.917 149.503C286.917 151.655 286.317 153.321 285.117 154.518C283.918 155.716 282.222 156.315 280.029 156.315C279.505 156.315 278.886 156.268 278.174 156.165C277.462 156.062 276.965 155.912 276.684 155.706C276.928 154.649 277.05 153.461 277.05 152.123C277.05 148.437 276.094 146.584 274.192 146.584C273.011 146.584 272.28 147.221 271.999 148.502Z" fill="#E6E8F9"/>
<path d="M299.867 145.64C299.323 146.183 299.042 146.931 299.042 147.857C299.042 148.952 299.361 149.916 299.988 150.748C300.616 151.581 301.394 152.301 302.331 152.909C303.268 153.518 304.543 154.247 306.164 155.099C308.028 156.109 309.518 156.998 310.615 157.746C311.711 158.495 312.657 159.43 313.444 160.544C314.232 161.657 314.635 162.986 314.635 164.529C314.635 168.141 313.304 170.77 310.643 172.435C307.981 174.101 304.505 174.933 300.195 174.933C296.868 174.933 293.916 174.419 291.368 173.38C288.81 172.351 287.535 170.63 287.535 168.244C287.535 166.578 288.191 165.334 289.512 164.501C290.834 163.669 292.464 163.257 294.413 163.257C294.938 163.257 295.547 163.294 296.24 163.379C296.934 163.463 297.421 163.603 297.702 163.809C297.543 165.11 297.458 166.12 297.458 166.85C297.458 168.309 297.693 169.441 298.161 170.255C298.63 171.069 299.454 171.472 300.626 171.472C301.685 171.472 302.509 171.116 303.128 170.405C303.737 169.694 304.037 168.777 304.037 167.636C304.037 166.494 303.718 165.577 303.09 164.745C302.462 163.912 301.675 163.192 300.747 162.583C299.81 161.975 298.536 161.246 296.915 160.394C295.05 159.421 293.551 158.551 292.436 157.784C291.321 157.017 290.365 156.072 289.569 154.958C288.781 153.845 288.379 152.516 288.379 150.973C288.379 147.651 289.718 145.219 292.398 143.675C295.078 142.131 298.405 141.364 302.387 141.364C305.47 141.364 308.281 141.832 310.821 142.768C313.36 143.703 314.625 145.219 314.625 147.333C314.625 148.83 313.932 150.018 312.554 150.889C311.177 151.759 309.593 152.198 307.803 152.198C307.279 152.198 306.67 152.161 305.976 152.077C305.283 151.993 304.796 151.852 304.514 151.646C304.599 151.197 304.655 150.692 304.692 150.131C304.73 149.56 304.758 149.055 304.758 148.615C304.758 147.52 304.533 146.622 304.093 145.911C303.643 145.2 302.959 144.845 302.022 144.845C301.085 144.845 300.41 145.116 299.857 145.668L299.867 145.64Z" fill="#E6E8F9"/>
<path d="M339.944 145.64C339.401 146.183 339.12 146.931 339.12 147.857C339.12 148.952 339.438 149.916 340.066 150.748C340.694 151.581 341.472 152.301 342.409 152.909C343.346 153.518 344.62 154.247 346.241 155.099C348.106 156.109 349.596 156.998 350.692 157.746C351.789 158.495 352.735 159.43 353.522 160.544C354.309 161.657 354.712 162.986 354.712 164.529C354.712 168.141 353.382 170.77 350.72 172.435C348.059 174.101 344.583 174.933 340.272 174.933C336.946 174.933 333.994 174.419 331.445 173.38C328.887 172.351 327.613 170.63 327.613 168.244C327.613 166.578 328.269 165.334 329.59 164.501C330.911 163.669 332.542 163.257 334.491 163.257C335.015 163.257 335.625 163.294 336.318 163.379C337.011 163.463 337.499 163.603 337.78 163.809C337.62 165.11 337.536 166.12 337.536 166.85C337.536 168.309 337.77 169.441 338.239 170.255C338.707 171.069 339.532 171.472 340.703 171.472C341.762 171.472 342.587 171.116 343.205 170.405C343.814 169.694 344.114 168.777 344.114 167.636C344.114 166.494 343.796 165.577 343.168 164.745C342.54 163.912 341.753 163.192 340.825 162.583C339.888 161.975 338.614 161.246 336.993 160.394C335.128 159.421 333.629 158.551 332.514 157.784C331.398 157.017 330.443 156.072 329.646 154.958C328.859 153.845 328.456 152.516 328.456 150.973C328.456 147.651 329.796 145.219 332.476 143.675C335.156 142.131 338.483 141.364 342.465 141.364C345.548 141.364 348.359 141.832 350.898 142.768C353.438 143.703 354.703 145.219 354.703 147.333C354.703 148.83 354.009 150.018 352.632 150.889C351.254 151.759 349.671 152.198 347.881 152.198C347.356 152.198 346.747 152.161 346.054 152.077C345.36 151.993 344.873 151.852 344.592 151.646C344.676 151.197 344.733 150.692 344.77 150.131C344.808 149.56 344.836 149.055 344.836 148.615C344.836 147.52 344.611 146.622 344.17 145.911C343.721 145.2 343.037 144.845 342.099 144.845C341.162 144.845 340.488 145.116 339.935 145.668L339.944 145.64Z" fill="#E6E8F9"/>
<path d="M389.851 157.653C389.851 161.096 389.223 164.118 387.968 166.719C386.712 169.31 384.875 171.331 382.458 172.772C380.04 174.213 377.145 174.933 373.781 174.933C370.979 174.933 368.383 174.391 365.985 173.296L363.483 177.066C362.386 177.066 361.421 176.833 360.587 176.365C359.753 175.897 359.341 175.242 359.341 174.391C359.341 173.698 359.669 172.894 360.316 171.958L361.656 169.947C360.353 168.525 359.369 166.812 358.704 164.81C358.039 162.808 357.701 160.628 357.701 158.27C357.701 152.956 359.088 148.812 361.871 145.836C364.654 142.861 368.618 141.364 373.781 141.364C376.011 141.364 378.082 141.645 379.993 142.216L383.339 137.107C384.435 137.107 385.41 137.332 386.262 137.772C387.115 138.221 387.546 138.885 387.546 139.783C387.546 140.513 387.199 141.327 386.515 142.216L384.866 144.77C388.193 147.53 389.861 151.824 389.861 157.662L389.851 157.653ZM370.604 148.475C370.117 150.786 369.873 153.789 369.873 157.475L376.573 147.38C375.927 145.799 374.99 145.004 373.771 145.004C372.15 145.004 371.092 146.155 370.604 148.475ZM376.976 167.57C377.445 165.1 377.679 161.891 377.679 157.962V155.585L370.436 166.597C371.007 169.722 372.122 171.275 373.79 171.275C375.458 171.275 376.517 170.04 376.986 167.57H376.976Z" fill="#E6E8F9"/>
<path d="M425.609 142.571L415.742 173.586H400.515L392.175 142.571H404.657L409.839 168.843L415.02 142.571H425.618H425.609Z" fill="#E6E8F9"/>
<path d="M427.923 142.57L437.547 141.841L438.034 147.314C438.849 145.209 440.086 143.684 441.745 142.748C443.413 141.813 445.484 141.345 447.957 141.345C451.612 141.345 454.264 142.299 455.904 144.208C457.543 146.116 458.368 148.97 458.368 152.778V166.456C458.368 169.094 458.996 171.218 460.261 172.846C459.652 173.37 458.799 173.782 457.703 174.062C456.606 174.343 455.576 174.493 454.601 174.493C452.005 174.493 449.991 173.866 448.566 172.612C447.142 171.358 446.439 169.45 446.439 166.896V152.909C446.439 150.719 446.261 149.017 445.924 147.8C445.577 146.584 444.734 145.976 443.394 145.976C442.298 145.976 441.482 146.369 440.958 147.164C440.433 147.95 440.114 148.886 440.011 149.962C439.908 151.037 439.861 152.422 439.861 154.125V173.585H427.923V142.57Z" fill="#E6E8F9"/>
<path d="M505.455 166.466C505.455 169.105 506.082 171.228 507.338 172.856C506.729 173.38 505.876 173.792 504.78 174.073C503.684 174.353 502.653 174.503 501.678 174.503C497.902 174.503 495.447 173.287 494.304 170.854C492.514 173.567 489.675 174.924 485.777 174.924C482.769 174.924 480.464 174.297 478.861 173.043C477.259 171.79 476.172 170.04 475.6 167.814C475.029 165.587 474.748 162.724 474.748 159.234V142.571H486.929V158.935C486.929 161.648 486.976 163.753 487.079 165.231C487.182 166.71 487.445 167.926 487.866 168.88C488.297 169.834 488.991 170.312 489.965 170.312C492.317 170.312 493.498 168.122 493.498 163.744V142.581H505.436V166.476L505.455 166.466Z" fill="#E6E8F9"/>
<path d="M511.611 142.57L521.234 141.841L521.722 147.314C522.537 145.209 523.774 143.684 525.432 142.748C527.1 141.813 529.171 141.345 531.645 141.345C535.299 141.345 537.951 142.299 539.591 144.208C541.231 146.116 542.055 148.97 542.055 152.778V166.456C542.055 169.094 542.683 171.218 543.948 172.846C543.339 173.37 542.486 173.782 541.39 174.062C540.294 174.343 539.263 174.493 538.289 174.493C535.693 174.493 533.678 173.866 532.254 172.612C530.83 171.358 530.127 169.45 530.127 166.896V152.909C530.127 150.719 529.949 149.017 529.611 147.8C529.265 146.584 528.421 145.976 527.081 145.976C525.985 145.976 525.17 146.369 524.645 147.164C524.12 147.95 523.802 148.886 523.699 149.962C523.596 151.037 523.549 152.422 523.549 154.125V173.585H511.611V142.57Z" fill="#E6E8F9"/>
<path d="M580.127 172.856C579.518 173.38 578.665 173.792 577.569 174.072C576.473 174.353 575.442 174.503 574.467 174.503C570.729 174.503 568.274 173.287 567.093 170.854C565.303 173.567 562.464 174.924 558.566 174.924C554.34 174.924 551.294 173.352 549.43 170.208C547.565 167.065 546.628 162.986 546.628 157.952C546.628 152.516 548.033 148.4 550.863 145.574C553.693 142.749 557.797 141.346 563.195 141.346C564.329 141.346 565.369 141.411 566.306 141.533V131.007L578.244 129.791V166.457C578.244 169.095 578.872 171.219 580.137 172.847L580.127 172.856ZM563.195 145.004C561.405 145.004 560.234 146.183 559.662 148.531C559.091 150.879 558.81 153.92 558.81 157.653C558.81 161.386 559.053 164.473 559.54 166.803C560.028 169.133 561.105 170.302 562.773 170.302C564.076 170.302 564.985 169.685 565.509 168.45C566.034 167.215 566.306 165.727 566.306 163.977V146.098C565.369 145.369 564.338 145.004 563.195 145.004Z" fill="#E6E8F9"/>
<path d="M611.678 164.558C611.959 165.184 612.109 165.867 612.109 166.597C612.109 168.422 611.5 169.965 610.281 171.219C609.063 172.473 607.508 173.408 605.624 174.016C603.741 174.624 601.754 174.924 599.683 174.924C594.445 174.924 590.397 173.418 587.53 170.396C584.663 167.374 583.238 163.192 583.238 157.84C583.238 152.488 584.747 148.306 587.774 145.528C590.8 142.749 595.092 141.364 600.658 141.364C604.228 141.364 607.255 142.094 609.728 143.554C612.202 145.013 613.439 147.221 613.439 150.178C613.439 153.826 612.118 156.334 609.485 157.69C606.842 159.047 603.207 159.73 598.587 159.73C597.247 159.73 596.207 159.674 595.476 159.552C595.635 162.106 596.216 164.08 597.21 165.484C598.203 166.887 599.843 167.579 602.11 167.579C603.853 167.579 605.484 167.205 606.983 166.457C608.482 165.708 609.625 164.623 610.394 163.201C610.965 163.482 611.387 163.94 611.678 164.567V164.558ZM601.173 155.314C602.41 154.322 603.029 152.61 603.029 150.178C603.029 148.718 602.776 147.492 602.27 146.501C601.764 145.509 600.939 145.013 599.805 145.013C597.003 145.013 595.542 148.943 595.42 156.811C598.015 156.811 599.936 156.315 601.173 155.323V155.314Z" fill="#E6E8F9"/>
<path d="M629.585 148.502C629.304 149.784 629.154 151.655 629.154 154.125V173.586H617.216V142.571L626.839 141.841L627.327 147.314C628.02 145.406 629.126 143.937 630.644 142.908C632.162 141.878 633.961 141.354 636.032 141.354C638.627 141.354 640.689 142.075 642.216 143.516C643.734 144.957 644.503 146.949 644.503 149.503C644.503 151.655 643.903 153.321 642.703 154.518C641.504 155.716 639.808 156.315 637.615 156.315C637.091 156.315 636.472 156.268 635.76 156.165C635.048 156.062 634.551 155.912 634.27 155.706C634.514 154.649 634.636 153.461 634.636 152.123C634.636 148.437 633.68 146.584 631.778 146.584C630.597 146.584 629.866 147.221 629.585 148.502Z" fill="#E6E8F9"/>
<path d="M47.6802 215.547L57.3036 214.817L57.7909 220.29C58.6061 218.185 59.843 216.66 61.5016 215.725C63.1695 214.789 65.2404 214.321 67.7142 214.321C72.2589 214.321 75.323 215.921 76.9066 219.121C78.5745 215.921 81.6199 214.321 86.0428 214.321C89.5754 214.321 92.1429 215.285 93.7453 217.212C95.3476 219.14 96.1535 221.984 96.1535 225.754V239.433C96.1535 242.071 96.7813 244.195 98.037 245.823C97.4279 246.347 96.5845 246.758 95.5069 247.039C94.4293 247.32 93.408 247.469 92.4334 247.469C89.791 247.469 87.7669 246.842 86.3426 245.589C84.9183 244.335 84.2062 242.426 84.2062 239.872V225.885C84.2062 223.696 84.0469 221.993 83.7189 220.777C83.3909 219.561 82.6226 218.952 81.4044 218.952C79.9801 218.952 79.0805 219.692 78.6964 221.17C78.3122 222.648 78.1154 224.631 78.1154 227.101V246.562H66.1774V225.885C66.1774 223.696 65.9994 221.993 65.6621 220.777C65.3154 219.561 64.472 218.952 63.132 218.952C62.0357 218.952 61.2205 219.345 60.6957 220.141C60.171 220.927 59.8524 221.862 59.7493 222.938C59.6462 224.014 59.5994 225.399 59.5994 227.101V246.562H47.6802V215.547Z" fill="#E6E8F9"/>
<path d="M129.175 237.533C129.456 238.16 129.606 238.843 129.606 239.573C129.606 241.397 128.997 242.941 127.778 244.195C126.56 245.448 125.005 246.384 123.121 246.992C121.238 247.6 119.251 247.899 117.18 247.899C111.942 247.899 107.894 246.393 105.027 243.371C102.16 240.349 100.735 236.167 100.735 230.816C100.735 225.464 102.244 221.282 105.271 218.503C108.297 215.725 112.589 214.34 118.155 214.34C121.725 214.34 124.752 215.07 127.226 216.529C129.699 217.989 130.936 220.197 130.936 223.153C130.936 226.802 129.615 229.309 126.982 230.666C124.34 232.022 120.704 232.705 116.084 232.705C114.744 232.705 113.704 232.649 112.973 232.528C113.132 235.082 113.713 237.056 114.707 238.459C115.7 239.863 117.34 240.555 119.607 240.555C121.35 240.555 122.981 240.181 124.48 239.432C125.979 238.684 127.123 237.599 127.891 236.177C128.463 236.457 128.884 236.916 129.175 237.542V237.533ZM118.67 228.289C119.907 227.298 120.526 225.586 120.526 223.153C120.526 221.694 120.273 220.468 119.767 219.476C119.261 218.485 118.436 217.989 117.302 217.989C114.501 217.989 113.039 221.918 112.917 229.786C115.513 229.786 117.433 229.291 118.67 228.299V228.289Z" fill="#E6E8F9"/>
<path d="M134.713 215.547L144.336 214.817L144.824 220.29C145.639 218.185 146.876 216.66 148.534 215.725C150.202 214.789 152.273 214.321 154.747 214.321C158.401 214.321 161.053 215.276 162.693 217.184C164.333 219.093 165.157 221.946 165.157 225.754V239.433C165.157 242.071 165.785 244.195 167.05 245.823C166.441 246.347 165.589 246.758 164.492 247.039C163.396 247.32 162.365 247.469 161.391 247.469C158.795 247.469 156.78 246.842 155.356 245.589C153.932 244.335 153.229 242.426 153.229 239.872V225.885C153.229 223.696 153.051 221.993 152.714 220.777C152.367 219.561 151.523 218.952 150.184 218.952C149.087 218.952 148.272 219.345 147.747 220.141C147.222 220.927 146.904 221.862 146.801 222.938C146.698 224.014 146.651 225.399 146.651 227.101V246.562H134.713V215.547Z" fill="#E6E8F9"/>
<path d="M181.406 218.615C180.862 219.158 180.581 219.907 180.581 220.833C180.581 221.927 180.9 222.891 181.528 223.724C182.155 224.556 182.933 225.277 183.87 225.885C184.807 226.493 186.082 227.223 187.703 228.074C189.567 229.085 191.057 229.974 192.154 230.722C193.25 231.471 194.196 232.406 194.983 233.519C195.771 234.633 196.174 235.961 196.174 237.505C196.174 241.116 194.843 243.745 192.182 245.411C189.521 247.076 186.044 247.909 181.734 247.909C178.407 247.909 175.455 247.394 172.907 246.356C170.349 245.327 169.074 243.605 169.074 241.219C169.074 239.554 169.73 238.31 171.051 237.477C172.373 236.644 174.003 236.233 175.952 236.233C176.477 236.233 177.086 236.27 177.779 236.354C178.473 236.438 178.96 236.579 179.241 236.785C179.082 238.085 178.998 239.096 178.998 239.825C178.998 241.285 179.232 242.417 179.7 243.231C180.169 244.045 180.993 244.447 182.165 244.447C183.224 244.447 184.048 244.092 184.667 243.381C185.276 242.67 185.576 241.753 185.576 240.611C185.576 239.47 185.257 238.553 184.629 237.72C184.001 236.888 183.214 236.167 182.287 235.559C181.349 234.951 180.075 234.221 178.454 233.37C176.589 232.397 175.09 231.527 173.975 230.759C172.86 229.992 171.904 229.047 171.108 227.934C170.32 226.821 169.918 225.492 169.918 223.948C169.918 220.627 171.258 218.194 173.937 216.651C176.617 215.107 179.944 214.34 183.926 214.34C187.009 214.34 189.82 214.808 192.36 215.743C194.899 216.679 196.164 218.194 196.164 220.309C196.164 221.806 195.471 222.994 194.093 223.864C192.716 224.734 191.132 225.174 189.342 225.174C188.818 225.174 188.209 225.137 187.515 225.052C186.822 224.968 186.335 224.828 186.053 224.622C186.138 224.173 186.194 223.668 186.232 223.106C186.269 222.536 186.297 222.03 186.297 221.591C186.297 220.496 186.072 219.598 185.632 218.887C185.182 218.176 184.498 217.82 183.561 217.82C182.624 217.82 181.949 218.092 181.396 218.644L181.406 218.615Z" fill="#E6E8F9"/>
<path d="M197.757 218.288V216.398C199.79 215.668 201.992 214.602 204.363 213.208C206.734 211.804 208.655 210.382 210.116 208.923H213.527V215.547H219.075V218.288H213.527V239.507C213.527 240.761 213.771 241.743 214.258 242.454C214.745 243.165 215.561 243.661 216.695 243.942C216.085 245.158 215.111 246.047 213.771 246.618C212.431 247.188 210.969 247.469 209.386 247.469C206.865 247.469 204.935 246.824 203.604 245.523C202.264 244.223 201.589 242.342 201.589 239.872V218.288H197.757Z" fill="#E6E8F9"/>
<path d="M233.262 221.479C232.98 222.761 232.831 224.632 232.831 227.102V246.562H220.893V215.547L230.516 214.818L231.003 220.291C231.697 218.382 232.802 216.913 234.32 215.884C235.838 214.855 237.638 214.331 239.708 214.331C242.304 214.331 244.366 215.051 245.893 216.492C247.411 217.933 248.179 219.926 248.179 222.48C248.179 224.632 247.58 226.297 246.38 227.495C245.181 228.692 243.485 229.291 241.292 229.291C240.767 229.291 240.149 229.244 239.437 229.141C238.725 229.039 238.228 228.889 237.947 228.683C238.19 227.626 238.312 226.438 238.312 225.1C238.312 221.413 237.356 219.561 235.454 219.561C234.274 219.561 233.543 220.197 233.262 221.479Z" fill="#E6E8F9"/>
<path d="M281.323 239.442C281.323 242.08 281.951 244.204 283.206 245.832C282.597 246.356 281.744 246.768 280.648 247.048C279.552 247.329 278.521 247.479 277.546 247.479C273.77 247.479 271.315 246.262 270.172 243.83C268.382 246.543 265.543 247.9 261.645 247.9C258.637 247.9 256.332 247.273 254.729 246.019C253.127 244.765 252.04 243.016 251.468 240.789C250.897 238.562 250.616 235.699 250.616 232.21V215.547H262.797V231.91C262.797 234.624 262.844 236.729 262.947 238.207C263.05 239.685 263.313 240.901 263.734 241.856C264.165 242.81 264.859 243.287 265.833 243.287C268.185 243.287 269.366 241.098 269.366 236.719V215.556H281.304V239.451L281.323 239.442Z" fill="#E6E8F9"/>
<path d="M302.819 246.927C301.357 247.572 299.717 247.9 297.89 247.9C294.395 247.9 291.471 247.123 289.119 245.561C286.767 243.998 285.586 241.716 285.586 238.722C285.586 234.83 287.432 232.21 291.134 230.881C294.826 229.544 299.52 228.87 305.199 228.87V223.575C305.199 221.75 304.965 220.328 304.496 219.318C304.027 218.307 303.128 217.802 301.788 217.802C298.902 217.802 297.459 219.645 297.459 223.341C297.459 224.07 297.543 225.081 297.702 226.381C297.421 226.587 296.934 226.727 296.241 226.812C295.547 226.896 294.938 226.933 294.413 226.933C292.464 226.933 290.843 226.522 289.541 225.689C288.238 224.856 287.592 223.593 287.592 221.89C287.592 219.215 289.091 217.287 292.099 216.109C295.107 214.93 298.471 214.35 302.21 214.35C307.045 214.35 310.737 215.201 313.295 216.904C315.853 218.607 317.127 221.563 317.127 225.783V239.461C317.127 242.099 317.755 244.223 319.011 245.851C318.402 246.375 317.558 246.786 316.481 247.067C315.403 247.348 314.382 247.498 313.407 247.498C309.631 247.498 307.157 246.281 305.977 243.849C305.33 245.271 304.271 246.3 302.809 246.946L302.819 246.927ZM304.28 241.762C304.89 240.546 305.189 239.049 305.189 237.262V231.911C302.631 231.911 300.701 232.416 299.408 233.426C298.105 234.437 297.459 236.121 297.459 238.478C297.459 239.975 297.768 241.201 298.405 242.155C299.033 243.11 299.998 243.587 301.301 243.587C302.678 243.587 303.681 242.979 304.29 241.762H304.28Z" fill="#E6E8F9"/>
<path d="M320.304 218.288V216.398C322.337 215.668 324.539 214.602 326.91 213.208C329.281 211.804 331.202 210.382 332.663 208.923H336.074V215.547H341.621V218.288H336.074V239.507C336.074 240.761 336.318 241.743 336.805 242.454C337.292 243.165 338.108 243.661 339.241 243.942C338.632 245.158 337.658 246.047 336.318 246.618C334.978 247.188 333.516 247.469 331.932 247.469C329.412 247.469 327.481 246.824 326.151 245.523C324.811 244.223 324.136 242.342 324.136 239.872V218.288H320.304Z" fill="#E6E8F9"/>
<path d="M354.347 202.233C355.527 203.084 356.108 204.282 356.108 205.816C356.108 207.351 355.49 208.548 354.253 209.4C353.016 210.251 351.404 210.681 349.409 210.681C347.413 210.681 345.885 210.27 344.686 209.437C343.486 208.604 342.887 207.444 342.887 205.938C342.887 204.357 343.524 203.131 344.808 202.261C346.091 201.391 347.703 200.951 349.652 200.951C351.601 200.951 353.166 201.382 354.347 202.233ZM355.387 239.441C355.387 242.08 356.015 244.203 357.27 245.831C356.661 246.355 355.809 246.767 354.712 247.048C353.616 247.328 352.576 247.478 351.601 247.478C348.959 247.478 346.944 246.851 345.539 245.598C344.133 244.344 343.44 242.435 343.44 239.881V215.556H355.378V239.451L355.387 239.441Z" fill="#E6E8F9"/>
<path d="M388.361 218.559C391.097 221.375 392.475 225.399 392.475 230.628C392.475 234.071 391.847 237.093 390.591 239.694C389.336 242.286 387.499 244.307 385.081 245.748C382.664 247.188 379.768 247.909 376.404 247.909C373.04 247.909 370.257 247.216 367.849 245.841C365.432 244.466 363.576 242.52 362.274 240.003C360.971 237.486 360.325 234.567 360.325 231.246C360.325 225.932 361.712 221.787 364.495 218.812C367.278 215.837 371.241 214.34 376.404 214.34C381.568 214.34 385.634 215.753 388.37 218.569L388.361 218.559ZM379.59 240.546C380.059 238.076 380.293 234.867 380.293 230.937C380.293 227.008 380.059 223.911 379.59 221.544C379.122 219.167 378.054 217.989 376.395 217.989C374.736 217.989 373.659 219.177 373.2 221.544C372.731 223.911 372.497 227.045 372.497 230.937C372.497 234.829 372.731 238.076 373.2 240.546C373.668 243.016 374.736 244.251 376.395 244.251C378.054 244.251 379.122 243.016 379.59 240.546Z" fill="#E6E8F9"/>
<path d="M397.048 215.547L406.671 214.817L407.159 220.29C407.974 218.185 409.211 216.66 410.869 215.725C412.537 214.789 414.608 214.321 417.082 214.321C420.736 214.321 423.388 215.276 425.028 217.184C426.668 219.093 427.492 221.946 427.492 225.754V239.433C427.492 242.071 428.12 244.195 429.385 245.823C428.776 246.347 427.923 246.758 426.827 247.039C425.731 247.32 424.7 247.469 423.726 247.469C421.13 247.469 419.115 246.842 417.691 245.589C416.267 244.335 415.564 242.426 415.564 239.872V225.885C415.564 223.696 415.386 221.993 415.048 220.777C414.702 219.561 413.858 218.952 412.518 218.952C411.422 218.952 410.607 219.345 410.082 220.141C409.557 220.927 409.239 221.862 409.136 222.938C409.033 224.014 408.986 225.399 408.986 227.101V246.562H397.048V215.547Z" fill="#E6E8F9"/>
<path d="M511 280C459.642 280 418 321.634 418 373C418 424.366 459.642 466 511 466C562.358 466 604 424.366 604 373C604 321.634 562.358 280 511 280ZM511 437.94C475.131 437.94 446.06 408.861 446.06 373C446.06 337.139 475.131 308.06 511 308.06C546.869 308.06 575.94 337.139 575.94 373C575.94 408.861 546.869 437.94 511 437.94Z" fill="#6974DE"/>
<path d="M510.992 280C510.92 280 510.848 280 510.777 280C511 289.532 511.623 299.055 511.942 308.579C513.251 308.587 514.56 308.634 515.878 308.722C547.378 310.965 574.28 337.716 575.35 370.964C576.403 403.973 551.657 432.472 520.053 436.839C483.779 441.852 448.926 413.625 446.722 376.872C445.94 363.828 449.373 351.462 455.719 340.933C452.318 338.802 448.925 336.662 445.469 334.635C440.759 331.864 435.618 328.815 430.23 326.875C422.454 340.47 418 356.212 418 373C418 424.362 459.638 466 511 466C562.362 466 604 424.362 604 373C604 321.638 562.362 280 511 280H510.992Z" fill="#23309F"/>
<path d="M614.599 294.149L614.937 297.452L604.123 317.988L615.049 317.146L614.487 322.685H591.96L591.623 319.382L602.38 298.902L592.682 299.632L593.244 294.149H614.599Z" fill="#F7F7FD"/>
<path d="M577.436 318.849L577.905 323.471L562.762 352.222L578.064 351.043L577.277 358.799H545.736L545.268 354.177L560.335 325.501L546.757 326.521L547.545 318.84H577.436V318.849Z" fill="#F7F7FD"/>
<path d="M530.921 347.73L531.512 353.54L512.471 389.682L531.708 388.204L530.725 397.953H491.069L490.479 392.142L509.416 356.094L492.353 357.376L493.336 347.721H530.912L530.921 347.73Z" fill="#F7F7FD"/>
</g>
<defs>
<clipPath id="clip0_501_275">
<rect width="611" height="424" fill="white" transform="translate(45 55)"/>
</clipPath>
</defs>
</svg>
