<svg width="701" height="515" viewBox="0 0 701 515" fill="none" xmlns="http://www.w3.org/2000/svg">
<rect width="701" height="515" fill="#E6E8F9"/>
<path d="M78.9873 45.25C85.2005 45.25 90.2373 40.2132 90.2373 34C90.2373 27.7868 85.2005 22.75 78.9873 22.75C72.7741 22.75 67.7373 27.7868 67.7373 34C67.7373 40.2132 72.7741 45.25 78.9873 45.25Z" fill="#E7232D"/>
<path d="M100.869 57.1187C98.6748 54.925 94.9061 50.875 87.5936 50.875C86.4123 50.875 79.6061 50.875 73.3061 50.875C57.8373 50.8188 45.2373 38.2188 45.2373 22.75H33.9873C33.9873 40.525 45.8561 55.6 62.1123 60.4938V135.25H73.3623V101.5H84.6123V135.25H95.8623V68.0312L118.081 90.25L126.012 82.3188L100.869 57.1187Z" fill="#E7232D"/>
<path d="M213.987 45.25C220.201 45.25 225.237 40.2132 225.237 34C225.237 27.7868 220.201 22.75 213.987 22.75C207.774 22.75 202.737 27.7868 202.737 34C202.737 40.2132 207.774 45.25 213.987 45.25Z" fill="#E7232D"/>
<path d="M235.869 57.1187C233.675 54.925 229.906 50.875 222.594 50.875C221.412 50.875 214.606 50.875 208.306 50.875C192.837 50.8188 180.237 38.2188 180.237 22.75H168.987C168.987 40.525 180.856 55.6 197.112 60.4938V135.25H208.362V101.5H219.612V135.25H230.862V68.0312L253.081 90.25L261.012 82.3188L235.869 57.1187Z" fill="#E7232D"/>
<path d="M349.48 45.25C355.739 45.25 360.813 40.2132 360.813 34C360.813 27.7868 355.739 22.75 349.48 22.75C343.221 22.75 338.146 27.7868 338.146 34C338.146 40.2132 343.221 45.25 349.48 45.25Z" fill="#E7232D"/>
<path d="M371.523 57.1187C369.313 54.925 365.516 50.875 358.15 50.875C356.96 50.875 350.103 50.875 343.756 50.875C328.173 50.8188 315.48 38.2188 315.48 22.75H304.146C304.146 40.525 316.103 55.6 332.48 60.4938V135.25H343.813V101.5H355.146V135.25H366.48V68.0312L388.863 90.25L396.853 82.3188L371.523 57.1187Z" fill="#E7232D"/>
<path d="M484.987 45.25C491.201 45.25 496.237 40.2132 496.237 34C496.237 27.7868 491.201 22.75 484.987 22.75C478.774 22.75 473.737 27.7868 473.737 34C473.737 40.2132 478.774 45.25 484.987 45.25Z" fill="#E7232D"/>
<path d="M506.869 57.1187C504.675 54.925 500.906 50.875 493.594 50.875C492.412 50.875 485.606 50.875 479.306 50.875C463.837 50.8188 451.237 38.2188 451.237 22.75H439.987C439.987 40.525 451.856 55.6 468.112 60.4938V135.25H479.362V101.5H490.612V135.25H501.862V68.0312L524.081 90.25L532.012 82.3188L506.869 57.1187Z" fill="#E7232D"/>
<path d="M619.987 45.25C626.201 45.25 631.237 40.2132 631.237 34C631.237 27.7868 626.201 22.75 619.987 22.75C613.774 22.75 608.737 27.7868 608.737 34C608.737 40.2132 613.774 45.25 619.987 45.25Z" fill="#E7232D"/>
<path d="M641.869 57.1187C639.675 54.925 635.906 50.875 628.594 50.875C627.412 50.875 620.606 50.875 614.306 50.875C598.837 50.8188 586.237 38.2188 586.237 22.75H574.987C574.987 40.525 586.856 55.6 603.112 60.4938V135.25H614.362V101.5H625.612V135.25H636.862V68.0312L659.081 90.25L667.012 82.3188L641.869 57.1187Z" fill="#E7232D"/>
<path d="M102.843 221.3C109.67 221.3 113.083 225.847 113.083 234.94C113.083 244.567 109.67 249.38 102.843 249.38C99.1098 249.38 96.4565 248.14 94.8831 245.66C93.3365 243.18 92.5631 239.767 92.5631 235.42C92.5631 231.153 93.3631 227.74 94.9631 225.18C96.5898 222.593 99.2165 221.3 102.843 221.3ZM102.843 246.58C104.976 246.58 106.376 245.527 107.043 243.42C107.71 241.287 108.043 238.553 108.043 235.22C108.043 232.047 107.696 229.407 107.003 227.3C106.31 225.167 104.923 224.1 102.843 224.1C100.736 224.1 99.3365 225.167 98.6431 227.3C97.9498 229.407 97.6031 232.047 97.6031 235.22C97.6031 238.553 97.9365 241.287 98.6031 243.42C99.2698 245.527 100.683 246.58 102.843 246.58ZM131.365 228.1L125.405 248.5H119.965L114.445 228.1H119.005L123.085 245.82L127.165 228.1H131.365ZM146.84 242.86C147.454 243.153 147.76 243.727 147.76 244.58C147.76 245.54 147.44 246.393 146.8 247.14C146.16 247.86 145.334 248.407 144.32 248.78C143.307 249.18 142.28 249.38 141.24 249.38C138.307 249.38 136.134 248.433 134.72 246.54C133.307 244.62 132.6 242.047 132.6 238.82C132.6 235.38 133.36 232.607 134.88 230.5C136.427 228.367 138.76 227.3 141.88 227.3C143.854 227.3 145.44 227.82 146.64 228.86C147.84 229.873 148.44 231.313 148.44 233.18C148.44 235.5 147.627 237.127 146 238.06C144.4 238.993 142.214 239.46 139.44 239.46C138.667 239.46 137.934 239.433 137.24 239.38C137.32 241.487 137.667 243.167 138.28 244.42C138.92 245.673 140.04 246.3 141.64 246.3C142.814 246.3 143.84 246.007 144.72 245.42C145.627 244.807 146.334 243.953 146.84 242.86ZM141.24 229.58C139.8 229.58 138.787 230.34 138.2 231.86C137.614 233.353 137.294 235.193 137.24 237.38C138.04 237.433 138.627 237.46 139 237.46C142.36 237.46 144.04 236.113 144.04 233.42C144.04 232.327 143.8 231.42 143.32 230.7C142.867 229.953 142.174 229.58 141.24 229.58ZM159.401 230.38C158.254 230.38 157.507 231.153 157.161 232.7C156.841 234.22 156.681 236.047 156.681 238.18V248.5H152.281V228.1L155.961 227.62L156.161 231.22C156.534 230.02 157.187 229.073 158.121 228.38C159.054 227.66 160.134 227.3 161.361 227.3C162.694 227.3 163.747 227.687 164.521 228.46C165.321 229.233 165.721 230.287 165.721 231.62C165.721 233.78 164.681 234.86 162.601 234.86C161.907 234.86 161.374 234.713 161.001 234.42C161.187 233.727 161.281 233.127 161.281 232.62C161.281 231.127 160.654 230.38 159.401 230.38ZM193.014 222.1L193.294 225.02L182.254 249.38L176.974 248.5L188.694 225.86L173.854 225.9L174.134 222.1H193.014ZM204.815 221.3C208.175 221.3 210.575 222.567 212.015 225.1C213.455 227.607 214.175 230.887 214.175 234.94C214.175 239.073 213.441 242.513 211.975 245.26C210.535 248.007 208.148 249.38 204.815 249.38C201.481 249.38 199.095 248.087 197.655 245.5C196.241 242.887 195.535 239.527 195.535 235.42C195.535 231.313 196.241 227.94 197.655 225.3C199.095 222.633 201.481 221.3 204.815 221.3ZM204.815 246.58C206.575 246.58 207.735 245.567 208.295 243.54C208.855 241.513 209.135 238.74 209.135 235.22C209.135 231.94 208.841 229.273 208.255 227.22C207.695 225.14 206.548 224.1 204.815 224.1C203.108 224.1 201.975 225.127 201.415 227.18C200.855 229.233 200.575 231.913 200.575 235.22C200.575 238.74 200.841 241.513 201.375 243.54C201.935 245.567 203.081 246.58 204.815 246.58ZM241.535 221.02C241.909 221.02 242.282 221.167 242.655 221.46C243.029 221.727 243.349 222.06 243.615 222.46L228.455 248.06C228.135 248.593 227.829 248.993 227.535 249.26C227.242 249.527 226.869 249.66 226.415 249.66C226.042 249.66 225.669 249.513 225.295 249.22C224.922 248.953 224.602 248.62 224.335 248.22L239.535 222.62C239.829 222.087 240.122 221.687 240.415 221.42C240.709 221.153 241.082 221.02 241.535 221.02ZM224.015 221.54C228.335 221.54 230.495 224.087 230.495 229.18C230.495 231.767 229.989 233.767 228.975 235.18C227.962 236.593 226.309 237.3 224.015 237.3C219.642 237.3 217.455 234.673 217.455 229.42C217.455 226.94 217.975 225.007 219.015 223.62C220.082 222.233 221.749 221.54 224.015 221.54ZM224.015 223.46C222.922 223.46 222.202 224.02 221.855 225.14C221.509 226.233 221.335 227.633 221.335 229.34C221.335 231.18 221.495 232.633 221.815 233.7C222.135 234.767 222.869 235.3 224.015 235.3C225.135 235.3 225.842 234.767 226.135 233.7C226.455 232.607 226.615 231.153 226.615 229.34C226.615 227.633 226.442 226.233 226.095 225.14C225.775 224.02 225.082 223.46 224.015 223.46ZM244.375 233.5C248.695 233.5 250.855 236.047 250.855 241.14C250.855 243.727 250.349 245.727 249.335 247.14C248.322 248.553 246.669 249.26 244.375 249.26C240.002 249.26 237.815 246.633 237.815 241.38C237.815 238.9 238.335 236.967 239.375 235.58C240.442 234.193 242.109 233.5 244.375 233.5ZM244.375 235.42C243.282 235.42 242.562 235.98 242.215 237.1C241.869 238.193 241.695 239.593 241.695 241.3C241.695 243.14 241.842 244.593 242.135 245.66C242.455 246.727 243.202 247.26 244.375 247.26C245.495 247.26 246.202 246.727 246.495 245.66C246.815 244.567 246.975 243.113 246.975 241.3C246.975 239.593 246.802 238.193 246.455 237.1C246.135 235.98 245.442 235.42 244.375 235.42ZM276.354 230.38C275.207 230.38 274.46 231.153 274.114 232.7C273.794 234.22 273.634 236.047 273.634 238.18V248.5H269.234V228.1L272.914 227.62L273.114 231.22C273.487 230.02 274.14 229.073 275.074 228.38C276.007 227.66 277.087 227.3 278.314 227.3C279.647 227.3 280.7 227.687 281.474 228.46C282.274 229.233 282.674 230.287 282.674 231.62C282.674 233.78 281.634 234.86 279.554 234.86C278.86 234.86 278.327 234.713 277.954 234.42C278.14 233.727 278.234 233.127 278.234 232.62C278.234 231.127 277.607 230.38 276.354 230.38ZM295.855 246.66C295.348 247.593 294.602 248.273 293.615 248.7C292.655 249.153 291.562 249.38 290.335 249.38C288.495 249.38 286.948 248.82 285.695 247.7C284.468 246.58 283.855 245.127 283.855 243.34C283.855 239.02 287.708 236.86 295.415 236.86V233.38C295.415 232.047 295.215 231.06 294.815 230.42C294.415 229.753 293.655 229.42 292.535 229.42C291.602 229.42 290.828 229.673 290.215 230.18C289.602 230.66 289.295 231.34 289.295 232.22C289.295 232.78 289.402 233.38 289.615 234.02C289.242 234.313 288.708 234.46 288.015 234.46C287.055 234.46 286.295 234.22 285.735 233.74C285.175 233.26 284.895 232.567 284.895 231.66C284.895 230.38 285.615 229.34 287.055 228.54C288.495 227.713 290.415 227.3 292.815 227.3C294.575 227.3 295.962 227.567 296.975 228.1C297.988 228.607 298.708 229.407 299.135 230.5C299.588 231.567 299.815 233.007 299.815 234.82V245.22C299.815 246.527 300.228 247.407 301.055 247.86C300.842 248.26 300.522 248.567 300.095 248.78C299.695 248.993 299.228 249.1 298.695 249.1C297.922 249.1 297.282 248.887 296.775 248.46C296.268 248.007 295.962 247.407 295.855 246.66ZM291.895 246.7C293.068 246.7 293.948 246.26 294.535 245.38C295.122 244.473 295.415 243.353 295.415 242.02V238.86C290.908 238.86 288.655 240.3 288.655 243.18C288.655 244.247 288.935 245.1 289.495 245.74C290.082 246.38 290.882 246.7 291.895 246.7ZM315.055 227.3C317.562 227.3 319.348 228.313 320.415 230.34C321.482 232.34 322.015 234.9 322.015 238.02C322.015 241.433 321.282 244.18 319.815 246.26C318.348 248.34 316.095 249.38 313.055 249.38C311.775 249.38 310.615 249.207 309.575 248.86V255.74L305.175 256.22V228.1L308.855 227.62L309.055 231.22C310.175 228.607 312.175 227.3 315.055 227.3ZM313.495 230.38C312.108 230.38 311.108 230.94 310.495 232.06C309.882 233.153 309.575 234.54 309.575 236.22V245.74C310.802 246.567 312.028 246.98 313.255 246.98C314.882 246.98 315.948 246.153 316.455 244.5C316.962 242.847 317.215 240.753 317.215 238.22C317.215 235.847 316.988 233.953 316.535 232.54C316.082 231.1 315.068 230.38 313.495 230.38ZM335.993 227.3C338.499 227.3 340.286 228.313 341.353 230.34C342.419 232.34 342.953 234.9 342.953 238.02C342.953 241.433 342.219 244.18 340.753 246.26C339.286 248.34 337.033 249.38 333.993 249.38C332.713 249.38 331.553 249.207 330.513 248.86V255.74L326.113 256.22V228.1L329.793 227.62L329.993 231.22C331.113 228.607 333.113 227.3 335.993 227.3ZM334.433 230.38C333.046 230.38 332.046 230.94 331.433 232.06C330.819 233.153 330.513 234.54 330.513 236.22V245.74C331.739 246.567 332.966 246.98 334.193 246.98C335.819 246.98 336.886 246.153 337.393 244.5C337.899 242.847 338.153 240.753 338.153 238.22C338.153 235.847 337.926 233.953 337.473 232.54C337.019 231.1 336.006 230.38 334.433 230.38ZM354.29 227.3C357.277 227.3 359.49 228.273 360.93 230.22C362.37 232.14 363.09 234.74 363.09 238.02C363.09 241.513 362.397 244.287 361.01 246.34C359.623 248.367 357.383 249.38 354.29 249.38C351.25 249.38 349.023 248.407 347.61 246.46C346.223 244.513 345.53 241.833 345.53 238.42C345.53 235.113 346.25 232.433 347.69 230.38C349.13 228.327 351.33 227.3 354.29 227.3ZM354.29 246.98C355.943 246.98 357.023 246.167 357.53 244.54C358.037 242.913 358.29 240.807 358.29 238.22C358.29 235.847 358.01 233.833 357.45 232.18C356.917 230.527 355.863 229.7 354.29 229.7C351.65 229.7 350.33 232.54 350.33 238.22C350.33 240.807 350.57 242.913 351.05 244.54C351.557 246.167 352.637 246.98 354.29 246.98ZM374.127 230.38C372.981 230.38 372.234 231.153 371.887 232.7C371.567 234.22 371.407 236.047 371.407 238.18V248.5H367.007V228.1L370.687 227.62L370.887 231.22C371.261 230.02 371.914 229.073 372.847 228.38C373.781 227.66 374.861 227.3 376.087 227.3C377.421 227.3 378.474 227.687 379.247 228.46C380.047 229.233 380.447 230.287 380.447 231.62C380.447 233.78 379.407 234.86 377.327 234.86C376.634 234.86 376.101 234.713 375.727 234.42C375.914 233.727 376.007 233.127 376.007 232.62C376.007 231.127 375.381 230.38 374.127 230.38ZM380.348 229.9L380.308 228.7C381.508 228.22 382.642 227.58 383.708 226.78C384.802 225.98 385.722 225.1 386.468 224.14H387.708V228.1H391.388V229.9H387.628V244.46C387.628 245.26 387.775 245.86 388.068 246.26C388.362 246.66 388.828 246.913 389.468 247.02C389.335 247.633 388.975 248.127 388.388 248.5C387.828 248.9 387.175 249.1 386.428 249.1C384.268 249.1 383.188 247.873 383.188 245.42V229.9H380.348ZM407.075 242.86C407.688 243.153 407.995 243.727 407.995 244.58C407.995 245.54 407.675 246.393 407.035 247.14C406.395 247.86 405.568 248.407 404.555 248.78C403.541 249.18 402.515 249.38 401.475 249.38C398.541 249.38 396.368 248.433 394.955 246.54C393.541 244.62 392.835 242.047 392.835 238.82C392.835 235.38 393.595 232.607 395.115 230.5C396.661 228.367 398.995 227.3 402.115 227.3C404.088 227.3 405.675 227.82 406.875 228.86C408.075 229.873 408.675 231.313 408.675 233.18C408.675 235.5 407.861 237.127 406.235 238.06C404.635 238.993 402.448 239.46 399.675 239.46C398.901 239.46 398.168 239.433 397.475 239.38C397.555 241.487 397.901 243.167 398.515 244.42C399.155 245.673 400.275 246.3 401.875 246.3C403.048 246.3 404.075 246.007 404.955 245.42C405.861 244.807 406.568 243.953 407.075 242.86ZM401.475 229.58C400.035 229.58 399.021 230.34 398.435 231.86C397.848 233.353 397.528 235.193 397.475 237.38C398.275 237.433 398.861 237.46 399.235 237.46C402.595 237.46 404.275 236.113 404.275 233.42C404.275 232.327 404.035 231.42 403.555 230.7C403.101 229.953 402.408 229.58 401.475 229.58ZM419.635 230.38C418.488 230.38 417.742 231.153 417.395 232.7C417.075 234.22 416.915 236.047 416.915 238.18V248.5H412.515V228.1L416.195 227.62L416.395 231.22C416.768 230.02 417.422 229.073 418.355 228.38C419.288 227.66 420.368 227.3 421.595 227.3C422.928 227.3 423.982 227.687 424.755 228.46C425.555 229.233 425.955 230.287 425.955 231.62C425.955 233.78 424.915 234.86 422.835 234.86C422.142 234.86 421.608 234.713 421.235 234.42C421.422 233.727 421.515 233.127 421.515 232.62C421.515 231.127 420.888 230.38 419.635 230.38ZM441.176 242.86C441.79 243.153 442.096 243.727 442.096 244.58C442.096 245.54 441.776 246.393 441.136 247.14C440.496 247.86 439.67 248.407 438.656 248.78C437.643 249.18 436.616 249.38 435.576 249.38C432.643 249.38 430.47 248.433 429.056 246.54C427.643 244.62 426.936 242.047 426.936 238.82C426.936 235.38 427.696 232.607 429.216 230.5C430.763 228.367 433.096 227.3 436.216 227.3C438.19 227.3 439.776 227.82 440.976 228.86C442.176 229.873 442.776 231.313 442.776 233.18C442.776 235.5 441.963 237.127 440.336 238.06C438.736 238.993 436.55 239.46 433.776 239.46C433.003 239.46 432.27 239.433 431.576 239.38C431.656 241.487 432.003 243.167 432.616 244.42C433.256 245.673 434.376 246.3 435.976 246.3C437.15 246.3 438.176 246.007 439.056 245.42C439.963 244.807 440.67 243.953 441.176 242.86ZM435.576 229.58C434.136 229.58 433.123 230.34 432.536 231.86C431.95 233.353 431.63 235.193 431.576 237.38C432.376 237.433 432.963 237.46 433.336 237.46C436.696 237.46 438.376 236.113 438.376 233.42C438.376 232.327 438.136 231.42 437.656 230.7C437.203 229.953 436.51 229.58 435.576 229.58ZM453.737 230.38C452.59 230.38 451.843 231.153 451.497 232.7C451.177 234.22 451.017 236.047 451.017 238.18V248.5H446.617V228.1L450.297 227.62L450.497 231.22C450.87 230.02 451.523 229.073 452.457 228.38C453.39 227.66 454.47 227.3 455.697 227.3C457.03 227.3 458.083 227.687 458.857 228.46C459.657 229.233 460.057 230.287 460.057 231.62C460.057 233.78 459.017 234.86 456.937 234.86C456.243 234.86 455.71 234.713 455.337 234.42C455.523 233.727 455.617 233.127 455.617 232.62C455.617 231.127 454.99 230.38 453.737 230.38ZM480.23 246.66C479.723 247.593 478.977 248.273 477.99 248.7C477.03 249.153 475.937 249.38 474.71 249.38C472.87 249.38 471.323 248.82 470.07 247.7C468.843 246.58 468.23 245.127 468.23 243.34C468.23 239.02 472.083 236.86 479.79 236.86V233.38C479.79 232.047 479.59 231.06 479.19 230.42C478.79 229.753 478.03 229.42 476.91 229.42C475.977 229.42 475.203 229.673 474.59 230.18C473.977 230.66 473.67 231.34 473.67 232.22C473.67 232.78 473.777 233.38 473.99 234.02C473.617 234.313 473.083 234.46 472.39 234.46C471.43 234.46 470.67 234.22 470.11 233.74C469.55 233.26 469.27 232.567 469.27 231.66C469.27 230.38 469.99 229.34 471.43 228.54C472.87 227.713 474.79 227.3 477.19 227.3C478.95 227.3 480.337 227.567 481.35 228.1C482.363 228.607 483.083 229.407 483.51 230.5C483.963 231.567 484.19 233.007 484.19 234.82V245.22C484.19 246.527 484.603 247.407 485.43 247.86C485.217 248.26 484.897 248.567 484.47 248.78C484.07 248.993 483.603 249.1 483.07 249.1C482.297 249.1 481.657 248.887 481.15 248.46C480.643 248.007 480.337 247.407 480.23 246.66ZM476.27 246.7C477.443 246.7 478.323 246.26 478.91 245.38C479.497 244.473 479.79 243.353 479.79 242.02V238.86C475.283 238.86 473.03 240.3 473.03 243.18C473.03 244.247 473.31 245.1 473.87 245.74C474.457 246.38 475.257 246.7 476.27 246.7ZM486.95 229.9L486.91 228.7C488.11 228.22 489.243 227.58 490.31 226.78C491.403 225.98 492.323 225.1 493.07 224.14H494.31V228.1H497.99V229.9H494.23V244.46C494.23 245.26 494.377 245.86 494.67 246.26C494.963 246.66 495.43 246.913 496.07 247.02C495.937 247.633 495.577 248.127 494.99 248.5C494.43 248.9 493.777 249.1 493.03 249.1C490.87 249.1 489.79 247.873 489.79 245.42V229.9H486.95ZM515.188 227.3C518.175 227.3 520.388 228.273 521.828 230.22C523.268 232.14 523.988 234.74 523.988 238.02C523.988 241.513 523.295 244.287 521.908 246.34C520.522 248.367 518.282 249.38 515.188 249.38C512.148 249.38 509.922 248.407 508.508 246.46C507.122 244.513 506.428 241.833 506.428 238.42C506.428 235.113 507.148 232.433 508.588 230.38C510.028 228.327 512.228 227.3 515.188 227.3ZM515.188 246.98C516.842 246.98 517.922 246.167 518.428 244.54C518.935 242.913 519.188 240.807 519.188 238.22C519.188 235.847 518.908 233.833 518.348 232.18C517.815 230.527 516.762 229.7 515.188 229.7C512.548 229.7 511.228 232.54 511.228 238.22C511.228 240.807 511.468 242.913 511.948 244.54C512.455 246.167 513.535 246.98 515.188 246.98ZM537.946 227.3C540.452 227.3 542.239 228.313 543.306 230.34C544.372 232.34 544.906 234.9 544.906 238.02C544.906 241.433 544.172 244.18 542.706 246.26C541.239 248.34 538.986 249.38 535.946 249.38C534.666 249.38 533.506 249.207 532.466 248.86V255.74L528.066 256.22V228.1L531.746 227.62L531.946 231.22C533.066 228.607 535.066 227.3 537.946 227.3ZM536.386 230.38C534.999 230.38 533.999 230.94 533.386 232.06C532.772 233.153 532.466 234.54 532.466 236.22V245.74C533.692 246.567 534.919 246.98 536.146 246.98C537.772 246.98 538.839 246.153 539.346 244.5C539.852 242.847 540.106 240.753 540.106 238.22C540.106 235.847 539.879 233.953 539.426 232.54C538.972 231.1 537.959 230.38 536.386 230.38ZM553.323 220.02V245.22C553.323 246.527 553.736 247.407 554.563 247.86C554.35 248.26 553.99 248.567 553.483 248.78C553.003 248.993 552.496 249.1 551.963 249.1C550.95 249.1 550.19 248.807 549.683 248.22C549.176 247.633 548.923 246.807 548.923 245.74V220.5L553.323 220.02ZM571.801 242.86C572.415 243.153 572.721 243.727 572.721 244.58C572.721 245.54 572.401 246.393 571.761 247.14C571.121 247.86 570.295 248.407 569.281 248.78C568.268 249.18 567.241 249.38 566.201 249.38C563.268 249.38 561.095 248.433 559.681 246.54C558.268 244.62 557.561 242.047 557.561 238.82C557.561 235.38 558.321 232.607 559.841 230.5C561.388 228.367 563.721 227.3 566.841 227.3C568.815 227.3 570.401 227.82 571.601 228.86C572.801 229.873 573.401 231.313 573.401 233.18C573.401 235.5 572.588 237.127 570.961 238.06C569.361 238.993 567.175 239.46 564.401 239.46C563.628 239.46 562.895 239.433 562.201 239.38C562.281 241.487 562.628 243.167 563.241 244.42C563.881 245.673 565.001 246.3 566.601 246.3C567.775 246.3 568.801 246.007 569.681 245.42C570.588 244.807 571.295 243.953 571.801 242.86ZM566.201 229.58C564.761 229.58 563.748 230.34 563.161 231.86C562.575 233.353 562.255 235.193 562.201 237.38C563.001 237.433 563.588 237.46 563.961 237.46C567.321 237.46 569.001 236.113 569.001 233.42C569.001 232.327 568.761 231.42 568.281 230.7C567.828 229.953 567.135 229.58 566.201 229.58ZM591.522 228.1L585.562 248.5H580.122L574.602 228.1H579.162L583.242 245.82L587.322 228.1H591.522ZM606.997 242.86C607.61 243.153 607.917 243.727 607.917 244.58C607.917 245.54 607.597 246.393 606.957 247.14C606.317 247.86 605.49 248.407 604.477 248.78C603.463 249.18 602.437 249.38 601.397 249.38C598.463 249.38 596.29 248.433 594.877 246.54C593.463 244.62 592.757 242.047 592.757 238.82C592.757 235.38 593.517 232.607 595.037 230.5C596.583 228.367 598.917 227.3 602.037 227.3C604.01 227.3 605.597 227.82 606.797 228.86C607.997 229.873 608.597 231.313 608.597 233.18C608.597 235.5 607.783 237.127 606.157 238.06C604.557 238.993 602.37 239.46 599.597 239.46C598.823 239.46 598.09 239.433 597.397 239.38C597.477 241.487 597.823 243.167 598.437 244.42C599.077 245.673 600.197 246.3 601.797 246.3C602.97 246.3 603.997 246.007 604.877 245.42C605.783 244.807 606.49 243.953 606.997 242.86ZM601.397 229.58C599.957 229.58 598.943 230.34 598.357 231.86C597.77 233.353 597.45 235.193 597.397 237.38C598.197 237.433 598.783 237.46 599.157 237.46C602.517 237.46 604.197 236.113 604.197 233.42C604.197 232.327 603.957 231.42 603.477 230.7C603.023 229.953 602.33 229.58 601.397 229.58ZM140.798 280.1L147.118 279.62L147.438 283.22C147.971 281.833 148.785 280.833 149.878 280.22C150.971 279.607 152.331 279.3 153.958 279.3C156.945 279.3 158.958 280.353 159.998 282.46C161.091 280.353 163.091 279.3 165.998 279.3C168.318 279.3 169.998 279.94 171.038 281.22C172.105 282.473 172.638 284.34 172.638 286.82V295.82C172.638 297.553 173.051 298.953 173.878 300.02C173.478 300.367 172.918 300.633 172.198 300.82C171.505 301.007 170.838 301.1 170.198 301.1C168.465 301.1 167.131 300.687 166.198 299.86C165.265 299.033 164.798 297.78 164.798 296.1V286.9C164.798 285.46 164.691 284.34 164.478 283.54C164.265 282.74 163.758 282.34 162.958 282.34C162.025 282.34 161.425 282.833 161.158 283.82C160.918 284.78 160.798 286.073 160.798 287.7V300.5H152.958V286.9C152.958 285.46 152.838 284.34 152.598 283.54C152.385 282.74 151.838 282.34 150.958 282.34C150.238 282.34 149.705 282.607 149.358 283.14C149.011 283.647 148.798 284.26 148.718 284.98C148.665 285.673 148.638 286.58 148.638 287.7V300.5H140.798V280.1ZM193.464 293.66C193.837 293.847 194.117 294.153 194.304 294.58C194.491 294.98 194.584 295.42 194.584 295.9C194.584 297.1 194.184 298.113 193.384 298.94C192.584 299.767 191.557 300.38 190.304 300.78C189.077 301.18 187.784 301.38 186.424 301.38C182.984 301.38 180.317 300.393 178.424 298.42C176.557 296.42 175.624 293.66 175.624 290.14C175.624 286.567 176.611 283.873 178.584 282.06C180.584 280.22 183.411 279.3 187.064 279.3C189.411 279.3 191.397 279.78 193.024 280.74C194.651 281.7 195.464 283.153 195.464 285.1C195.464 287.5 194.597 289.153 192.864 290.06C191.131 290.94 188.744 291.38 185.704 291.38C184.824 291.38 184.144 291.34 183.664 291.26C183.771 292.94 184.144 294.247 184.784 295.18C185.451 296.087 186.531 296.54 188.024 296.54C189.171 296.54 190.237 296.3 191.224 295.82C192.211 295.313 192.957 294.593 193.464 293.66ZM183.624 289.46C185.331 289.46 186.584 289.14 187.384 288.5C188.211 287.833 188.624 286.7 188.624 285.1C188.624 284.14 188.451 283.34 188.104 282.7C187.784 282.033 187.251 281.7 186.504 281.7C184.664 281.7 183.704 284.287 183.624 289.46ZM197.946 280.1L204.266 279.62L204.586 283.22C205.12 281.833 205.933 280.833 207.026 280.22C208.12 279.607 209.48 279.3 211.106 279.3C213.506 279.3 215.24 279.927 216.306 281.18C217.4 282.433 217.946 284.313 217.946 286.82V295.82C217.946 297.553 218.36 298.953 219.186 300.02C218.786 300.367 218.226 300.633 217.506 300.82C216.786 301.007 216.106 301.1 215.466 301.1C213.76 301.1 212.44 300.687 211.506 299.86C210.573 299.033 210.106 297.78 210.106 296.1V286.9C210.106 285.46 209.986 284.34 209.746 283.54C209.533 282.74 208.986 282.34 208.106 282.34C207.386 282.34 206.853 282.607 206.506 283.14C206.16 283.647 205.946 284.26 205.866 284.98C205.813 285.673 205.786 286.58 205.786 287.7V300.5H197.946V280.1ZM230.016 281.58C229.43 281.58 228.95 281.767 228.576 282.14C228.23 282.487 228.056 282.967 228.056 283.58C228.056 284.3 228.256 284.94 228.656 285.5C229.083 286.033 229.603 286.5 230.216 286.9C230.83 287.3 231.67 287.78 232.736 288.34C233.963 289.007 234.936 289.593 235.656 290.1C236.376 290.58 236.99 291.193 237.496 291.94C238.03 292.66 238.296 293.527 238.296 294.54C238.296 296.913 237.416 298.647 235.656 299.74C233.923 300.833 231.643 301.38 228.816 301.38C226.63 301.38 224.696 301.047 223.016 300.38C221.336 299.687 220.496 298.553 220.496 296.98C220.496 295.887 220.923 295.073 221.776 294.54C222.656 293.98 223.736 293.7 225.016 293.7C225.363 293.7 225.763 293.727 226.216 293.78C226.67 293.833 226.99 293.927 227.176 294.06C227.07 294.913 227.016 295.58 227.016 296.06C227.016 297.02 227.163 297.767 227.456 298.3C227.776 298.833 228.323 299.1 229.096 299.1C229.79 299.1 230.336 298.873 230.736 298.42C231.136 297.94 231.336 297.327 231.336 296.58C231.336 295.86 231.123 295.233 230.696 294.7C230.296 294.14 229.79 293.66 229.176 293.26C228.563 292.86 227.723 292.38 226.656 291.82C225.43 291.18 224.443 290.607 223.696 290.1C222.976 289.593 222.35 288.98 221.816 288.26C221.31 287.513 221.056 286.633 221.056 285.62C221.056 283.433 221.936 281.833 223.696 280.82C225.456 279.807 227.643 279.3 230.256 279.3C232.283 279.3 234.123 279.607 235.776 280.22C237.456 280.833 238.296 281.833 238.296 283.22C238.296 284.207 237.843 284.993 236.936 285.58C236.03 286.14 234.99 286.42 233.816 286.42C233.47 286.42 233.07 286.393 232.616 286.34C232.163 286.287 231.843 286.193 231.656 286.06C231.71 285.767 231.75 285.433 231.776 285.06C231.803 284.687 231.816 284.353 231.816 284.06C231.816 283.34 231.67 282.753 231.376 282.3C231.083 281.82 230.63 281.58 230.016 281.58ZM239.352 281.9V280.66C240.686 280.18 242.126 279.487 243.672 278.58C245.246 277.647 246.512 276.7 247.472 275.74H249.712V280.1H253.352V281.9H249.712V295.86C249.712 296.687 249.872 297.34 250.192 297.82C250.512 298.273 251.046 298.593 251.792 298.78C251.392 299.58 250.752 300.167 249.872 300.54C248.992 300.913 248.032 301.1 246.992 301.1C245.339 301.1 244.072 300.673 243.192 299.82C242.312 298.967 241.872 297.727 241.872 296.1V281.9H239.352ZM264.108 282.74C263.335 282.74 262.855 283.167 262.668 284.02C262.481 284.847 262.388 286.073 262.388 287.7V300.5H254.548V280.1L260.868 279.62L261.188 283.22C261.641 281.967 262.361 281.007 263.348 280.34C264.361 279.647 265.548 279.3 266.908 279.3C268.615 279.3 269.961 279.78 270.948 280.74C271.961 281.673 272.468 282.98 272.468 284.66C272.468 286.073 272.068 287.18 271.268 287.98C270.495 288.753 269.388 289.14 267.948 289.14C267.601 289.14 267.188 289.113 266.708 289.06C266.255 288.98 265.935 288.873 265.748 288.74C265.908 288.047 265.988 287.26 265.988 286.38C265.988 283.953 265.361 282.74 264.108 282.74ZM294.239 295.82C294.239 297.553 294.653 298.953 295.479 300.02C295.079 300.367 294.519 300.633 293.799 300.82C293.079 301.007 292.399 301.1 291.759 301.1C289.279 301.1 287.666 300.3 286.919 298.7C285.746 300.487 283.879 301.38 281.319 301.38C279.346 301.38 277.826 300.967 276.759 300.14C275.719 299.313 275.013 298.167 274.639 296.7C274.266 295.233 274.079 293.353 274.079 291.06V280.1H282.079V290.86C282.079 292.647 282.106 294.033 282.159 295.02C282.239 295.98 282.413 296.78 282.679 297.42C282.973 298.033 283.439 298.34 284.079 298.34C285.626 298.34 286.399 296.9 286.399 294.02V280.1H294.239V295.82ZM310.458 298.7C310.031 299.633 309.338 300.313 308.378 300.74C307.418 301.167 306.338 301.38 305.138 301.38C302.845 301.38 300.925 300.873 299.378 299.86C297.831 298.82 297.058 297.313 297.058 295.34C297.058 292.78 298.271 291.06 300.698 290.18C303.125 289.3 306.205 288.86 309.938 288.86V285.38C309.938 284.18 309.778 283.247 309.458 282.58C309.165 281.913 308.578 281.58 307.698 281.58C305.805 281.58 304.858 282.793 304.858 285.22C304.858 285.7 304.911 286.367 305.018 287.22C304.831 287.353 304.511 287.447 304.058 287.5C303.605 287.553 303.205 287.58 302.858 287.58C301.578 287.58 300.511 287.313 299.658 286.78C298.805 286.22 298.378 285.38 298.378 284.26C298.378 282.5 299.365 281.233 301.338 280.46C303.311 279.687 305.525 279.3 307.978 279.3C311.151 279.3 313.578 279.86 315.258 280.98C316.938 282.1 317.778 284.047 317.778 286.82V295.82C317.778 297.553 318.191 298.953 319.018 300.02C318.618 300.367 318.058 300.633 317.338 300.82C316.645 301.007 315.978 301.1 315.338 301.1C312.858 301.1 311.231 300.3 310.458 298.7ZM307.378 298.54C308.285 298.54 308.938 298.14 309.338 297.34C309.738 296.54 309.938 295.553 309.938 294.38V290.86C308.258 290.86 306.991 291.193 306.138 291.86C305.285 292.527 304.858 293.633 304.858 295.18C304.858 296.167 305.058 296.98 305.458 297.62C305.885 298.233 306.525 298.54 307.378 298.54ZM319.86 281.9V280.66C321.193 280.18 322.633 279.487 324.18 278.58C325.753 277.647 327.02 276.7 327.98 275.74H330.22V280.1H333.86V281.9H330.22V295.86C330.22 296.687 330.38 297.34 330.7 297.82C331.02 298.273 331.553 298.593 332.3 298.78C331.9 299.58 331.26 300.167 330.38 300.54C329.5 300.913 328.54 301.1 327.5 301.1C325.847 301.1 324.58 300.673 323.7 299.82C322.82 298.967 322.38 297.727 322.38 296.1V281.9H319.86ZM339.136 270.5C340.416 270.5 341.442 270.78 342.216 271.34C342.989 271.9 343.376 272.687 343.376 273.7C343.376 274.713 342.962 275.5 342.136 276.06C341.336 276.62 340.282 276.9 338.976 276.9C337.696 276.9 336.656 276.633 335.856 276.1C335.082 275.54 334.696 274.767 334.696 273.78C334.696 272.74 335.109 271.94 335.936 271.38C336.789 270.793 337.856 270.5 339.136 270.5ZM342.896 295.82C342.896 297.553 343.309 298.953 344.136 300.02C343.736 300.367 343.176 300.633 342.456 300.82C341.736 301.007 341.056 301.1 340.416 301.1C338.682 301.1 337.349 300.687 336.416 299.86C335.509 299.033 335.056 297.78 335.056 296.1V280.1H342.896V295.82ZM356.692 279.3C360.132 279.3 362.745 280.233 364.532 282.1C366.345 283.94 367.252 286.58 367.252 290.02C367.252 292.287 366.838 294.273 366.012 295.98C365.185 297.687 363.972 299.02 362.372 299.98C360.798 300.913 358.905 301.38 356.692 301.38C354.532 301.38 352.652 300.927 351.052 300.02C349.478 299.113 348.265 297.833 347.412 296.18C346.558 294.527 346.132 292.607 346.132 290.42C346.132 286.927 347.038 284.207 348.852 282.26C350.692 280.287 353.305 279.3 356.692 279.3ZM356.692 298.98C357.785 298.98 358.478 298.167 358.772 296.54C359.092 294.913 359.252 292.807 359.252 290.22C359.252 287.66 359.092 285.607 358.772 284.06C358.478 282.487 357.785 281.7 356.692 281.7C355.598 281.7 354.892 282.487 354.572 284.06C354.278 285.607 354.132 287.66 354.132 290.22C354.132 292.807 354.278 294.913 354.572 296.54C354.892 298.167 355.598 298.98 356.692 298.98ZM370.251 280.1L376.571 279.62L376.891 283.22C377.424 281.833 378.238 280.833 379.331 280.22C380.424 279.607 381.784 279.3 383.411 279.3C385.811 279.3 387.544 279.927 388.611 281.18C389.704 282.433 390.251 284.313 390.251 286.82V295.82C390.251 297.553 390.664 298.953 391.491 300.02C391.091 300.367 390.531 300.633 389.811 300.82C389.091 301.007 388.411 301.1 387.771 301.1C386.064 301.1 384.744 300.687 383.811 299.86C382.878 299.033 382.411 297.78 382.411 296.1V286.9C382.411 285.46 382.291 284.34 382.051 283.54C381.838 282.74 381.291 282.34 380.411 282.34C379.691 282.34 379.158 282.607 378.811 283.14C378.464 283.647 378.251 284.26 378.171 284.98C378.118 285.673 378.091 286.58 378.091 287.7V300.5H370.251V280.1ZM402.321 281.58C401.734 281.58 401.254 281.767 400.881 282.14C400.534 282.487 400.361 282.967 400.361 283.58C400.361 284.3 400.561 284.94 400.961 285.5C401.388 286.033 401.908 286.5 402.521 286.9C403.134 287.3 403.974 287.78 405.041 288.34C406.268 289.007 407.241 289.593 407.961 290.1C408.681 290.58 409.294 291.193 409.801 291.94C410.334 292.66 410.601 293.527 410.601 294.54C410.601 296.913 409.721 298.647 407.961 299.74C406.228 300.833 403.948 301.38 401.121 301.38C398.934 301.38 397.001 301.047 395.321 300.38C393.641 299.687 392.801 298.553 392.801 296.98C392.801 295.887 393.228 295.073 394.081 294.54C394.961 293.98 396.041 293.7 397.321 293.7C397.668 293.7 398.068 293.727 398.521 293.78C398.974 293.833 399.294 293.927 399.481 294.06C399.374 294.913 399.321 295.58 399.321 296.06C399.321 297.02 399.468 297.767 399.761 298.3C400.081 298.833 400.628 299.1 401.401 299.1C402.094 299.1 402.641 298.873 403.041 298.42C403.441 297.94 403.641 297.327 403.641 296.58C403.641 295.86 403.428 295.233 403.001 294.7C402.601 294.14 402.094 293.66 401.481 293.26C400.868 292.86 400.028 292.38 398.961 291.82C397.734 291.18 396.748 290.607 396.001 290.1C395.281 289.593 394.654 288.98 394.121 288.26C393.614 287.513 393.361 286.633 393.361 285.62C393.361 283.433 394.241 281.833 396.001 280.82C397.761 279.807 399.948 279.3 402.561 279.3C404.588 279.3 406.428 279.607 408.081 280.22C409.761 280.833 410.601 281.833 410.601 283.22C410.601 284.207 410.148 284.993 409.241 285.58C408.334 286.14 407.294 286.42 406.121 286.42C405.774 286.42 405.374 286.393 404.921 286.34C404.468 286.287 404.148 286.193 403.961 286.06C404.014 285.767 404.054 285.433 404.081 285.06C404.108 284.687 404.121 284.353 404.121 284.06C404.121 283.34 403.974 282.753 403.681 282.3C403.388 281.82 402.934 281.58 402.321 281.58ZM421.657 281.58C421.07 281.58 420.59 281.767 420.217 282.14C419.87 282.487 419.697 282.967 419.697 283.58C419.697 284.3 419.897 284.94 420.297 285.5C420.724 286.033 421.244 286.5 421.857 286.9C422.47 287.3 423.31 287.78 424.377 288.34C425.604 289.007 426.577 289.593 427.297 290.1C428.017 290.58 428.63 291.193 429.137 291.94C429.67 292.66 429.937 293.527 429.937 294.54C429.937 296.913 429.057 298.647 427.297 299.74C425.564 300.833 423.284 301.38 420.457 301.38C418.27 301.38 416.337 301.047 414.657 300.38C412.977 299.687 412.137 298.553 412.137 296.98C412.137 295.887 412.564 295.073 413.417 294.54C414.297 293.98 415.377 293.7 416.657 293.7C417.004 293.7 417.404 293.727 417.857 293.78C418.31 293.833 418.63 293.927 418.817 294.06C418.71 294.913 418.657 295.58 418.657 296.06C418.657 297.02 418.804 297.767 419.097 298.3C419.417 298.833 419.964 299.1 420.737 299.1C421.43 299.1 421.977 298.873 422.377 298.42C422.777 297.94 422.977 297.327 422.977 296.58C422.977 295.86 422.764 295.233 422.337 294.7C421.937 294.14 421.43 293.66 420.817 293.26C420.204 292.86 419.364 292.38 418.297 291.82C417.07 291.18 416.084 290.607 415.337 290.1C414.617 289.593 413.99 288.98 413.457 288.26C412.95 287.513 412.697 286.633 412.697 285.62C412.697 283.433 413.577 281.833 415.337 280.82C417.097 279.807 419.284 279.3 421.897 279.3C423.924 279.3 425.764 279.607 427.417 280.22C429.097 280.833 429.937 281.833 429.937 283.22C429.937 284.207 429.484 284.993 428.577 285.58C427.67 286.14 426.63 286.42 425.457 286.42C425.11 286.42 424.71 286.393 424.257 286.34C423.804 286.287 423.484 286.193 423.297 286.06C423.35 285.767 423.39 285.433 423.417 285.06C423.444 284.687 423.457 284.353 423.457 284.06C423.457 283.34 423.31 282.753 423.017 282.3C422.724 281.82 422.27 281.58 421.657 281.58ZM432.673 280.1L438.993 279.62L439.313 283.22C439.846 281.833 440.66 280.833 441.753 280.22C442.846 279.607 444.206 279.3 445.833 279.3C448.82 279.3 450.833 280.353 451.873 282.46C452.966 280.353 454.966 279.3 457.873 279.3C460.193 279.3 461.873 279.94 462.913 281.22C463.98 282.473 464.513 284.34 464.513 286.82V295.82C464.513 297.553 464.926 298.953 465.753 300.02C465.353 300.367 464.793 300.633 464.073 300.82C463.38 301.007 462.713 301.1 462.073 301.1C460.34 301.1 459.006 300.687 458.073 299.86C457.14 299.033 456.673 297.78 456.673 296.1V286.9C456.673 285.46 456.566 284.34 456.353 283.54C456.14 282.74 455.633 282.34 454.833 282.34C453.9 282.34 453.3 282.833 453.033 283.82C452.793 284.78 452.673 286.073 452.673 287.7V300.5H444.833V286.9C444.833 285.46 444.713 284.34 444.473 283.54C444.26 282.74 443.713 282.34 442.833 282.34C442.113 282.34 441.58 282.607 441.233 283.14C440.886 283.647 440.673 284.26 440.593 284.98C440.54 285.673 440.513 286.58 440.513 287.7V300.5H432.673V280.1ZM485.339 293.66C485.712 293.847 485.992 294.153 486.179 294.58C486.366 294.98 486.459 295.42 486.459 295.9C486.459 297.1 486.059 298.113 485.259 298.94C484.459 299.767 483.432 300.38 482.179 300.78C480.952 301.18 479.659 301.38 478.299 301.38C474.859 301.38 472.192 300.393 470.299 298.42C468.432 296.42 467.499 293.66 467.499 290.14C467.499 286.567 468.486 283.873 470.459 282.06C472.459 280.22 475.286 279.3 478.939 279.3C481.286 279.3 483.272 279.78 484.899 280.74C486.526 281.7 487.339 283.153 487.339 285.1C487.339 287.5 486.472 289.153 484.739 290.06C483.006 290.94 480.619 291.38 477.579 291.38C476.699 291.38 476.019 291.34 475.539 291.26C475.646 292.94 476.019 294.247 476.659 295.18C477.326 296.087 478.406 296.54 479.899 296.54C481.046 296.54 482.112 296.3 483.099 295.82C484.086 295.313 484.832 294.593 485.339 293.66ZM475.499 289.46C477.206 289.46 478.459 289.14 479.259 288.5C480.086 287.833 480.499 286.7 480.499 285.1C480.499 284.14 480.326 283.34 479.979 282.7C479.659 282.033 479.126 281.7 478.379 281.7C476.539 281.7 475.579 284.287 475.499 289.46ZM499.381 282.74C498.608 282.74 498.128 283.167 497.941 284.02C497.755 284.847 497.661 286.073 497.661 287.7V300.5H489.821V280.1L496.141 279.62L496.461 283.22C496.915 281.967 497.635 281.007 498.621 280.34C499.635 279.647 500.821 279.3 502.181 279.3C503.888 279.3 505.235 279.78 506.221 280.74C507.235 281.673 507.741 282.98 507.741 284.66C507.741 286.073 507.341 287.18 506.541 287.98C505.768 288.753 504.661 289.14 503.221 289.14C502.875 289.14 502.461 289.113 501.981 289.06C501.528 288.98 501.208 288.873 501.021 288.74C501.181 288.047 501.261 287.26 501.261 286.38C501.261 283.953 500.635 282.74 499.381 282.74ZM507.673 281.9V280.66C509.006 280.18 510.446 279.487 511.993 278.58C513.566 277.647 514.833 276.7 515.793 275.74H518.033V280.1H521.673V281.9H518.033V295.86C518.033 296.687 518.193 297.34 518.513 297.82C518.833 298.273 519.366 298.593 520.113 298.78C519.713 299.58 519.073 300.167 518.193 300.54C517.313 300.913 516.353 301.1 515.313 301.1C513.659 301.1 512.393 300.673 511.513 299.82C510.633 298.967 510.193 297.727 510.193 296.1V281.9H507.673ZM539.948 293.66C540.322 293.847 540.602 294.153 540.788 294.58C540.975 294.98 541.068 295.42 541.068 295.9C541.068 297.1 540.668 298.113 539.868 298.94C539.068 299.767 538.042 300.38 536.788 300.78C535.562 301.18 534.268 301.38 532.908 301.38C529.468 301.38 526.802 300.393 524.908 298.42C523.042 296.42 522.108 293.66 522.108 290.14C522.108 286.567 523.095 283.873 525.068 282.06C527.068 280.22 529.895 279.3 533.548 279.3C535.895 279.3 537.882 279.78 539.508 280.74C541.135 281.7 541.948 283.153 541.948 285.1C541.948 287.5 541.082 289.153 539.348 290.06C537.615 290.94 535.228 291.38 532.188 291.38C531.308 291.38 530.628 291.34 530.148 291.26C530.255 292.94 530.628 294.247 531.268 295.18C531.935 296.087 533.015 296.54 534.508 296.54C535.655 296.54 536.722 296.3 537.708 295.82C538.695 295.313 539.442 294.593 539.948 293.66ZM530.108 289.46C531.815 289.46 533.068 289.14 533.868 288.5C534.695 287.833 535.108 286.7 535.108 285.1C535.108 284.14 534.935 283.34 534.588 282.7C534.268 282.033 533.735 281.7 532.988 281.7C531.148 281.7 530.188 284.287 530.108 289.46ZM553.991 282.74C553.217 282.74 552.737 283.167 552.551 284.02C552.364 284.847 552.271 286.073 552.271 287.7V300.5H544.431V280.1L550.751 279.62L551.071 283.22C551.524 281.967 552.244 281.007 553.231 280.34C554.244 279.647 555.431 279.3 556.791 279.3C558.497 279.3 559.844 279.78 560.831 280.74C561.844 281.673 562.351 282.98 562.351 284.66C562.351 286.073 561.951 287.18 561.151 287.98C560.377 288.753 559.271 289.14 557.831 289.14C557.484 289.14 557.071 289.113 556.591 289.06C556.137 288.98 555.817 288.873 555.631 288.74C555.791 288.047 555.871 287.26 555.871 286.38C555.871 283.953 555.244 282.74 553.991 282.74Z" fill="#E7232D"/>
<path d="M78.9873 402.25C85.2005 402.25 90.2373 397.213 90.2373 391C90.2373 384.787 85.2005 379.75 78.9873 379.75C72.7741 379.75 67.7373 384.787 67.7373 391C67.7373 397.213 72.7741 402.25 78.9873 402.25Z" fill="#E7232D"/>
<path d="M100.869 414.119C98.6748 411.925 94.9061 407.875 87.5936 407.875C86.4123 407.875 79.6061 407.875 73.3061 407.875C57.8373 407.819 45.2373 395.219 45.2373 379.75H33.9873C33.9873 397.525 45.8561 412.6 62.1123 417.494V492.25H73.3623V458.5H84.6123V492.25H95.8623V425.031L118.081 447.25L126.012 439.319L100.869 414.119Z" fill="#E7232D"/>
<path d="M213.987 402.25C220.201 402.25 225.237 397.213 225.237 391C225.237 384.787 220.201 379.75 213.987 379.75C207.774 379.75 202.737 384.787 202.737 391C202.737 397.213 207.774 402.25 213.987 402.25Z" fill="#E7232D"/>
<path d="M235.869 414.119C233.675 411.925 229.906 407.875 222.594 407.875C221.412 407.875 214.606 407.875 208.306 407.875C192.837 407.819 180.237 395.219 180.237 379.75H168.987C168.987 397.525 180.856 412.6 197.112 417.494V492.25H208.362V458.5H219.612V492.25H230.862V425.031L253.081 447.25L261.012 439.319L235.869 414.119Z" fill="#E7232D"/>
<path d="M349.48 402.25C355.739 402.25 360.813 397.213 360.813 391C360.813 384.787 355.739 379.75 349.48 379.75C343.221 379.75 338.146 384.787 338.146 391C338.146 397.213 343.221 402.25 349.48 402.25Z" fill="#B7BDEF"/>
<path d="M371.523 414.119C369.313 411.925 365.516 407.875 358.15 407.875C356.96 407.875 350.103 407.875 343.756 407.875C328.173 407.819 315.48 395.219 315.48 379.75H304.146C304.146 397.525 316.103 412.6 332.48 417.494V492.25H343.813V458.5H355.146V492.25H366.48V425.031L388.863 447.25L396.853 439.319L371.523 414.119Z" fill="#B7BDEF"/>
<path d="M484.987 402.25C491.201 402.25 496.237 397.213 496.237 391C496.237 384.787 491.201 379.75 484.987 379.75C478.774 379.75 473.737 384.787 473.737 391C473.737 397.213 478.774 402.25 484.987 402.25Z" fill="#B7BDEF"/>
<path d="M506.869 414.119C504.675 411.925 500.906 407.875 493.594 407.875C492.412 407.875 485.606 407.875 479.306 407.875C463.837 407.819 451.237 395.219 451.237 379.75H439.987C439.987 397.525 451.856 412.6 468.112 417.494V492.25H479.362V458.5H490.612V492.25H501.862V425.031L524.081 447.25L532.012 439.319L506.869 414.119Z" fill="#B7BDEF"/>
<path d="M619.987 402.25C626.201 402.25 631.237 397.213 631.237 391C631.237 384.787 626.201 379.75 619.987 379.75C613.774 379.75 608.737 384.787 608.737 391C608.737 397.213 613.774 402.25 619.987 402.25Z" fill="#B7BDEF"/>
<path d="M641.869 414.119C639.675 411.925 635.906 407.875 628.594 407.875C627.412 407.875 620.606 407.875 614.306 407.875C598.837 407.819 586.237 395.219 586.237 379.75H574.987C574.987 397.525 586.856 412.6 603.112 417.494V492.25H614.362V458.5H625.612V492.25H636.862V425.031L659.081 447.25L667.012 439.319L641.869 414.119Z" fill="#B7BDEF"/>
</svg>
