<svg width="342" height="229" viewBox="0 0 342 229" fill="none" xmlns="http://www.w3.org/2000/svg">
<rect width="341" height="229" fill="#8A93E5"/>
<g filter="url(#filter0_d_412_1628)">
<path d="M78.6038 168C78.6038 185.455 64.4541 199.604 46.9997 199.604V204.729C67.2848 204.729 83.7288 188.285 83.7288 168H78.6038ZM46.9997 199.604C29.5452 199.604 15.3955 185.455 15.3955 168H10.2705C10.2705 188.285 26.7147 204.729 46.9997 204.729V199.604ZM15.3955 168C15.3955 150.546 29.5452 136.396 46.9997 136.396V131.271C26.7147 131.271 10.2705 147.715 10.2705 168H15.3955ZM58.958 175.688C48.108 175.688 39.3122 166.892 39.3122 156.042H34.1872C34.1872 169.723 45.2773 180.813 58.958 180.813V175.688ZM75.7861 166.186C72.3418 171.886 66.0927 175.688 58.958 175.688V180.813C67.9606 180.813 75.8387 176.008 80.1728 168.836L75.7861 166.186ZM39.3122 156.042C39.3122 148.907 43.1139 142.658 48.8139 139.214L46.1636 134.827C38.9913 139.161 34.1872 147.039 34.1872 156.042H39.3122ZM46.9997 136.396C46.6973 136.396 46.3426 136.26 46.0854 135.992C45.8674 135.765 45.8168 135.55 45.8049 135.463C45.7905 135.357 45.7977 135.048 46.1636 134.827L48.8139 139.214C50.5332 138.175 51.086 136.273 50.8837 134.777C50.674 133.223 49.4481 131.271 46.9997 131.271V136.396ZM80.1728 168.836C79.9514 169.202 79.6428 169.209 79.5366 169.195C79.4498 169.183 79.2349 169.132 79.008 168.914C78.7402 168.657 78.6038 168.303 78.6038 168H83.7288C83.7288 165.552 81.7769 164.326 80.2223 164.116C78.7268 163.914 76.8248 164.467 75.7861 166.186L80.1728 168.836Z" fill="#F7F7FD"/>
</g>
<g filter="url(#filter1_d_412_1628)">
<path d="M316.272 37.9053L316.273 37.9055C316.762 38.5895 317.043 39.4216 317.407 40.4981C317.428 40.5595 317.449 40.6217 317.471 40.6847L319.005 45.2111L319.738 40.4881C319.748 40.4223 319.758 40.3574 319.768 40.2933C319.941 39.1703 320.075 38.3021 320.439 37.5441L320.439 37.5438C320.761 36.8737 321.214 36.2761 321.777 35.7959L321.777 35.7956C322.423 35.2447 323.22 34.9326 324.184 34.5553C324.244 34.5321 324.304 34.5086 324.364 34.4847C324.364 34.4847 324.364 34.4847 324.364 34.4847L328.998 32.6659L324.121 31.6719C324.057 31.6589 323.993 31.6461 323.931 31.6334C322.916 31.4277 322.077 31.2576 321.346 30.826L321.346 30.8259C320.709 30.4496 320.16 29.9388 319.727 29.334L320.947 28.4614L319.727 29.334C319.238 28.6501 318.957 27.8178 318.593 26.7415C318.572 26.68 318.551 26.6178 318.529 26.5548C318.529 26.5547 318.529 26.5547 318.529 26.5547L316.995 22.0284L316.262 26.7513C316.262 26.7514 316.262 26.7514 316.262 26.7514C316.252 26.8172 316.242 26.8821 316.232 26.9462C316.059 28.0691 315.925 28.9373 315.561 29.6952L316.272 37.9053ZM316.272 37.9053C315.84 37.3005 315.291 36.7898 314.654 36.4136L313.891 37.705M316.272 37.9053L313.891 37.705M313.891 37.705L314.654 36.4136C313.923 35.9819 313.083 35.8117 312.069 35.6061M313.891 37.705L312.069 35.6061M312.069 35.6061C312.006 35.5934 311.943 35.5806 311.879 35.5676M312.069 35.6061L311.879 35.5676M311.879 35.5676C311.879 35.5675 311.879 35.5675 311.879 35.5675M311.879 35.5676L311.879 35.5675M311.879 35.5675L307.002 34.5736M311.879 35.5675L307.002 34.5736M307.002 34.5736L311.635 32.7547M307.002 34.5736L311.635 32.7547M311.635 32.7547C311.696 32.7309 311.756 32.7074 311.816 32.6841C312.779 32.3069 313.577 31.9948 314.223 31.4438L311.635 32.7547ZM314.223 31.4437C314.785 30.9634 315.238 30.3657 315.56 29.6954L314.223 31.4437Z" stroke="#F7F7FD" stroke-width="3" stroke-linecap="round" stroke-linejoin="round" shape-rendering="crispEdges"/>
</g>
<g filter="url(#filter2_d_412_1628)">
<path d="M48.6488 104.426L48.6487 104.426C48.3414 105.277 47.7668 105.989 47.0464 106.882C47.0045 106.934 46.9621 106.986 46.9193 107.039L43.1965 111.662L48.8291 109.792C48.894 109.77 48.958 109.749 49.0213 109.728C50.1098 109.365 50.978 109.076 51.8824 109.086L51.8827 109.086C52.6724 109.095 53.4532 109.274 54.1768 109.604L54.1771 109.604C54.9954 109.977 55.7005 110.599 56.6397 111.428C56.6903 111.473 56.7415 111.518 56.7935 111.564C56.7935 111.564 56.7935 111.564 56.7935 111.564L61.1628 115.415L59.0835 109.974C59.0835 109.974 59.0835 109.974 59.0835 109.974C59.0588 109.91 59.0343 109.846 59.0102 109.783C58.5623 108.613 58.226 107.735 58.1631 106.838L58.163 106.838C58.1075 106.044 58.2127 105.25 58.4809 104.507C58.7882 103.656 59.3628 102.944 60.0832 102.051C60.1251 101.999 60.1675 101.947 60.2104 101.894L63.9332 97.2713L58.3005 99.1413C58.2356 99.1629 58.1716 99.1842 58.1082 99.2053C57.0199 99.5677 56.1517 99.8568 55.2473 99.847L48.6488 104.426ZM48.6488 104.426C48.9171 103.683 49.0221 102.889 48.9665 102.095L47.4702 102.2M48.6488 104.426L47.4702 102.2M47.4702 102.2L48.9665 102.095C48.9037 101.198 48.5673 100.32 48.1195 99.1501M47.4702 102.2L48.1195 99.1501M48.1195 99.1501C48.0953 99.0871 48.0709 99.0232 48.0461 98.9585M48.1195 99.1501L48.0461 98.9585M48.0461 98.9585C48.0461 98.9584 48.0461 98.9584 48.0461 98.9584M48.0461 98.9585L48.0461 98.9584M48.0461 98.9584L45.9668 93.5176L50.3361 97.3693C50.3361 97.3693 50.3361 97.3693 50.3361 97.3693C50.3881 97.4152 50.4394 97.4604 50.49 97.5051C51.4291 98.334 52.1343 98.9564 52.9526 99.3292M48.0461 98.9584L55.2472 99.847C54.4574 99.8384 53.6763 99.6589 52.9526 99.3292M52.9526 99.3292C52.9525 99.3291 52.9525 99.3291 52.9524 99.3291L53.5744 97.9641L52.9526 99.3292Z" stroke="#F7F7FD" stroke-width="3" stroke-linecap="round" stroke-linejoin="round" shape-rendering="crispEdges"/>
</g>
<path d="M29.8 38.32C32.16 38.16 34.24 38.08 36.04 38.08C41.28 38.08 43.9 41.26 43.9 47.62C43.9 54.74 41.04 58.3 35.32 58.3C33.64 58.3 31.8 58.15 29.8 57.85V38.32ZM35.32 56.2C36.72 56.2 37.78 55.85 38.5 55.15C39.22 54.45 39.69 53.53 39.91 52.39C40.13 51.23 40.24 49.78 40.24 48.04C40.24 45.72 39.93 43.83 39.31 42.37C38.69 40.91 37.53 40.18 35.83 40.18C35.09 40.18 34.25 40.23 33.31 40.33V56.02C34.03 56.14 34.7 56.2 35.32 56.2ZM56.5736 53.77C57.0336 53.99 57.2636 54.42 57.2636 55.06C57.2636 55.78 57.0236 56.42 56.5436 56.98C56.0636 57.52 55.4436 57.93 54.6836 58.21C53.9236 58.51 53.1536 58.66 52.3736 58.66C50.1736 58.66 48.5436 57.95 47.4836 56.53C46.4236 55.09 45.8936 53.16 45.8936 50.74C45.8936 48.16 46.4636 46.08 47.6036 44.5C48.7636 42.9 50.5136 42.1 52.8536 42.1C54.3336 42.1 55.5236 42.49 56.4236 43.27C57.3236 44.03 57.7736 45.11 57.7736 46.51C57.7736 48.25 57.1636 49.47 55.9436 50.17C54.7436 50.87 53.1036 51.22 51.0236 51.22C50.4436 51.22 49.8936 51.2 49.3736 51.16C49.4336 52.74 49.6936 54 50.1536 54.94C50.6336 55.88 51.4736 56.35 52.6736 56.35C53.5536 56.35 54.3236 56.13 54.9836 55.69C55.6636 55.23 56.1936 54.59 56.5736 53.77ZM52.3736 43.81C51.2936 43.81 50.5336 44.38 50.0936 45.52C49.6536 46.64 49.4136 48.02 49.3736 49.66C49.9736 49.7 50.4136 49.72 50.6936 49.72C53.2136 49.72 54.4736 48.71 54.4736 46.69C54.4736 45.87 54.2936 45.19 53.9336 44.65C53.5936 44.09 53.0736 43.81 52.3736 43.81ZM65.9938 44.41C65.1338 44.41 64.5738 44.99 64.3138 46.15C64.0738 47.29 63.9538 48.66 63.9538 50.26V58H60.6538V42.7L63.4138 42.34L63.5638 45.04C63.8438 44.14 64.3338 43.43 65.0338 42.91C65.7338 42.37 66.5438 42.1 67.4638 42.1C68.4638 42.1 69.2538 42.39 69.8338 42.97C70.4338 43.55 70.7338 44.34 70.7338 45.34C70.7338 46.96 69.9538 47.77 68.3938 47.77C67.8738 47.77 67.4738 47.66 67.1938 47.44C67.3338 46.92 67.4038 46.47 67.4038 46.09C67.4038 44.97 66.9338 44.41 65.9938 44.41ZM72.7898 58.36V44.05H70.6598V42.7H72.7898L72.8798 41.08C73.0598 37.96 74.8398 36.4 78.2198 36.4C79.4798 36.4 80.5598 36.6 81.4598 37C82.3798 37.38 82.8398 38.03 82.8398 38.95C82.8398 39.63 82.6298 40.15 82.2098 40.51C81.7898 40.87 81.2198 41.05 80.4998 41.05C79.9798 41.05 79.5798 40.94 79.2998 40.72C79.4598 40.24 79.5398 39.79 79.5398 39.37C79.5398 38.85 79.4098 38.45 79.1498 38.17C78.9098 37.87 78.5398 37.72 78.0398 37.72C77.2598 37.72 76.7298 38.02 76.4498 38.62C76.1898 39.2 76.0598 40.02 76.0598 41.08V42.7H79.3298V44.05H76.0898V58L72.7898 58.36ZM87.4441 42.1C89.6841 42.1 91.3441 42.83 92.4241 44.29C93.5041 45.73 94.0441 47.68 94.0441 50.14C94.0441 52.76 93.5241 54.84 92.4841 56.38C91.4441 57.9 89.7641 58.66 87.4441 58.66C85.1641 58.66 83.4941 57.93 82.4341 56.47C81.3941 55.01 80.8741 53 80.8741 50.44C80.8741 47.96 81.4141 45.95 82.4941 44.41C83.5741 42.87 85.2241 42.1 87.4441 42.1ZM87.4441 56.86C88.6841 56.86 89.4941 56.25 89.8741 55.03C90.2541 53.81 90.4441 52.23 90.4441 50.29C90.4441 48.51 90.2341 47 89.8141 45.76C89.4141 44.52 88.6241 43.9 87.4441 43.9C85.4641 43.9 84.4741 46.03 84.4741 50.29C84.4741 52.23 84.6541 53.81 85.0141 55.03C85.3941 56.25 86.2041 56.86 87.4441 56.86ZM102.322 44.41C101.462 44.41 100.902 44.99 100.642 46.15C100.402 47.29 100.282 48.66 100.282 50.26V58H96.982V42.7L99.742 42.34L99.892 45.04C100.172 44.14 100.662 43.43 101.362 42.91C102.062 42.37 102.872 42.1 103.792 42.1C104.792 42.1 105.582 42.39 106.162 42.97C106.762 43.55 107.062 44.34 107.062 45.34C107.062 46.96 106.282 47.77 104.722 47.77C104.202 47.77 103.802 47.66 103.522 47.44C103.662 46.92 103.732 46.47 103.732 46.09C103.732 44.97 103.262 44.41 102.322 44.41ZM114.362 58.36V44.05H112.232V42.7H114.362L114.452 41.08C114.632 37.96 116.412 36.4 119.792 36.4C121.052 36.4 122.132 36.6 123.032 37C123.952 37.38 124.412 38.03 124.412 38.95C124.412 39.63 124.202 40.15 123.782 40.51C123.362 40.87 122.792 41.05 122.072 41.05C121.552 41.05 121.152 40.94 120.872 40.72C121.032 40.24 121.112 39.79 121.112 39.37C121.112 38.85 120.982 38.45 120.722 38.17C120.482 37.87 120.112 37.72 119.612 37.72C118.832 37.72 118.302 38.02 118.022 38.62C117.762 39.2 117.632 40.02 117.632 41.08V42.7H120.902V44.05H117.662V58L114.362 58.36ZM131.596 56.62C131.216 57.32 130.656 57.83 129.916 58.15C129.196 58.49 128.376 58.66 127.456 58.66C126.076 58.66 124.916 58.24 123.976 57.4C123.056 56.56 122.596 55.47 122.596 54.13C122.596 50.89 125.486 49.27 131.266 49.27V46.66C131.266 45.66 131.116 44.92 130.816 44.44C130.516 43.94 129.946 43.69 129.106 43.69C128.406 43.69 127.826 43.88 127.366 44.26C126.906 44.62 126.676 45.13 126.676 45.79C126.676 46.21 126.756 46.66 126.916 47.14C126.636 47.36 126.236 47.47 125.716 47.47C124.996 47.47 124.426 47.29 124.006 46.93C123.586 46.57 123.376 46.05 123.376 45.37C123.376 44.41 123.916 43.63 124.996 43.03C126.076 42.41 127.516 42.1 129.316 42.1C130.636 42.1 131.676 42.3 132.436 42.7C133.196 43.08 133.736 43.68 134.056 44.5C134.396 45.3 134.566 46.38 134.566 47.74V55.54C134.566 56.52 134.876 57.18 135.496 57.52C135.336 57.82 135.096 58.05 134.776 58.21C134.476 58.37 134.126 58.45 133.726 58.45C133.146 58.45 132.666 58.29 132.286 57.97C131.906 57.63 131.676 57.18 131.596 56.62ZM128.626 56.65C129.506 56.65 130.166 56.32 130.606 55.66C131.046 54.98 131.266 54.14 131.266 53.14V50.77C127.886 50.77 126.196 51.85 126.196 54.01C126.196 54.81 126.406 55.45 126.826 55.93C127.266 56.41 127.866 56.65 128.626 56.65ZM128.926 41.11C128.006 41.11 127.236 40.85 126.616 40.33C125.996 39.79 125.686 39.08 125.686 38.2C125.686 37.32 125.986 36.63 126.586 36.13C127.206 35.63 127.986 35.38 128.926 35.38C129.866 35.38 130.636 35.63 131.236 36.13C131.856 36.63 132.166 37.32 132.166 38.2C132.166 39.08 131.856 39.79 131.236 40.33C130.616 40.85 129.846 41.11 128.926 41.11ZM128.926 40.09C129.426 40.09 129.796 39.92 130.036 39.58C130.296 39.22 130.426 38.76 130.426 38.2C130.426 37.66 130.296 37.23 130.036 36.91C129.796 36.57 129.426 36.4 128.926 36.4C128.426 36.4 128.046 36.57 127.786 36.91C127.546 37.23 127.426 37.66 127.426 38.2C127.426 38.76 127.546 39.22 127.786 39.58C128.046 39.92 128.426 40.09 128.926 40.09ZM143.806 44.41C142.946 44.41 142.386 44.99 142.126 46.15C141.886 47.29 141.766 48.66 141.766 50.26V58H138.466V42.7L141.226 42.34L141.376 45.04C141.656 44.14 142.146 43.43 142.846 42.91C143.546 42.37 144.356 42.1 145.276 42.1C146.276 42.1 147.066 42.39 147.646 42.97C148.246 43.55 148.546 44.34 148.546 45.34C148.546 46.96 147.766 47.77 146.206 47.77C145.686 47.77 145.286 47.66 145.006 47.44C145.146 46.92 145.216 46.47 145.216 46.09C145.216 44.97 144.746 44.41 143.806 44.41ZM167.156 55.54C167.156 56.52 167.466 57.18 168.086 57.52C167.926 57.82 167.686 58.05 167.366 58.21C167.066 58.37 166.716 58.45 166.316 58.45C165.736 58.45 165.256 58.29 164.876 57.97C164.496 57.63 164.266 57.18 164.186 56.62C163.866 57.28 163.346 57.78 162.626 58.12C161.926 58.48 161.166 58.66 160.346 58.66C158.306 58.66 156.826 57.88 155.906 56.32C154.986 54.76 154.526 52.76 154.526 50.32C154.526 47.8 155.066 45.8 156.146 44.32C157.246 42.84 158.946 42.1 161.246 42.1C162.206 42.1 163.076 42.23 163.856 42.49V37L167.156 36.64V55.54ZM163.856 44.83C162.936 44.21 162.016 43.9 161.096 43.9C159.876 43.9 159.076 44.48 158.696 45.64C158.316 46.8 158.126 48.31 158.126 50.17C158.126 51.95 158.346 53.48 158.786 54.76C159.226 56.02 160.036 56.65 161.216 56.65C162.096 56.65 162.756 56.32 163.196 55.66C163.636 54.98 163.856 54.14 163.856 53.14V44.83ZM183.247 55.54C183.247 56.52 183.557 57.18 184.177 57.52C184.017 57.82 183.777 58.05 183.457 58.21C183.157 58.37 182.807 58.45 182.407 58.45C181.827 58.45 181.347 58.29 180.967 57.97C180.587 57.63 180.357 57.18 180.277 56.62C179.957 57.28 179.437 57.78 178.717 58.12C178.017 58.48 177.257 58.66 176.437 58.66C174.997 58.66 173.897 58.35 173.137 57.73C172.397 57.09 171.907 56.23 171.667 55.15C171.427 54.05 171.307 52.64 171.307 50.92V42.7H174.607V50.77C174.607 51.99 174.647 53 174.727 53.8C174.827 54.58 175.077 55.25 175.477 55.81C175.877 56.37 176.487 56.65 177.307 56.65C178.187 56.65 178.847 56.32 179.287 55.66C179.727 54.98 179.947 54.14 179.947 53.14V42.7H183.247V55.54Z" fill="#FEF6F6"/>
<path d="M121.84 158.69C121.24 158.69 120.76 158.85 120.4 159.17C120.04 159.47 119.86 159.91 119.86 160.49C119.86 161.27 120.12 161.91 120.64 162.41C121.18 162.89 122 163.43 123.1 164.03C123.98 164.51 124.68 164.94 125.2 165.32C125.74 165.7 126.2 166.19 126.58 166.79C126.96 167.37 127.15 168.08 127.15 168.92C127.15 170.44 126.6 171.61 125.5 172.43C124.42 173.25 123.04 173.66 121.36 173.66C119.9 173.66 118.67 173.41 117.67 172.91C116.69 172.41 116.2 171.58 116.2 170.42C116.2 169.74 116.41 169.22 116.83 168.86C117.25 168.5 117.82 168.32 118.54 168.32C119.06 168.32 119.46 168.43 119.74 168.65C119.58 169.13 119.5 169.58 119.5 170C119.5 170.64 119.7 171.15 120.1 171.53C120.5 171.89 121.04 172.07 121.72 172.07C122.46 172.07 123.02 171.88 123.4 171.5C123.8 171.1 124 170.52 124 169.76C124 168.98 123.73 168.35 123.19 167.87C122.67 167.37 121.86 166.82 120.76 166.22C119.88 165.72 119.17 165.28 118.63 164.9C118.11 164.52 117.66 164.04 117.28 163.46C116.9 162.86 116.71 162.14 116.71 161.3C116.71 159.96 117.25 158.93 118.33 158.21C119.41 157.47 120.72 157.1 122.26 157.1C123.68 157.1 124.84 157.36 125.74 157.88C126.66 158.38 127.12 159.21 127.12 160.37C127.12 161.05 126.9 161.57 126.46 161.93C126.04 162.29 125.47 162.47 124.75 162.47C124.23 162.47 123.83 162.36 123.55 162.14C123.71 161.66 123.79 161.21 123.79 160.79C123.79 160.13 123.62 159.62 123.28 159.26C122.96 158.88 122.48 158.69 121.84 158.69ZM135.86 157.1C138.1 157.1 139.76 157.83 140.84 159.29C141.92 160.73 142.46 162.68 142.46 165.14C142.46 167.76 141.94 169.84 140.9 171.38C139.86 172.9 138.18 173.66 135.86 173.66C133.58 173.66 131.91 172.93 130.85 171.47C129.81 170.01 129.29 168 129.29 165.44C129.29 162.96 129.83 160.95 130.91 159.41C131.99 157.87 133.64 157.1 135.86 157.1ZM135.86 171.86C137.1 171.86 137.91 171.25 138.29 170.03C138.67 168.81 138.86 167.23 138.86 165.29C138.86 163.51 138.65 162 138.23 160.76C137.83 159.52 137.04 158.9 135.86 158.9C133.88 158.9 132.89 161.03 132.89 165.29C132.89 167.23 133.07 168.81 133.43 170.03C133.81 171.25 134.62 171.86 135.86 171.86ZM145.398 157.7L148.158 157.34L148.308 160.04C148.688 159.08 149.268 158.35 150.048 157.85C150.848 157.35 151.778 157.1 152.838 157.1C154.018 157.1 154.938 157.34 155.598 157.82C156.258 158.28 156.728 158.97 157.008 159.89C157.788 158.03 159.208 157.1 161.268 157.1C162.948 157.1 164.118 157.57 164.778 158.51C165.438 159.43 165.768 160.84 165.768 162.74V170.54C165.768 171.52 166.078 172.18 166.698 172.52C166.538 172.82 166.278 173.05 165.918 173.21C165.558 173.37 165.178 173.45 164.778 173.45C163.998 173.45 163.418 173.23 163.038 172.79C162.658 172.35 162.468 171.73 162.468 170.93V163.16C162.468 161.9 162.328 160.96 162.048 160.34C161.768 159.72 161.148 159.41 160.188 159.41C159.048 159.41 158.288 159.95 157.908 161.03C157.528 162.11 157.338 163.5 157.338 165.2V173H154.038V163.16C154.038 161.9 153.898 160.96 153.618 160.34C153.338 159.72 152.718 159.41 151.758 159.41C150.538 159.41 149.718 159.95 149.298 161.03C148.898 162.11 148.698 163.5 148.698 165.2V173H145.398V157.7ZM178.32 155.03C178.32 157.21 178.22 158.81 178.02 159.83C178.44 158.93 179.03 158.25 179.79 157.79C180.55 157.33 181.44 157.1 182.46 157.1C184.14 157.1 185.31 157.57 185.97 158.51C186.63 159.43 186.96 160.84 186.96 162.74V170.54C186.96 171.52 187.27 172.18 187.89 172.52C187.73 172.82 187.47 173.05 187.11 173.21C186.75 173.37 186.37 173.45 185.97 173.45C185.19 173.45 184.61 173.23 184.23 172.79C183.85 172.35 183.66 171.73 183.66 170.93V163.16C183.66 161.9 183.52 160.96 183.24 160.34C182.96 159.72 182.34 159.41 181.38 159.41C180.16 159.41 179.34 159.95 178.92 161.03C178.52 162.11 178.32 163.5 178.32 165.2V173H175.02V152L178.32 151.64V155.03ZM192.667 151.4C193.327 151.4 193.857 151.56 194.257 151.88C194.677 152.2 194.887 152.66 194.887 153.26C194.887 153.88 194.667 154.36 194.227 154.7C193.807 155.02 193.257 155.18 192.577 155.18C191.917 155.18 191.387 155.02 190.987 154.7C190.587 154.38 190.387 153.92 190.387 153.32C190.387 152.7 190.597 152.23 191.017 151.91C191.457 151.57 192.007 151.4 192.667 151.4ZM194.317 171.95C194.317 176.65 192.917 179 190.117 179C189.557 179 189.067 178.89 188.647 178.67C188.227 178.45 188.017 178.12 188.017 177.68C189.137 177.68 189.907 177.23 190.327 176.33C190.767 175.43 190.987 174.25 190.987 172.79V157.7H194.317V171.95ZM216.579 168.77C217.039 168.99 217.269 169.42 217.269 170.06C217.269 170.78 217.029 171.42 216.549 171.98C216.069 172.52 215.449 172.93 214.689 173.21C213.929 173.51 213.159 173.66 212.379 173.66C210.019 173.66 208.279 172.78 207.159 171.02C206.819 171.9 206.269 172.56 205.509 173C204.769 173.44 203.889 173.66 202.869 173.66C201.269 173.66 199.959 173.27 198.939 172.49C197.919 171.71 197.409 170.59 197.409 169.13C197.409 167.29 198.219 166.04 199.839 165.38C201.459 164.72 203.539 164.39 206.079 164.39V161.66C206.079 160.66 205.929 159.92 205.629 159.44C205.329 158.94 204.759 158.69 203.919 158.69C203.219 158.69 202.639 158.88 202.179 159.26C201.719 159.62 201.489 160.13 201.489 160.79C201.489 161.21 201.569 161.66 201.729 162.14C201.449 162.36 201.049 162.47 200.529 162.47C199.809 162.47 199.239 162.29 198.819 161.93C198.399 161.57 198.189 161.05 198.189 160.37C198.189 159.41 198.729 158.63 199.809 158.03C200.889 157.41 202.329 157.1 204.129 157.1C205.189 157.1 206.059 157.23 206.739 157.49C207.439 157.73 207.999 158.12 208.419 158.66C209.559 157.62 211.039 157.1 212.859 157.1C214.339 157.1 215.529 157.49 216.429 158.27C217.329 159.03 217.779 160.11 217.779 161.51C217.779 163.23 217.179 164.43 215.979 165.11C214.779 165.77 213.129 166.1 211.029 166.1C210.449 166.1 209.899 166.08 209.379 166.04C209.439 167.66 209.699 168.95 210.159 169.91C210.639 170.87 211.479 171.35 212.679 171.35C213.559 171.35 214.329 171.13 214.989 170.69C215.669 170.23 216.199 169.59 216.579 168.77ZM212.379 158.81C211.299 158.81 210.539 159.38 210.099 160.52C209.659 161.64 209.419 162.98 209.379 164.54L210.729 164.6C211.949 164.6 212.879 164.38 213.519 163.94C214.179 163.5 214.509 162.75 214.509 161.69C214.509 160.87 214.329 160.19 213.969 159.65C213.609 159.09 213.079 158.81 212.379 158.81ZM206.079 165.89C204.539 165.89 203.309 166.11 202.389 166.55C201.469 166.99 201.009 167.81 201.009 169.01C201.009 169.81 201.219 170.45 201.639 170.93C202.079 171.41 202.679 171.65 203.439 171.65C204.319 171.65 204.979 171.32 205.419 170.66C205.859 169.98 206.079 169.14 206.079 168.14V165.89ZM224.022 151.64V170.54C224.022 171.52 224.332 172.18 224.952 172.52C224.792 172.82 224.522 173.05 224.142 173.21C223.782 173.37 223.402 173.45 223.002 173.45C222.242 173.45 221.672 173.23 221.292 172.79C220.912 172.35 220.722 171.73 220.722 170.93V152L224.022 151.64ZM235.75 157.1C237.63 157.1 238.97 157.86 239.77 159.38C240.57 160.88 240.97 162.8 240.97 165.14C240.97 167.7 240.42 169.76 239.32 171.32C238.22 172.88 236.53 173.66 234.25 173.66C233.29 173.66 232.42 173.53 231.64 173.27V178.43L228.34 178.79V157.7L231.1 157.34L231.25 160.04C232.09 158.08 233.59 157.1 235.75 157.1ZM234.58 159.41C233.54 159.41 232.79 159.83 232.33 160.67C231.87 161.49 231.64 162.53 231.64 163.79V170.93C232.56 171.55 233.48 171.86 234.4 171.86C235.62 171.86 236.42 171.24 236.8 170C237.18 168.76 237.37 167.19 237.37 165.29C237.37 163.51 237.2 162.09 236.86 161.03C236.52 159.95 235.76 159.41 234.58 159.41ZM253.583 168.77C254.043 168.99 254.273 169.42 254.273 170.06C254.273 170.78 254.033 171.42 253.553 171.98C253.073 172.52 252.453 172.93 251.693 173.21C250.933 173.51 250.163 173.66 249.383 173.66C247.183 173.66 245.553 172.95 244.493 171.53C243.433 170.09 242.903 168.16 242.903 165.74C242.903 163.16 243.473 161.08 244.613 159.5C245.773 157.9 247.523 157.1 249.863 157.1C251.343 157.1 252.533 157.49 253.433 158.27C254.333 159.03 254.783 160.11 254.783 161.51C254.783 163.25 254.173 164.47 252.953 165.17C251.753 165.87 250.113 166.22 248.033 166.22C247.453 166.22 246.903 166.2 246.383 166.16C246.443 167.74 246.703 169 247.163 169.94C247.643 170.88 248.483 171.35 249.683 171.35C250.563 171.35 251.333 171.13 251.993 170.69C252.673 170.23 253.203 169.59 253.583 168.77ZM249.383 158.81C248.303 158.81 247.543 159.38 247.103 160.52C246.663 161.64 246.423 163.02 246.383 164.66C246.983 164.7 247.423 164.72 247.703 164.72C250.223 164.72 251.483 163.71 251.483 161.69C251.483 160.87 251.303 160.19 250.943 159.65C250.603 159.09 250.083 158.81 249.383 158.81ZM263.004 159.41C262.144 159.41 261.584 159.99 261.324 161.15C261.084 162.29 260.964 163.66 260.964 165.26V173H257.664V157.7L260.424 157.34L260.574 160.04C260.854 159.14 261.344 158.43 262.044 157.91C262.744 157.37 263.554 157.1 264.474 157.1C265.474 157.1 266.264 157.39 266.844 157.97C267.444 158.55 267.744 159.34 267.744 160.34C267.744 161.96 266.964 162.77 265.404 162.77C264.884 162.77 264.484 162.66 264.204 162.44C264.344 161.92 264.414 161.47 264.414 161.09C264.414 159.97 263.944 159.41 263.004 159.41ZM284.404 168.77C284.864 168.99 285.094 169.42 285.094 170.06C285.094 170.78 284.854 171.42 284.374 171.98C283.894 172.52 283.274 172.93 282.514 173.21C281.754 173.51 280.984 173.66 280.204 173.66C278.004 173.66 276.374 172.95 275.314 171.53C274.254 170.09 273.724 168.16 273.724 165.74C273.724 163.16 274.294 161.08 275.434 159.5C276.594 157.9 278.344 157.1 280.684 157.1C282.164 157.1 283.354 157.49 284.254 158.27C285.154 159.03 285.604 160.11 285.604 161.51C285.604 163.25 284.994 164.47 283.774 165.17C282.574 165.87 280.934 166.22 278.854 166.22C278.274 166.22 277.724 166.2 277.204 166.16C277.264 167.74 277.524 169 277.984 169.94C278.464 170.88 279.304 171.35 280.504 171.35C281.384 171.35 282.154 171.13 282.814 170.69C283.494 170.23 284.024 169.59 284.404 168.77ZM280.204 158.81C279.124 158.81 278.364 159.38 277.924 160.52C277.484 161.64 277.244 163.02 277.204 164.66C277.804 164.7 278.244 164.72 278.524 164.72C281.044 164.72 282.304 163.71 282.304 161.69C282.304 160.87 282.124 160.19 281.764 159.65C281.424 159.09 280.904 158.81 280.204 158.81ZM288.484 157.7L291.244 157.34L291.394 160.04C291.774 159.08 292.354 158.35 293.134 157.85C293.934 157.35 294.864 157.1 295.924 157.1C297.604 157.1 298.774 157.57 299.434 158.51C300.094 159.43 300.424 160.84 300.424 162.74V170.54C300.424 171.52 300.734 172.18 301.354 172.52C301.194 172.82 300.934 173.05 300.574 173.21C300.214 173.37 299.834 173.45 299.434 173.45C298.654 173.45 298.074 173.23 297.694 172.79C297.314 172.35 297.124 171.73 297.124 170.93V163.16C297.124 161.9 296.984 160.96 296.704 160.34C296.424 159.72 295.804 159.41 294.844 159.41C293.624 159.41 292.804 159.95 292.384 161.03C291.984 162.11 291.784 163.5 291.784 165.2V173H288.484V157.7ZM116.98 193.7L119.74 193.34L119.89 196.04C120.27 195.08 120.85 194.35 121.63 193.85C122.43 193.35 123.36 193.1 124.42 193.1C125.6 193.1 126.52 193.34 127.18 193.82C127.84 194.28 128.31 194.97 128.59 195.89C129.37 194.03 130.79 193.1 132.85 193.1C134.53 193.1 135.7 193.57 136.36 194.51C137.02 195.43 137.35 196.84 137.35 198.74V206.54C137.35 207.52 137.66 208.18 138.28 208.52C138.12 208.82 137.86 209.05 137.5 209.21C137.14 209.37 136.76 209.45 136.36 209.45C135.58 209.45 135 209.23 134.62 208.79C134.24 208.35 134.05 207.73 134.05 206.93V199.16C134.05 197.9 133.91 196.96 133.63 196.34C133.35 195.72 132.73 195.41 131.77 195.41C130.63 195.41 129.87 195.95 129.49 197.03C129.11 198.11 128.92 199.5 128.92 201.2V209H125.62V199.16C125.62 197.9 125.48 196.96 125.2 196.34C124.92 195.72 124.3 195.41 123.34 195.41C122.12 195.41 121.3 195.95 120.88 197.03C120.48 198.11 120.28 199.5 120.28 201.2V209H116.98V193.7ZM150.898 204.77C151.358 204.99 151.588 205.42 151.588 206.06C151.588 206.78 151.348 207.42 150.868 207.98C150.388 208.52 149.768 208.93 149.008 209.21C148.248 209.51 147.478 209.66 146.698 209.66C144.498 209.66 142.868 208.95 141.808 207.53C140.748 206.09 140.218 204.16 140.218 201.74C140.218 199.16 140.788 197.08 141.928 195.5C143.088 193.9 144.838 193.1 147.178 193.1C148.658 193.1 149.848 193.49 150.748 194.27C151.648 195.03 152.098 196.11 152.098 197.51C152.098 199.25 151.488 200.47 150.268 201.17C149.068 201.87 147.428 202.22 145.348 202.22C144.768 202.22 144.218 202.2 143.698 202.16C143.758 203.74 144.018 205 144.478 205.94C144.958 206.88 145.798 207.35 146.998 207.35C147.878 207.35 148.648 207.13 149.308 206.69C149.988 206.23 150.518 205.59 150.898 204.77ZM146.698 194.81C145.618 194.81 144.858 195.38 144.418 196.52C143.978 197.64 143.738 199.02 143.698 200.66C144.298 200.7 144.738 200.72 145.018 200.72C147.538 200.72 148.798 199.71 148.798 197.69C148.798 196.87 148.618 196.19 148.258 195.65C147.918 195.09 147.398 194.81 146.698 194.81ZM166.588 206.54C166.588 207.52 166.898 208.18 167.518 208.52C167.358 208.82 167.118 209.05 166.798 209.21C166.498 209.37 166.148 209.45 165.748 209.45C165.168 209.45 164.688 209.29 164.308 208.97C163.928 208.63 163.698 208.18 163.618 207.62C163.298 208.28 162.778 208.78 162.058 209.12C161.358 209.48 160.598 209.66 159.778 209.66C157.738 209.66 156.258 208.88 155.338 207.32C154.418 205.76 153.958 203.76 153.958 201.32C153.958 198.8 154.498 196.8 155.578 195.32C156.678 193.84 158.378 193.1 160.678 193.1C161.638 193.1 162.508 193.23 163.288 193.49V188L166.588 187.64V206.54ZM163.288 195.83C162.368 195.21 161.448 194.9 160.528 194.9C159.308 194.9 158.508 195.48 158.128 196.64C157.748 197.8 157.558 199.31 157.558 201.17C157.558 202.95 157.778 204.48 158.218 205.76C158.658 207.02 159.468 207.65 160.648 207.65C161.528 207.65 162.188 207.32 162.628 206.66C163.068 205.98 163.288 205.14 163.288 204.14V195.83ZM184.173 207.62C183.793 208.32 183.233 208.83 182.493 209.15C181.773 209.49 180.953 209.66 180.033 209.66C178.653 209.66 177.493 209.24 176.553 208.4C175.633 207.56 175.173 206.47 175.173 205.13C175.173 201.89 178.063 200.27 183.843 200.27V197.66C183.843 196.66 183.693 195.92 183.393 195.44C183.093 194.94 182.523 194.69 181.683 194.69C180.983 194.69 180.403 194.88 179.943 195.26C179.483 195.62 179.253 196.13 179.253 196.79C179.253 197.21 179.333 197.66 179.493 198.14C179.213 198.36 178.813 198.47 178.293 198.47C177.573 198.47 177.003 198.29 176.583 197.93C176.163 197.57 175.953 197.05 175.953 196.37C175.953 195.41 176.493 194.63 177.573 194.03C178.653 193.41 180.093 193.1 181.893 193.1C183.213 193.1 184.253 193.3 185.013 193.7C185.773 194.08 186.313 194.68 186.633 195.5C186.973 196.3 187.143 197.38 187.143 198.74V206.54C187.143 207.52 187.453 208.18 188.073 208.52C187.913 208.82 187.673 209.05 187.353 209.21C187.053 209.37 186.703 209.45 186.303 209.45C185.723 209.45 185.243 209.29 184.863 208.97C184.483 208.63 184.253 208.18 184.173 207.62ZM181.203 207.65C182.083 207.65 182.743 207.32 183.183 206.66C183.623 205.98 183.843 205.14 183.843 204.14V201.77C180.463 201.77 178.773 202.85 178.773 205.01C178.773 205.81 178.983 206.45 179.403 206.93C179.843 207.41 180.443 207.65 181.203 207.65ZM189.213 195.05L189.183 194.15C190.083 193.79 190.933 193.31 191.733 192.71C192.553 192.11 193.243 191.45 193.803 190.73H194.733V193.7H197.493V195.05H194.673V205.97C194.673 206.57 194.783 207.02 195.003 207.32C195.223 207.62 195.573 207.81 196.053 207.89C195.953 208.35 195.683 208.72 195.243 209C194.823 209.3 194.333 209.45 193.773 209.45C192.153 209.45 191.343 208.53 191.343 206.69V195.05H189.213Z" fill="#FEF6F6"/>
<path d="M205.141 209.36V195.05H203.011V193.7H205.141L205.231 192.08C205.411 188.96 207.191 187.4 210.571 187.4C211.831 187.4 212.911 187.6 213.811 188C214.731 188.38 215.191 189.03 215.191 189.95C215.191 190.63 214.981 191.15 214.561 191.51C214.141 191.87 213.571 192.05 212.851 192.05C212.331 192.05 211.931 191.94 211.651 191.72C211.811 191.24 211.891 190.79 211.891 190.37C211.891 189.85 211.761 189.45 211.501 189.17C211.261 188.87 210.891 188.72 210.391 188.72C209.611 188.72 209.081 189.02 208.801 189.62C208.541 190.2 208.411 191.02 208.411 192.08V193.7H211.681V195.05H208.441V209L205.141 209.36ZM222.376 207.62C221.996 208.32 221.436 208.83 220.696 209.15C219.976 209.49 219.156 209.66 218.236 209.66C216.856 209.66 215.696 209.24 214.756 208.4C213.836 207.56 213.376 206.47 213.376 205.13C213.376 201.89 216.266 200.27 222.046 200.27V197.66C222.046 196.66 221.896 195.92 221.596 195.44C221.296 194.94 220.726 194.69 219.886 194.69C219.186 194.69 218.606 194.88 218.146 195.26C217.686 195.62 217.456 196.13 217.456 196.79C217.456 197.21 217.536 197.66 217.696 198.14C217.416 198.36 217.016 198.47 216.496 198.47C215.776 198.47 215.206 198.29 214.786 197.93C214.366 197.57 214.156 197.05 214.156 196.37C214.156 195.41 214.696 194.63 215.776 194.03C216.856 193.41 218.296 193.1 220.096 193.1C221.416 193.1 222.456 193.3 223.216 193.7C223.976 194.08 224.516 194.68 224.836 195.5C225.176 196.3 225.346 197.38 225.346 198.74V206.54C225.346 207.52 225.656 208.18 226.276 208.52C226.116 208.82 225.876 209.05 225.556 209.21C225.256 209.37 224.906 209.45 224.506 209.45C223.926 209.45 223.446 209.29 223.066 208.97C222.686 208.63 222.456 208.18 222.376 207.62ZM219.406 207.65C220.286 207.65 220.946 207.32 221.386 206.66C221.826 205.98 222.046 205.14 222.046 204.14V201.77C218.666 201.77 216.976 202.85 216.976 205.01C216.976 205.81 217.186 206.45 217.606 206.93C218.046 207.41 218.646 207.65 219.406 207.65ZM232.606 187.64V206.54C232.606 207.52 232.916 208.18 233.536 208.52C233.376 208.82 233.106 209.05 232.726 209.21C232.366 209.37 231.986 209.45 231.586 209.45C230.826 209.45 230.256 209.23 229.876 208.79C229.496 208.35 229.306 207.73 229.306 206.93V188L232.606 187.64ZM248.414 206.54C248.414 207.52 248.724 208.18 249.344 208.52C249.184 208.82 248.944 209.05 248.624 209.21C248.324 209.37 247.974 209.45 247.574 209.45C246.994 209.45 246.514 209.29 246.134 208.97C245.754 208.63 245.524 208.18 245.444 207.62C245.124 208.28 244.604 208.78 243.884 209.12C243.184 209.48 242.424 209.66 241.604 209.66C239.564 209.66 238.084 208.88 237.164 207.32C236.244 205.76 235.784 203.76 235.784 201.32C235.784 198.8 236.324 196.8 237.404 195.32C238.504 193.84 240.204 193.1 242.504 193.1C243.464 193.1 244.334 193.23 245.114 193.49V188L248.414 187.64V206.54ZM245.114 195.83C244.194 195.21 243.274 194.9 242.354 194.9C241.134 194.9 240.334 195.48 239.954 196.64C239.574 197.8 239.384 199.31 239.384 201.17C239.384 202.95 239.604 204.48 240.044 205.76C240.484 207.02 241.294 207.65 242.474 207.65C243.354 207.65 244.014 207.32 244.454 206.66C244.894 205.98 245.114 205.14 245.114 204.14V195.83ZM262.285 204.77C262.745 204.99 262.975 205.42 262.975 206.06C262.975 206.78 262.735 207.42 262.255 207.98C261.775 208.52 261.155 208.93 260.395 209.21C259.635 209.51 258.865 209.66 258.085 209.66C255.885 209.66 254.255 208.95 253.195 207.53C252.135 206.09 251.605 204.16 251.605 201.74C251.605 199.16 252.175 197.08 253.315 195.5C254.475 193.9 256.225 193.1 258.565 193.1C260.045 193.1 261.235 193.49 262.135 194.27C263.035 195.03 263.485 196.11 263.485 197.51C263.485 199.25 262.875 200.47 261.655 201.17C260.455 201.87 258.815 202.22 256.735 202.22C256.155 202.22 255.605 202.2 255.085 202.16C255.145 203.74 255.405 205 255.865 205.94C256.345 206.88 257.185 207.35 258.385 207.35C259.265 207.35 260.035 207.13 260.695 206.69C261.375 206.23 261.905 205.59 262.285 204.77ZM258.085 194.81C257.005 194.81 256.245 195.38 255.805 196.52C255.365 197.64 255.125 199.02 255.085 200.66C255.685 200.7 256.125 200.72 256.405 200.72C258.925 200.72 260.185 199.71 260.185 197.69C260.185 196.87 260.005 196.19 259.645 195.65C259.305 195.09 258.785 194.81 258.085 194.81ZM269.779 195.05L269.749 194.15C270.649 193.79 271.499 193.31 272.299 192.71C273.119 192.11 273.809 191.45 274.369 190.73H275.299V193.7H278.059V195.05H275.239V205.97C275.239 206.57 275.349 207.02 275.569 207.32C275.789 207.62 276.139 207.81 276.619 207.89C276.519 208.35 276.249 208.72 275.809 209C275.389 209.3 274.899 209.45 274.339 209.45C272.719 209.45 271.909 208.53 271.909 206.69V195.05H269.779ZM281.844 187.4C282.504 187.4 283.034 187.56 283.434 187.88C283.854 188.2 284.064 188.66 284.064 189.26C284.064 189.88 283.844 190.36 283.404 190.7C282.984 191.02 282.434 191.18 281.754 191.18C281.094 191.18 280.564 191.02 280.164 190.7C279.764 190.38 279.564 189.92 279.564 189.32C279.564 188.7 279.774 188.23 280.194 187.91C280.634 187.57 281.184 187.4 281.844 187.4ZM283.404 206.54C283.404 207.52 283.714 208.18 284.334 208.52C284.174 208.82 283.914 209.05 283.554 209.21C283.194 209.37 282.804 209.45 282.384 209.45C281.624 209.45 281.054 209.23 280.674 208.79C280.294 208.35 280.104 207.73 280.104 206.93V193.7H283.404V206.54ZM290.848 187.64V206.54C290.848 207.52 291.158 208.18 291.778 208.52C291.618 208.82 291.348 209.05 290.968 209.21C290.608 209.37 290.228 209.45 289.828 209.45C289.068 209.45 288.498 209.23 288.118 208.79C287.738 208.35 287.548 207.73 287.548 206.93V188L290.848 187.64ZM305.631 195.41C304.771 195.41 304.211 195.99 303.951 197.15C303.711 198.29 303.591 199.66 303.591 201.26V209H300.291V193.7L303.051 193.34L303.201 196.04C303.481 195.14 303.971 194.43 304.671 193.91C305.371 193.37 306.181 193.1 307.101 193.1C308.101 193.1 308.891 193.39 309.471 193.97C310.071 194.55 310.371 195.34 310.371 196.34C310.371 197.96 309.591 198.77 308.031 198.77C307.511 198.77 307.111 198.66 306.831 198.44C306.971 197.92 307.041 197.47 307.041 197.09C307.041 195.97 306.571 195.41 305.631 195.41ZM317.676 193.1C319.916 193.1 321.576 193.83 322.656 195.29C323.736 196.73 324.276 198.68 324.276 201.14C324.276 203.76 323.756 205.84 322.716 207.38C321.676 208.9 319.996 209.66 317.676 209.66C315.396 209.66 313.726 208.93 312.666 207.47C311.626 206.01 311.106 204 311.106 201.44C311.106 198.96 311.646 196.95 312.726 195.41C313.806 193.87 315.456 193.1 317.676 193.1ZM317.676 207.86C318.916 207.86 319.726 207.25 320.106 206.03C320.486 204.81 320.676 203.23 320.676 201.29C320.676 199.51 320.466 198 320.046 196.76C319.646 195.52 318.856 194.9 317.676 194.9C315.696 194.9 314.706 197.03 314.706 201.29C314.706 203.23 314.886 204.81 315.246 206.03C315.626 207.25 316.436 207.86 317.676 207.86Z" fill="#F9CCCF"/>
<path d="M90.64 89.77C91.1 89.99 91.33 90.42 91.33 91.06C91.33 91.78 91.09 92.42 90.61 92.98C90.13 93.52 89.51 93.93 88.75 94.21C87.99 94.51 87.22 94.66 86.44 94.66C84.24 94.66 82.61 93.95 81.55 92.53C80.49 91.09 79.96 89.16 79.96 86.74C79.96 84.16 80.53 82.08 81.67 80.5C82.83 78.9 84.58 78.1 86.92 78.1C88.4 78.1 89.59 78.49 90.49 79.27C91.39 80.03 91.84 81.11 91.84 82.51C91.84 84.25 91.23 85.47 90.01 86.17C88.81 86.87 87.17 87.22 85.09 87.22C84.51 87.22 83.96 87.2 83.44 87.16C83.5 88.74 83.76 90 84.22 90.94C84.7 91.88 85.54 92.35 86.74 92.35C87.62 92.35 88.39 92.13 89.05 91.69C89.73 91.23 90.26 90.59 90.64 89.77ZM86.44 79.81C85.36 79.81 84.6 80.38 84.16 81.52C83.72 82.64 83.48 84.02 83.44 85.66C84.04 85.7 84.48 85.72 84.76 85.72C87.28 85.72 88.54 84.71 88.54 82.69C88.54 81.87 88.36 81.19 88 80.65C87.66 80.09 87.14 79.81 86.44 79.81ZM94.7202 78.7L97.4802 78.34L97.6302 81.04C98.0102 80.08 98.5902 79.35 99.3702 78.85C100.17 78.35 101.1 78.1 102.16 78.1C103.84 78.1 105.01 78.57 105.67 79.51C106.33 80.43 106.66 81.84 106.66 83.74V91.54C106.66 92.52 106.97 93.18 107.59 93.52C107.43 93.82 107.17 94.05 106.81 94.21C106.45 94.37 106.07 94.45 105.67 94.45C104.89 94.45 104.31 94.23 103.93 93.79C103.55 93.35 103.36 92.73 103.36 91.93V84.16C103.36 82.9 103.22 81.96 102.94 81.34C102.66 80.72 102.04 80.41 101.08 80.41C99.8602 80.41 99.0402 80.95 98.6202 82.03C98.2202 83.11 98.0202 84.5 98.0202 86.2V94H94.7202V78.7ZM119.174 72.64V91.54C119.174 92.52 119.484 93.18 120.104 93.52C119.944 93.82 119.674 94.05 119.294 94.21C118.934 94.37 118.554 94.45 118.154 94.45C117.394 94.45 116.824 94.23 116.444 93.79C116.064 93.35 115.874 92.73 115.874 91.93V73L119.174 72.64ZM125.053 72.4C125.713 72.4 126.243 72.56 126.643 72.88C127.063 73.2 127.273 73.66 127.273 74.26C127.273 74.88 127.053 75.36 126.613 75.7C126.193 76.02 125.643 76.18 124.963 76.18C124.303 76.18 123.773 76.02 123.373 75.7C122.973 75.38 122.773 74.92 122.773 74.32C122.773 73.7 122.983 73.23 123.403 72.91C123.843 72.57 124.393 72.4 125.053 72.4ZM126.613 91.54C126.613 92.52 126.923 93.18 127.543 93.52C127.383 93.82 127.123 94.05 126.763 94.21C126.403 94.37 126.013 94.45 125.593 94.45C124.833 94.45 124.263 94.23 123.883 93.79C123.503 93.35 123.313 92.73 123.313 91.93V78.7H126.613V91.54ZM134.057 72.64V91.54C134.057 92.52 134.367 93.18 134.987 93.52C134.827 93.82 134.557 94.05 134.177 94.21C133.817 94.37 133.437 94.45 133.037 94.45C132.277 94.45 131.707 94.23 131.327 93.79C130.947 93.35 130.757 92.73 130.757 91.93V73L134.057 72.64ZM141.615 72.64V91.54C141.615 92.52 141.925 93.18 142.545 93.52C142.385 93.82 142.115 94.05 141.735 94.21C141.375 94.37 140.995 94.45 140.595 94.45C139.835 94.45 139.265 94.23 138.885 93.79C138.505 93.35 138.315 92.73 138.315 91.93V73L141.615 72.64ZM155.474 89.77C155.934 89.99 156.164 90.42 156.164 91.06C156.164 91.78 155.924 92.42 155.444 92.98C154.964 93.52 154.344 93.93 153.584 94.21C152.824 94.51 152.054 94.66 151.274 94.66C149.074 94.66 147.444 93.95 146.384 92.53C145.324 91.09 144.794 89.16 144.794 86.74C144.794 84.16 145.364 82.08 146.504 80.5C147.664 78.9 149.414 78.1 151.754 78.1C153.234 78.1 154.424 78.49 155.324 79.27C156.224 80.03 156.674 81.11 156.674 82.51C156.674 84.25 156.064 85.47 154.844 86.17C153.644 86.87 152.004 87.22 149.924 87.22C149.344 87.22 148.794 87.2 148.274 87.16C148.334 88.74 148.594 90 149.054 90.94C149.534 91.88 150.374 92.35 151.574 92.35C152.454 92.35 153.224 92.13 153.884 91.69C154.564 91.23 155.094 90.59 155.474 89.77ZM151.274 79.81C150.194 79.81 149.434 80.38 148.994 81.52C148.554 82.64 148.314 84.02 148.274 85.66C148.874 85.7 149.314 85.72 149.594 85.72C152.114 85.72 153.374 84.71 153.374 82.69C153.374 81.87 153.194 81.19 152.834 80.65C152.494 80.09 151.974 79.81 151.274 79.81ZM172.328 78.1C174.208 78.1 175.548 78.86 176.348 80.38C177.148 81.88 177.548 83.8 177.548 86.14C177.548 88.7 176.998 90.76 175.898 92.32C174.798 93.88 173.108 94.66 170.828 94.66C169.868 94.66 168.998 94.53 168.218 94.27V99.43L164.918 99.79V78.7L167.678 78.34L167.828 81.04C168.668 79.08 170.168 78.1 172.328 78.1ZM171.158 80.41C170.118 80.41 169.368 80.83 168.908 81.67C168.448 82.49 168.218 83.53 168.218 84.79V91.93C169.138 92.55 170.058 92.86 170.978 92.86C172.198 92.86 172.998 92.24 173.378 91C173.758 89.76 173.948 88.19 173.948 86.29C173.948 84.51 173.778 83.09 173.438 82.03C173.098 80.95 172.338 80.41 171.158 80.41ZM188.631 92.62C188.251 93.32 187.691 93.83 186.951 94.15C186.231 94.49 185.411 94.66 184.491 94.66C183.111 94.66 181.951 94.24 181.011 93.4C180.091 92.56 179.631 91.47 179.631 90.13C179.631 86.89 182.521 85.27 188.301 85.27V82.66C188.301 81.66 188.151 80.92 187.851 80.44C187.551 79.94 186.981 79.69 186.141 79.69C185.441 79.69 184.861 79.88 184.401 80.26C183.941 80.62 183.711 81.13 183.711 81.79C183.711 82.21 183.791 82.66 183.951 83.14C183.671 83.36 183.271 83.47 182.751 83.47C182.031 83.47 181.461 83.29 181.041 82.93C180.621 82.57 180.411 82.05 180.411 81.37C180.411 80.41 180.951 79.63 182.031 79.03C183.111 78.41 184.551 78.1 186.351 78.1C187.671 78.1 188.711 78.3 189.471 78.7C190.231 79.08 190.771 79.68 191.091 80.5C191.431 81.3 191.601 82.38 191.601 83.74V91.54C191.601 92.52 191.911 93.18 192.531 93.52C192.371 93.82 192.131 94.05 191.811 94.21C191.511 94.37 191.161 94.45 190.761 94.45C190.181 94.45 189.701 94.29 189.321 93.97C188.941 93.63 188.711 93.18 188.631 92.62ZM185.661 92.65C186.541 92.65 187.201 92.32 187.641 91.66C188.081 90.98 188.301 90.14 188.301 89.14V86.77C184.921 86.77 183.231 87.85 183.231 90.01C183.231 90.81 183.441 91.45 183.861 91.93C184.301 92.41 184.901 92.65 185.661 92.65ZM195.621 94V73L198.921 72.64V94H195.621ZM204.351 78.7H207.831L202.641 85.06L207.951 94H204.111L199.341 85.6L204.351 78.7ZM209.918 94V73L213.218 72.64V94H209.918ZM218.648 78.7H222.128L216.938 85.06L222.248 94H218.408L213.638 85.6L218.648 78.7ZM233.755 89.77C234.215 89.99 234.445 90.42 234.445 91.06C234.445 91.78 234.205 92.42 233.725 92.98C233.245 93.52 232.625 93.93 231.865 94.21C231.105 94.51 230.335 94.66 229.555 94.66C227.355 94.66 225.725 93.95 224.665 92.53C223.605 91.09 223.075 89.16 223.075 86.74C223.075 84.16 223.645 82.08 224.785 80.5C225.945 78.9 227.695 78.1 230.035 78.1C231.515 78.1 232.705 78.49 233.605 79.27C234.505 80.03 234.955 81.11 234.955 82.51C234.955 84.25 234.345 85.47 233.125 86.17C231.925 86.87 230.285 87.22 228.205 87.22C227.625 87.22 227.075 87.2 226.555 87.16C226.615 88.74 226.875 90 227.335 90.94C227.815 91.88 228.655 92.35 229.855 92.35C230.735 92.35 231.505 92.13 232.165 91.69C232.845 91.23 233.375 90.59 233.755 89.77ZM229.555 79.81C228.475 79.81 227.715 80.38 227.275 81.52C226.835 82.64 226.595 84.02 226.555 85.66C227.155 85.7 227.595 85.72 227.875 85.72C230.395 85.72 231.655 84.71 231.655 82.69C231.655 81.87 231.475 81.19 231.115 80.65C230.775 80.09 230.255 79.81 229.555 79.81ZM251.21 92.62C250.83 93.32 250.27 93.83 249.53 94.15C248.81 94.49 247.99 94.66 247.07 94.66C245.69 94.66 244.53 94.24 243.59 93.4C242.67 92.56 242.21 91.47 242.21 90.13C242.21 86.89 245.1 85.27 250.88 85.27V82.66C250.88 81.66 250.73 80.92 250.43 80.44C250.13 79.94 249.56 79.69 248.72 79.69C248.02 79.69 247.44 79.88 246.98 80.26C246.52 80.62 246.29 81.13 246.29 81.79C246.29 82.21 246.37 82.66 246.53 83.14C246.25 83.36 245.85 83.47 245.33 83.47C244.61 83.47 244.04 83.29 243.62 82.93C243.2 82.57 242.99 82.05 242.99 81.37C242.99 80.41 243.53 79.63 244.61 79.03C245.69 78.41 247.13 78.1 248.93 78.1C250.25 78.1 251.29 78.3 252.05 78.7C252.81 79.08 253.35 79.68 253.67 80.5C254.01 81.3 254.18 82.38 254.18 83.74V91.54C254.18 92.52 254.49 93.18 255.11 93.52C254.95 93.82 254.71 94.05 254.39 94.21C254.09 94.37 253.74 94.45 253.34 94.45C252.76 94.45 252.28 94.29 251.9 93.97C251.52 93.63 251.29 93.18 251.21 92.62ZM248.24 92.65C249.12 92.65 249.78 92.32 250.22 91.66C250.66 90.98 250.88 90.14 250.88 89.14V86.77C247.5 86.77 245.81 87.85 245.81 90.01C245.81 90.81 246.02 91.45 246.44 91.93C246.88 92.41 247.48 92.65 248.24 92.65ZM258.38 94.36V80.05H256.25V78.7H258.38L258.47 77.08C258.65 73.96 260.43 72.4 263.81 72.4C265.07 72.4 266.15 72.6 267.05 73C267.97 73.38 268.43 74.03 268.43 74.95C268.43 75.63 268.22 76.15 267.8 76.51C267.38 76.87 266.81 77.05 266.09 77.05C265.57 77.05 265.17 76.94 264.89 76.72C265.05 76.24 265.13 75.79 265.13 75.37C265.13 74.85 265 74.45 264.74 74.17C264.5 73.87 264.13 73.72 263.63 73.72C262.85 73.72 262.32 74.02 262.04 74.62C261.78 75.2 261.65 76.02 261.65 77.08V78.7H264.92V80.05H261.68V94L258.38 94.36ZM227.933 114.7L230.693 114.34L230.843 117.04C231.223 116.08 231.803 115.35 232.583 114.85C233.383 114.35 234.313 114.1 235.373 114.1C236.553 114.1 237.473 114.34 238.133 114.82C238.793 115.28 239.263 115.97 239.543 116.89C240.323 115.03 241.743 114.1 243.803 114.1C245.483 114.1 246.653 114.57 247.313 115.51C247.973 116.43 248.303 117.84 248.303 119.74V127.54C248.303 128.52 248.613 129.18 249.233 129.52C249.073 129.82 248.813 130.05 248.453 130.21C248.093 130.37 247.713 130.45 247.313 130.45C246.533 130.45 245.953 130.23 245.573 129.79C245.193 129.35 245.003 128.73 245.003 127.93V120.16C245.003 118.9 244.863 117.96 244.583 117.34C244.303 116.72 243.683 116.41 242.723 116.41C241.583 116.41 240.823 116.95 240.443 118.03C240.063 119.11 239.873 120.5 239.873 122.2V130H236.573V120.16C236.573 118.9 236.433 117.96 236.153 117.34C235.873 116.72 235.253 116.41 234.293 116.41C233.073 116.41 232.253 116.95 231.833 118.03C231.433 119.11 231.233 120.5 231.233 122.2V130H227.933V114.7ZM261.851 125.77C262.311 125.99 262.541 126.42 262.541 127.06C262.541 127.78 262.301 128.42 261.821 128.98C261.341 129.52 260.721 129.93 259.961 130.21C259.201 130.51 258.431 130.66 257.651 130.66C255.451 130.66 253.821 129.95 252.761 128.53C251.701 127.09 251.171 125.16 251.171 122.74C251.171 120.16 251.741 118.08 252.881 116.5C254.041 114.9 255.791 114.1 258.131 114.1C259.611 114.1 260.801 114.49 261.701 115.27C262.601 116.03 263.051 117.11 263.051 118.51C263.051 120.25 262.441 121.47 261.221 122.17C260.021 122.87 258.381 123.22 256.301 123.22C255.721 123.22 255.171 123.2 254.651 123.16C254.711 124.74 254.971 126 255.431 126.94C255.911 127.88 256.751 128.35 257.951 128.35C258.831 128.35 259.601 128.13 260.261 127.69C260.941 127.23 261.471 126.59 261.851 125.77ZM257.651 115.81C256.571 115.81 255.811 116.38 255.371 117.52C254.931 118.64 254.691 120.02 254.651 121.66C255.251 121.7 255.691 121.72 255.971 121.72C258.491 121.72 259.751 120.71 259.751 118.69C259.751 117.87 259.571 117.19 259.211 116.65C258.871 116.09 258.351 115.81 257.651 115.81ZM277.541 127.54C277.541 128.52 277.851 129.18 278.471 129.52C278.311 129.82 278.071 130.05 277.751 130.21C277.451 130.37 277.101 130.45 276.701 130.45C276.121 130.45 275.641 130.29 275.261 129.97C274.881 129.63 274.651 129.18 274.571 128.62C274.251 129.28 273.731 129.78 273.011 130.12C272.311 130.48 271.551 130.66 270.731 130.66C268.691 130.66 267.211 129.88 266.291 128.32C265.371 126.76 264.911 124.76 264.911 122.32C264.911 119.8 265.451 117.8 266.531 116.32C267.631 114.84 269.331 114.1 271.631 114.1C272.591 114.1 273.461 114.23 274.241 114.49V109L277.541 108.64V127.54ZM274.241 116.83C273.321 116.21 272.401 115.9 271.481 115.9C270.261 115.9 269.461 116.48 269.081 117.64C268.701 118.8 268.511 120.31 268.511 122.17C268.511 123.95 268.731 125.48 269.171 126.76C269.611 128.02 270.421 128.65 271.601 128.65C272.481 128.65 273.141 128.32 273.581 127.66C274.021 126.98 274.241 126.14 274.241 125.14V116.83Z" fill="#FEF6F6"/>
<path d="M91.69 114.7L87.22 130H83.14L79 114.7H82.42L85.48 127.99L88.54 114.7H91.69ZM101.766 128.62C101.386 129.32 100.826 129.83 100.086 130.15C99.3663 130.49 98.5463 130.66 97.6263 130.66C96.2463 130.66 95.0863 130.24 94.1463 129.4C93.2263 128.56 92.7663 127.47 92.7663 126.13C92.7663 122.89 95.6563 121.27 101.436 121.27V118.66C101.436 117.66 101.286 116.92 100.986 116.44C100.686 115.94 100.116 115.69 99.2763 115.69C98.5763 115.69 97.9963 115.88 97.5363 116.26C97.0763 116.62 96.8463 117.13 96.8463 117.79C96.8463 118.21 96.9263 118.66 97.0863 119.14C96.8063 119.36 96.4063 119.47 95.8863 119.47C95.1663 119.47 94.5963 119.29 94.1763 118.93C93.7563 118.57 93.5463 118.05 93.5463 117.37C93.5463 116.41 94.0863 115.63 95.1663 115.03C96.2463 114.41 97.6863 114.1 99.4863 114.1C100.806 114.1 101.846 114.3 102.606 114.7C103.366 115.08 103.906 115.68 104.226 116.5C104.566 117.3 104.736 118.38 104.736 119.74V127.54C104.736 128.52 105.046 129.18 105.666 129.52C105.506 129.82 105.266 130.05 104.946 130.21C104.646 130.37 104.296 130.45 103.896 130.45C103.316 130.45 102.836 130.29 102.456 129.97C102.076 129.63 101.846 129.18 101.766 128.62ZM98.7963 128.65C99.6763 128.65 100.336 128.32 100.776 127.66C101.216 126.98 101.436 126.14 101.436 125.14V122.77C98.0563 122.77 96.3663 123.85 96.3663 126.01C96.3663 126.81 96.5763 127.45 96.9963 127.93C97.4363 128.41 98.0363 128.65 98.7963 128.65ZM111.996 108.64V127.54C111.996 128.52 112.306 129.18 112.926 129.52C112.766 129.82 112.496 130.05 112.116 130.21C111.756 130.37 111.376 130.45 110.976 130.45C110.216 130.45 109.646 130.23 109.266 129.79C108.886 129.35 108.696 128.73 108.696 127.93V109L111.996 108.64ZM125.855 125.77C126.315 125.99 126.545 126.42 126.545 127.06C126.545 127.78 126.305 128.42 125.825 128.98C125.345 129.52 124.725 129.93 123.965 130.21C123.205 130.51 122.435 130.66 121.655 130.66C119.455 130.66 117.825 129.95 116.765 128.53C115.705 127.09 115.175 125.16 115.175 122.74C115.175 120.16 115.745 118.08 116.885 116.5C118.045 114.9 119.795 114.1 122.135 114.1C123.615 114.1 124.805 114.49 125.705 115.27C126.605 116.03 127.055 117.11 127.055 118.51C127.055 120.25 126.445 121.47 125.225 122.17C124.025 122.87 122.385 123.22 120.305 123.22C119.725 123.22 119.175 123.2 118.655 123.16C118.715 124.74 118.975 126 119.435 126.94C119.915 127.88 120.755 128.35 121.955 128.35C122.835 128.35 123.605 128.13 124.265 127.69C124.945 127.23 125.475 126.59 125.855 125.77ZM121.655 115.81C120.575 115.81 119.815 116.38 119.375 117.52C118.935 118.64 118.695 120.02 118.655 121.66C119.255 121.7 119.695 121.72 119.975 121.72C122.495 121.72 123.755 120.71 123.755 118.69C123.755 117.87 123.575 117.19 123.215 116.65C122.875 116.09 122.355 115.81 121.655 115.81ZM135.275 116.41C134.415 116.41 133.855 116.99 133.595 118.15C133.355 119.29 133.235 120.66 133.235 122.26V130H129.935V114.7L132.695 114.34L132.845 117.04C133.125 116.14 133.615 115.43 134.315 114.91C135.015 114.37 135.825 114.1 136.745 114.1C137.745 114.1 138.535 114.39 139.115 114.97C139.715 115.55 140.015 116.34 140.015 117.34C140.015 118.96 139.235 119.77 137.675 119.77C137.155 119.77 136.755 119.66 136.475 119.44C136.615 118.92 136.685 118.47 136.685 118.09C136.685 116.97 136.215 116.41 135.275 116.41ZM143.451 108.4C144.111 108.4 144.641 108.56 145.041 108.88C145.461 109.2 145.671 109.66 145.671 110.26C145.671 110.88 145.451 111.36 145.011 111.7C144.591 112.02 144.041 112.18 143.361 112.18C142.701 112.18 142.171 112.02 141.771 111.7C141.371 111.38 141.171 110.92 141.171 110.32C141.171 109.7 141.381 109.23 141.801 108.91C142.241 108.57 142.791 108.4 143.451 108.4ZM145.011 127.54C145.011 128.52 145.321 129.18 145.941 129.52C145.781 129.82 145.521 130.05 145.161 130.21C144.801 130.37 144.411 130.45 143.991 130.45C143.231 130.45 142.661 130.23 142.281 129.79C141.901 129.35 141.711 128.73 141.711 127.93V114.7H145.011V127.54ZM157.225 128.62C156.845 129.32 156.285 129.83 155.545 130.15C154.825 130.49 154.005 130.66 153.085 130.66C151.705 130.66 150.545 130.24 149.605 129.4C148.685 128.56 148.225 127.47 148.225 126.13C148.225 122.89 151.115 121.27 156.895 121.27V118.66C156.895 117.66 156.745 116.92 156.445 116.44C156.145 115.94 155.575 115.69 154.735 115.69C154.035 115.69 153.455 115.88 152.995 116.26C152.535 116.62 152.305 117.13 152.305 117.79C152.305 118.21 152.385 118.66 152.545 119.14C152.265 119.36 151.865 119.47 151.345 119.47C150.625 119.47 150.055 119.29 149.635 118.93C149.215 118.57 149.005 118.05 149.005 117.37C149.005 116.41 149.545 115.63 150.625 115.03C151.705 114.41 153.145 114.1 154.945 114.1C156.265 114.1 157.305 114.3 158.065 114.7C158.825 115.08 159.365 115.68 159.685 116.5C160.025 117.3 160.195 118.38 160.195 119.74V127.54C160.195 128.52 160.505 129.18 161.125 129.52C160.965 129.82 160.725 130.05 160.405 130.21C160.105 130.37 159.755 130.45 159.355 130.45C158.775 130.45 158.295 130.29 157.915 129.97C157.535 129.63 157.305 129.18 157.225 128.62ZM154.255 128.65C155.135 128.65 155.795 128.32 156.235 127.66C156.675 126.98 156.895 126.14 156.895 125.14V122.77C153.515 122.77 151.825 123.85 151.825 126.01C151.825 126.81 152.035 127.45 152.455 127.93C152.895 128.41 153.495 128.65 154.255 128.65ZM164.095 114.7L166.855 114.34L167.005 117.04C167.385 116.08 167.965 115.35 168.745 114.85C169.545 114.35 170.475 114.1 171.535 114.1C173.215 114.1 174.385 114.57 175.045 115.51C175.705 116.43 176.035 117.84 176.035 119.74V127.54C176.035 128.52 176.345 129.18 176.965 129.52C176.805 129.82 176.545 130.05 176.185 130.21C175.825 130.37 175.445 130.45 175.045 130.45C174.265 130.45 173.685 130.23 173.305 129.79C172.925 129.35 172.735 128.73 172.735 127.93V120.16C172.735 118.9 172.595 117.96 172.315 117.34C172.035 116.72 171.415 116.41 170.455 116.41C169.235 116.41 168.415 116.95 167.995 118.03C167.595 119.11 167.395 120.5 167.395 122.2V130H164.095V114.7ZM185.285 116.41C184.425 116.41 183.865 116.99 183.605 118.15C183.365 119.29 183.245 120.66 183.245 122.26V130H179.945V114.7L182.705 114.34L182.855 117.04C183.135 116.14 183.625 115.43 184.325 114.91C185.025 114.37 185.835 114.1 186.755 114.1C187.755 114.1 188.545 114.39 189.125 114.97C189.725 115.55 190.025 116.34 190.025 117.34C190.025 118.96 189.245 119.77 187.685 119.77C187.165 119.77 186.765 119.66 186.485 119.44C186.625 118.92 186.695 118.47 186.695 118.09C186.695 116.97 186.225 116.41 185.285 116.41ZM197.331 114.1C199.571 114.1 201.231 114.83 202.311 116.29C203.391 117.73 203.931 119.68 203.931 122.14C203.931 124.76 203.411 126.84 202.371 128.38C201.331 129.9 199.651 130.66 197.331 130.66C195.051 130.66 193.381 129.93 192.321 128.47C191.281 127.01 190.761 125 190.761 122.44C190.761 119.96 191.301 117.95 192.381 116.41C193.461 114.87 195.111 114.1 197.331 114.1ZM197.331 128.86C198.571 128.86 199.381 128.25 199.761 127.03C200.141 125.81 200.331 124.23 200.331 122.29C200.331 120.51 200.121 119 199.701 117.76C199.301 116.52 198.511 115.9 197.331 115.9C195.351 115.9 194.361 118.03 194.361 122.29C194.361 124.23 194.541 125.81 194.901 127.03C195.281 128.25 196.091 128.86 197.331 128.86ZM218.479 127.54C218.479 128.52 218.789 129.18 219.409 129.52C219.249 129.82 219.009 130.05 218.689 130.21C218.389 130.37 218.039 130.45 217.639 130.45C217.059 130.45 216.579 130.29 216.199 129.97C215.819 129.63 215.589 129.18 215.509 128.62C215.189 129.28 214.669 129.78 213.949 130.12C213.249 130.48 212.489 130.66 211.669 130.66C209.629 130.66 208.149 129.88 207.229 128.32C206.309 126.76 205.849 124.76 205.849 122.32C205.849 119.8 206.389 117.8 207.469 116.32C208.569 114.84 210.269 114.1 212.569 114.1C213.529 114.1 214.399 114.23 215.179 114.49V109L218.479 108.64V127.54ZM215.179 116.83C214.259 116.21 213.339 115.9 212.419 115.9C211.199 115.9 210.399 116.48 210.019 117.64C209.639 118.8 209.449 120.31 209.449 122.17C209.449 123.95 209.669 125.48 210.109 126.76C210.549 128.02 211.359 128.65 212.539 128.65C213.419 128.65 214.079 128.32 214.519 127.66C214.959 126.98 215.179 126.14 215.179 125.14V116.83Z" fill="#F9CCCF"/>
<defs>
<filter id="filter0_d_412_1628" x="3.27051" y="125.271" width="87.4585" height="87.4585" filterUnits="userSpaceOnUse" color-interpolation-filters="sRGB">
<feFlood flood-opacity="0" result="BackgroundImageFix"/>
<feColorMatrix in="SourceAlpha" type="matrix" values="0 0 0 0 0 0 0 0 0 0 0 0 0 0 0 0 0 0 127 0" result="hardAlpha"/>
<feOffset dy="1"/>
<feGaussianBlur stdDeviation="3.5"/>
<feComposite in2="hardAlpha" operator="out"/>
<feColorMatrix type="matrix" values="0 0 0 0 0.974023 0 0 0 0 0.921768 0 0 0 0 0.847118 0 0 0 1 0"/>
<feBlend mode="normal" in2="BackgroundImageFix" result="effect1_dropShadow_412_1628"/>
<feBlend mode="normal" in="SourceGraphic" in2="effect1_dropShadow_412_1628" result="shape"/>
</filter>
<filter id="filter1_d_412_1628" x="294.732" y="9.75146" width="46.5347" height="49.7363" filterUnits="userSpaceOnUse" color-interpolation-filters="sRGB">
<feFlood flood-opacity="0" result="BackgroundImageFix"/>
<feColorMatrix in="SourceAlpha" type="matrix" values="0 0 0 0 0 0 0 0 0 0 0 0 0 0 0 0 0 0 127 0" result="hardAlpha"/>
<feOffset dy="1"/>
<feGaussianBlur stdDeviation="3.5"/>
<feComposite in2="hardAlpha" operator="out"/>
<feColorMatrix type="matrix" values="0 0 0 0 0.974023 0 0 0 0 0.921768 0 0 0 0 0.847118 0 0 0 1 0"/>
<feBlend mode="normal" in2="BackgroundImageFix" result="effect1_dropShadow_412_1628"/>
<feBlend mode="normal" in="SourceGraphic" in2="effect1_dropShadow_412_1628" result="shape"/>
</filter>
<filter id="filter2_d_412_1628" x="31.8301" y="82.3672" width="43.4697" height="46.1982" filterUnits="userSpaceOnUse" color-interpolation-filters="sRGB">
<feFlood flood-opacity="0" result="BackgroundImageFix"/>
<feColorMatrix in="SourceAlpha" type="matrix" values="0 0 0 0 0 0 0 0 0 0 0 0 0 0 0 0 0 0 127 0" result="hardAlpha"/>
<feOffset dy="1"/>
<feGaussianBlur stdDeviation="3.5"/>
<feComposite in2="hardAlpha" operator="out"/>
<feColorMatrix type="matrix" values="0 0 0 0 0.974023 0 0 0 0 0.921768 0 0 0 0 0.847118 0 0 0 1 0"/>
<feBlend mode="normal" in2="BackgroundImageFix" result="effect1_dropShadow_412_1628"/>
<feBlend mode="normal" in="SourceGraphic" in2="effect1_dropShadow_412_1628" result="shape"/>
</filter>
</defs>
</svg>
