<svg width="340" height="229" viewBox="0 0 340 229" fill="none" xmlns="http://www.w3.org/2000/svg">
<rect width="340" height="229" fill="#FEF6F6"/>
<path d="M20.31 14.2V34H16.8V14.2H20.31ZM36.8733 18.1C38.7533 18.1 40.0933 18.86 40.8933 20.38C41.6933 21.88 42.0933 23.8 42.0933 26.14C42.0933 28.7 41.5433 30.76 40.4433 32.32C39.3433 33.88 37.6533 34.66 35.3733 34.66C34.4133 34.66 33.5433 34.53 32.7633 34.27V39.43L29.4633 39.79V18.7L32.2233 18.34L32.3733 21.04C33.2133 19.08 34.7133 18.1 36.8733 18.1ZM35.7033 20.41C34.6633 20.41 33.9133 20.83 33.4533 21.67C32.9933 22.49 32.7633 23.53 32.7633 24.79V31.93C33.6833 32.55 34.6033 32.86 35.5233 32.86C36.7433 32.86 37.5433 32.24 37.9233 31C38.3033 29.76 38.4933 28.19 38.4933 26.29C38.4933 24.51 38.3233 23.09 37.9833 22.03C37.6433 20.95 36.8833 20.41 35.7033 20.41ZM53.1764 32.62C52.7964 33.32 52.2364 33.83 51.4964 34.15C50.7764 34.49 49.9564 34.66 49.0364 34.66C47.6564 34.66 46.4964 34.24 45.5564 33.4C44.6364 32.56 44.1764 31.47 44.1764 30.13C44.1764 26.89 47.0664 25.27 52.8464 25.27V22.66C52.8464 21.66 52.6964 20.92 52.3964 20.44C52.0964 19.94 51.5264 19.69 50.6864 19.69C49.9864 19.69 49.4064 19.88 48.9464 20.26C48.4864 20.62 48.2564 21.13 48.2564 21.79C48.2564 22.21 48.3364 22.66 48.4964 23.14C48.2164 23.36 47.8164 23.47 47.2964 23.47C46.5764 23.47 46.0064 23.29 45.5864 22.93C45.1664 22.57 44.9564 22.05 44.9564 21.37C44.9564 20.41 45.4964 19.63 46.5764 19.03C47.6564 18.41 49.0964 18.1 50.8964 18.1C52.2164 18.1 53.2564 18.3 54.0164 18.7C54.7764 19.08 55.3164 19.68 55.6364 20.5C55.9764 21.3 56.1464 22.38 56.1464 23.74V31.54C56.1464 32.52 56.4564 33.18 57.0764 33.52C56.9164 33.82 56.6764 34.05 56.3564 34.21C56.0564 34.37 55.7064 34.45 55.3064 34.45C54.7264 34.45 54.2464 34.29 53.8664 33.97C53.4864 33.63 53.2564 33.18 53.1764 32.62ZM50.2064 32.65C51.0864 32.65 51.7464 32.32 52.1864 31.66C52.6264 30.98 52.8464 30.14 52.8464 29.14V26.77C49.4664 26.77 47.7764 27.85 47.7764 30.01C47.7764 30.81 47.9864 31.45 48.4064 31.93C48.8464 32.41 49.4464 32.65 50.2064 32.65ZM60.1664 34V13L63.4664 12.64V34H60.1664ZM68.8964 18.7H72.3764L67.1864 25.06L72.4964 34H68.6564L63.8864 25.6L68.8964 18.7ZM74.4633 34V13L77.7633 12.64V34H74.4633ZM83.1933 18.7H86.6733L81.4833 25.06L86.7933 34H82.9533L78.1833 25.6L83.1933 18.7ZM98.3002 29.77C98.7602 29.99 98.9902 30.42 98.9902 31.06C98.9902 31.78 98.7502 32.42 98.2702 32.98C97.7902 33.52 97.1702 33.93 96.4102 34.21C95.6502 34.51 94.8802 34.66 94.1002 34.66C91.9002 34.66 90.2702 33.95 89.2102 32.53C88.1502 31.09 87.6202 29.16 87.6202 26.74C87.6202 24.16 88.1902 22.08 89.3302 20.5C90.4902 18.9 92.2402 18.1 94.5802 18.1C96.0602 18.1 97.2502 18.49 98.1502 19.27C99.0502 20.03 99.5002 21.11 99.5002 22.51C99.5002 24.25 98.8902 25.47 97.6702 26.17C96.4702 26.87 94.8302 27.22 92.7502 27.22C92.1702 27.22 91.6202 27.2 91.1002 27.16C91.1602 28.74 91.4202 30 91.8802 30.94C92.3602 31.88 93.2002 32.35 94.4002 32.35C95.2802 32.35 96.0502 32.13 96.7102 31.69C97.3902 31.23 97.9202 30.59 98.3002 29.77ZM94.1002 19.81C93.0202 19.81 92.2602 20.38 91.8202 21.52C91.3802 22.64 91.1402 24.02 91.1002 25.66C91.7002 25.7 92.1402 25.72 92.4202 25.72C94.9402 25.72 96.2002 24.71 96.2002 22.69C96.2002 21.87 96.0202 21.19 95.6602 20.65C95.3202 20.09 94.8002 19.81 94.1002 19.81ZM102.38 18.7L105.14 18.34L105.29 21.04C105.67 20.08 106.25 19.35 107.03 18.85C107.83 18.35 108.76 18.1 109.82 18.1C111.5 18.1 112.67 18.57 113.33 19.51C113.99 20.43 114.32 21.84 114.32 23.74V31.54C114.32 32.52 114.63 33.18 115.25 33.52C115.09 33.82 114.83 34.05 114.47 34.21C114.11 34.37 113.73 34.45 113.33 34.45C112.55 34.45 111.97 34.23 111.59 33.79C111.21 33.35 111.02 32.73 111.02 31.93V24.16C111.02 22.9 110.88 21.96 110.6 21.34C110.32 20.72 109.7 20.41 108.74 20.41C107.52 20.41 106.7 20.95 106.28 22.03C105.88 23.11 105.68 24.5 105.68 26.2V34H102.38V18.7ZM119.67 31.06C120.45 31.06 121.04 31.29 121.44 31.75C121.84 32.19 122.04 32.82 122.04 33.64C122.04 34.28 121.89 34.91 121.59 35.53C121.29 36.15 120.88 36.65 120.36 37.03C119.84 37.43 119.27 37.63 118.65 37.63C118.23 37.63 117.85 37.56 117.51 37.42C118.25 36.32 118.62 35.1 118.62 33.76C118.62 33.32 118.57 32.93 118.47 32.59C118.37 32.23 118.21 31.85 117.99 31.45C118.45 31.19 119.01 31.06 119.67 31.06ZM130.835 34.36V20.05H128.705V18.7H130.835L130.925 17.08C131.105 13.96 132.885 12.4 136.265 12.4C137.525 12.4 138.605 12.6 139.505 13C140.425 13.38 140.885 14.03 140.885 14.95C140.885 15.63 140.675 16.15 140.255 16.51C139.835 16.87 139.265 17.05 138.545 17.05C138.025 17.05 137.625 16.94 137.345 16.72C137.505 16.24 137.585 15.79 137.585 15.37C137.585 14.85 137.455 14.45 137.195 14.17C136.955 13.87 136.585 13.72 136.085 13.72C135.305 13.72 134.775 14.02 134.495 14.62C134.235 15.2 134.105 16.02 134.105 17.08V18.7H137.375V20.05H134.135V34L130.835 34.36ZM148.069 32.62C147.689 33.32 147.129 33.83 146.389 34.15C145.669 34.49 144.849 34.66 143.929 34.66C142.549 34.66 141.389 34.24 140.449 33.4C139.529 32.56 139.069 31.47 139.069 30.13C139.069 26.89 141.959 25.27 147.739 25.27V22.66C147.739 21.66 147.589 20.92 147.289 20.44C146.989 19.94 146.419 19.69 145.579 19.69C144.879 19.69 144.299 19.88 143.839 20.26C143.379 20.62 143.149 21.13 143.149 21.79C143.149 22.21 143.229 22.66 143.389 23.14C143.109 23.36 142.709 23.47 142.189 23.47C141.469 23.47 140.899 23.29 140.479 22.93C140.059 22.57 139.849 22.05 139.849 21.37C139.849 20.41 140.389 19.63 141.469 19.03C142.549 18.41 143.989 18.1 145.789 18.1C147.109 18.1 148.149 18.3 148.909 18.7C149.669 19.08 150.209 19.68 150.529 20.5C150.869 21.3 151.039 22.38 151.039 23.74V31.54C151.039 32.52 151.349 33.18 151.969 33.52C151.809 33.82 151.569 34.05 151.249 34.21C150.949 34.37 150.599 34.45 150.199 34.45C149.619 34.45 149.139 34.29 148.759 33.97C148.379 33.63 148.149 33.18 148.069 32.62ZM145.099 32.65C145.979 32.65 146.639 32.32 147.079 31.66C147.519 30.98 147.739 30.14 147.739 29.14V26.77C144.359 26.77 142.669 27.85 142.669 30.01C142.669 30.81 142.879 31.45 143.299 31.93C143.739 32.41 144.339 32.65 145.099 32.65ZM145.399 17.11C144.479 17.11 143.709 16.85 143.089 16.33C142.469 15.79 142.159 15.08 142.159 14.2C142.159 13.32 142.459 12.63 143.059 12.13C143.679 11.63 144.459 11.38 145.399 11.38C146.339 11.38 147.109 11.63 147.709 12.13C148.329 12.63 148.639 13.32 148.639 14.2C148.639 15.08 148.329 15.79 147.709 16.33C147.089 16.85 146.319 17.11 145.399 17.11ZM145.399 16.09C145.899 16.09 146.269 15.92 146.509 15.58C146.769 15.22 146.899 14.76 146.899 14.2C146.899 13.66 146.769 13.23 146.509 12.91C146.269 12.57 145.899 12.4 145.399 12.4C144.899 12.4 144.519 12.57 144.259 12.91C144.019 13.23 143.899 13.66 143.899 14.2C143.899 14.76 144.019 15.22 144.259 15.58C144.519 15.92 144.899 16.09 145.399 16.09ZM160.279 20.41C159.419 20.41 158.859 20.99 158.599 22.15C158.359 23.29 158.239 24.66 158.239 26.26V34H154.939V18.7L157.699 18.34L157.849 21.04C158.129 20.14 158.619 19.43 159.319 18.91C160.019 18.37 160.829 18.1 161.749 18.1C162.749 18.1 163.539 18.39 164.119 18.97C164.719 19.55 165.019 20.34 165.019 21.34C165.019 22.96 164.239 23.77 162.679 23.77C162.159 23.77 161.759 23.66 161.479 23.44C161.619 22.92 161.689 22.47 161.689 22.09C161.689 20.97 161.219 20.41 160.279 20.41ZM183.629 31.54C183.629 32.52 183.939 33.18 184.559 33.52C184.399 33.82 184.159 34.05 183.839 34.21C183.539 34.37 183.189 34.45 182.789 34.45C182.209 34.45 181.729 34.29 181.349 33.97C180.969 33.63 180.739 33.18 180.659 32.62C180.339 33.28 179.819 33.78 179.099 34.12C178.399 34.48 177.639 34.66 176.819 34.66C174.779 34.66 173.299 33.88 172.379 32.32C171.459 30.76 170.999 28.76 170.999 26.32C170.999 23.8 171.539 21.8 172.619 20.32C173.719 18.84 175.419 18.1 177.719 18.1C178.679 18.1 179.549 18.23 180.329 18.49V13L183.629 12.64V31.54ZM180.329 20.83C179.409 20.21 178.489 19.9 177.569 19.9C176.349 19.9 175.549 20.48 175.169 21.64C174.789 22.8 174.599 24.31 174.599 26.17C174.599 27.95 174.819 29.48 175.259 30.76C175.699 32.02 176.509 32.65 177.689 32.65C178.569 32.65 179.229 32.32 179.669 31.66C180.109 30.98 180.329 30.14 180.329 29.14V20.83ZM199.719 31.54C199.719 32.52 200.029 33.18 200.649 33.52C200.489 33.82 200.249 34.05 199.929 34.21C199.629 34.37 199.279 34.45 198.879 34.45C198.299 34.45 197.819 34.29 197.439 33.97C197.059 33.63 196.829 33.18 196.749 32.62C196.429 33.28 195.909 33.78 195.189 34.12C194.489 34.48 193.729 34.66 192.909 34.66C191.469 34.66 190.369 34.35 189.609 33.73C188.869 33.09 188.379 32.23 188.139 31.15C187.899 30.05 187.779 28.64 187.779 26.92V18.7H191.079V26.77C191.079 27.99 191.119 29 191.199 29.8C191.299 30.58 191.549 31.25 191.949 31.81C192.349 32.37 192.959 32.65 193.779 32.65C194.659 32.65 195.319 32.32 195.759 31.66C196.199 30.98 196.419 30.14 196.419 29.14V18.7H199.719V31.54ZM16.98 90.7L19.74 90.34L19.89 93.04C20.27 92.08 20.85 91.35 21.63 90.85C22.43 90.35 23.36 90.1 24.42 90.1C25.6 90.1 26.52 90.34 27.18 90.82C27.84 91.28 28.31 91.97 28.59 92.89C29.37 91.03 30.79 90.1 32.85 90.1C34.53 90.1 35.7 90.57 36.36 91.51C37.02 92.43 37.35 93.84 37.35 95.74V103.54C37.35 104.52 37.66 105.18 38.28 105.52C38.12 105.82 37.86 106.05 37.5 106.21C37.14 106.37 36.76 106.45 36.36 106.45C35.58 106.45 35 106.23 34.62 105.79C34.24 105.35 34.05 104.73 34.05 103.93V96.16C34.05 94.9 33.91 93.96 33.63 93.34C33.35 92.72 32.73 92.41 31.77 92.41C30.63 92.41 29.87 92.95 29.49 94.03C29.11 95.11 28.92 96.5 28.92 98.2V106H25.62V96.16C25.62 94.9 25.48 93.96 25.2 93.34C24.92 92.72 24.3 92.41 23.34 92.41C22.12 92.41 21.3 92.95 20.88 94.03C20.48 95.11 20.28 96.5 20.28 98.2V106H16.98V90.7ZM50.8978 101.77C51.3578 101.99 51.5878 102.42 51.5878 103.06C51.5878 103.78 51.3478 104.42 50.8678 104.98C50.3878 105.52 49.7678 105.93 49.0078 106.21C48.2478 106.51 47.4778 106.66 46.6978 106.66C44.4978 106.66 42.8678 105.95 41.8078 104.53C40.7478 103.09 40.2178 101.16 40.2178 98.74C40.2178 96.16 40.7878 94.08 41.9278 92.5C43.0878 90.9 44.8378 90.1 47.1778 90.1C48.6578 90.1 49.8478 90.49 50.7478 91.27C51.6478 92.03 52.0978 93.11 52.0978 94.51C52.0978 96.25 51.4878 97.47 50.2678 98.17C49.0678 98.87 47.4278 99.22 45.3478 99.22C44.7678 99.22 44.2178 99.2 43.6978 99.16C43.7578 100.74 44.0178 102 44.4778 102.94C44.9578 103.88 45.7978 104.35 46.9978 104.35C47.8778 104.35 48.6478 104.13 49.3078 103.69C49.9878 103.23 50.5178 102.59 50.8978 101.77ZM46.6978 91.81C45.6178 91.81 44.8578 92.38 44.4178 93.52C43.9778 94.64 43.7378 96.02 43.6978 97.66C44.2978 97.7 44.7378 97.72 45.0178 97.72C47.5378 97.72 48.7978 96.71 48.7978 94.69C48.7978 93.87 48.6178 93.19 48.2578 92.65C47.9178 92.09 47.3978 91.81 46.6978 91.81ZM66.588 103.54C66.588 104.52 66.898 105.18 67.518 105.52C67.358 105.82 67.118 106.05 66.798 106.21C66.498 106.37 66.148 106.45 65.748 106.45C65.168 106.45 64.688 106.29 64.308 105.97C63.928 105.63 63.698 105.18 63.618 104.62C63.298 105.28 62.778 105.78 62.058 106.12C61.358 106.48 60.598 106.66 59.778 106.66C57.738 106.66 56.258 105.88 55.338 104.32C54.418 102.76 53.958 100.76 53.958 98.32C53.958 95.8 54.498 93.8 55.578 92.32C56.678 90.84 58.378 90.1 60.678 90.1C61.638 90.1 62.508 90.23 63.288 90.49V85L66.588 84.64V103.54ZM63.288 92.83C62.368 92.21 61.448 91.9 60.528 91.9C59.308 91.9 58.508 92.48 58.128 93.64C57.748 94.8 57.558 96.31 57.558 98.17C57.558 99.95 57.778 101.48 58.218 102.76C58.658 104.02 59.468 104.65 60.648 104.65C61.528 104.65 62.188 104.32 62.628 103.66C63.068 102.98 63.288 102.14 63.288 101.14V92.83ZM72.2384 103.06C73.0184 103.06 73.6084 103.29 74.0084 103.75C74.4084 104.19 74.6084 104.82 74.6084 105.64C74.6084 106.28 74.4584 106.91 74.1584 107.53C73.8584 108.15 73.4484 108.65 72.9284 109.03C72.4084 109.43 71.8384 109.63 71.2184 109.63C70.7984 109.63 70.4184 109.56 70.0784 109.42C70.8184 108.32 71.1884 107.1 71.1884 105.76C71.1884 105.32 71.1384 104.93 71.0384 104.59C70.9384 104.23 70.7784 103.85 70.5584 103.45C71.0184 103.19 71.5784 103.06 72.2384 103.06ZM87.963 91.69C87.363 91.69 86.883 91.85 86.523 92.17C86.163 92.47 85.983 92.91 85.983 93.49C85.983 94.27 86.243 94.91 86.763 95.41C87.303 95.89 88.123 96.43 89.223 97.03C90.103 97.51 90.803 97.94 91.323 98.32C91.863 98.7 92.323 99.19 92.703 99.79C93.083 100.37 93.273 101.08 93.273 101.92C93.273 103.44 92.723 104.61 91.623 105.43C90.543 106.25 89.163 106.66 87.483 106.66C86.023 106.66 84.793 106.41 83.793 105.91C82.813 105.41 82.323 104.58 82.323 103.42C82.323 102.74 82.533 102.22 82.953 101.86C83.373 101.5 83.943 101.32 84.663 101.32C85.183 101.32 85.583 101.43 85.863 101.65C85.703 102.13 85.623 102.58 85.623 103C85.623 103.64 85.823 104.15 86.223 104.53C86.623 104.89 87.163 105.07 87.843 105.07C88.583 105.07 89.143 104.88 89.523 104.5C89.923 104.1 90.123 103.52 90.123 102.76C90.123 101.98 89.853 101.35 89.313 100.87C88.793 100.37 87.983 99.82 86.883 99.22C86.003 98.72 85.293 98.28 84.753 97.9C84.233 97.52 83.783 97.04 83.403 96.46C83.023 95.86 82.833 95.14 82.833 94.3C82.833 92.96 83.373 91.93 84.453 91.21C85.533 90.47 86.843 90.1 88.383 90.1C89.803 90.1 90.963 90.36 91.863 90.88C92.783 91.38 93.243 92.21 93.243 93.37C93.243 94.05 93.023 94.57 92.583 94.93C92.163 95.29 91.593 95.47 90.873 95.47C90.353 95.47 89.953 95.36 89.673 95.14C89.833 94.66 89.913 94.21 89.913 93.79C89.913 93.13 89.743 92.62 89.403 92.26C89.083 91.88 88.603 91.69 87.963 91.69ZM101.983 90.1C104.223 90.1 105.883 90.83 106.963 92.29C108.043 93.73 108.583 95.68 108.583 98.14C108.583 100.76 108.063 102.84 107.023 104.38C105.983 105.9 104.303 106.66 101.983 106.66C99.7031 106.66 98.0331 105.93 96.9731 104.47C95.9331 103.01 95.4131 101 95.4131 98.44C95.4131 95.96 95.9531 93.95 97.0331 92.41C98.1131 90.87 99.7631 90.1 101.983 90.1ZM101.983 104.86C103.223 104.86 104.033 104.25 104.413 103.03C104.793 101.81 104.983 100.23 104.983 98.29C104.983 96.51 104.773 95 104.353 93.76C103.953 92.52 103.163 91.9 101.983 91.9C100.003 91.9 99.0131 94.03 99.0131 98.29C99.0131 100.23 99.1931 101.81 99.5531 103.03C99.9331 104.25 100.743 104.86 101.983 104.86ZM111.521 90.7L114.281 90.34L114.431 93.04C114.811 92.08 115.391 91.35 116.171 90.85C116.971 90.35 117.901 90.1 118.961 90.1C120.141 90.1 121.061 90.34 121.721 90.82C122.381 91.28 122.851 91.97 123.131 92.89C123.911 91.03 125.331 90.1 127.391 90.1C129.071 90.1 130.241 90.57 130.901 91.51C131.561 92.43 131.891 93.84 131.891 95.74V103.54C131.891 104.52 132.201 105.18 132.821 105.52C132.661 105.82 132.401 106.05 132.041 106.21C131.681 106.37 131.301 106.45 130.901 106.45C130.121 106.45 129.541 106.23 129.161 105.79C128.781 105.35 128.591 104.73 128.591 103.93V96.16C128.591 94.9 128.451 93.96 128.171 93.34C127.891 92.72 127.271 92.41 126.311 92.41C125.171 92.41 124.411 92.95 124.031 94.03C123.651 95.11 123.461 96.5 123.461 98.2V106H120.161V96.16C120.161 94.9 120.021 93.96 119.741 93.34C119.461 92.72 118.841 92.41 117.881 92.41C116.661 92.41 115.841 92.95 115.421 94.03C115.021 95.11 114.821 96.5 114.821 98.2V106H111.521V90.7ZM18.66 120.4C19.32 120.4 19.85 120.56 20.25 120.88C20.67 121.2 20.88 121.66 20.88 122.26C20.88 122.88 20.66 123.36 20.22 123.7C19.8 124.02 19.25 124.18 18.57 124.18C17.91 124.18 17.38 124.02 16.98 123.7C16.58 123.38 16.38 122.92 16.38 122.32C16.38 121.7 16.59 121.23 17.01 120.91C17.45 120.57 18 120.4 18.66 120.4ZM20.22 139.54C20.22 140.52 20.53 141.18 21.15 141.52C20.99 141.82 20.73 142.05 20.37 142.21C20.01 142.37 19.62 142.45 19.2 142.45C18.44 142.45 17.87 142.23 17.49 141.79C17.11 141.35 16.92 140.73 16.92 139.93V126.7H20.22V139.54ZM24.3042 126.7L27.0642 126.34L27.2142 129.04C27.5942 128.08 28.1742 127.35 28.9542 126.85C29.7542 126.35 30.6842 126.1 31.7442 126.1C33.4242 126.1 34.5942 126.57 35.2542 127.51C35.9142 128.43 36.2442 129.84 36.2442 131.74V139.54C36.2442 140.52 36.5542 141.18 37.1742 141.52C37.0142 141.82 36.7542 142.05 36.3942 142.21C36.0342 142.37 35.6542 142.45 35.2542 142.45C34.4742 142.45 33.8942 142.23 33.5142 141.79C33.1342 141.35 32.9442 140.73 32.9442 139.93V132.16C32.9442 130.9 32.8042 129.96 32.5242 129.34C32.2442 128.72 31.6242 128.41 30.6642 128.41C29.4442 128.41 28.6242 128.95 28.2042 130.03C27.8042 131.11 27.6042 132.5 27.6042 134.2V142H24.3042V126.7ZM51.7638 139.54C51.7638 140.52 52.0738 141.18 52.6938 141.52C52.5338 141.82 52.2938 142.05 51.9738 142.21C51.6738 142.37 51.3238 142.45 50.9238 142.45C50.3438 142.45 49.8638 142.29 49.4838 141.97C49.1038 141.63 48.8738 141.18 48.7938 140.62C48.4738 141.28 47.9538 141.78 47.2338 142.12C46.5338 142.48 45.7738 142.66 44.9538 142.66C42.9138 142.66 41.4338 141.88 40.5138 140.32C39.5938 138.76 39.1338 136.76 39.1338 134.32C39.1338 131.8 39.6738 129.8 40.7538 128.32C41.8538 126.84 43.5538 126.1 45.8538 126.1C46.8138 126.1 47.6838 126.23 48.4638 126.49V121L51.7638 120.64V139.54ZM48.4638 128.83C47.5438 128.21 46.6238 127.9 45.7038 127.9C44.4838 127.9 43.6838 128.48 43.3038 129.64C42.9238 130.8 42.7338 132.31 42.7338 134.17C42.7338 135.95 42.9538 137.48 43.3938 138.76C43.8338 140.02 44.6438 140.65 45.8238 140.65C46.7038 140.65 47.3638 140.32 47.8038 139.66C48.2438 138.98 48.4638 138.14 48.4638 137.14V128.83ZM59.3941 124.03C59.3941 126.21 59.2941 127.81 59.0941 128.83C59.5141 127.93 60.1041 127.25 60.8641 126.79C61.6241 126.33 62.5141 126.1 63.5341 126.1C65.2141 126.1 66.3841 126.57 67.0441 127.51C67.7041 128.43 68.0341 129.84 68.0341 131.74V139.54C68.0341 140.52 68.3441 141.18 68.9641 141.52C68.8041 141.82 68.5441 142.05 68.1841 142.21C67.8241 142.37 67.4441 142.45 67.0441 142.45C66.2641 142.45 65.6841 142.23 65.3041 141.79C64.9241 141.35 64.7341 140.73 64.7341 139.93V132.16C64.7341 130.9 64.5941 129.96 64.3141 129.34C64.0341 128.72 63.4141 128.41 62.4541 128.41C61.2341 128.41 60.4141 128.95 59.9941 130.03C59.5941 131.11 59.3941 132.5 59.3941 134.2V142H56.0941V121L59.3941 120.64V124.03ZM77.4909 126.1C79.7309 126.1 81.3909 126.83 82.4709 128.29C83.5509 129.73 84.0909 131.68 84.0909 134.14C84.0909 136.76 83.5709 138.84 82.5309 140.38C81.4909 141.9 79.8109 142.66 77.4909 142.66C75.2109 142.66 73.5409 141.93 72.4809 140.47C71.4409 139.01 70.9209 137 70.9209 134.44C70.9209 131.96 71.4609 129.95 72.5409 128.41C73.6209 126.87 75.2709 126.1 77.4909 126.1ZM77.4909 140.86C78.7309 140.86 79.5409 140.25 79.9209 139.03C80.3009 137.81 80.4909 136.23 80.4909 134.29C80.4909 132.51 80.2809 131 79.8609 129.76C79.4609 128.52 78.6709 127.9 77.4909 127.9C75.5109 127.9 74.5209 130.03 74.5209 134.29C74.5209 136.23 74.7009 137.81 75.0609 139.03C75.4409 140.25 76.2509 140.86 77.4909 140.86ZM90.3888 120.64V139.54C90.3888 140.52 90.6988 141.18 91.3188 141.52C91.1588 141.82 90.8888 142.05 90.5088 142.21C90.1488 142.37 89.7688 142.45 89.3688 142.45C88.6088 142.45 88.0388 142.23 87.6588 141.79C87.2788 141.35 87.0888 140.73 87.0888 139.93V121L90.3888 120.64ZM106.197 139.54C106.197 140.52 106.507 141.18 107.127 141.52C106.967 141.82 106.727 142.05 106.407 142.21C106.107 142.37 105.757 142.45 105.357 142.45C104.777 142.45 104.297 142.29 103.917 141.97C103.537 141.63 103.307 141.18 103.227 140.62C102.907 141.28 102.387 141.78 101.667 142.12C100.967 142.48 100.207 142.66 99.3874 142.66C97.3474 142.66 95.8674 141.88 94.9474 140.32C94.0274 138.76 93.5674 136.76 93.5674 134.32C93.5674 131.8 94.1074 129.8 95.1874 128.32C96.2874 126.84 97.9874 126.1 100.287 126.1C101.247 126.1 102.117 126.23 102.897 126.49V121L106.197 120.64V139.54ZM102.897 128.83C101.977 128.21 101.057 127.9 100.137 127.9C98.9174 127.9 98.1174 128.48 97.7374 129.64C97.3574 130.8 97.1674 132.31 97.1674 134.17C97.1674 135.95 97.3874 137.48 97.8274 138.76C98.2674 140.02 99.0774 140.65 100.257 140.65C101.137 140.65 101.797 140.32 102.237 139.66C102.677 138.98 102.897 138.14 102.897 137.14V128.83ZM120.068 137.77C120.528 137.99 120.758 138.42 120.758 139.06C120.758 139.78 120.518 140.42 120.038 140.98C119.558 141.52 118.938 141.93 118.178 142.21C117.418 142.51 116.648 142.66 115.868 142.66C113.668 142.66 112.038 141.95 110.978 140.53C109.918 139.09 109.388 137.16 109.388 134.74C109.388 132.16 109.958 130.08 111.098 128.5C112.258 126.9 114.008 126.1 116.348 126.1C117.828 126.1 119.018 126.49 119.918 127.27C120.818 128.03 121.268 129.11 121.268 130.51C121.268 132.25 120.658 133.47 119.438 134.17C118.238 134.87 116.598 135.22 114.518 135.22C113.938 135.22 113.388 135.2 112.868 135.16C112.928 136.74 113.188 138 113.648 138.94C114.128 139.88 114.968 140.35 116.168 140.35C117.048 140.35 117.818 140.13 118.478 139.69C119.158 139.23 119.688 138.59 120.068 137.77ZM115.868 127.81C114.788 127.81 114.028 128.38 113.588 129.52C113.148 130.64 112.908 132.02 112.868 133.66C113.468 133.7 113.908 133.72 114.188 133.72C116.708 133.72 117.968 132.71 117.968 130.69C117.968 129.87 117.788 129.19 117.428 128.65C117.088 128.09 116.568 127.81 115.868 127.81ZM129.488 128.41C128.628 128.41 128.068 128.99 127.808 130.15C127.568 131.29 127.448 132.66 127.448 134.26V142H124.148V126.7L126.908 126.34L127.058 129.04C127.338 128.14 127.828 127.43 128.528 126.91C129.228 126.37 130.038 126.1 130.958 126.1C131.958 126.1 132.748 126.39 133.328 126.97C133.928 127.55 134.228 128.34 134.228 129.34C134.228 130.96 133.448 131.77 131.888 131.77C131.368 131.77 130.968 131.66 130.688 131.44C130.828 130.92 130.898 130.47 130.898 130.09C130.898 128.97 130.428 128.41 129.488 128.41ZM143.028 120.4C143.688 120.4 144.218 120.56 144.618 120.88C145.038 121.2 145.248 121.66 145.248 122.26C145.248 122.88 145.028 123.36 144.588 123.7C144.168 124.02 143.618 124.18 142.938 124.18C142.278 124.18 141.748 124.02 141.348 123.7C140.948 123.38 140.748 122.92 140.748 122.32C140.748 121.7 140.958 121.23 141.378 120.91C141.818 120.57 142.368 120.4 143.028 120.4ZM144.678 140.95C144.678 145.65 143.278 148 140.478 148C139.918 148 139.428 147.89 139.008 147.67C138.588 147.45 138.378 147.12 138.378 146.68C139.498 146.68 140.268 146.23 140.688 145.33C141.128 144.43 141.348 143.25 141.348 141.79V126.7H144.678V140.95ZM158.3 137.77C158.76 137.99 158.99 138.42 158.99 139.06C158.99 139.78 158.75 140.42 158.27 140.98C157.79 141.52 157.17 141.93 156.41 142.21C155.65 142.51 154.88 142.66 154.1 142.66C151.9 142.66 150.27 141.95 149.21 140.53C148.15 139.09 147.62 137.16 147.62 134.74C147.62 132.16 148.19 130.08 149.33 128.5C150.49 126.9 152.24 126.1 154.58 126.1C156.06 126.1 157.25 126.49 158.15 127.27C159.05 128.03 159.5 129.11 159.5 130.51C159.5 132.25 158.89 133.47 157.67 134.17C156.47 134.87 154.83 135.22 152.75 135.22C152.17 135.22 151.62 135.2 151.1 135.16C151.16 136.74 151.42 138 151.88 138.94C152.36 139.88 153.2 140.35 154.4 140.35C155.28 140.35 156.05 140.13 156.71 139.69C157.39 139.23 157.92 138.59 158.3 137.77ZM154.1 127.81C153.02 127.81 152.26 128.38 151.82 129.52C151.38 130.64 151.14 132.02 151.1 133.66C151.7 133.7 152.14 133.72 152.42 133.72C154.94 133.72 156.2 132.71 156.2 130.69C156.2 129.87 156.02 129.19 155.66 128.65C155.32 128.09 154.8 127.81 154.1 127.81ZM167.72 128.41C166.86 128.41 166.3 128.99 166.04 130.15C165.8 131.29 165.68 132.66 165.68 134.26V142H162.38V126.7L165.14 126.34L165.29 129.04C165.57 128.14 166.06 127.43 166.76 126.91C167.46 126.37 168.27 126.1 169.19 126.1C170.19 126.1 170.98 126.39 171.56 126.97C172.16 127.55 172.46 128.34 172.46 129.34C172.46 130.96 171.68 131.77 170.12 131.77C169.6 131.77 169.2 131.66 168.92 131.44C169.06 130.92 169.13 130.47 169.13 130.09C169.13 128.97 168.66 128.41 167.72 128.41ZM174.216 126.7L176.976 126.34L177.126 129.04C177.506 128.08 178.086 127.35 178.866 126.85C179.666 126.35 180.596 126.1 181.656 126.1C183.336 126.1 184.506 126.57 185.166 127.51C185.826 128.43 186.156 129.84 186.156 131.74V139.54C186.156 140.52 186.466 141.18 187.086 141.52C186.926 141.82 186.666 142.05 186.306 142.21C185.946 142.37 185.566 142.45 185.166 142.45C184.386 142.45 183.806 142.23 183.426 141.79C183.046 141.35 182.856 140.73 182.856 139.93V132.16C182.856 130.9 182.716 129.96 182.436 129.34C182.156 128.72 181.536 128.41 180.576 128.41C179.356 128.41 178.536 128.95 178.116 130.03C177.716 131.11 177.516 132.5 177.516 134.2V142H174.216V126.7ZM22.53 162.1C24.77 162.1 26.43 162.83 27.51 164.29C28.59 165.73 29.13 167.68 29.13 170.14C29.13 172.76 28.61 174.84 27.57 176.38C26.53 177.9 24.85 178.66 22.53 178.66C20.25 178.66 18.58 177.93 17.52 176.47C16.48 175.01 15.96 173 15.96 170.44C15.96 167.96 16.5 165.95 17.58 164.41C18.66 162.87 20.31 162.1 22.53 162.1ZM22.53 176.86C23.77 176.86 24.58 176.25 24.96 175.03C25.34 173.81 25.53 172.23 25.53 170.29C25.53 168.51 25.32 167 24.9 165.76C24.5 164.52 23.71 163.9 22.53 163.9C20.55 163.9 19.56 166.03 19.56 170.29C19.56 172.23 19.74 173.81 20.1 175.03C20.48 176.25 21.29 176.86 22.53 176.86ZM37.4979 182.23C38.4179 182.23 39.0979 181.91 39.5379 181.27C39.9779 180.65 40.2479 179.9 40.3479 179.02C40.4479 178.14 40.4979 177.03 40.4979 175.69V174.88C40.1179 175.44 39.5979 175.86 38.9379 176.14C38.2779 176.42 37.5779 176.56 36.8379 176.56C34.8779 176.56 33.4379 175.9 32.5179 174.58C31.6179 173.26 31.1679 171.49 31.1679 169.27C31.1679 167.01 31.7179 165.25 32.8179 163.99C33.9179 162.73 35.5479 162.1 37.7079 162.1C38.7079 162.1 39.7179 162.29 40.7379 162.67L43.6779 162.34V174.97C43.6779 176.91 43.4979 178.53 43.1379 179.83C42.7979 181.13 42.1479 182.15 41.1879 182.89C40.2479 183.63 38.9279 184 37.2279 184C35.8079 184 34.5879 183.72 33.5679 183.16C32.5679 182.6 32.0679 181.74 32.0679 180.58C32.0679 179.9 32.2779 179.38 32.6979 179.02C33.1179 178.66 33.6879 178.48 34.4079 178.48C34.9279 178.48 35.3279 178.59 35.6079 178.81C35.4679 179.23 35.3979 179.68 35.3979 180.16C35.3979 181.54 36.0979 182.23 37.4979 182.23ZM40.3779 164.86C39.4379 164.22 38.5079 163.9 37.5879 163.9C36.4879 163.9 35.7279 164.39 35.3079 165.37C34.9079 166.35 34.7079 167.6 34.7079 169.12C34.7079 170.74 34.9079 172.05 35.3079 173.05C35.7279 174.05 36.5279 174.55 37.7079 174.55C38.6079 174.55 39.2779 174.22 39.7179 173.56C40.1579 172.9 40.3779 172.06 40.3779 171.04V164.86ZM28.59 211.54C28.59 212.52 28.9 213.18 29.52 213.52C29.36 213.82 29.12 214.05 28.8 214.21C28.5 214.37 28.15 214.45 27.75 214.45C27.17 214.45 26.69 214.29 26.31 213.97C25.93 213.63 25.7 213.18 25.62 212.62C25.3 213.28 24.78 213.78 24.06 214.12C23.36 214.48 22.6 214.66 21.78 214.66C19.74 214.66 18.26 213.88 17.34 212.32C16.42 210.76 15.96 208.76 15.96 206.32C15.96 203.8 16.5 201.8 17.58 200.32C18.68 198.84 20.38 198.1 22.68 198.1C23.64 198.1 24.51 198.23 25.29 198.49V193L28.59 192.64V211.54ZM25.29 200.83C24.37 200.21 23.45 199.9 22.53 199.9C21.31 199.9 20.51 200.48 20.13 201.64C19.75 202.8 19.56 204.31 19.56 206.17C19.56 207.95 19.78 209.48 20.22 210.76C20.66 212.02 21.47 212.65 22.65 212.65C23.53 212.65 24.19 212.32 24.63 211.66C25.07 210.98 25.29 210.14 25.29 209.14V200.83ZM34.4803 192.4C35.1403 192.4 35.6703 192.56 36.0703 192.88C36.4903 193.2 36.7003 193.66 36.7003 194.26C36.7003 194.88 36.4803 195.36 36.0403 195.7C35.6203 196.02 35.0703 196.18 34.3903 196.18C33.7303 196.18 33.2003 196.02 32.8003 195.7C32.4003 195.38 32.2003 194.92 32.2003 194.32C32.2003 193.7 32.4103 193.23 32.8303 192.91C33.2703 192.57 33.8203 192.4 34.4803 192.4ZM36.0403 211.54C36.0403 212.52 36.3503 213.18 36.9703 213.52C36.8103 213.82 36.5503 214.05 36.1903 214.21C35.8303 214.37 35.4403 214.45 35.0203 214.45C34.2603 214.45 33.6903 214.23 33.3103 213.79C32.9303 213.35 32.7403 212.73 32.7403 211.93V198.7H36.0403V211.54ZM40.1245 198.7L42.8845 198.34L43.0345 201.04C43.4145 200.08 43.9945 199.35 44.7745 198.85C45.5745 198.35 46.5045 198.1 47.5645 198.1C49.2445 198.1 50.4145 198.57 51.0745 199.51C51.7345 200.43 52.0645 201.84 52.0645 203.74V211.54C52.0645 212.52 52.3745 213.18 52.9945 213.52C52.8345 213.82 52.5745 214.05 52.2145 214.21C51.8545 214.37 51.4745 214.45 51.0745 214.45C50.2945 214.45 49.7145 214.23 49.3345 213.79C48.9545 213.35 48.7645 212.73 48.7645 211.93V204.16C48.7645 202.9 48.6245 201.96 48.3445 201.34C48.0645 200.72 47.4445 200.41 46.4845 200.41C45.2645 200.41 44.4445 200.95 44.0245 202.03C43.6245 203.11 43.4245 204.5 43.4245 206.2V214H40.1245V198.7ZM70.8783 209.77C71.3383 209.99 71.5683 210.42 71.5683 211.06C71.5683 211.78 71.3283 212.42 70.8483 212.98C70.3683 213.52 69.7483 213.93 68.9883 214.21C68.2283 214.51 67.4583 214.66 66.6783 214.66C64.4783 214.66 62.8483 213.95 61.7883 212.53C60.7283 211.09 60.1983 209.16 60.1983 206.74C60.1983 204.16 60.7683 202.08 61.9083 200.5C63.0683 198.9 64.8183 198.1 67.1583 198.1C68.6383 198.1 69.8283 198.49 70.7283 199.27C71.6283 200.03 72.0783 201.11 72.0783 202.51C72.0783 204.25 71.4683 205.47 70.2483 206.17C69.0483 206.87 67.4083 207.22 65.3283 207.22C64.7483 207.22 64.1983 207.2 63.6783 207.16C63.7383 208.74 63.9983 210 64.4583 210.94C64.9383 211.88 65.7783 212.35 66.9783 212.35C67.8583 212.35 68.6283 212.13 69.2883 211.69C69.9683 211.23 70.4983 210.59 70.8783 209.77ZM66.6783 199.81C65.5983 199.81 64.8383 200.38 64.3983 201.52C63.9583 202.64 63.7183 204.02 63.6783 205.66C64.2783 205.7 64.7183 205.72 64.9983 205.72C67.5183 205.72 68.7783 204.71 68.7783 202.69C68.7783 201.87 68.5983 201.19 68.2383 200.65C67.8983 200.09 67.3783 199.81 66.6783 199.81ZM74.9585 198.7L77.7185 198.34L77.8685 201.04C78.2485 200.08 78.8285 199.35 79.6085 198.85C80.4085 198.35 81.3385 198.1 82.3985 198.1C84.0785 198.1 85.2485 198.57 85.9085 199.51C86.5685 200.43 86.8985 201.84 86.8985 203.74V211.54C86.8985 212.52 87.2085 213.18 87.8285 213.52C87.6685 213.82 87.4085 214.05 87.0485 214.21C86.6885 214.37 86.3085 214.45 85.9085 214.45C85.1285 214.45 84.5485 214.23 84.1685 213.79C83.7885 213.35 83.5985 212.73 83.5985 211.93V204.16C83.5985 202.9 83.4585 201.96 83.1785 201.34C82.8985 200.72 82.2785 200.41 81.3185 200.41C80.0985 200.41 79.2785 200.95 78.8585 202.03C78.4585 203.11 78.2585 204.5 78.2585 206.2V214H74.9585V198.7ZM100.468 209.77C100.928 209.99 101.158 210.42 101.158 211.06C101.158 211.78 100.918 212.42 100.438 212.98C99.9581 213.52 99.3381 213.93 98.5781 214.21C97.8181 214.51 97.0481 214.66 96.2681 214.66C94.0681 214.66 92.4381 213.95 91.3781 212.53C90.3181 211.09 89.7881 209.16 89.7881 206.74C89.7881 204.16 90.3581 202.08 91.4981 200.5C92.6581 198.9 94.4081 198.1 96.7481 198.1C98.2281 198.1 99.4181 198.49 100.318 199.27C101.218 200.03 101.668 201.11 101.668 202.51C101.668 204.25 101.058 205.47 99.8381 206.17C98.6381 206.87 96.9981 207.22 94.9181 207.22C94.3381 207.22 93.7881 207.2 93.2681 207.16C93.3281 208.74 93.5881 210 94.0481 210.94C94.5281 211.88 95.3681 212.35 96.5681 212.35C97.4481 212.35 98.2181 212.13 98.8781 211.69C99.5581 211.23 100.088 210.59 100.468 209.77ZM96.2681 199.81C95.1881 199.81 94.4281 200.38 93.9881 201.52C93.5481 202.64 93.3081 204.02 93.2681 205.66C93.8681 205.7 94.3081 205.72 94.5881 205.72C97.1081 205.72 98.3681 204.71 98.3681 202.69C98.3681 201.87 98.1881 201.19 97.8281 200.65C97.4881 200.09 96.9681 199.81 96.2681 199.81ZM109.888 200.41C109.028 200.41 108.468 200.99 108.208 202.15C107.968 203.29 107.848 204.66 107.848 206.26V214H104.548V198.7L107.308 198.34L107.458 201.04C107.738 200.14 108.228 199.43 108.928 198.91C109.628 198.37 110.438 198.1 111.358 198.1C112.358 198.1 113.148 198.39 113.728 198.97C114.328 199.55 114.628 200.34 114.628 201.34C114.628 202.96 113.848 203.77 112.288 203.77C111.768 203.77 111.368 203.66 111.088 203.44C111.228 202.92 111.298 202.47 111.298 202.09C111.298 200.97 110.828 200.41 109.888 200.41ZM121.814 218.23C122.734 218.23 123.414 217.91 123.854 217.27C124.294 216.65 124.564 215.9 124.664 215.02C124.764 214.14 124.814 213.03 124.814 211.69V210.88C124.434 211.44 123.914 211.86 123.254 212.14C122.594 212.42 121.894 212.56 121.154 212.56C119.194 212.56 117.754 211.9 116.834 210.58C115.934 209.26 115.484 207.49 115.484 205.27C115.484 203.01 116.034 201.25 117.134 199.99C118.234 198.73 119.864 198.1 122.024 198.1C123.024 198.1 124.034 198.29 125.054 198.67L127.994 198.34V210.97C127.994 212.91 127.814 214.53 127.454 215.83C127.114 217.13 126.464 218.15 125.504 218.89C124.564 219.63 123.244 220 121.544 220C120.124 220 118.904 219.72 117.884 219.16C116.884 218.6 116.384 217.74 116.384 216.58C116.384 215.9 116.594 215.38 117.014 215.02C117.434 214.66 118.004 214.48 118.724 214.48C119.244 214.48 119.644 214.59 119.924 214.81C119.784 215.23 119.714 215.68 119.714 216.16C119.714 217.54 120.414 218.23 121.814 218.23ZM124.694 200.86C123.754 200.22 122.824 199.9 121.904 199.9C120.804 199.9 120.044 200.39 119.624 201.37C119.224 202.35 119.024 203.6 119.024 205.12C119.024 206.74 119.224 208.05 119.624 209.05C120.044 210.05 120.844 210.55 122.024 210.55C122.924 210.55 123.594 210.22 124.034 209.56C124.474 208.9 124.694 208.06 124.694 207.04V200.86ZM133.621 192.4C134.281 192.4 134.811 192.56 135.211 192.88C135.631 193.2 135.841 193.66 135.841 194.26C135.841 194.88 135.621 195.36 135.181 195.7C134.761 196.02 134.211 196.18 133.531 196.18C132.871 196.18 132.341 196.02 131.941 195.7C131.541 195.38 131.341 194.92 131.341 194.32C131.341 193.7 131.551 193.23 131.971 192.91C132.411 192.57 132.961 192.4 133.621 192.4ZM135.181 211.54C135.181 212.52 135.491 213.18 136.111 213.52C135.951 213.82 135.691 214.05 135.331 214.21C134.971 214.37 134.581 214.45 134.161 214.45C133.401 214.45 132.831 214.23 132.451 213.79C132.071 213.35 131.881 212.73 131.881 211.93V198.7H135.181V211.54Z" fill="#F17E84"/>
<path d="M16.98 54.7L19.74 54.34L19.89 57.04C20.27 56.08 20.85 55.35 21.63 54.85C22.43 54.35 23.36 54.1 24.42 54.1C25.6 54.1 26.52 54.34 27.18 54.82C27.84 55.28 28.31 55.97 28.59 56.89C29.37 55.03 30.79 54.1 32.85 54.1C34.53 54.1 35.7 54.57 36.36 55.51C37.02 56.43 37.35 57.84 37.35 59.74V67.54C37.35 68.52 37.66 69.18 38.28 69.52C38.12 69.82 37.86 70.05 37.5 70.21C37.14 70.37 36.76 70.45 36.36 70.45C35.58 70.45 35 70.23 34.62 69.79C34.24 69.35 34.05 68.73 34.05 67.93V60.16C34.05 58.9 33.91 57.96 33.63 57.34C33.35 56.72 32.73 56.41 31.77 56.41C30.63 56.41 29.87 56.95 29.49 58.03C29.11 59.11 28.92 60.5 28.92 62.2V70H25.62V60.16C25.62 58.9 25.48 57.96 25.2 57.34C24.92 56.72 24.3 56.41 23.34 56.41C22.12 56.41 21.3 56.95 20.88 58.03C20.48 59.11 20.28 60.5 20.28 62.2V70H16.98V54.7ZM54.1078 53.65C54.1078 53.93 53.9578 54.28 53.6578 54.7L52.1578 56.83C52.9778 58.17 53.3878 59.94 53.3878 62.14C53.3878 64.76 52.8678 66.84 51.8278 68.38C50.7878 69.9 49.1078 70.66 46.7878 70.66C45.2478 70.66 43.9878 70.32 43.0078 69.64L41.6278 71.59C41.3078 71.53 40.9478 71.39 40.5478 71.17C40.1678 70.95 39.9778 70.67 39.9778 70.33C39.9778 70.05 40.1278 69.7 40.4278 69.28L41.4178 67.9C40.6178 66.56 40.2178 64.74 40.2178 62.44C40.2178 59.96 40.7578 57.95 41.8378 56.41C42.9178 54.87 44.5678 54.1 46.7878 54.1C48.3078 54.1 49.5578 54.44 50.5378 55.12L52.4878 52.39C52.7878 52.45 53.1278 52.59 53.5078 52.81C53.9078 53.03 54.1078 53.31 54.1078 53.65ZM43.8178 62.29C43.8178 63.23 43.8378 63.95 43.8778 64.45L48.9778 57.31C48.4778 56.37 47.7478 55.9 46.7878 55.9C44.8078 55.9 43.8178 58.03 43.8178 62.29ZM49.7878 62.29C49.7878 61.61 49.7578 60.93 49.6978 60.25L44.5678 67.45C45.0678 68.39 45.8078 68.86 46.7878 68.86C48.0278 68.86 48.8378 68.25 49.2178 67.03C49.5978 65.81 49.7878 64.23 49.7878 62.29ZM61.6657 56.41C60.8057 56.41 60.2457 56.99 59.9857 58.15C59.7457 59.29 59.6257 60.66 59.6257 62.26V70H56.3257V54.7L59.0857 54.34L59.2357 57.04C59.5157 56.14 60.0057 55.43 60.7057 54.91C61.4057 54.37 62.2157 54.1 63.1357 54.1C64.1357 54.1 64.9257 54.39 65.5057 54.97C66.1057 55.55 66.4057 56.34 66.4057 57.34C66.4057 58.96 65.6257 59.77 64.0657 59.77C63.5457 59.77 63.1457 59.66 62.8657 59.44C63.0057 58.92 63.0757 58.47 63.0757 58.09C63.0757 56.97 62.6057 56.41 61.6657 56.41ZM68.2816 70V49L71.5816 48.64V70H68.2816ZM77.0116 54.7H80.4916L75.3016 61.06L80.6116 70H76.7716L72.0016 61.6L77.0116 54.7ZM93.1627 55.87C91.1627 55.87 90.1627 58.05 90.1627 62.41C90.1627 64.19 90.3827 65.63 90.8227 66.73C91.2827 67.81 92.1627 68.35 93.4627 68.35C94.3427 68.35 95.0927 68.12 95.7127 67.66C96.3527 67.18 96.7827 66.51 97.0027 65.65C97.3427 65.81 97.5827 66 97.7227 66.22C97.8827 66.42 97.9627 66.7 97.9627 67.06C97.9627 67.78 97.7227 68.42 97.2427 68.98C96.7827 69.52 96.1827 69.93 95.4427 70.21C94.7027 70.51 93.9427 70.66 93.1627 70.66C90.9627 70.66 89.3327 69.95 88.2727 68.53C87.2127 67.09 86.6827 65.16 86.6827 62.74C86.6827 60.16 87.2527 58.08 88.3927 56.5C89.5527 54.9 91.2927 54.1 93.6127 54.1C94.9727 54.1 96.0927 54.38 96.9727 54.94C97.8527 55.5 98.2927 56.36 98.2927 57.52C98.2927 58.2 98.0827 58.72 97.6627 59.08C97.2427 59.44 96.6727 59.62 95.9527 59.62C95.7327 59.62 95.5027 59.59 95.2627 59.53C95.0427 59.47 94.8627 59.39 94.7227 59.29C94.8827 58.81 94.9627 58.36 94.9627 57.94C94.9627 56.56 94.3627 55.87 93.1627 55.87ZM104.511 52.03C104.511 54.21 104.411 55.81 104.211 56.83C104.631 55.93 105.221 55.25 105.981 54.79C106.741 54.33 107.631 54.1 108.651 54.1C110.331 54.1 111.501 54.57 112.161 55.51C112.821 56.43 113.151 57.84 113.151 59.74V67.54C113.151 68.52 113.461 69.18 114.081 69.52C113.921 69.82 113.661 70.05 113.301 70.21C112.941 70.37 112.561 70.45 112.161 70.45C111.381 70.45 110.801 70.23 110.421 69.79C110.041 69.35 109.851 68.73 109.851 67.93V60.16C109.851 58.9 109.711 57.96 109.431 57.34C109.151 56.72 108.531 56.41 107.571 56.41C106.351 56.41 105.531 56.95 105.111 58.03C104.711 59.11 104.511 60.5 104.511 62.2V70H101.211V49L104.511 48.64V52.03ZM122.608 54.1C124.848 54.1 126.508 54.83 127.588 56.29C128.668 57.73 129.208 59.68 129.208 62.14C129.208 64.76 128.688 66.84 127.648 68.38C126.608 69.9 124.928 70.66 122.608 70.66C120.328 70.66 118.658 69.93 117.598 68.47C116.558 67.01 116.038 65 116.038 62.44C116.038 59.96 116.578 57.95 117.658 56.41C118.738 54.87 120.388 54.1 122.608 54.1ZM122.608 68.86C123.848 68.86 124.658 68.25 125.038 67.03C125.418 65.81 125.608 64.23 125.608 62.29C125.608 60.51 125.398 59 124.978 57.76C124.578 56.52 123.788 55.9 122.608 55.9C120.628 55.9 119.638 58.03 119.638 62.29C119.638 64.23 119.818 65.81 120.178 67.03C120.558 68.25 121.368 68.86 122.608 68.86ZM132.266 70V49L135.566 48.64V70H132.266ZM140.996 54.7H144.476L139.286 61.06L144.596 70H140.756L135.986 61.6L140.996 54.7ZM151.993 54.1C154.233 54.1 155.893 54.83 156.973 56.29C158.053 57.73 158.593 59.68 158.593 62.14C158.593 64.76 158.073 66.84 157.033 68.38C155.993 69.9 154.313 70.66 151.993 70.66C149.713 70.66 148.043 69.93 146.983 68.47C145.943 67.01 145.423 65 145.423 62.44C145.423 59.96 145.963 57.95 147.043 56.41C148.123 54.87 149.773 54.1 151.993 54.1ZM151.993 68.86C153.233 68.86 154.043 68.25 154.423 67.03C154.803 65.81 154.993 64.23 154.993 62.29C154.993 60.51 154.783 59 154.363 57.76C153.963 56.52 153.173 55.9 151.993 55.9C150.013 55.9 149.023 58.03 149.023 62.29C149.023 64.23 149.203 65.81 149.563 67.03C149.943 68.25 150.753 68.86 151.993 68.86ZM164.891 48.64V67.54C164.891 68.52 165.201 69.18 165.821 69.52C165.661 69.82 165.391 70.05 165.011 70.21C164.651 70.37 164.271 70.45 163.871 70.45C163.111 70.45 162.541 70.23 162.161 69.79C161.781 69.35 161.591 68.73 161.591 67.93V49L164.891 48.64ZM177.219 68.62C176.839 69.32 176.279 69.83 175.539 70.15C174.819 70.49 173.999 70.66 173.079 70.66C171.699 70.66 170.539 70.24 169.599 69.4C168.679 68.56 168.219 67.47 168.219 66.13C168.219 62.89 171.109 61.27 176.889 61.27V58.66C176.889 57.66 176.739 56.92 176.439 56.44C176.139 55.94 175.569 55.69 174.729 55.69C174.029 55.69 173.449 55.88 172.989 56.26C172.529 56.62 172.299 57.13 172.299 57.79C172.299 58.21 172.379 58.66 172.539 59.14C172.259 59.36 171.859 59.47 171.339 59.47C170.619 59.47 170.049 59.29 169.629 58.93C169.209 58.57 168.999 58.05 168.999 57.37C168.999 56.41 169.539 55.63 170.619 55.03C171.699 54.41 173.139 54.1 174.939 54.1C176.259 54.1 177.299 54.3 178.059 54.7C178.819 55.08 179.359 55.68 179.679 56.5C180.019 57.3 180.189 58.38 180.189 59.74V67.54C180.189 68.52 180.499 69.18 181.119 69.52C180.959 69.82 180.719 70.05 180.399 70.21C180.099 70.37 179.749 70.45 179.349 70.45C178.769 70.45 178.289 70.29 177.909 69.97C177.529 69.63 177.299 69.18 177.219 68.62ZM174.249 68.65C175.129 68.65 175.789 68.32 176.229 67.66C176.669 66.98 176.889 66.14 176.889 65.14V62.77C173.509 62.77 171.819 63.85 171.819 66.01C171.819 66.81 172.029 67.45 172.449 67.93C172.889 68.41 173.489 68.65 174.249 68.65ZM195.699 67.54C195.699 68.52 196.009 69.18 196.629 69.52C196.469 69.82 196.229 70.05 195.909 70.21C195.609 70.37 195.259 70.45 194.859 70.45C194.279 70.45 193.799 70.29 193.419 69.97C193.039 69.63 192.809 69.18 192.729 68.62C192.409 69.28 191.889 69.78 191.169 70.12C190.469 70.48 189.709 70.66 188.889 70.66C186.849 70.66 185.369 69.88 184.449 68.32C183.529 66.76 183.069 64.76 183.069 62.32C183.069 59.8 183.609 57.8 184.689 56.32C185.789 54.84 187.489 54.1 189.789 54.1C190.749 54.1 191.619 54.23 192.399 54.49V49L195.699 48.64V67.54ZM192.399 56.83C191.479 56.21 190.559 55.9 189.639 55.9C188.419 55.9 187.619 56.48 187.239 57.64C186.859 58.8 186.669 60.31 186.669 62.17C186.669 63.95 186.889 65.48 187.329 66.76C187.769 68.02 188.579 68.65 189.759 68.65C190.639 68.65 191.299 68.32 191.739 67.66C192.179 66.98 192.399 66.14 192.399 65.14V56.83ZM209.57 65.77C210.03 65.99 210.26 66.42 210.26 67.06C210.26 67.78 210.02 68.42 209.54 68.98C209.06 69.52 208.44 69.93 207.68 70.21C206.92 70.51 206.15 70.66 205.37 70.66C203.17 70.66 201.54 69.95 200.48 68.53C199.42 67.09 198.89 65.16 198.89 62.74C198.89 60.16 199.46 58.08 200.6 56.5C201.76 54.9 203.51 54.1 205.85 54.1C207.33 54.1 208.52 54.49 209.42 55.27C210.32 56.03 210.77 57.11 210.77 58.51C210.77 60.25 210.16 61.47 208.94 62.17C207.74 62.87 206.1 63.22 204.02 63.22C203.44 63.22 202.89 63.2 202.37 63.16C202.43 64.74 202.69 66 203.15 66.94C203.63 67.88 204.47 68.35 205.67 68.35C206.55 68.35 207.32 68.13 207.98 67.69C208.66 67.23 209.19 66.59 209.57 65.77ZM205.37 55.81C204.29 55.81 203.53 56.38 203.09 57.52C202.65 58.64 202.41 60.02 202.37 61.66C202.97 61.7 203.41 61.72 203.69 61.72C206.21 61.72 207.47 60.71 207.47 58.69C207.47 57.87 207.29 57.19 206.93 56.65C206.59 56.09 206.07 55.81 205.37 55.81ZM56.2887 160.03C56.2887 162.21 56.1887 163.81 55.9887 164.83C56.3687 163.99 56.9387 163.33 57.6987 162.85C58.4587 162.35 59.2987 162.1 60.2187 162.1C62.1187 162.1 63.4987 162.86 64.3587 164.38C65.2187 165.9 65.6487 167.82 65.6487 170.14C65.6487 172.7 65.0987 174.76 63.9987 176.32C62.8987 177.88 61.2087 178.66 58.9287 178.66C57.9487 178.66 56.9087 178.53 55.8087 178.27C54.7287 178.03 53.7887 177.69 52.9887 177.25V157L56.2887 156.64V160.03ZM56.2887 175.96C57.1687 176.56 58.0987 176.86 59.0787 176.86C60.2987 176.86 61.0987 176.24 61.4787 175C61.8587 173.76 62.0487 172.19 62.0487 170.29C62.0487 168.59 61.8587 167.19 61.4787 166.09C61.1187 164.97 60.3687 164.41 59.2287 164.41C58.0687 164.41 57.2887 164.96 56.8887 166.06C56.4887 167.14 56.2887 168.52 56.2887 170.2V175.96ZM74.1511 162.1C76.3911 162.1 78.0511 162.83 79.1311 164.29C80.2111 165.73 80.7511 167.68 80.7511 170.14C80.7511 172.76 80.2311 174.84 79.1911 176.38C78.1511 177.9 76.4711 178.66 74.1511 178.66C71.8711 178.66 70.2011 177.93 69.1411 176.47C68.1011 175.01 67.5811 173 67.5811 170.44C67.5811 167.96 68.1211 165.95 69.2011 164.41C70.2811 162.87 71.9311 162.1 74.1511 162.1ZM74.1511 176.86C75.3911 176.86 76.2011 176.25 76.5811 175.03C76.9611 173.81 77.1511 172.23 77.1511 170.29C77.1511 168.51 76.9411 167 76.5211 165.76C76.1211 164.52 75.3311 163.9 74.1511 163.9C72.1711 163.9 71.1811 166.03 71.1811 170.29C71.1811 172.23 71.3611 173.81 71.7211 175.03C72.1011 176.25 72.9111 176.86 74.1511 176.86ZM89.239 162.1C91.479 162.1 93.139 162.83 94.219 164.29C95.299 165.73 95.839 167.68 95.839 170.14C95.839 172.76 95.319 174.84 94.279 176.38C93.239 177.9 91.559 178.66 89.239 178.66C86.959 178.66 85.289 177.93 84.229 176.47C83.189 175.01 82.669 173 82.669 170.44C82.669 167.96 83.209 165.95 84.289 164.41C85.369 162.87 87.019 162.1 89.239 162.1ZM89.239 176.86C90.479 176.86 91.289 176.25 91.669 175.03C92.049 173.81 92.239 172.23 92.239 170.29C92.239 168.51 92.029 167 91.609 165.76C91.209 164.52 90.419 163.9 89.239 163.9C87.259 163.9 86.269 166.03 86.269 170.29C86.269 172.23 86.449 173.81 86.809 175.03C87.189 176.25 87.999 176.86 89.239 176.86ZM103.637 163.69C103.037 163.69 102.557 163.85 102.197 164.17C101.837 164.47 101.657 164.91 101.657 165.49C101.657 166.27 101.917 166.91 102.437 167.41C102.977 167.89 103.797 168.43 104.897 169.03C105.777 169.51 106.477 169.94 106.997 170.32C107.537 170.7 107.997 171.19 108.377 171.79C108.757 172.37 108.947 173.08 108.947 173.92C108.947 175.44 108.397 176.61 107.297 177.43C106.217 178.25 104.837 178.66 103.157 178.66C101.697 178.66 100.467 178.41 99.4669 177.91C98.4869 177.41 97.9969 176.58 97.9969 175.42C97.9969 174.74 98.2069 174.22 98.6269 173.86C99.0469 173.5 99.6169 173.32 100.337 173.32C100.857 173.32 101.257 173.43 101.537 173.65C101.377 174.13 101.297 174.58 101.297 175C101.297 175.64 101.497 176.15 101.897 176.53C102.297 176.89 102.837 177.07 103.517 177.07C104.257 177.07 104.817 176.88 105.197 176.5C105.597 176.1 105.797 175.52 105.797 174.76C105.797 173.98 105.527 173.35 104.987 172.87C104.467 172.37 103.657 171.82 102.557 171.22C101.677 170.72 100.967 170.28 100.427 169.9C99.9069 169.52 99.4569 169.04 99.0769 168.46C98.6969 167.86 98.5069 167.14 98.5069 166.3C98.5069 164.96 99.0469 163.93 100.127 163.21C101.207 162.47 102.517 162.1 104.057 162.1C105.477 162.1 106.637 162.36 107.537 162.88C108.457 163.38 108.917 164.21 108.917 165.37C108.917 166.05 108.697 166.57 108.257 166.93C107.837 167.29 107.267 167.47 106.547 167.47C106.027 167.47 105.627 167.36 105.347 167.14C105.507 166.66 105.587 166.21 105.587 165.79C105.587 165.13 105.417 164.62 105.077 164.26C104.757 163.88 104.277 163.69 103.637 163.69ZM110.277 164.05L110.247 163.15C111.147 162.79 111.997 162.31 112.797 161.71C113.617 161.11 114.307 160.45 114.867 159.73H115.797V162.7H118.557V164.05H115.737V174.97C115.737 175.57 115.847 176.02 116.067 176.32C116.287 176.62 116.637 176.81 117.117 176.89C117.017 177.35 116.747 177.72 116.307 178C115.887 178.3 115.397 178.45 114.837 178.45C113.217 178.45 112.407 177.53 112.407 175.69V164.05H110.277ZM130.322 173.77C130.782 173.99 131.012 174.42 131.012 175.06C131.012 175.78 130.772 176.42 130.292 176.98C129.812 177.52 129.192 177.93 128.432 178.21C127.672 178.51 126.902 178.66 126.122 178.66C123.922 178.66 122.292 177.95 121.232 176.53C120.172 175.09 119.642 173.16 119.642 170.74C119.642 168.16 120.212 166.08 121.352 164.5C122.512 162.9 124.262 162.1 126.602 162.1C128.082 162.1 129.272 162.49 130.172 163.27C131.072 164.03 131.522 165.11 131.522 166.51C131.522 168.25 130.912 169.47 129.692 170.17C128.492 170.87 126.852 171.22 124.772 171.22C124.192 171.22 123.642 171.2 123.122 171.16C123.182 172.74 123.442 174 123.902 174.94C124.382 175.88 125.222 176.35 126.422 176.35C127.302 176.35 128.072 176.13 128.732 175.69C129.412 175.23 129.942 174.59 130.322 173.77ZM126.122 163.81C125.042 163.81 124.282 164.38 123.842 165.52C123.402 166.64 123.162 168.02 123.122 169.66C123.722 169.7 124.162 169.72 124.442 169.72C126.962 169.72 128.222 168.71 128.222 166.69C128.222 165.87 128.042 165.19 127.682 164.65C127.342 164.09 126.822 163.81 126.122 163.81ZM139.742 164.41C138.882 164.41 138.322 164.99 138.062 166.15C137.822 167.29 137.702 168.66 137.702 170.26V178H134.402V162.7L137.162 162.34L137.312 165.04C137.592 164.14 138.082 163.43 138.782 162.91C139.482 162.37 140.292 162.1 141.212 162.1C142.212 162.1 143.002 162.39 143.582 162.97C144.182 163.55 144.482 164.34 144.482 165.34C144.482 166.96 143.702 167.77 142.142 167.77C141.622 167.77 141.222 167.66 140.942 167.44C141.082 166.92 141.152 166.47 141.152 166.09C141.152 164.97 140.682 164.41 139.742 164.41Z" fill="#E7232D"/>
<g filter="url(#filter0_d_405_1802)">
<path d="M276.667 93.7083H318.417L241.875 184.167L262.75 114.583H221L255.792 45H304.5L276.667 93.7083Z" fill="#E7232D"/>
<path d="M274.93 92.7161L273.22 95.7083H276.667H314.104L246.549 175.546L264.666 115.158L265.438 112.583H262.75H224.236L257.028 47H301.054L274.93 92.7161Z" stroke="#E7232D" stroke-width="4"/>
</g>
<defs>
<filter id="filter0_d_405_1802" x="219" y="44" width="111.417" height="153.167" filterUnits="userSpaceOnUse" color-interpolation-filters="sRGB">
<feFlood flood-opacity="0" result="BackgroundImageFix"/>
<feColorMatrix in="SourceAlpha" type="matrix" values="0 0 0 0 0 0 0 0 0 0 0 0 0 0 0 0 0 0 127 0" result="hardAlpha"/>
<feOffset dx="5" dy="6"/>
<feGaussianBlur stdDeviation="3.5"/>
<feComposite in2="hardAlpha" operator="out"/>
<feColorMatrix type="matrix" values="0 0 0 0 0.639216 0 0 0 0 0.666667 0 0 0 0 0.921569 0 0 0 1 0"/>
<feBlend mode="normal" in2="BackgroundImageFix" result="effect1_dropShadow_405_1802"/>
<feBlend mode="normal" in="SourceGraphic" in2="effect1_dropShadow_405_1802" result="shape"/>
</filter>
</defs>
</svg>
