<svg width="340" height="229" viewBox="0 0 340 229" fill="none" xmlns="http://www.w3.org/2000/svg">
<rect width="340" height="229" fill="#FEF6F6"/>
<g filter="url(#filter0_d_405_1800)">
<path d="M276.667 93.7083H318.417L241.875 184.167L262.75 114.583H221L255.792 45H304.5L276.667 93.7083Z" fill="#FEF6F6"/>
<path d="M274.93 92.7161L273.22 95.7083H276.667H314.104L246.549 175.546L264.666 115.158L265.438 112.583H262.75H224.236L257.028 47H301.054L274.93 92.7161Z" stroke="#E7232D" stroke-width="4"/>
</g>
<path d="M16.8 18.2H20.31V35.78H26.85L26.64 38H16.8V18.2ZM37.1217 36.62C36.7417 37.32 36.1817 37.83 35.4417 38.15C34.7217 38.49 33.9017 38.66 32.9817 38.66C31.6017 38.66 30.4417 38.24 29.5017 37.4C28.5817 36.56 28.1217 35.47 28.1217 34.13C28.1217 30.89 31.0117 29.27 36.7917 29.27V26.66C36.7917 25.66 36.6417 24.92 36.3417 24.44C36.0417 23.94 35.4717 23.69 34.6317 23.69C33.9317 23.69 33.3517 23.88 32.8917 24.26C32.4317 24.62 32.2017 25.13 32.2017 25.79C32.2017 26.21 32.2817 26.66 32.4417 27.14C32.1617 27.36 31.7617 27.47 31.2417 27.47C30.5217 27.47 29.9517 27.29 29.5317 26.93C29.1117 26.57 28.9017 26.05 28.9017 25.37C28.9017 24.41 29.4417 23.63 30.5217 23.03C31.6017 22.41 33.0417 22.1 34.8417 22.1C36.1617 22.1 37.2017 22.3 37.9617 22.7C38.7217 23.08 39.2617 23.68 39.5817 24.5C39.9217 25.3 40.0917 26.38 40.0917 27.74V35.54C40.0917 36.52 40.4017 37.18 41.0217 37.52C40.8617 37.82 40.6217 38.05 40.3017 38.21C40.0017 38.37 39.6517 38.45 39.2517 38.45C38.6717 38.45 38.1917 38.29 37.8117 37.97C37.4317 37.63 37.2017 37.18 37.1217 36.62ZM34.1517 36.65C35.0317 36.65 35.6917 36.32 36.1317 35.66C36.5717 34.98 36.7917 34.14 36.7917 33.14V30.77C33.4117 30.77 31.7217 31.85 31.7217 34.01C31.7217 34.81 31.9317 35.45 32.3517 35.93C32.7917 36.41 33.3917 36.65 34.1517 36.65ZM54.7017 22.7L50.2317 38H46.1517L42.0117 22.7H45.4317L48.4917 35.99L51.5517 22.7H54.7017ZM54.818 24.05L54.788 23.15C55.688 22.79 56.538 22.31 57.338 21.71C58.158 21.11 58.848 20.45 59.408 19.73H60.338V22.7H63.098V24.05H60.278V34.97C60.278 35.57 60.388 36.02 60.608 36.32C60.828 36.62 61.178 36.81 61.658 36.89C61.558 37.35 61.288 37.72 60.848 38C60.428 38.3 59.938 38.45 59.378 38.45C57.758 38.45 56.948 37.53 56.948 35.69V24.05H54.818ZM18.78 124.4C19.44 124.4 19.97 124.56 20.37 124.88C20.79 125.2 21 125.66 21 126.26C21 126.88 20.78 127.36 20.34 127.7C19.92 128.02 19.37 128.18 18.69 128.18C18.03 128.18 17.5 128.02 17.1 127.7C16.7 127.38 16.5 126.92 16.5 126.32C16.5 125.7 16.71 125.23 17.13 124.91C17.57 124.57 18.12 124.4 18.78 124.4ZM20.43 144.95C20.43 149.65 19.03 152 16.23 152C15.67 152 15.18 151.89 14.76 151.67C14.34 151.45 14.13 151.12 14.13 150.68C15.25 150.68 16.02 150.23 16.44 149.33C16.88 148.43 17.1 147.25 17.1 145.79V130.7H20.43V144.95ZM34.0521 141.77C34.5121 141.99 34.7421 142.42 34.7421 143.06C34.7421 143.78 34.5021 144.42 34.0221 144.98C33.5421 145.52 32.9221 145.93 32.1621 146.21C31.4021 146.51 30.6321 146.66 29.8521 146.66C27.6521 146.66 26.0221 145.95 24.9621 144.53C23.9021 143.09 23.3721 141.16 23.3721 138.74C23.3721 136.16 23.9421 134.08 25.0821 132.5C26.2421 130.9 27.9921 130.1 30.3321 130.1C31.8121 130.1 33.0021 130.49 33.9021 131.27C34.8021 132.03 35.2521 133.11 35.2521 134.51C35.2521 136.25 34.6421 137.47 33.4221 138.17C32.2221 138.87 30.5821 139.22 28.5021 139.22C27.9221 139.22 27.3721 139.2 26.8521 139.16C26.9121 140.74 27.1721 142 27.6321 142.94C28.1121 143.88 28.9521 144.35 30.1521 144.35C31.0321 144.35 31.8021 144.13 32.4621 143.69C33.1421 143.23 33.6721 142.59 34.0521 141.77ZM29.8521 131.81C28.7721 131.81 28.0121 132.38 27.5721 133.52C27.1321 134.64 26.8921 136.02 26.8521 137.66C27.4521 137.7 27.8921 137.72 28.1721 137.72C30.6921 137.72 31.9521 136.71 31.9521 134.69C31.9521 133.87 31.7721 133.19 31.4121 132.65C31.0721 132.09 30.5521 131.81 29.8521 131.81ZM43.4723 132.41C42.6123 132.41 42.0523 132.99 41.7923 134.15C41.5523 135.29 41.4323 136.66 41.4323 138.26V146H38.1323V130.7L40.8923 130.34L41.0423 133.04C41.3223 132.14 41.8123 131.43 42.5123 130.91C43.2123 130.37 44.0223 130.1 44.9423 130.1C45.9423 130.1 46.7323 130.39 47.3123 130.97C47.9123 131.55 48.2123 132.34 48.2123 133.34C48.2123 134.96 47.4323 135.77 45.8723 135.77C45.3523 135.77 44.9523 135.66 44.6723 135.44C44.8123 134.92 44.8823 134.47 44.8823 134.09C44.8823 132.97 44.4123 132.41 43.4723 132.41ZM49.9683 130.7L52.7283 130.34L52.8783 133.04C53.2583 132.08 53.8383 131.35 54.6183 130.85C55.4183 130.35 56.3483 130.1 57.4083 130.1C59.0883 130.1 60.2583 130.57 60.9183 131.51C61.5783 132.43 61.9083 133.84 61.9083 135.74V143.54C61.9083 144.52 62.2183 145.18 62.8383 145.52C62.6783 145.82 62.4183 146.05 62.0583 146.21C61.6983 146.37 61.3183 146.45 60.9183 146.45C60.1383 146.45 59.5583 146.23 59.1783 145.79C58.7983 145.35 58.6083 144.73 58.6083 143.93V136.16C58.6083 134.9 58.4683 133.96 58.1883 133.34C57.9083 132.72 57.2883 132.41 56.3283 132.41C55.1083 132.41 54.2883 132.95 53.8683 134.03C53.4683 135.11 53.2683 136.5 53.2683 138.2V146H49.9683V130.7ZM65.6079 140.24C65.3879 139.94 65.2779 139.54 65.2779 139.04C65.2779 138.12 65.8479 137.63 66.9879 137.57L74.3979 137.33C74.4979 137.49 74.5779 137.69 74.6379 137.93C74.6979 138.15 74.7279 138.35 74.7279 138.53C74.7279 139.01 74.5779 139.37 74.2779 139.61C73.9779 139.83 73.5479 139.96 72.9879 140L65.6079 140.24ZM79.8319 124.4C80.4919 124.4 81.0219 124.56 81.4219 124.88C81.8419 125.2 82.0519 125.66 82.0519 126.26C82.0519 126.88 81.8319 127.36 81.3919 127.7C80.9719 128.02 80.4219 128.18 79.7419 128.18C79.0819 128.18 78.5519 128.02 78.1519 127.7C77.7519 127.38 77.5519 126.92 77.5519 126.32C77.5519 125.7 77.7619 125.23 78.1819 124.91C78.6219 124.57 79.1719 124.4 79.8319 124.4ZM81.3919 143.54C81.3919 144.52 81.7019 145.18 82.3219 145.52C82.1619 145.82 81.9019 146.05 81.5419 146.21C81.1819 146.37 80.7919 146.45 80.3719 146.45C79.6119 146.45 79.0419 146.23 78.6619 145.79C78.2819 145.35 78.0919 144.73 78.0919 143.93V130.7H81.3919V143.54ZM85.4761 130.7L88.2361 130.34L88.3861 133.04C88.7661 132.08 89.3461 131.35 90.1261 130.85C90.9261 130.35 91.8561 130.1 92.9161 130.1C94.5961 130.1 95.7661 130.57 96.4261 131.51C97.0861 132.43 97.4161 133.84 97.4161 135.74V143.54C97.4161 144.52 97.7261 145.18 98.3461 145.52C98.1861 145.82 97.9261 146.05 97.5661 146.21C97.2061 146.37 96.8261 146.45 96.4261 146.45C95.6461 146.45 95.0661 146.23 94.6861 145.79C94.3061 145.35 94.1161 144.73 94.1161 143.93V136.16C94.1161 134.9 93.9761 133.96 93.6961 133.34C93.4161 132.72 92.7961 132.41 91.8361 132.41C90.6161 132.41 89.7961 132.95 89.3761 134.03C88.9761 135.11 88.7761 136.5 88.7761 138.2V146H85.4761V130.7ZM112.936 143.54C112.936 144.52 113.246 145.18 113.866 145.52C113.706 145.82 113.466 146.05 113.146 146.21C112.846 146.37 112.496 146.45 112.096 146.45C111.516 146.45 111.036 146.29 110.656 145.97C110.276 145.63 110.046 145.18 109.966 144.62C109.646 145.28 109.126 145.78 108.406 146.12C107.706 146.48 106.946 146.66 106.126 146.66C104.086 146.66 102.606 145.88 101.686 144.32C100.766 142.76 100.306 140.76 100.306 138.32C100.306 135.8 100.846 133.8 101.926 132.32C103.026 130.84 104.726 130.1 107.026 130.1C107.986 130.1 108.856 130.23 109.636 130.49V125L112.936 124.64V143.54ZM109.636 132.83C108.716 132.21 107.796 131.9 106.876 131.9C105.656 131.9 104.856 132.48 104.476 133.64C104.096 134.8 103.906 136.31 103.906 138.17C103.906 139.95 104.126 141.48 104.566 142.76C105.006 144.02 105.816 144.65 106.996 144.65C107.876 144.65 108.536 144.32 108.976 143.66C109.416 142.98 109.636 142.14 109.636 141.14V132.83ZM115.316 132.05L115.286 131.15C116.186 130.79 117.036 130.31 117.836 129.71C118.656 129.11 119.346 128.45 119.906 127.73H120.836V130.7H123.596V132.05H120.776V142.97C120.776 143.57 120.886 144.02 121.106 144.32C121.326 144.62 121.676 144.81 122.156 144.89C122.056 145.35 121.786 145.72 121.346 146C120.926 146.3 120.436 146.45 119.876 146.45C118.256 146.45 117.446 145.53 117.446 143.69V132.05H115.316ZM133.831 144.62C133.451 145.32 132.891 145.83 132.151 146.15C131.431 146.49 130.611 146.66 129.691 146.66C128.311 146.66 127.151 146.24 126.211 145.4C125.291 144.56 124.831 143.47 124.831 142.13C124.831 138.89 127.721 137.27 133.501 137.27V134.66C133.501 133.66 133.351 132.92 133.051 132.44C132.751 131.94 132.181 131.69 131.341 131.69C130.641 131.69 130.061 131.88 129.601 132.26C129.141 132.62 128.911 133.13 128.911 133.79C128.911 134.21 128.991 134.66 129.151 135.14C128.871 135.36 128.471 135.47 127.951 135.47C127.231 135.47 126.661 135.29 126.241 134.93C125.821 134.57 125.611 134.05 125.611 133.37C125.611 132.41 126.151 131.63 127.231 131.03C128.311 130.41 129.751 130.1 131.551 130.1C132.871 130.1 133.911 130.3 134.671 130.7C135.431 131.08 135.971 131.68 136.291 132.5C136.631 133.3 136.801 134.38 136.801 135.74V143.54C136.801 144.52 137.111 145.18 137.731 145.52C137.571 145.82 137.331 146.05 137.011 146.21C136.711 146.37 136.361 146.45 135.961 146.45C135.381 146.45 134.901 146.29 134.521 145.97C134.141 145.63 133.911 145.18 133.831 144.62ZM130.861 144.65C131.741 144.65 132.401 144.32 132.841 143.66C133.281 142.98 133.501 142.14 133.501 141.14V138.77C130.121 138.77 128.431 139.85 128.431 142.01C128.431 142.81 128.641 143.45 129.061 143.93C129.501 144.41 130.101 144.65 130.861 144.65ZM146.131 150.23C147.051 150.23 147.731 149.91 148.171 149.27C148.611 148.65 148.881 147.9 148.981 147.02C149.081 146.14 149.131 145.03 149.131 143.69V142.88C148.751 143.44 148.231 143.86 147.571 144.14C146.911 144.42 146.211 144.56 145.471 144.56C143.511 144.56 142.071 143.9 141.151 142.58C140.251 141.26 139.801 139.49 139.801 137.27C139.801 135.01 140.351 133.25 141.451 131.99C142.551 130.73 144.181 130.1 146.341 130.1C147.341 130.1 148.351 130.29 149.371 130.67L152.311 130.34V142.97C152.311 144.91 152.131 146.53 151.771 147.83C151.431 149.13 150.781 150.15 149.821 150.89C148.881 151.63 147.561 152 145.861 152C144.441 152 143.221 151.72 142.201 151.16C141.201 150.6 140.701 149.74 140.701 148.58C140.701 147.9 140.911 147.38 141.331 147.02C141.751 146.66 142.321 146.48 143.041 146.48C143.561 146.48 143.961 146.59 144.241 146.81C144.101 147.23 144.031 147.68 144.031 148.16C144.031 149.54 144.731 150.23 146.131 150.23ZM149.011 132.86C148.071 132.22 147.141 131.9 146.221 131.9C145.121 131.9 144.361 132.39 143.941 133.37C143.541 134.35 143.341 135.6 143.341 137.12C143.341 138.74 143.541 140.05 143.941 141.05C144.361 142.05 145.161 142.55 146.341 142.55C147.241 142.55 147.911 142.22 148.351 141.56C148.791 140.9 149.011 140.06 149.011 139.04V132.86Z" fill="#E7232D"/>
<path d="M80.1068 33.77C80.5668 33.99 80.7968 34.42 80.7968 35.06C80.7968 35.78 80.5568 36.42 80.0768 36.98C79.5968 37.52 78.9768 37.93 78.2168 38.21C77.4568 38.51 76.6868 38.66 75.9068 38.66C73.7068 38.66 72.0768 37.95 71.0168 36.53C69.9568 35.09 69.4268 33.16 69.4268 30.74C69.4268 28.16 69.9968 26.08 71.1368 24.5C72.2968 22.9 74.0468 22.1 76.3868 22.1C77.8668 22.1 79.0568 22.49 79.9568 23.27C80.8568 24.03 81.3068 25.11 81.3068 26.51C81.3068 28.25 80.6968 29.47 79.4768 30.17C78.2768 30.87 76.6368 31.22 74.5568 31.22C73.9768 31.22 73.4268 31.2 72.9068 31.16C72.9668 32.74 73.2268 34 73.6868 34.94C74.1668 35.88 75.0068 36.35 76.2068 36.35C77.0868 36.35 77.8568 36.13 78.5168 35.69C79.1968 35.23 79.7268 34.59 80.1068 33.77ZM75.9068 23.81C74.8268 23.81 74.0668 24.38 73.6268 25.52C73.1868 26.64 72.9468 28.02 72.9068 29.66C73.5068 29.7 73.9468 29.72 74.2268 29.72C76.7468 29.72 78.0068 28.71 78.0068 26.69C78.0068 25.87 77.8268 25.19 77.4668 24.65C77.1268 24.09 76.6068 23.81 75.9068 23.81ZM84.187 22.7L86.947 22.34L87.097 25.04C87.477 24.08 88.057 23.35 88.837 22.85C89.637 22.35 90.567 22.1 91.627 22.1C93.307 22.1 94.477 22.57 95.137 23.51C95.797 24.43 96.127 25.84 96.127 27.74V35.54C96.127 36.52 96.437 37.18 97.057 37.52C96.897 37.82 96.637 38.05 96.277 38.21C95.917 38.37 95.537 38.45 95.137 38.45C94.357 38.45 93.777 38.23 93.397 37.79C93.017 37.35 92.827 36.73 92.827 35.93V28.16C92.827 26.9 92.687 25.96 92.407 25.34C92.127 24.72 91.507 24.41 90.547 24.41C89.327 24.41 88.507 24.95 88.087 26.03C87.687 27.11 87.487 28.5 87.487 30.2V38H84.187V22.7ZM109.697 33.77C110.157 33.99 110.387 34.42 110.387 35.06C110.387 35.78 110.147 36.42 109.667 36.98C109.187 37.52 108.567 37.93 107.807 38.21C107.047 38.51 106.277 38.66 105.497 38.66C103.297 38.66 101.667 37.95 100.607 36.53C99.5466 35.09 99.0166 33.16 99.0166 30.74C99.0166 28.16 99.5866 26.08 100.727 24.5C101.887 22.9 103.637 22.1 105.977 22.1C107.457 22.1 108.647 22.49 109.547 23.27C110.447 24.03 110.897 25.11 110.897 26.51C110.897 28.25 110.287 29.47 109.067 30.17C107.867 30.87 106.227 31.22 104.147 31.22C103.567 31.22 103.017 31.2 102.497 31.16C102.557 32.74 102.817 34 103.277 34.94C103.757 35.88 104.597 36.35 105.797 36.35C106.677 36.35 107.447 36.13 108.107 35.69C108.787 35.23 109.317 34.59 109.697 33.77ZM105.497 23.81C104.417 23.81 103.657 24.38 103.217 25.52C102.777 26.64 102.537 28.02 102.497 29.66C103.097 29.7 103.537 29.72 103.817 29.72C106.337 29.72 107.597 28.71 107.597 26.69C107.597 25.87 107.417 25.19 107.057 24.65C106.717 24.09 106.197 23.81 105.497 23.81ZM119.117 24.41C118.257 24.41 117.697 24.99 117.437 26.15C117.197 27.29 117.077 28.66 117.077 30.26V38H113.777V22.7L116.537 22.34L116.687 25.04C116.967 24.14 117.457 23.43 118.157 22.91C118.857 22.37 119.667 22.1 120.587 22.1C121.587 22.1 122.377 22.39 122.957 22.97C123.557 23.55 123.857 24.34 123.857 25.34C123.857 26.96 123.077 27.77 121.517 27.77C120.997 27.77 120.597 27.66 120.317 27.44C120.457 26.92 120.527 26.47 120.527 26.09C120.527 24.97 120.057 24.41 119.117 24.41ZM131.043 42.23C131.963 42.23 132.643 41.91 133.083 41.27C133.523 40.65 133.793 39.9 133.893 39.02C133.993 38.14 134.043 37.03 134.043 35.69V34.88C133.663 35.44 133.143 35.86 132.483 36.14C131.823 36.42 131.123 36.56 130.383 36.56C128.423 36.56 126.983 35.9 126.063 34.58C125.163 33.26 124.713 31.49 124.713 29.27C124.713 27.01 125.263 25.25 126.363 23.99C127.463 22.73 129.093 22.1 131.253 22.1C132.253 22.1 133.263 22.29 134.283 22.67L137.223 22.34V34.97C137.223 36.91 137.043 38.53 136.683 39.83C136.343 41.13 135.693 42.15 134.733 42.89C133.793 43.63 132.473 44 130.773 44C129.353 44 128.133 43.72 127.113 43.16C126.113 42.6 125.613 41.74 125.613 40.58C125.613 39.9 125.823 39.38 126.243 39.02C126.663 38.66 127.233 38.48 127.953 38.48C128.473 38.48 128.873 38.59 129.153 38.81C129.013 39.23 128.943 39.68 128.943 40.16C128.943 41.54 129.643 42.23 131.043 42.23ZM133.923 24.86C132.983 24.22 132.053 23.9 131.133 23.9C130.033 23.9 129.273 24.39 128.853 25.37C128.453 26.35 128.253 27.6 128.253 29.12C128.253 30.74 128.453 32.05 128.853 33.05C129.273 34.05 130.073 34.55 131.253 34.55C132.153 34.55 132.823 34.22 133.263 33.56C133.703 32.9 133.923 32.06 133.923 31.04V24.86ZM142.849 16.4C143.509 16.4 144.039 16.56 144.439 16.88C144.859 17.2 145.069 17.66 145.069 18.26C145.069 18.88 144.849 19.36 144.409 19.7C143.989 20.02 143.439 20.18 142.759 20.18C142.099 20.18 141.569 20.02 141.169 19.7C140.769 19.38 140.569 18.92 140.569 18.32C140.569 17.7 140.779 17.23 141.199 16.91C141.639 16.57 142.189 16.4 142.849 16.4ZM144.409 35.54C144.409 36.52 144.719 37.18 145.339 37.52C145.179 37.82 144.919 38.05 144.559 38.21C144.199 38.37 143.809 38.45 143.389 38.45C142.629 38.45 142.059 38.23 141.679 37.79C141.299 37.35 141.109 36.73 141.109 35.93V22.7H144.409V35.54ZM148.284 32.24C148.064 31.94 147.954 31.54 147.954 31.04C147.954 30.12 148.524 29.63 149.664 29.57L157.074 29.33C157.174 29.49 157.254 29.69 157.314 29.93C157.374 30.15 157.404 30.35 157.404 30.53C157.404 31.01 157.254 31.37 156.954 31.61C156.654 31.83 156.224 31.96 155.664 32L148.284 32.24ZM16.98 58.7L19.74 58.34L19.89 61.04C20.27 60.08 20.85 59.35 21.63 58.85C22.43 58.35 23.36 58.1 24.42 58.1C26.1 58.1 27.27 58.57 27.93 59.51C28.59 60.43 28.92 61.84 28.92 63.74V71.54C28.92 72.52 29.23 73.18 29.85 73.52C29.69 73.82 29.43 74.05 29.07 74.21C28.71 74.37 28.33 74.45 27.93 74.45C27.15 74.45 26.57 74.23 26.19 73.79C25.81 73.35 25.62 72.73 25.62 71.93V64.16C25.62 62.9 25.48 61.96 25.2 61.34C24.92 60.72 24.3 60.41 23.34 60.41C22.12 60.41 21.3 60.95 20.88 62.03C20.48 63.11 20.28 64.5 20.28 66.2V74H16.98V58.7ZM34.5096 52.4C35.1696 52.4 35.6996 52.56 36.0996 52.88C36.5196 53.2 36.7296 53.66 36.7296 54.26C36.7296 54.88 36.5096 55.36 36.0696 55.7C35.6496 56.02 35.0996 56.18 34.4196 56.18C33.7596 56.18 33.2296 56.02 32.8296 55.7C32.4296 55.38 32.2296 54.92 32.2296 54.32C32.2296 53.7 32.4396 53.23 32.8596 52.91C33.2996 52.57 33.8496 52.4 34.5096 52.4ZM36.0696 71.54C36.0696 72.52 36.3796 73.18 36.9996 73.52C36.8396 73.82 36.5796 74.05 36.2196 74.21C35.8596 74.37 35.4696 74.45 35.0496 74.45C34.2896 74.45 33.7196 74.23 33.3396 73.79C32.9596 73.35 32.7696 72.73 32.7696 71.93V58.7H36.0696V71.54ZM50.8638 58.7L46.3938 74H42.3138L38.1738 58.7H41.5938L44.6538 71.99L47.7138 58.7H50.8638ZM62.4701 69.77C62.9301 69.99 63.1601 70.42 63.1601 71.06C63.1601 71.78 62.9201 72.42 62.4401 72.98C61.9601 73.52 61.3401 73.93 60.5801 74.21C59.8201 74.51 59.0501 74.66 58.2701 74.66C56.0701 74.66 54.4401 73.95 53.3801 72.53C52.3201 71.09 51.7901 69.16 51.7901 66.74C51.7901 64.16 52.3601 62.08 53.5001 60.5C54.6601 58.9 56.4101 58.1 58.7501 58.1C60.2301 58.1 61.4201 58.49 62.3201 59.27C63.2201 60.03 63.6701 61.11 63.6701 62.51C63.6701 64.25 63.0601 65.47 61.8401 66.17C60.6401 66.87 59.0001 67.22 56.9201 67.22C56.3401 67.22 55.7901 67.2 55.2701 67.16C55.3301 68.74 55.5901 70 56.0501 70.94C56.5301 71.88 57.3701 72.35 58.5701 72.35C59.4501 72.35 60.2201 72.13 60.8801 71.69C61.5601 71.23 62.0901 70.59 62.4701 69.77ZM58.2701 59.81C57.1901 59.81 56.4301 60.38 55.9901 61.52C55.5501 62.64 55.3101 64.02 55.2701 65.66C55.8701 65.7 56.3101 65.72 56.5901 65.72C59.1101 65.72 60.3701 64.71 60.3701 62.69C60.3701 61.87 60.1901 61.19 59.8301 60.65C59.4901 60.09 58.9701 59.81 58.2701 59.81ZM74.6803 72.62C74.3003 73.32 73.7403 73.83 73.0003 74.15C72.2803 74.49 71.4603 74.66 70.5403 74.66C69.1603 74.66 68.0003 74.24 67.0603 73.4C66.1403 72.56 65.6803 71.47 65.6803 70.13C65.6803 66.89 68.5703 65.27 74.3503 65.27V62.66C74.3503 61.66 74.2003 60.92 73.9003 60.44C73.6003 59.94 73.0303 59.69 72.1903 59.69C71.4903 59.69 70.9103 59.88 70.4503 60.26C69.9903 60.62 69.7603 61.13 69.7603 61.79C69.7603 62.21 69.8403 62.66 70.0003 63.14C69.7203 63.36 69.3203 63.47 68.8003 63.47C68.0803 63.47 67.5103 63.29 67.0903 62.93C66.6703 62.57 66.4603 62.05 66.4603 61.37C66.4603 60.41 67.0003 59.63 68.0803 59.03C69.1603 58.41 70.6003 58.1 72.4003 58.1C73.7203 58.1 74.7603 58.3 75.5203 58.7C76.2803 59.08 76.8203 59.68 77.1403 60.5C77.4803 61.3 77.6503 62.38 77.6503 63.74V71.54C77.6503 72.52 77.9603 73.18 78.5803 73.52C78.4203 73.82 78.1803 74.05 77.8603 74.21C77.5603 74.37 77.2103 74.45 76.8103 74.45C76.2303 74.45 75.7503 74.29 75.3703 73.97C74.9903 73.63 74.7603 73.18 74.6803 72.62ZM71.7103 72.65C72.5903 72.65 73.2503 72.32 73.6903 71.66C74.1303 70.98 74.3503 70.14 74.3503 69.14V66.77C70.9703 66.77 69.2803 67.85 69.2803 70.01C69.2803 70.81 69.4903 71.45 69.9103 71.93C70.3503 72.41 70.9503 72.65 71.7103 72.65ZM93.4303 71.54C93.4303 72.52 93.7403 73.18 94.3603 73.52C94.2003 73.82 93.9603 74.05 93.6403 74.21C93.3403 74.37 92.9903 74.45 92.5903 74.45C92.0103 74.45 91.5303 74.29 91.1503 73.97C90.7703 73.63 90.5403 73.18 90.4603 72.62C90.1403 73.28 89.6203 73.78 88.9003 74.12C88.2003 74.48 87.4403 74.66 86.6203 74.66C85.1803 74.66 84.0803 74.35 83.3203 73.73C82.5803 73.09 82.0903 72.23 81.8503 71.15C81.6103 70.05 81.4903 68.64 81.4903 66.92V58.7H84.7903V66.77C84.7903 67.99 84.8303 69 84.9103 69.8C85.0103 70.58 85.2603 71.25 85.6603 71.81C86.0603 72.37 86.6703 72.65 87.4903 72.65C88.3703 72.65 89.0303 72.32 89.4703 71.66C89.9103 70.98 90.1303 70.14 90.1303 69.14V58.7H93.4303V71.54ZM102.881 74V53L106.181 52.64V74H102.881ZM111.611 58.7H115.091L109.901 65.06L115.211 74H111.371L106.601 65.6L111.611 58.7ZM125.188 72.62C124.808 73.32 124.248 73.83 123.508 74.15C122.788 74.49 121.968 74.66 121.048 74.66C119.668 74.66 118.508 74.24 117.568 73.4C116.648 72.56 116.188 71.47 116.188 70.13C116.188 66.89 119.078 65.27 124.858 65.27V62.66C124.858 61.66 124.708 60.92 124.408 60.44C124.108 59.94 123.538 59.69 122.698 59.69C121.998 59.69 121.418 59.88 120.958 60.26C120.498 60.62 120.268 61.13 120.268 61.79C120.268 62.21 120.348 62.66 120.508 63.14C120.228 63.36 119.828 63.47 119.308 63.47C118.588 63.47 118.018 63.29 117.598 62.93C117.178 62.57 116.968 62.05 116.968 61.37C116.968 60.41 117.508 59.63 118.588 59.03C119.668 58.41 121.108 58.1 122.908 58.1C124.228 58.1 125.268 58.3 126.028 58.7C126.788 59.08 127.328 59.68 127.648 60.5C127.988 61.3 128.158 62.38 128.158 63.74V71.54C128.158 72.52 128.468 73.18 129.088 73.52C128.928 73.82 128.688 74.05 128.368 74.21C128.068 74.37 127.718 74.45 127.318 74.45C126.738 74.45 126.258 74.29 125.878 73.97C125.498 73.63 125.268 73.18 125.188 72.62ZM122.218 72.65C123.098 72.65 123.758 72.32 124.198 71.66C124.638 70.98 124.858 70.14 124.858 69.14V66.77C121.478 66.77 119.788 67.85 119.788 70.01C119.788 70.81 119.998 71.45 120.418 71.93C120.858 72.41 121.458 72.65 122.218 72.65ZM132.058 58.7L134.818 58.34L134.968 61.04C135.348 60.08 135.928 59.35 136.708 58.85C137.508 58.35 138.438 58.1 139.498 58.1C141.178 58.1 142.348 58.57 143.008 59.51C143.668 60.43 143.998 61.84 143.998 63.74V71.54C143.998 72.52 144.308 73.18 144.928 73.52C144.768 73.82 144.508 74.05 144.148 74.21C143.788 74.37 143.408 74.45 143.008 74.45C142.228 74.45 141.648 74.23 141.268 73.79C140.888 73.35 140.698 72.73 140.698 71.93V64.16C140.698 62.9 140.558 61.96 140.278 61.34C139.998 60.72 139.378 60.41 138.418 60.41C137.198 60.41 136.378 60.95 135.958 62.03C135.558 63.11 135.358 64.5 135.358 66.2V74H132.058V58.7ZM21.84 95.69C21.24 95.69 20.76 95.85 20.4 96.17C20.04 96.47 19.86 96.91 19.86 97.49C19.86 98.27 20.12 98.91 20.64 99.41C21.18 99.89 22 100.43 23.1 101.03C23.98 101.51 24.68 101.94 25.2 102.32C25.74 102.7 26.2 103.19 26.58 103.79C26.96 104.37 27.15 105.08 27.15 105.92C27.15 107.44 26.6 108.61 25.5 109.43C24.42 110.25 23.04 110.66 21.36 110.66C19.9 110.66 18.67 110.41 17.67 109.91C16.69 109.41 16.2 108.58 16.2 107.42C16.2 106.74 16.41 106.22 16.83 105.86C17.25 105.5 17.82 105.32 18.54 105.32C19.06 105.32 19.46 105.43 19.74 105.65C19.58 106.13 19.5 106.58 19.5 107C19.5 107.64 19.7 108.15 20.1 108.53C20.5 108.89 21.04 109.07 21.72 109.07C22.46 109.07 23.02 108.88 23.4 108.5C23.8 108.1 24 107.52 24 106.76C24 105.98 23.73 105.35 23.19 104.87C22.67 104.37 21.86 103.82 20.76 103.22C19.88 102.72 19.17 102.28 18.63 101.9C18.11 101.52 17.66 101.04 17.28 100.46C16.9 99.86 16.71 99.14 16.71 98.3C16.71 96.96 17.25 95.93 18.33 95.21C19.41 94.47 20.72 94.1 22.26 94.1C23.68 94.1 24.84 94.36 25.74 94.88C26.66 95.38 27.12 96.21 27.12 97.37C27.12 98.05 26.9 98.57 26.46 98.93C26.04 99.29 25.47 99.47 24.75 99.47C24.23 99.47 23.83 99.36 23.55 99.14C23.71 98.66 23.79 98.21 23.79 97.79C23.79 97.13 23.62 96.62 23.28 96.26C22.96 95.88 22.48 95.69 21.84 95.69ZM30.4301 110V89L33.7301 88.64V110H30.4301ZM39.1601 94.7H42.6401L37.4501 101.06L42.7601 110H38.9201L34.1501 101.6L39.1601 94.7ZM55.317 94.7L48.507 115.79L45.207 115.4L48.177 108.56H46.677L42.867 94.7H46.287L49.137 106.55L52.197 94.7H55.317ZM60.6525 88.64V107.54C60.6525 108.52 60.9625 109.18 61.5825 109.52C61.4225 109.82 61.1525 110.05 60.7725 110.21C60.4125 110.37 60.0325 110.45 59.6325 110.45C58.8725 110.45 58.3025 110.23 57.9225 109.79C57.5425 109.35 57.3525 108.73 57.3525 107.93V89L60.6525 88.64ZM76.4611 107.54C76.4611 108.52 76.7711 109.18 77.3911 109.52C77.2311 109.82 76.9911 110.05 76.6711 110.21C76.3711 110.37 76.0211 110.45 75.6211 110.45C75.0411 110.45 74.5611 110.29 74.1811 109.97C73.8011 109.63 73.5711 109.18 73.4911 108.62C73.1711 109.28 72.6511 109.78 71.9311 110.12C71.2311 110.48 70.4711 110.66 69.6511 110.66C67.6111 110.66 66.1311 109.88 65.2111 108.32C64.2911 106.76 63.8311 104.76 63.8311 102.32C63.8311 99.8 64.3711 97.8 65.4511 96.32C66.5511 94.84 68.2511 94.1 70.5511 94.1C71.5111 94.1 72.3811 94.23 73.1611 94.49V89L76.4611 88.64V107.54ZM73.1611 96.83C72.2411 96.21 71.3211 95.9 70.4011 95.9C69.1811 95.9 68.3811 96.48 68.0011 97.64C67.6211 98.8 67.4311 100.31 67.4311 102.17C67.4311 103.95 67.6511 105.48 68.0911 106.76C68.5311 108.02 69.3411 108.65 70.5211 108.65C71.4011 108.65 72.0611 108.32 72.5011 107.66C72.9411 106.98 73.1611 106.14 73.1611 105.14V96.83ZM90.3314 105.77C90.7914 105.99 91.0214 106.42 91.0214 107.06C91.0214 107.78 90.7814 108.42 90.3014 108.98C89.8214 109.52 89.2014 109.93 88.4414 110.21C87.6814 110.51 86.9114 110.66 86.1314 110.66C83.9314 110.66 82.3014 109.95 81.2414 108.53C80.1814 107.09 79.6514 105.16 79.6514 102.74C79.6514 100.16 80.2214 98.08 81.3614 96.5C82.5214 94.9 84.2714 94.1 86.6114 94.1C88.0914 94.1 89.2814 94.49 90.1814 95.27C91.0814 96.03 91.5314 97.11 91.5314 98.51C91.5314 100.25 90.9214 101.47 89.7014 102.17C88.5014 102.87 86.8614 103.22 84.7814 103.22C84.2014 103.22 83.6514 103.2 83.1314 103.16C83.1914 104.74 83.4514 106 83.9114 106.94C84.3914 107.88 85.2314 108.35 86.4314 108.35C87.3114 108.35 88.0814 108.13 88.7414 107.69C89.4214 107.23 89.9514 106.59 90.3314 105.77ZM86.1314 95.81C85.0514 95.81 84.2914 96.38 83.8514 97.52C83.4114 98.64 83.1714 100.02 83.1314 101.66C83.7314 101.7 84.1714 101.72 84.4514 101.72C86.9714 101.72 88.2314 100.71 88.2314 98.69C88.2314 97.87 88.0514 97.19 87.6914 96.65C87.3514 96.09 86.8314 95.81 86.1314 95.81ZM99.2716 95.69C98.6716 95.69 98.1916 95.85 97.8316 96.17C97.4716 96.47 97.2916 96.91 97.2916 97.49C97.2916 98.27 97.5516 98.91 98.0716 99.41C98.6116 99.89 99.4316 100.43 100.532 101.03C101.412 101.51 102.112 101.94 102.632 102.32C103.172 102.7 103.632 103.19 104.012 103.79C104.392 104.37 104.582 105.08 104.582 105.92C104.582 107.44 104.032 108.61 102.932 109.43C101.852 110.25 100.472 110.66 98.7916 110.66C97.3316 110.66 96.1016 110.41 95.1016 109.91C94.1216 109.41 93.6316 108.58 93.6316 107.42C93.6316 106.74 93.8416 106.22 94.2616 105.86C94.6816 105.5 95.2516 105.32 95.9716 105.32C96.4916 105.32 96.8916 105.43 97.1716 105.65C97.0116 106.13 96.9316 106.58 96.9316 107C96.9316 107.64 97.1316 108.15 97.5316 108.53C97.9316 108.89 98.4716 109.07 99.1516 109.07C99.8916 109.07 100.452 108.88 100.832 108.5C101.232 108.1 101.432 107.52 101.432 106.76C101.432 105.98 101.162 105.35 100.622 104.87C100.102 104.37 99.2916 103.82 98.1916 103.22C97.3116 102.72 96.6016 102.28 96.0616 101.9C95.5416 101.52 95.0916 101.04 94.7116 100.46C94.3316 99.86 94.1416 99.14 94.1416 98.3C94.1416 96.96 94.6816 95.93 95.7616 95.21C96.8416 94.47 98.1516 94.1 99.6916 94.1C101.112 94.1 102.272 94.36 103.172 94.88C104.092 95.38 104.552 96.21 104.552 97.37C104.552 98.05 104.332 98.57 103.892 98.93C103.472 99.29 102.902 99.47 102.182 99.47C101.662 99.47 101.262 99.36 100.982 99.14C101.142 98.66 101.222 98.21 101.222 97.79C101.222 97.13 101.052 96.62 100.712 96.26C100.392 95.88 99.9116 95.69 99.2716 95.69ZM116.346 88.64V107.54C116.346 108.52 116.656 109.18 117.276 109.52C117.116 109.82 116.846 110.05 116.466 110.21C116.106 110.37 115.726 110.45 115.326 110.45C114.566 110.45 113.996 110.23 113.616 109.79C113.236 109.35 113.046 108.73 113.046 107.93V89L116.346 88.64ZM128.674 108.62C128.294 109.32 127.734 109.83 126.994 110.15C126.274 110.49 125.454 110.66 124.534 110.66C123.154 110.66 121.994 110.24 121.054 109.4C120.134 108.56 119.674 107.47 119.674 106.13C119.674 102.89 122.564 101.27 128.344 101.27V98.66C128.344 97.66 128.194 96.92 127.894 96.44C127.594 95.94 127.024 95.69 126.184 95.69C125.484 95.69 124.904 95.88 124.444 96.26C123.984 96.62 123.754 97.13 123.754 97.79C123.754 98.21 123.834 98.66 123.994 99.14C123.714 99.36 123.314 99.47 122.794 99.47C122.074 99.47 121.504 99.29 121.084 98.93C120.664 98.57 120.454 98.05 120.454 97.37C120.454 96.41 120.994 95.63 122.074 95.03C123.154 94.41 124.594 94.1 126.394 94.1C127.714 94.1 128.754 94.3 129.514 94.7C130.274 95.08 130.814 95.68 131.134 96.5C131.474 97.3 131.644 98.38 131.644 99.74V107.54C131.644 108.52 131.954 109.18 132.574 109.52C132.414 109.82 132.174 110.05 131.854 110.21C131.554 110.37 131.204 110.45 130.804 110.45C130.224 110.45 129.744 110.29 129.364 109.97C128.984 109.63 128.754 109.18 128.674 108.62ZM125.704 108.65C126.584 108.65 127.244 108.32 127.684 107.66C128.124 106.98 128.344 106.14 128.344 105.14V102.77C124.964 102.77 123.274 103.85 123.274 106.01C123.274 106.81 123.484 107.45 123.904 107.93C124.344 108.41 124.944 108.65 125.704 108.65ZM146.254 94.7L141.784 110H137.704L133.564 94.7H136.984L140.044 107.99L143.104 94.7H146.254ZM146.371 96.05L146.341 95.15C147.241 94.79 148.091 94.31 148.891 93.71C149.711 93.11 150.401 92.45 150.961 91.73H151.891V94.7H154.651V96.05H151.831V106.97C151.831 107.57 151.941 108.02 152.161 108.32C152.381 108.62 152.731 108.81 153.211 108.89C153.111 109.35 152.841 109.72 152.401 110C151.981 110.3 151.491 110.45 150.931 110.45C149.311 110.45 148.501 109.53 148.501 107.69V96.05H146.371Z" fill="#F17E84"/>
<path d="M251 168L260 130.5L296 115L251 168Z" fill="#E7232D"/>
<defs>
<filter id="filter0_d_405_1800" x="219" y="44" width="111.417" height="153.167" filterUnits="userSpaceOnUse" color-interpolation-filters="sRGB">
<feFlood flood-opacity="0" result="BackgroundImageFix"/>
<feColorMatrix in="SourceAlpha" type="matrix" values="0 0 0 0 0 0 0 0 0 0 0 0 0 0 0 0 0 0 127 0" result="hardAlpha"/>
<feOffset dx="5" dy="6"/>
<feGaussianBlur stdDeviation="3.5"/>
<feComposite in2="hardAlpha" operator="out"/>
<feColorMatrix type="matrix" values="0 0 0 0 0.639216 0 0 0 0 0.666667 0 0 0 0 0.921569 0 0 0 1 0"/>
<feBlend mode="normal" in2="BackgroundImageFix" result="effect1_dropShadow_405_1800"/>
<feBlend mode="normal" in="SourceGraphic" in2="effect1_dropShadow_405_1800" result="shape"/>
</filter>
</defs>
</svg>
