<svg width="43" height="45" viewBox="0 0 43 45" fill="none" xmlns="http://www.w3.org/2000/svg">
<g clip-path="url(#clip0_242_582)">
<path d="M21.5268 7.75939C25.4333 7.75939 25.9208 7.7741 27.4535 7.84766C28.9847 7.92123 30.0272 8.16693 30.9445 8.5318C31.8934 8.90549 32.6929 9.4116 33.4923 10.2281C34.2234 10.9636 34.7891 11.8533 35.1501 12.8352C35.5052 13.7724 35.7468 14.8405 35.8187 16.4074C35.8862 17.9757 35.9049 18.4745 35.9049 22.4719C35.9049 26.4693 35.8906 26.968 35.8187 28.5364C35.7468 30.1033 35.5052 31.1699 35.1501 32.1086C34.7902 33.091 34.2243 33.9809 33.4923 34.7156C32.7733 35.4635 31.9039 36.0423 30.9445 36.412C30.0286 36.7754 28.9847 37.0226 27.4535 37.0961C25.9208 37.1653 25.4333 37.1844 21.5268 37.1844C17.6203 37.1844 17.1329 37.1697 15.6001 37.0961C14.0689 37.0226 13.0265 36.7754 12.1091 36.412C11.1491 36.0434 10.2796 35.4644 9.56133 34.7156C8.83007 33.9803 8.26433 33.0906 7.90353 32.1086C7.54696 31.1714 7.30684 30.1033 7.23495 28.5364C7.16737 26.968 7.14868 26.4693 7.14868 22.4719C7.14868 18.4745 7.16306 17.9757 7.23495 16.4074C7.30684 14.839 7.54696 13.7739 7.90353 12.8352C8.26333 11.8527 8.8292 10.9628 9.56133 10.2281C10.2798 9.47962 11.1493 8.90068 12.1091 8.5318C13.0265 8.16693 14.0674 7.92123 15.6001 7.84766C17.1329 7.77852 17.6203 7.75939 21.5268 7.75939ZM21.5268 15.1156C19.6201 15.1156 17.7916 15.8907 16.4434 17.2702C15.0952 18.6498 14.3377 20.5209 14.3377 22.4719C14.3377 24.4229 15.0952 26.294 16.4434 27.6735C17.7916 29.0531 19.6201 29.8281 21.5268 29.8281C23.4335 29.8281 25.262 29.0531 26.6102 27.6735C27.9585 26.294 28.7159 24.4229 28.7159 22.4719C28.7159 20.5209 27.9585 18.6498 26.6102 17.2702C25.262 15.8907 23.4335 15.1156 21.5268 15.1156ZM30.8726 14.7478C30.8726 14.2601 30.6832 13.7923 30.3462 13.4474C30.0091 13.1025 29.552 12.9088 29.0753 12.9088C28.5987 12.9088 28.1415 13.1025 27.8045 13.4474C27.4674 13.7923 27.2781 14.2601 27.2781 14.7478C27.2781 15.2356 27.4674 15.7033 27.8045 16.0482C28.1415 16.3931 28.5987 16.5869 29.0753 16.5869C29.552 16.5869 30.0091 16.3931 30.3462 16.0482C30.6832 15.7033 30.8726 15.2356 30.8726 14.7478ZM21.5268 18.0581C22.6708 18.0581 23.7679 18.5232 24.5769 19.3509C25.3858 20.1786 25.8402 21.3013 25.8402 22.4719C25.8402 23.6425 25.3858 24.7651 24.5769 25.5929C23.7679 26.4206 22.6708 26.8856 21.5268 26.8856C20.3828 26.8856 19.2857 26.4206 18.4767 25.5929C17.6678 24.7651 17.2134 23.6425 17.2134 22.4719C17.2134 21.3013 17.6678 20.1786 18.4767 19.3509C19.2857 18.5232 20.3828 18.0581 21.5268 18.0581Z" fill="#E7232D"/>
</g>
<defs>
<clipPath id="clip0_242_582">
<rect width="43" height="44" fill="white" transform="translate(0 0.49939)"/>
</clipPath>
</defs>
</svg>
