<svg width="337" height="93" viewBox="0 0 337 93" fill="none" xmlns="http://www.w3.org/2000/svg">
<path d="M329.016 92.6476C333.247 92.6476 336.689 89.2133 336.689 84.9915C336.689 80.8568 329.498 71.4727 329.192 71.0753L329.016 70.8483L328.84 71.0768C328.535 71.4734 321.343 80.8582 321.343 84.9922C321.343 89.2133 324.785 92.6476 329.016 92.6476Z" fill="#B8141C"/>
<path d="M284.265 92.4573C270.855 92.4573 260.127 77.4938 260.127 60.7055C260.127 44.0388 270.855 29.197 284.265 29.197C289.385 29.197 294.017 31.3868 297.918 34.9148V18.4914C294.139 14.5985 293.286 12.2871 297.918 8.51581L306.086 1.82482C307.183 0.851583 309.012 0 310.597 0C312.547 0 314.132 1.21655 314.132 5.23114V72.8709C314.132 82.8466 317.546 85.6446 317.546 88.4427C317.546 90.2675 316.448 91.2407 314.132 91.2407H301.698C298.284 91.2407 297.918 89.7809 297.918 86.6178C294.017 90.2675 289.385 92.4573 284.265 92.4573ZM278.047 60.7055C278.047 71.5327 280.485 85.6446 289.141 85.6446C292.432 85.6446 295.48 83.5765 297.918 80.4135V41.1191C295.48 38.0778 292.432 36.0097 289.141 36.0097C280.485 36.0097 278.047 49.9999 278.047 60.7055Z" fill="#B8141C"/>
<path d="M227.589 92.4573C208.815 92.4573 198.697 79.8052 198.697 60.8272C198.697 41.8491 208.815 29.1971 227.589 29.1971C246.363 29.1971 256.482 41.8491 256.482 60.8272C256.482 79.8052 246.363 92.4573 227.589 92.4573ZM216.617 60.8272C216.617 79.8052 222.469 88.4427 227.589 88.4427C232.709 88.4427 238.561 79.8052 238.561 60.8272C238.561 41.8491 232.709 33.2116 227.589 33.2116C222.469 33.2116 216.617 41.8491 216.617 60.8272Z" fill="#B8141C"/>
<path d="M175.443 49.3916C171.663 45.4987 170.81 43.1873 175.443 39.416L183.61 32.725C184.83 31.6301 186.78 30.4136 188.487 30.4136C190.194 30.4136 191.656 31.7518 191.656 36.1313V72.8709C191.656 82.8466 195.07 85.6446 195.07 88.4427C195.07 91.2407 191.656 91.2407 191.656 91.2407H175.443C172.029 91.2407 172.029 88.4427 172.029 88.4427C172.029 85.6446 175.443 82.8466 175.443 72.8709V49.3916ZM172.517 11.1922C172.517 5.10949 177.393 0 183.61 0C189.706 0 194.582 5.10949 194.582 11.1922C194.582 17.3966 189.706 22.2627 183.61 22.2627C177.393 22.2627 172.517 17.3966 172.517 11.1922Z" fill="#B8141C"/>
<path d="M119.012 48.905C119.012 43.4306 114.38 42.7007 119.012 38.9294L127.18 32.2384C128.277 31.2652 130.106 30.4136 131.691 30.4136C133.641 30.4136 135.226 31.6301 135.226 35.6447V36.253C139.371 32.1168 144.369 29.1971 150.465 29.1971C158.023 29.1971 168.385 33.9416 168.385 42.0924C168.385 45.1338 165.703 48.6617 160.949 48.6617C152.05 48.6617 152.903 35.7664 147.539 35.7664C144.125 35.7664 139.371 38.6861 135.226 43.0656V72.8709C135.226 82.8466 138.64 85.6446 138.64 88.4427C138.64 91.2407 135.226 91.2407 135.226 91.2407H119.012C116.696 91.2407 115.599 90.2675 115.599 88.4427C115.599 85.6446 119.012 82.8466 119.012 72.8709V48.905Z" fill="#B8141C"/>
<path d="M89.9654 92.4573C71.1915 92.4573 61.0731 77.4938 61.0731 59.7323C61.0731 40.7542 71.1915 29.1971 89.1121 29.1971C100.206 29.1971 111.909 34.3065 111.909 48.0535C111.909 59.9756 102.156 62.1654 91.7941 62.1654H78.9937C78.9937 81.1434 85.6986 88.4427 89.9654 88.4427C95.2075 88.4427 99.2305 82.36 101.303 76.7639C102.278 74.0875 104.351 72.9926 106.301 72.9926C109.227 72.9926 112.031 75.5473 110.934 79.0753C109.349 84.1848 101.669 92.4573 89.9654 92.4573ZM89.1121 33.2116C85.5767 33.2116 79.847 41.7274 79.1156 58.1508H86.9177C92.6474 58.1508 93.9884 52.433 93.9884 47.5669C93.9884 40.7542 92.6474 33.2116 89.1121 33.2116Z" fill="#B8141C"/>
<path d="M0 8.88043C0 7.05562 1.09718 6.08239 3.41344 6.08239H19.6273C21.334 6.08239 22.1873 6.81232 23.4064 6.81232C24.1379 6.81232 24.8693 6.69066 22.9188 7.9072C25.9665 5.96073 29.5019 4.86584 33.281 4.86584C46.691 4.86584 57.4189 18.6128 57.4189 35.4011C57.4189 52.0677 46.691 65.8146 33.281 65.8146C28.1609 65.8146 23.5283 63.8682 19.6273 60.4619V72.8706C19.6273 82.8462 23.0407 85.6443 23.0407 88.4423C23.0407 90.2672 21.9435 91.2404 19.6273 91.2404H3.41344C-3.36014e-07 91.2404 0 88.4423 0 88.4423C0 85.6443 3.41344 82.8462 3.41344 72.8706V24.4522C3.41344 14.4765 0 11.6785 0 8.88043ZM19.6273 24.4522V54.2575C22.0654 57.1772 25.1132 59.002 28.4047 59.002C37.0602 59.002 39.4984 46.1066 39.4984 35.4011C39.4984 24.5738 37.0602 11.6785 28.4047 11.6785C20.3587 11.6785 19.6273 18.1262 19.6273 24.4522Z" fill="#B8141C"/>
</svg>
