<svg width="44" height="45" viewBox="0 0 44 45" fill="none" xmlns="http://www.w3.org/2000/svg">
<path d="M22.6223 8.93704C24.1046 8.91439 25.576 8.92617 27.0465 8.91439C27.0954 10.7547 27.8415 12.411 29.0286 13.6378L29.0268 13.636C30.3044 14.7877 31.9669 15.5343 33.7996 15.6611L33.825 15.6629V20.226C32.0937 20.1825 30.4656 19.7829 28.9978 19.0961L29.0721 19.1269C28.3622 18.7853 27.7618 18.4347 27.1914 18.0432L27.2385 18.074C27.2276 21.3804 27.2493 24.6867 27.2158 27.9812C27.1226 29.6602 26.5648 31.1915 25.6702 32.47L25.6883 32.4419C24.1924 34.5857 21.7693 35.9929 19.0139 36.0762H19.0012C18.8899 36.0817 18.7586 36.0844 18.6264 36.0844C17.0599 36.0844 15.5957 35.6477 14.3479 34.8893L14.3842 34.9101C12.1132 33.5428 10.5467 31.2033 10.257 28.4823L10.2533 28.4452C10.2307 27.8788 10.2198 27.3125 10.2425 26.758C10.6862 22.4278 14.3117 19.078 18.7187 19.078C19.214 19.078 19.6994 19.1206 20.1711 19.2012L20.1204 19.194C20.1431 20.8693 20.0752 22.5456 20.0752 24.221C19.6921 24.0823 19.2503 24.0017 18.7894 24.0017C17.0979 24.0017 15.6591 25.0836 15.1267 26.594L15.1185 26.6212C14.9981 27.0081 14.9284 27.453 14.9284 27.9133C14.9284 28.0999 14.9401 28.2848 14.9619 28.466L14.9601 28.4442C15.2607 30.2981 16.8489 31.6971 18.764 31.6971C18.8192 31.6971 18.8736 31.6962 18.9279 31.6935H18.9198C20.2445 31.6536 21.3945 30.9405 22.0446 29.8867L22.0536 29.8704C22.2954 29.5334 22.4611 29.1256 22.5163 28.6825L22.5173 28.6699C22.6304 26.6429 22.5852 24.6278 22.596 22.6009C22.6069 18.0378 22.5852 13.4856 22.6187 8.93432L22.6223 8.93704Z" fill="#E7232D"/>
</svg>
