<svg width="44" height="45" viewBox="0 0 44 45" fill="none" xmlns="http://www.w3.org/2000/svg">
<path d="M40.6866 13.1007C40.4652 12.2651 40.0212 11.502 39.3998 10.8895C38.7784 10.277 38.0022 9.83686 37.1502 9.61419C31.985 9.01782 26.7857 8.74907 21.5849 8.80963C16.3842 8.74907 11.185 9.01782 6.01969 9.61419C5.16776 9.83686 4.39146 10.277 3.77015 10.8895C3.14881 11.502 2.70474 12.2651 2.48326 13.1007C1.91746 16.2066 1.64237 19.3567 1.66142 22.5115C1.64142 25.6827 1.91651 28.8491 2.48326 31.9713C2.71622 32.7934 3.16539 33.5411 3.78596 34.1402C4.4065 34.7392 5.17672 35.1683 6.01969 35.3846C11.185 35.9809 16.3842 36.2498 21.5849 36.1891C26.7857 36.2498 31.985 35.9809 37.1502 35.3846C37.9932 35.1683 38.7635 34.7392 39.3839 34.1402C40.0045 33.5411 40.4537 32.7934 40.6866 31.9713C41.2534 28.8491 41.5284 25.6827 41.5084 22.5115C41.5276 19.3567 41.2524 16.2066 40.6866 13.1007ZM17.5006 28.3385V16.7334L27.9355 22.5115L17.5006 28.3142V28.3385Z" fill="#E7232D"/>
</svg>
